<?xml version="1.0" encoding="UTF-8" standalone="no"?>
<!-- Created with Inkscape (http://www.inkscape.org/) -->

<svg
   xmlns:dc="http://purl.org/dc/elements/1.1/"
   xmlns:cc="http://creativecommons.org/ns#"
   xmlns:rdf="http://www.w3.org/1999/02/22-rdf-syntax-ns#"
   xmlns:svg="http://www.w3.org/2000/svg"
   xmlns="http://www.w3.org/2000/svg"
   version="1.1"
   width="1314"
   height="568"
   id="svg3049">
  <metadata
     id="metadata3055">
    <rdf:RDF>
      <cc:Work
         rdf:about="">
        <dc:format>image/svg+xml</dc:format>
        <dc:type
           rdf:resource="http://purl.org/dc/dcmitype/StillImage" />
        <dc:title></dc:title>
      </cc:Work>
    </rdf:RDF>
  </metadata>
  <defs
     id="defs3053" />
  <g
     id="layer2" />
  <g
     id="g3122">
    <path
       d="m 1107.9853,164.02795 c -0.9182,2.38977 -1.6926,4.837 -2.7283,7.17961 -0.6995,2.3566 -1.8581,4.46508 -2.9642,6.64212 -1.5186,3.03777 -2.8325,6.15354 -3.7719,9.41782 -0.6882,2.48687 -1.6077,4.88392 -2.5429,7.28354 -0.8902,2.97011 -1.9547,5.88583 -2.7362,8.88897 -1.0667,5.71127 -2.26,11.39864 -3.196,17.13328 -0.8226,5.11273 -2.6521,9.96465 -4.4688,14.78628 -1.8778,4.43363 -3.3944,8.97978 -4.7166,13.6033 -1.5778,5.38392 -2.4085,10.93823 -3.8281,16.35752 -1.2677,4.86219 -3.1392,9.5304 -4.7307,14.29164 -1.8401,4.56784 -3.1206,9.32468 -4.6554,13.99767 -1.9407,4.64055 -3.388,9.40611 -4.6362,14.26939 -1.0181,4.4852 -2.1162,8.95789 -2.8393,13.50274 -1.2242,5.0005 -2.5146,9.98399 -3.7564,14.98037 -0.6907,3.42524 -1.5945,6.80463 -2.1963,10.24739 -0.2198,3.18081 -0.8357,6.25071 -1.8302,9.27347 -1.1573,3.23741 -1.4579,6.665 -1.6544,10.07072 -0.052,3.68058 -0.294,7.3761 -1.0865,10.9771 -0.9028,2.57291 -1.2458,5.27205 -1.8191,7.91989 -0.4226,1.98264 -1.2429,3.83348 -1.8795,5.74798 0,0 -13.3149,6.26479 -13.3149,6.26479 l 0,0 c 0.6082,-1.90951 1.3775,-3.72967 1.9042,-5.66253 0.8069,-2.6004 0.8268,-5.40945 1.8895,-7.95495 1.0659,-3.47446 1.2437,-7.12572 1.285,-10.74121 0.1564,-3.49352 0.3304,-7.03879 1.4092,-10.39315 1.0087,-2.96535 1.8539,-5.92174 1.9976,-9.07912 0.4775,-3.52979 1.4616,-6.93926 2.1919,-10.41717 1.3929,-4.92447 2.6029,-9.88497 3.8367,-14.85039 0.7069,-4.60076 1.8091,-9.11461 2.8145,-13.65693 1.3223,-4.86077 2.5261,-9.73696 4.5994,-14.35735 1.6008,-4.65491 2.749,-9.44417 4.6503,-13.99239 1.5922,-4.76559 3.4504,-9.42831 4.8461,-14.2544 1.513,-5.38753 2.3298,-10.92681 3.7365,-16.34391 1.3775,-4.63629 2.6654,-9.29115 4.6905,-13.70608 1.7576,-4.79821 3.729,-9.5486 4.7015,-14.59215 0.9617,-5.72092 2.0881,-11.41246 2.9983,-17.1414 0.6325,-3.05645 1.6581,-5.95305 2.4037,-8.9746 0.965,-2.37119 1.9518,-4.71498 2.6864,-7.17282 0.8863,-3.33843 2.2604,-6.48104 3.605,-9.65167 1.0723,-2.19952 2.4875,-4.1537 2.9486,-6.61171 1.1458,-2.20758 1.8612,-4.56283 2.7757,-6.87147 0,0 13.3813,-6.41019 13.3813,-6.41019 z"
       id="path3184"
       style="fill:#000000;stroke:#000000" />
    <path
       d="m 1116.9957,190.1747 c 1.1165,4.76418 2.3147,9.51097 3.5509,14.24687 2.2837,6.88197 4.5412,13.77002 6.3915,20.78312 1.6971,7.55876 2.5439,15.27084 3.8175,22.91022 1.1612,7.83268 2.9673,15.50965 5.0024,23.15209 2.2316,7.1019 3.7988,14.36131 5.5558,21.58587 2.2591,7.7332 5.5832,15.10253 8.6995,22.51996 2.7674,7.59179 5.9999,15.01581 9.2988,22.39174 3.152,6.58945 6.053,13.29632 9.5302,19.72195 2.8354,5.12446 6.0471,9.90858 10.2775,13.96996 4.7938,4.74601 10.5932,7.89425 16.9885,9.85567 4.4872,1.06306 9.3524,2.02529 13.6407,-0.12694 5.7509,-3.58249 -4.0378,2.55921 -9.4481,4.926 -0.6528,0.28558 0.9039,-1.10177 1.3558,-1.65266 0,0 13.3322,-5.73157 13.3322,-5.73157 l 0,0 c -4.001,5.62021 -10.5756,8.57738 -16.7539,11.49651 -4.6342,1.33454 -9.371,0.37873 -13.9336,-0.88666 -6.4882,-2.21801 -12.4142,-5.58898 -17.3843,-10.37438 -4.3081,-4.19494 -7.6523,-9.05918 -10.4605,-14.37689 -3.4465,-6.48726 -6.2351,-13.28698 -9.3866,-19.92102 -3.2953,-7.3885 -6.6705,-14.76394 -9.3755,-22.39095 -3.0866,-7.50748 -6.4208,-14.93692 -8.84,-22.69178 -1.769,-7.21364 -3.32,-14.47351 -5.5355,-21.5715 -1.9682,-7.69956 -3.8446,-15.40272 -5.0552,-23.26736 -1.2771,-7.6018 -2.1247,-15.26809 -3.7272,-22.80726 -1.8792,-6.9909 -4.2118,-13.84284 -6.5156,-20.70238 -1.3508,-4.66772 -2.4956,-9.40816 -4.0766,-14.00075 0,0 13.0513,-7.05786 13.0513,-7.05786 z"
       id="path3186"
       style="fill:#000000;stroke:#000000" />
    <path
       d="m 1077.2957,293.04973 c 5.3359,0.33188 10.6618,-0.0747 15.9583,-0.71151 8.2547,-1.47596 16.4593,-3.13704 24.7907,-4.14706 5.6856,-0.6399 11.4008,-0.85879 17.1171,-0.95633 1.7902,0.11079 3.6158,-0.18478 5.4041,-0.0443 1.3454,0.10567 2.0736,0.47201 3.3421,-0.0669 3.8701,-4.72333 -17.1269,5.75872 -11.9066,6.91807 0,0 13.4392,-6.52842 13.4392,-6.52842 l 0,0 c 0.7545,5.50052 -8.059,8.18179 -13.3411,8.53407 -2.8815,-0.002 -5.7687,-0.52697 -8.6651,-0.26884 -5.5838,0.0489 -11.1715,0.23753 -16.7249,0.86006 -8.3431,1.02201 -16.548,2.74658 -24.8265,4.16304 -5.5181,0.61429 -11.041,0.97219 -16.595,0.97222 0,0 12.0077,-8.72407 12.0077,-8.72407 z"
       id="path3188"
       style="fill:#000000;stroke:#000000" />
    <path
       d="m 109.75332,75.791582 c 2.84423,8.816744 4.63448,17.924119 6.56294,26.971678 2.91002,17.65218 5.22734,35.3823 8.18352,53.02895 3.54799,19.59019 8.2358,38.94833 12.91831,58.29118 3.79031,15.29672 9.13259,30.10875 15.1029,44.66973 6.02345,13.18757 10.7248,26.92151 14.93607,40.77844 4.00635,12.84563 7.67426,25.80459 10.11169,39.04529 1.19612,10.48499 2.76368,20.8797 5.20805,31.14722 0.88322,2.03719 1.4527,9.69216 3.41398,10.98072 0.14429,0.0948 0.34523,0.006 0.51784,0.009 5.75521,-0.57693 12.35584,-5.88718 -8.07561,5.65676 3.09966,-2.52593 4.73551,-6.44759 6.36561,-9.99381 1.77218,-3.85531 3.10039,-7.20475 4.72673,-11.15427 6.18448,-14.83596 10.94823,-30.19274 15.74154,-45.51583 5.22437,-18.10497 10.22525,-36.27224 15.79519,-54.27568 4.87404,-13.67785 7.82919,-27.82842 10.38571,-42.08042 1.99674,-11.60266 2.99784,-23.33189 2.74192,-35.09762 -0.6985,-9.68567 -2.18143,-19.30498 -3.81441,-28.87181 -1.29137,-5.27996 -1.39643,-11.32549 -4.07549,-16.20025 0.91233,5.78708 -0.3506,0.17104 12.17596,-5.43154 0.52195,-0.23344 -0.49841,1.0303 -0.70991,1.56151 -0.27967,0.70242 -0.50373,1.42575 -0.76233,2.13619 -1.41267,3.8811 -0.33946,0.76325 -1.73072,4.92595 -2.45917,7.16846 -4.27499,14.53022 -6.1285,21.8722 -3.506,13.72637 -4.95145,27.88374 -5.80645,41.99138 -0.41177,16.10996 -0.71151,32.2738 0.24858,48.36869 0.65587,13.23686 2.77247,26.27394 6.49393,38.98151 3.14409,10.10072 8.412,19.31918 12.87216,28.8607 4.05847,9.55093 6.65533,19.59339 9.25534,29.60872 1.87649,6.93376 2.90287,14.07768 4.81076,21.00008 2.5331,8.53895 4.6138,1.0177 -11.19503,10.55027 2.8637,-6.99015 5.74076,-13.9771 8.52379,-21.00112 7.80998,-20.05374 12.9846,-40.97002 18.15837,-61.81549 11.45586,-46.15637 -0.56737,1.49119 11.35487,-45.50267 10.0609,-38.55142 21.20544,-76.80712 31.33223,-115.34155 3.85173,-15.24364 7.83306,-30.51702 10.08599,-46.098214 0.49275,-4.645366 0.31812,-2.398801 0.54945,-6.737659 0,0 12.76975,-6.404079 12.76975,-6.404079 l 0,0 c -0.33173,4.463349 -0.13454,2.154518 -0.6028,6.925522 -3.02943,16.04155 -8.29542,31.58473 -12.39989,47.36045 -11.06409,38.68584 -22.93466,77.15057 -33.00296,116.1136 -1.90007,7.65601 -3.87218,15.29451 -5.70022,22.96804 -6.59984,27.70405 -11.61051,55.85748 -20.55803,82.95005 -2.32244,6.77571 -4.87212,13.48274 -6.95436,20.33405 -12.4157,7.92579 -12.5814,12.44917 -15.06963,2.57642 -1.63497,-7.03933 -2.54902,-14.24121 -4.33587,-21.25158 -2.5323,-9.95161 -4.9723,-19.96129 -9.03706,-29.43096 -4.54711,-9.58582 -9.86549,-18.8874 -12.81774,-29.14078 -3.65031,-12.84282 -5.83245,-25.99853 -6.44288,-39.35231 -0.85888,-16.19624 -0.20724,-32.4388 -0.0178,-48.6476 0.61771,-14.02876 1.81917,-28.11829 4.9353,-41.83887 1.66286,-7.30952 3.33864,-14.63052 5.67007,-21.76138 1.70201,-5.79476 6.58653,-24.68128 16.93809,-16.5836 1.88642,5.44847 2.32932,11.34024 3.40966,16.96642 1.52201,9.64107 3.42336,19.26131 3.99575,29.01345 0.0325,11.92056 -1.1071,23.777 -3.05043,35.54052 -2.54883,14.38885 -5.58927,28.65697 -10.67064,42.40667 -5.76381,17.97147 -10.95649,36.10749 -15.90707,54.31885 -4.61678,15.25823 -9.19621,30.54593 -15.14423,45.35509 -1.94719,5.04799 -3.82419,10.12856 -6.03805,15.06824 -0.58646,1.30855 -1.7126,3.78611 -2.59535,5.09711 -0.30683,0.45569 -0.71227,0.83658 -1.06841,1.25487 -4.63473,2.72284 -11.34841,9.88123 -18.00746,7.90567 -3.28607,-2.55359 -2.63187,-8.87715 -3.89338,-12.49505 -2.16321,-10.37396 -3.8598,-20.80807 -4.94822,-31.35543 -2.25796,-13.24955 -5.62753,-26.2644 -9.74785,-39.05782 -4.20029,-13.82116 -8.93268,-27.49307 -14.86468,-40.67855 -5.92192,-14.67168 -11.27014,-29.59113 -14.88506,-45.02097 -4.48852,-19.44582 -8.96548,-38.9066 -12.65711,-58.52207 -3.05835,-17.5016 -5.72974,-35.06392 -8.99423,-52.52733 -1.99689,-8.87548 -3.78373,-17.940736 -7.502822,-26.289324 0,0 12.920652,-7.115964 12.920652,-7.115964 z"
       id="path3208"
       style="fill:#000000;stroke:#000000" />
    <path
       d="m 290.6578,352.70451 c 4.84219,-6.25719 10.0074,-12.26692 14.86531,-18.51879 10.56988,-14.51763 20.26412,-29.64968 30.25432,-44.56855 11.72384,-18.29792 21.42876,-37.76855 32.5256,-56.44059 6.20896,-10.5089 12.96019,-20.6849 19.97708,-30.66755 1.1357,-1.96603 3.36928,-3.71282 3.12644,-6.15675 -0.32284,-1.68261 -0.47271,-3.39979 -1.1196,-4.99603 -1.89478,-4.8505 -1.58121,-10.14655 -1.34094,-15.24037 0.27641,-7.87803 1.71695,-15.62352 3.27156,-23.3283 1.56415,-7.23095 0.15422,-3.77299 14.17442,-8.91174 0.13751,-0.0504 0.14562,0.73768 0.19827,2.171 -0.10319,10.66245 -0.99259,21.28325 -1.96175,31.8948 -1.95944,21.36284 -6.11443,42.43168 -9.28434,63.62963 -2.06134,15.07649 -3.75645,30.33686 -2.55766,45.5693 0.19744,2.50872 0.58004,4.99942 0.87006,7.49912 1.35325,11.8887 5.7673,22.92678 10.87756,33.62417 2.8303,5.3861 5.72076,10.75315 9.15711,15.78061 3.09834,4.39033 7.86718,7.12703 12.80427,8.98664 0.89321,0.23821 1.77065,0.5463 2.67963,0.71462 1.90724,0.35318 3.76503,0.4335 5.6709,-0.0372 1.04227,-0.25743 3.93719,-1.68524 3.01209,-1.14047 -11.66263,6.86775 -10.97874,6.88357 -6.53374,1.59423 0.68756,-1.16021 1.37512,-2.32041 2.06269,-3.48062 0,0 12.85851,-5.73225 12.85851,-5.73225 l 0,0 c -0.67165,1.21988 -1.3433,2.43975 -2.01495,3.65963 -0.80884,1.18098 -1.26484,2.70662 -2.42653,3.54293 -5.49719,3.95747 -13.61432,10.63075 -21.62005,10.17246 -2.19178,-0.12546 -3.54717,-0.66586 -5.62351,-1.29001 -5.13905,-2.12065 -10.06203,-5.06717 -13.33946,-9.67748 -3.3989,-5.15436 -6.18869,-10.65112 -8.83262,-16.22528 -4.92905,-10.9711 -9.21175,-22.26892 -10.50854,-34.32635 -0.27058,-2.54563 -0.63673,-5.08291 -0.81172,-7.63689 -1.05621,-15.41508 0.74806,-30.84177 3.00117,-46.06631 3.29286,-21.04741 7.32687,-42.02785 8.83798,-63.30577 0.7091,-10.31935 1.3098,-20.65948 0.58262,-30.99813 -0.37649,-6.59713 -0.95034,-1.0391 13.09601,-8.72601 0.11799,-0.0646 -0.30966,-0.11029 -0.40329,-0.0137 -0.33706,0.34764 -0.88703,2.36016 -0.92069,2.4669 -2.1212,7.58455 -3.63158,15.3773 -3.7972,23.27189 -0.1399,4.8621 -0.25256,9.78795 1.7528,14.33138 0.69339,1.71569 0.94721,3.47864 1.28359,5.29409 0.71677,3.5552 -1.08067,4.63189 -3.13122,7.42337 -7.59334,10.09272 -14.96419,20.36364 -21.48309,31.19693 -11.2704,18.57359 -20.94802,38.03819 -32.44793,56.47215 -9.82103,14.78374 -19.33027,29.77741 -29.49692,44.32589 -3.20005,4.33647 -6.58864,8.48829 -9.85522,12.76959 -1.05147,1.37809 -1.94287,2.87962 -3.06341,4.20216 -0.25036,0.29549 -0.57329,0.52087 -0.85993,0.78131 0,0 -13.50568,6.1104 -13.50568,6.1104 z"
       id="path3210"
       style="fill:#000000;stroke:#000000" />
    <path
       d="m 356.87964,289.59398 c 7.43023,-2.12612 14.78973,-4.49071 22.2198,-6.61273 8.78649,-2.36236 17.45457,-5.12686 26.22251,-7.5534 2.41935,-0.64694 4.76019,-1.53612 7.09898,-2.42106 0,0 -11.43234,8.93091 -11.43234,8.93091 l 0,0 c -2.31853,0.80684 -4.63899,1.6174 -7.02561,2.20567 -8.65721,2.23402 -17.18857,4.9169 -25.81132,7.27799 -7.67261,2.29613 -15.33133,4.66444 -22.92041,7.22221 0,0 11.64839,-9.04959 11.64839,-9.04959 z"
       id="path3212"
       style="fill:#000000;stroke:#000000" />
    <path
       d="m 497.77118,139.04878 c -0.23495,5.70839 -0.23697,11.42402 -0.30517,17.13622 0.0556,9.3464 -0.36917,18.68928 -1.13103,28.00269 -1.09323,10.62585 -1.27317,21.31158 -2.31137,31.93961 -1.07101,9.8539 -2.0617,19.71914 -2.92081,29.59412 -0.5836,7.50459 -1.21266,15.0176 -2.09912,22.49376 -0.99186,7.76194 -1.84433,15.53919 -2.75401,23.3108 -1.47252,10.09069 -4.03041,19.9979 -6.51463,29.87943 -2.22255,8.97242 -4.83204,17.84581 -7.88713,26.56955 -1.40054,4.20623 -2.83748,8.37899 -4.94354,12.29025 -2.1251,3.00133 -3.53737,6.37049 -4.63899,9.85825 0,0 -13.18898,6.22309 -13.18898,6.22309 l 0,0 c 1.1002,-3.53696 2.24585,-7.12341 4.45234,-10.14952 2.47624,-3.75037 3.83108,-8.05836 5.43802,-12.22309 3.36996,-8.66997 6.09867,-17.57445 8.32384,-26.60593 2.42108,-9.80434 5.00311,-19.61725 6.40749,-29.62789 0.88534,-7.72984 1.5526,-15.48342 2.51086,-23.20535 0.99203,-7.50774 1.73674,-15.06033 2.43038,-22.60033 0.88393,-9.89578 1.88506,-19.78272 2.98829,-29.65587 1.22237,-10.59428 1.25908,-21.26282 2.26688,-31.87876 0.74734,-9.24755 1.23835,-18.52516 0.99244,-27.80545 -0.0678,-5.60851 -0.0674,-11.22073 -0.30518,-16.82524 0,0 13.18942,-6.72034 13.18942,-6.72034 z"
       id="path3214"
       style="fill:#000000;stroke:#000000" />
    <path
       d="m 504.23903,260.01175 c 7.75197,-1.38295 15.38389,-3.28873 23.04646,-5.08845 8.1827,-2.27711 16.55459,-3.38773 25.02831,-3.52252 3.48994,-0.3487 8.64995,1.39708 11.44061,-1.04831 0,0 -11.51077,9.31892 -11.51077,9.31892 l 0,0 c -3.65064,1.21524 -7.66035,-0.34082 -11.4092,0.0956 -8.37638,0.11397 -16.60628,1.45484 -24.6925,3.65555 -7.81762,1.8681 -15.71082,3.48715 -23.4488,5.62794 0,0 11.54589,-9.0387 11.54589,-9.0387 z"
       id="path3216"
       style="fill:#000000;stroke:#000000" />
    <path
       d="m 599.04809,136.23667 c -2.05373,4.27336 -4.06556,8.57322 -6.05056,12.88113 -6.21133,13.56927 -11.11416,27.65184 -15.32512,41.95157 -4.41502,15.72763 -9.00862,31.40683 -13.37463,47.14756 -2.98266,10.60983 -6.41592,21.10383 -8.83685,31.86151 -1.98846,8.88707 -1.90102,17.95059 -1.52718,26.98677 0.35751,7.3431 0.53055,14.69801 1.79269,21.95223 1.35684,7.27836 2.89598,14.51907 4.40829,21.76611 0.86709,5.97221 1.90114,11.81497 4.09484,17.45076 1.75083,4.24628 3.18819,7.40087 7.1331,9.97048 6.62324,3.00856 14.36936,3.73981 21.43704,1.83322 1.95272,-0.52677 3.79773,-1.39272 5.69659,-2.08909 -7.62074,3.83174 -7.24669,4.08408 -0.19448,-1.33956 0,0 12.49957,-5.00052 12.49957,-5.00052 l 0,0 c -10.74585,8.55186 -3.42077,3.13053 -23.04559,14.70811 -1.98879,0.65939 -3.9284,1.49162 -5.96638,1.97816 -7.47827,1.78532 -15.66944,0.85989 -22.6223,-2.29577 -4.15474,-2.92072 -5.79853,-6.06036 -7.50682,-10.75894 -2.24909,-5.72906 -3.26153,-11.66619 -4.04732,-17.7555 -1.45315,-7.26888 -2.99775,-14.5187 -4.40989,-21.79572 -1.42961,-7.32963 -1.48255,-14.77474 -1.71975,-22.22071 -0.31419,-9.13896 -0.58947,-18.31817 1.37324,-27.32197 2.54884,-10.89679 6.15493,-21.49567 9.3918,-32.20117 4.51145,-15.77675 9.22846,-31.49587 13.66387,-47.29577 4.03138,-14.14725 8.66213,-28.10871 14.34977,-41.68673 1.71871,-4.22204 3.53726,-8.40698 5.28038,-12.61577 0,0 13.50569,-6.11039 13.50569,-6.11039 z"
       id="path3218"
       style="fill:#000000;stroke:#000000" />
    <path
       d="m 591.82787,217.88412 c -0.31529,-2.7775 -1.309,-5.39055 -1.95227,-8.09611 -0.52715,-3.42608 -0.65405,-6.90732 -0.82026,-10.36771 0.12427,-1.86759 0.50481,-3.81075 1.38368,-5.47818 0.81204,-1.58389 1.81571,-3.05658 2.76722,-4.55872 2.57558,-3.9516 5.39946,-7.74869 8.70104,-11.12194 7.68593,-7.25574 17.61695,-11.41675 26.91147,-16.22619 5.25391,-2.55616 10.32674,-5.56916 15.84722,-7.53066 4.60835,-2.13528 9.74524,-2.01199 14.69943,-2.4534 7.68872,-0.69511 15.39553,-1.13641 23.11221,-1.33678 9.56078,0.12412 19.09918,-0.23357 28.64463,-0.73299 10.45272,-0.84763 20.81213,-2.53329 31.17174,-4.11747 9.61814,-1.65382 19.14153,-3.78468 28.62471,-6.07805 4.92768,-0.89951 9.77331,-2.17212 14.61921,-3.42451 0,0 -11.06504,8.46396 -11.06504,8.46396 l 0,0 c -4.86197,1.19148 -9.71962,2.40798 -14.62473,3.41304 -9.44191,2.2924 -18.94767,4.32535 -28.54353,5.86796 -10.41703,1.59928 -20.83134,3.3899 -31.35939,4.0797 -9.639,0.44152 -19.27426,0.82381 -28.9244,0.90119 -7.69603,0.2301 -15.39217,0.57901 -23.05042,1.41191 -5.01964,0.52217 -10.09989,0.81228 -14.75443,2.96554 -5.33828,2.08906 -10.36395,4.90747 -15.48748,7.45931 -4.42123,2.24125 -16.12491,8.6021 3.47425,-2.62353 0.60264,-0.34517 -1.76857,1.00622 -4.10936,2.87625 -0.63343,0.50604 -1.23136,1.05496 -1.84705,1.58243 -3.39001,3.12731 -6.10405,6.81338 -8.61254,10.67336 -0.86004,1.51695 -1.75351,2.9736 -2.67294,4.44563 -0.24202,0.43408 -0.60951,0.79417 -0.82445,1.24227 -0.52677,1.09823 -0.50823,2.47156 -0.99578,3.5916 0.006,3.37888 0.0656,6.78092 0.66069,10.11578 0.60401,2.69376 1.56667,5.28352 2.07783,7.99845 0,0 -13.05126,7.05786 -13.05126,7.05786 z"
       id="path3220"
       style="fill:#000000;stroke:#000000" />
    <path
       d="m 697.78875,159.45215 c -0.67029,8.56969 -2.14029,17.06759 -3.32091,25.58119 -1.95158,14.2573 -4.01636,28.49298 -6.33132,42.69633 -2.20494,13.7082 -5.10238,27.28588 -6.90574,41.05659 -1.27303,8.00964 -0.99938,16.06405 -0.49053,24.1138 0.407,4.98275 0.57876,9.97701 0.64246,14.97434 0.17022,6.1409 -0.15559,12.25777 -0.63466,18.37627 -0.26474,5.13702 -0.66604,10.24277 -1.33586,15.3423 -0.39843,3.62655 -1.02233,7.25042 -2.15257,10.72413 -2.37636,7.61356 -4.10711,5.38726 -14.86908,11.6043 0,0 11.62957,-9.23038 11.62957,-9.23038 l 0,0 c -4.02029,2.37382 -8.06841,4.70113 -12.06087,7.12145 -0.22438,0.13602 0.54384,-0.0893 0.74287,-0.26024 0.84969,-0.7299 0.65814,-2.13703 1.26517,-3.00948 1.24075,-3.39965 2.08038,-6.92814 2.44689,-10.53923 0.67006,-5.1088 1.32241,-10.19741 1.51935,-15.35532 0.52157,-6.06108 0.9429,-12.10943 0.59243,-18.19813 -0.0895,-4.99719 -0.23694,-9.99293 -0.49958,-14.98436 -0.3795,-8.2285 -0.50299,-16.46213 0.89245,-24.62114 2.07254,-13.829 5.11472,-27.47048 7.30427,-41.28001 2.20415,-14.15085 4.26379,-28.32055 6.07524,-42.52753 0.99953,-8.23467 2.35432,-16.54277 2.26586,-24.84663 0,0 13.22456,-6.73825 13.22456,-6.73825 z"
       id="path3222"
       style="fill:#000000;stroke:#000000" />
    <path
       d="m 775.4767,177.54056 c -2.20608,7.38457 -3.02181,15.14112 -4.26381,22.73545 -1.77166,10.97436 -3.21473,21.99161 -4.51265,33.03076 -1.14978,10.76862 -2.15082,21.54133 -2.71007,32.35754 -0.76698,10.11108 -1.73973,20.22978 -3.27149,30.25693 -1.15745,8.27396 -3.00861,16.42571 -4.38017,24.66207 -0.89241,6.5219 -1.31126,13.10421 -2.35263,19.6065 -0.68224,2.7903 -1.0279,5.66054 -1.69684,8.45068 -0.2256,0.33457 -1.19963,3.65608 -1.09946,1.93285 3.74481,-0.0271 7.49431,0.0176 11.2401,0.0595 11.21506,0.22905 22.39326,-0.89541 33.57175,-1.61761 11.60684,-0.69272 23.07642,-2.67983 34.54249,-4.51668 3.18862,-0.40469 6.32877,-0.88112 9.40306,-1.82147 0,0 -11.63099,8.91934 -11.63099,8.91934 l 0,0 c -2.98207,0.66416 -6.00695,0.97279 -9.03763,1.34194 -11.37832,1.52883 -22.71992,3.42885 -34.19334,4.12058 -11.38545,0.79458 -22.76566,1.83746 -34.18551,1.96069 -3.98597,0.0854 -8.06457,0.41323 -12.0205,-0.081 -1.82799,-1.68314 -0.8765,-2.0421 -0.0165,-4.05257 1.37073,-2.46987 0.98903,-5.78488 2.12717,-8.37989 1.43592,-6.47584 1.77272,-13.14558 2.64667,-19.70886 1.3397,-8.28496 3.37676,-16.44101 4.58164,-24.75081 1.62345,-9.9924 2.61867,-20.08675 3.43404,-30.17371 0.53442,-10.85456 1.58842,-21.65788 2.7294,-32.46369 1.21175,-11.06164 2.78303,-22.06987 4.45952,-33.06873 1.11851,-7.52497 1.94504,-15.09048 3.21402,-22.59241 0,0 13.42174,-6.20736 13.42174,-6.20736 z"
       id="path3230"
       style="fill:#000000;stroke:#000000" />
    <path
       d="m 781.59687,253.02366 c 6.6994,-1.62631 13.32188,-3.5557 20.00638,-5.24896 10.22973,-2.70886 20.72842,-4.0823 31.13349,-5.90711 3.76244,-0.31456 7.21884,-1.62454 10.76333,-2.77121 0,0 -11.68504,9.05178 -11.68504,9.05178 l 0,0 c -3.38798,1.05641 -6.79237,1.87251 -10.34698,2.19301 -10.34485,1.61372 -20.75741,2.9715 -30.85193,5.85324 -6.95741,1.87102 -13.86603,3.9078 -20.80573,5.84188 0,0 11.78648,-9.01263 11.78648,-9.01263 z"
       id="path3232"
       style="fill:#000000;stroke:#000000" />
    <path
       d="m 790.4204,172.14131 c 9.11061,-1.14926 18.23829,-2.51752 27.30188,-4.07876 11.94467,-2.30488 23.92931,-4.38881 35.98668,-6.00802 4.6718,-1.01118 9.63481,-0.45523 14.29647,-1.46243 -4.21826,2.59898 -8.43653,5.19796 -12.65479,7.79694 0,0 12.9118,-7.44886 12.9118,-7.44886 l 0,0 c -4.07986,2.84058 -8.15972,5.68115 -12.23958,8.52172 -4.47522,-0.34126 -9.0138,0.74135 -13.46556,0.91311 -11.95374,1.44368 -23.80349,3.56611 -35.62961,5.81523 -9.436,1.62614 -18.92,2.99728 -28.29377,4.9637 0,0 11.78648,-9.01263 11.78648,-9.01263 z"
       id="path3234"
       style="fill:#000000;stroke:#000000" />
    <path
       d="m 908.08286,159.45215 c 1.14941,9.26983 1.43305,18.61305 1.95128,27.93192 1.17072,16.68695 0.17495,33.40624 -0.82012,50.07173 -1.06475,14.02571 -2.79388,27.98375 -3.72891,42.02084 -0.44873,7.16293 -0.57713,14.34004 -0.54502,21.51528 0.0243,3.58553 0.10303,7.1706 0.0884,10.75628 0.003,3.59294 -0.009,7.18569 0.005,10.77865 0.22466,3.42969 0.82463,6.82022 1.209,10.23378 0.22949,1.88376 0.33863,3.78046 0.36185,5.67739 0.0263,1.62459 -0.009,3.24935 0.003,4.87416 0.052,1.71616 0.0373,3.41421 -0.3576,5.09003 -0.32948,1.98597 -1.17146,3.79973 -1.83482,5.67987 -0.29563,1.47154 -1.00985,2.789 -1.63086,4.1392 0,0 -13.5652,6.1483 -13.5652,6.1483 l 0,0 c 0.67491,-1.29122 1.46527,-2.57567 1.84205,-3.96745 0.49169,-1.93697 1.57999,-3.62313 1.8508,-5.62516 0.4534,-1.58703 0.59313,-3.07805 0.48857,-4.73881 0.0192,-1.61937 -0.002,-3.23855 0.007,-4.85791 -0.0177,-1.87584 -0.0273,-3.75279 -0.18308,-5.6239 -0.29678,-3.47959 -0.78694,-6.93344 -1.20056,-10.40004 0.0112,-3.58867 -0.004,-7.17705 -0.022,-10.76566 -0.0374,-3.61903 -0.002,-7.23858 0.068,-10.85706 0.17502,-7.3126 0.48433,-14.62247 1.11882,-21.91155 1.25587,-14.11798 3.15161,-28.16533 4.31499,-42.29062 1.06417,-16.55462 2.10328,-33.18963 0.57137,-49.75376 -0.706,-9.14238 -0.85436,-18.48049 -3.21683,-27.38726 0,0 13.22455,-6.73825 13.22455,-6.73825 z"
       id="path3236"
       style="fill:#000000;stroke:#000000" />
    <path
       d="m 910.16595,165.71866 c 10.4873,-7.23639 21.65319,-10.60331 33.68541,-13.74449 4.8219,-0.90071 9.70777,-2.3429 14.64958,-2.47554 1.77314,-0.0476 3.90983,0.32208 5.66178,0.56738 4.6488,0.69995 9.17801,2.01483 13.68544,3.31827 3.66775,0.79979 6.94144,2.65579 10.14947,4.53085 4.10786,2.31143 7.00013,5.8229 10.06556,9.29643 3.15511,3.88579 6.30301,7.77582 9.16951,11.8814 2.8745,4.01521 5.0863,8.43819 7.729,12.60064 2.1006,3.4406 3.4998,7.21705 4.8279,11.00209 1.3514,3.30734 0.7848,6.42555 -0.2443,9.71676 -1.6843,4.37373 -4.2758,8.31776 -6.8069,12.23645 -2.9937,4.48818 -6.0434,8.92883 -9.0026,13.44126 -2.5796,3.68839 -4.89277,7.60658 -7.8479,11.01143 -7.89365,6.8239 -17.56594,11.31063 -26.94079,15.80776 -5.22442,3.10694 -10.98603,5.06479 -16.46191,7.63141 -6.86576,3.1242 -14.00388,5.55212 -21.24576,7.64007 -8.66176,2.36021 -17.35587,4.38139 -26.26414,5.51353 -4.80507,0.58064 -9.75706,0.80164 -14.46867,-0.58873 -3.10466,-0.91617 -7.09483,-3.03884 -9.9956,-4.47442 0,0 11.54779,-7.60513 11.54779,-7.60513 l 0,0 c 3.56803,1.76403 5.86601,3.12972 9.79487,4.10967 4.69592,1.17128 9.57098,0.78019 14.30664,0.20333 8.86296,-1.23886 17.53155,-3.3386 26.15907,-5.70367 7.30746,-2.19762 14.48673,-4.80621 21.41291,-8.02239 5.50839,-2.42143 11.10117,-4.64775 16.36391,-7.59699 0.98969,-0.4814 1.98249,-0.95646 2.96908,-1.4442 0.96227,-0.47571 3.78723,-2.01567 2.87736,-1.4461 -3.14207,1.96693 -6.40502,3.73424 -9.58247,5.64348 -1.47473,0.88612 3.01859,-1.67125 4.4051,-2.68988 0.58881,-0.43258 1.14194,-0.91174 1.7129,-1.36761 3.19411,-3.18654 5.40679,-7.21323 8.0547,-10.84284 3.01149,-4.46849 5.95099,-8.97333 8.98782,-13.42307 2.51159,-3.79067 5.01189,-7.64565 6.80579,-11.83678 1.102,-2.9594 1.8215,-5.77519 0.636,-8.83617 -1.2326,-3.70538 -2.4061,-7.46629 -4.4645,-10.81849 -2.6054,-4.16106 -4.9195,-8.50191 -7.74399,-12.52499 -2.7741,-4.09703 -5.92236,-7.92044 -9.06189,-11.74047 -2.98435,-3.36545 -5.8621,-6.70854 -9.92857,-8.82609 -3.15584,-1.78539 -6.35892,-3.4458 -9.92154,-4.26866 -4.41067,-1.31315 -8.85919,-2.60123 -13.43035,-3.21583 -6.76917,-0.77299 -13.0985,0.51578 -19.67938,2.12125 -4.30598,1.14928 -8.61591,2.31618 -12.83101,3.77361 -1.22787,0.42455 -2.43385,0.91001 -3.64736,1.37401 -1.00324,0.38359 -3.89023,1.77382 -3.0028,1.16874 3.43448,-2.34178 7.12997,-4.27572 10.69496,-6.41358 0,0 -13.78012,5.3163 -13.78012,5.3163 z"
       id="path3240"
       style="fill:#000000;stroke:#000000" />
    <path
       d="m 921.73892,248.9201 c 4.02204,7.59146 9.45959,14.18118 15.06464,20.63423 8.28601,8.79388 15.63268,18.3467 22.94851,27.93923 7.88791,9.81268 17.48063,18.07908 26.98796,26.26902 5.23292,4.54787 10.34307,9.24784 16.23957,12.94684 3.6078,2.26327 5.4125,3.04097 9.2227,4.93275 6.4784,2.89237 13.1205,5.78897 20.0913,7.27035 1.4894,-0.40242 0.8623,-0.0715 1.9318,-0.89084 0,0 -11.6149,9.15912 -11.6149,9.15912 l 0,0 c -1.4213,0.20989 -0.6459,0.1772 -2.3284,0.003 -6.7464,-2.06733 -13.2358,-4.9825 -19.623,-7.94819 -3.80499,-1.92571 -5.73824,-2.79116 -9.35263,-5.0733 -5.91911,-3.73736 -11.00072,-8.50744 -16.17651,-13.17671 -9.45721,-8.37502 -19.08952,-16.71016 -27.12327,-26.5025 -7.36954,-9.50663 -14.50681,-19.19411 -22.87882,-27.87284 -5.75063,-6.40475 -11.28142,-12.94128 -16.04776,-20.12406 0,0 12.65881,-7.56593 12.65881,-7.56593 z"
       id="path3242"
       style="fill:#000000;stroke:#000000" />
    <path
       d="m 828.50137,426.84609 c -1.40439,-3.42216 -2.9615,-6.78741 -4.46542,-10.17442 -1.76399,-3.98801 -3.487,-8.04911 -3.23539,-12.47095 0.79253,-4.14963 3.25248,-7.58192 6.00711,-10.67237 11.30158,-9.47419 13.43388,-10.79228 23.81196,-7.01106 6.51182,2.65846 13.24222,4.7002 19.83362,7.14563 5.42256,1.85024 10.72792,4.05817 16.26771,5.54157 4.86262,1.51792 9.82066,2.52512 14.89997,1.86448 0.78269,-0.20163 1.57867,-0.35734 2.34808,-0.60489 1.73893,-0.55949 2.75021,-1.09255 4.34681,-1.95664 0.71663,-0.38785 2.83512,-1.60805 2.12719,-1.20453 -10.98964,6.26407 -13.36491,8.27823 -8.44094,4.40684 2.3192,-2.01005 4.34088,-4.36002 6.20691,-6.79217 1.44222,-1.82322 1.33589,-3.7994 0.96381,-5.98757 -0.8447,-4.45679 -1.59918,-8.90609 -2.74304,-13.29954 -0.12824,-0.38621 -0.22222,-0.78553 -0.38471,-1.15862 -0.0225,-0.0516 -0.50506,-0.92563 -0.75709,-0.93081 -0.114,-0.002 -0.25734,0.3563 -0.15572,0.30458 10.79346,-5.49245 16.71446,-9.20219 11.98668,-6.25616 -1.59396,3.55263 -3.01603,7.15555 -5.00502,10.53584 -3.74619,5.56844 -6.74734,11.57204 -9.78861,17.53884 -3.68247,7.16328 -5.95908,14.92868 -7.65675,22.77154 -1.2933,5.53864 -1.40834,10.41222 -0.47667,15.97546 0.88722,5.52447 1.82516,11.03382 3.10958,16.4808 1.86032,6.98399 2.43561,14.19611 2.84981,21.38294 0.49479,6.80262 -0.4003,13.5908 -1.66465,20.26216 -0.98042,4.49599 -2.49036,8.7614 -4.46705,12.90207 -1.43247,2.71759 -3.56452,4.75346 -5.9478,6.61381 -6.14372,3.72589 -11.19311,8.39039 -18.17552,8.85279 -1.60098,-0.41213 -2.41352,-1.32427 -2.82022,-2.88248 -0.57028,-1.82069 -1.92453,-3.30256 -2.89602,-4.92941 -1.68521,-3.37998 -3.19585,-6.85473 -4.77998,-10.28865 -2.32568,-5.38721 -4.23976,-11.02191 -4.88688,-16.88394 -0.37585,-3.40471 -0.25006,-5.88987 -0.22015,-9.3154 0.38195,-6.64848 1.61524,-13.05618 4.25419,-19.1631 0,0 13.05596,-5.94507 13.05596,-5.94507 l 0,0 c -3.13071,6.15268 -4.37884,11.88018 -4.87768,18.78739 -0.0262,2.91088 -0.13677,6.17766 0.15059,9.08855 0.56497,5.72311 2.43116,11.22854 4.86879,16.4057 1.76447,3.29649 3.60814,6.54015 5.20262,9.91888 1.05771,1.77498 2.48894,3.35365 3.23235,5.29627 0.12877,0.94614 0.64272,1.20729 1.61523,1.08338 5.41434,-0.74027 14.31722,-7.83659 -7.41599,5.37603 2.50692,-1.5984 4.65932,-3.50779 6.32857,-5.99587 2.13749,-4.04325 3.80038,-8.1902 4.85005,-12.6623 1.47235,-6.55319 2.47159,-13.28946 2.0037,-20.01938 -0.36412,-7.09558 -0.94082,-14.21102 -2.82798,-21.09225 -1.40509,-5.4389 -2.40599,-10.95753 -3.27969,-16.50477 -0.22974,-1.28384 -0.72119,-3.83755 -0.81586,-5.1404 -0.27907,-3.84023 0.55128,-7.679 1.23471,-11.42949 1.7801,-7.92497 4.04013,-15.78398 7.5755,-23.12409 2.95994,-5.94175 5.81241,-11.96504 9.4744,-17.51987 2.03366,-3.25934 3.78733,-6.72907 4.57786,-10.51953 2.61952,-6.57335 14.43992,-12.9193 15.76945,-4.74063 0.96194,4.43821 1.74663,8.90507 2.7635,13.32875 0.62066,2.46091 1.05339,4.72486 -0.2569,7.0325 -1.8797,2.58843 -4.05953,4.99752 -6.367,7.20701 -5.79052,5.42791 -1.39067,1.55004 -16.21648,10.09503 -2.85049,1.6429 -5.91003,2.88268 -9.19071,3.30552 -5.19166,0.28543 -10.24023,-0.78614 -15.19522,-2.3045 -5.47707,-1.62335 -10.7543,-3.8359 -16.12299,-5.77718 -6.62177,-2.44251 -13.35446,-4.56309 -19.98007,-6.99338 -2.07146,-0.63488 -4.28438,-1.51009 -6.50563,-1.30143 -0.52296,0.0491 -1.97163,0.65839 -1.53123,0.37213 4.45684,-2.89696 15.79632,-9.21423 9.57527,-5.73888 -2.81898,2.72747 -5.2521,5.95662 -6.35229,9.77353 -0.67763,4.16676 1.10281,8.09356 2.70918,11.87073 1.57046,3.3266 3.17846,6.63703 4.78405,9.93625 0,0 -12.88186,7.33473 -12.88186,7.33473 z"
       id="path3248"
       style="fill:#000000;stroke:#000000" />
    <path
       d="m 924.16178,419.9103 c -1.50161,4.2359 -3.07095,8.44414 -4.25669,12.78257 -1.43124,5.23672 -1.46792,9.26557 -0.64321,14.55053 0.78325,3.70474 1.64981,7.45425 2.94064,11.0207 0.48276,0.90908 1.146,2.83877 2.35841,3.11112 0.35389,0.0795 1.1978,-0.76967 1.30592,-0.86247 -20.34102,11.66434 -12.59274,8.89382 -9.63507,3.90392 1.82361,-3.07662 3.32083,-6.30633 4.76437,-9.57168 3.15889,-7.87961 7.00231,-15.43 10.93419,-22.94177 0.53675,-1.69734 3.88537,-6.3443 2.83717,-8.25571 -1.85374,0.61712 -1.93209,0.067 -3.08965,-1.57767 0,0 12.72565,-7.53542 12.72565,-7.53542 l 0,0 c 1.00546,1.28431 2.29464,0.32472 3.28859,1.76417 1.56272,3.31688 -1.57798,6.85833 -2.79965,9.7837 -4.07506,7.44743 -8.07242,14.92838 -11.11408,22.87581 -1.2905,3.26386 -2.74835,6.37914 -4.25933,9.54328 -0.076,0.15906 -1.3305,2.85444 -1.74458,3.12107 -4.40885,2.83892 -9.03685,5.32212 -13.55527,7.98318 -2.72203,0.15008 -3.94951,-1.93192 -4.86099,-4.24123 -1.25544,-3.68109 -2.03684,-7.55771 -2.85064,-11.35299 -0.96397,-5.37431 -1.02092,-9.75883 0.39973,-15.10681 1.0536,-4.27065 2.56534,-8.38903 3.87323,-12.58411 0,0 13.38126,-6.41019 13.38126,-6.41019 z"
       id="path3250"
       style="fill:#000000;stroke:#000000" />
    <path
       d="m 960.92649,384.61618 c -1.52279,5.82976 -2.11307,11.826 -2.58293,17.81447 -0.44482,8.03807 -1.05823,16.06664 -2.00072,24.06179 -0.58591,4.7202 -1.00552,9.45741 -1.20323,14.20941 -0.0717,2.17706 -0.0334,4.35473 -0.0308,6.53217 0.10618,6.11948 2.24688,1.3751 -13.22339,7.68388 -0.17736,0.0723 0.0174,-0.76433 0.42111,-2.80891 2.25823,-7.67845 4.68553,-15.30915 7.55744,-22.78097 3.03864,-7.19311 6.21706,-14.69614 12.57954,-19.55572 -2.6598,2.74586 10.91027,-10.25424 15.93762,-7.28113 2.92902,1.73218 3.67848,6.396 4.38165,9.33363 1.14495,6.047 1.41303,12.21402 1.62938,18.3513 0.45544,3.06149 -0.75265,5.93818 -1.208,8.89971 -0.23408,1.52235 -0.12047,2.27135 -0.0434,3.78621 0.22214,2.31414 0.59764,4.60864 1.05042,6.88759 0,0 -13.07884,6.93349 -13.07884,6.93349 l 0,0 c -0.30933,-2.37565 -0.63696,-4.74913 -0.90975,-7.12931 -0.0953,-1.35766 -0.2626,-2.82969 -0.0854,-4.19023 0.37504,-2.87979 1.80983,-5.62758 1.4192,-8.60342 -0.0389,-6.06361 -0.17869,-12.16378 -1.36325,-18.13172 -0.59911,-2.34808 -1.09049,-5.03857 -2.73735,-6.949 -0.2716,-0.31506 -0.61807,-0.60776 -1.01819,-0.72152 -0.41513,-0.11802 -1.65001,0.30712 -1.29314,0.0644 3.47275,-2.36191 7.18825,-4.34552 10.78237,-6.51828 -7.15254,4.15587 -10.28466,11.71454 -13.46908,18.98909 -2.80261,7.26327 -5.02284,14.71728 -6.98403,22.24993 -0.1111,0.51372 -0.2708,1.0193 -0.33329,1.54117 -0.0349,0.29174 0.2939,0.72695 0.0433,0.88042 -15.78605,9.66892 -13.28085,11.95841 -13.24791,5.79465 -0.006,-2.23074 0.0543,-4.46224 0.18012,-6.68944 0.26,-4.8538 0.82225,-9.67974 1.51921,-14.48976 1.04652,-7.97789 1.82864,-15.99255 2.12308,-24.03722 0.36462,-5.9337 0.92596,-11.83958 1.80694,-17.7165 0,0 13.38126,-6.41019 13.38126,-6.41019 z"
       id="path3252"
       style="fill:#000000;stroke:#000000" />
    <path
       d="m 1010.5857,421.67499 c -2.9822,2.21625 -5.9001,4.50577 -8.1123,7.50755 -2.3725,4.16509 -3.50957,8.83774 -4.26798,13.52812 -0.51962,3.12737 -0.66055,6.21926 1.02954,9.00379 1.76934,2.55934 1.26224,3.08062 4.37114,2.6614 3.6821,-1.57818 13.308,-5.76263 -9.14707,5.27569 -0.89234,0.43866 1.61631,-1.16682 2.34668,-1.84155 3.23769,-2.99098 5.74789,-6.69781 8.32159,-10.23807 5.5498,-8.53878 10.2089,-17.60669 15.0181,-26.57122 2.1741,-5.48184 15.0247,-18.38927 17.2136,-9.38626 0.2844,2.67233 0.169,5.36554 0.1207,8.04653 0.256,4.9731 0.9447,9.90321 1.7608,14.81144 0.9517,4.4801 1.3709,9.06434 2.7063,13.45276 0.4241,0.60255 1.0027,4.31635 1.4303,4.47372 0.1612,0.0593 0.3045,-0.1593 0.4568,-0.23895 0.2033,-0.10383 0.4066,-0.20766 0.6098,-0.31148 0,0 -11.911,8.82486 -11.911,8.82486 l 0,0 c -0.3178,-0.0551 -0.6355,-0.11014 -0.9533,-0.16521 -2.2039,-1.52261 -1.67,-3.22015 -2.5177,-5.55572 -1.2302,-4.50954 -1.415,-9.20778 -2.4361,-13.76911 -0.9405,-4.93082 -1.6648,-9.89339 -2.2125,-14.88323 0.012,-2.56689 0.094,-5.14198 -0.098,-7.70321 -0.6405,-4.53378 3.9088,-2.83446 12.3812,-7.71855 0.2969,-0.17118 -0.6436,0.27386 -0.8942,0.50767 -0.9925,0.92586 -2.0889,2.82895 -2.7436,3.84187 -5.1411,8.90304 -9.8708,18.0387 -15.2207,26.8219 -6.5204,9.55734 -13.4725,18.68404 -26.11079,21.0207 -2.97511,-0.14062 -3.81972,-1.60481 -5.23517,-3.99569 -1.75034,-3.13398 -2.00015,-6.47077 -1.33212,-9.97738 0.77654,-4.83406 1.94333,-9.63476 4.0405,-14.08254 0.37585,-0.66779 0.68382,-1.37862 1.12756,-2.00336 1.69203,-2.38225 4.44444,-3.85121 6.50294,-5.8663 0,0 13.75508,-5.47017 13.75508,-5.47017 z"
       id="path3254"
       style="fill:#000000;stroke:#000000" />
    <path
       d="m 1161.1555,422.98161 c -0.3576,0.21932 -0.6968,0.47194 -1.0727,0.65795 -1.694,0.83802 -3.5358,1.43633 -5.2111,2.31327 -0.6201,0.32461 -2.3927,1.45305 -1.7839,1.10771 3.5606,-2.01966 7.0936,-4.08754 10.6404,-6.13131 -3.0754,1.76485 -5.1251,4.28223 -6.2695,7.59633 -1.3445,5.02944 0.2461,10.06572 1.5822,14.92041 1.3264,3.23168 2.2329,7.50878 5.1403,9.78354 4.5312,-2.89692 -2.4451,1.58421 -11.373,6.00795 -0.4786,0.23713 0.8485,-0.65773 1.2077,-1.05298 1.7145,-1.88651 2.6182,-4.26165 3.6141,-6.56137 2.6991,-6.25407 3.9871,-12.9866 5.6708,-19.56014 3.3222,-11.47811 2.8615,-8.28965 16.8438,-15.63416 2.843,4.85802 4.5472,10.31045 6.6716,15.50745 3.4197,7.91278 8.045,15.83433 15.6863,20.39356 1.7926,1.06954 3.8198,1.68463 5.7297,2.52695 8.3469,0.93227 4.2247,0.79778 12.3646,0.46103 0,0 -11.0248,8.04646 -11.0248,8.04646 l 0,0 c -8.2674,0.0159 -4.0506,0.31951 -12.6428,-1.01004 -1.9794,-0.92447 -4.0722,-1.63732 -5.9382,-2.77342 -7.8074,-4.75354 -12.8067,-12.62296 -16.4578,-20.75352 -2.0253,-4.62841 -3.6508,-9.68817 -6.5717,-13.83573 4.1495,-2.39801 8.2867,-4.81747 12.4486,-7.19404 0.2571,-0.14684 -0.5278,0.28896 -0.732,0.50344 -1.9568,2.05544 -2.5377,5.06605 -3.5109,7.61234 -1.7307,6.59319 -3.0467,13.33312 -5.5057,19.69808 -0.3262,0.83745 -1.6089,4.19997 -2.0572,5.09053 -2.8526,5.6669 -10.8606,13.51049 -16.9948,10.28881 -2.7306,-2.91316 -3.7945,-7.04286 -5.1592,-10.68757 -1.4506,-5.03138 -3.1676,-10.24979 -2.162,-15.52821 0.9102,-3.79943 2.5837,-6.40928 5.8727,-8.62891 7.4896,-4.33212 14.7867,-8.72184 22.5704,-12.424 0,0 -11.5759,9.25959 -11.5759,9.25959 z"
       id="path3260"
       style="fill:#000000;stroke:#000000" />
  </g>
  <g
     id="layer3">
    <path
       d="m 113.45811,65.534336 c 2.75912,8.141444 5.5174,16.267761 7.99796,24.511208 3.81192,13.593076 6.93604,27.336946 9.68281,41.178156 3.25044,13.55277 6.81701,27.00092 9.35807,40.72038 2.90093,14.75718 5.36414,29.59244 8.02939,44.39157 2.62001,11.41901 4.31816,23.01345 6.60869,34.49442 2.05888,12.50149 4.2165,24.94487 7.25417,37.25192 3.01538,11.99114 6.21433,23.90851 8.82177,35.99734 1.76022,8.1256 3.62828,16.24885 6.08841,24.19359 0.69511,3.79131 2.23296,7.21232 3.73768,10.70944 0.86814,1.59955 2.30437,2.22756 4.04517,2.40134 3.34519,0.0625 6.38417,-1.531 9.28431,-3.02122 -3.48402,1.99209 -6.88712,4.13292 -10.45207,5.97628 -0.74596,0.38573 1.34419,-1.01213 1.95869,-1.58452 0.75993,-0.70785 1.48846,-1.45349 2.15649,-2.24864 2.95828,-3.5212 4.84585,-7.40272 6.73228,-11.55905 5.78204,-12.84777 9.34309,-26.45468 13.23223,-39.9427 5.49042,-18.37483 11.21838,-36.6726 16.21534,-55.1921 4.19029,-16.95299 9.03937,-33.73272 13.41748,-50.63536 2.71773,-9.96637 5.20197,-19.99057 6.46071,-30.25335 -0.64369,-9.34687 -1.91439,-18.65502 -2.89095,-27.97961 -0.53394,-4.69504 -0.36564,-10.87995 -4.63267,-13.92766 0.94647,-1.87111 -3.53923,1.08694 -2.73626,0.66065 3.96505,-2.10505 7.74944,-4.54412 11.74772,-6.58535 1.03587,-0.52884 -1.57079,1.71982 -2.27561,2.64499 -2.69121,4.32183 -3.91419,9.39666 -5.50469,14.19184 -2.99373,9.7084 -4.8292,19.69919 -6.61017,29.68433 -1.85072,11.50975 -2.26322,23.17878 -3.20441,34.78417 -1.19079,11.05055 0.56323,22.10304 2.26781,33.00001 2.08644,12.64618 4.54721,25.22703 6.59033,37.88071 1.76975,12.24028 2.41763,24.59532 3.94429,36.86693 0.94456,10.18339 3.11238,20.11066 5.38145,30.0567 1.55077,5.26916 1.8153,10.77134 2.73216,16.14795 0.32238,2.62202 1.63431,4.68323 3.08657,6.8012 0.85126,1.10669 1.87071,1.946 3.33007,1.65008 -21.17247,12.90347 -11.91665,7.13468 -7.41333,1.35941 4.61847,-6.4149 7.73032,-13.74891 10.56491,-21.08241 5.74292,-17.48261 11.65588,-34.90838 17.46785,-52.36789 8.88553,-24.08931 17.09514,-48.41515 24.43652,-73.01879 7.03639,-24.14902 12.56393,-48.75577 16.7718,-73.55177 2.41751,-16.49793 5.8143,-32.81467 8.78014,-49.21422 1.70112,-7.987784 3.14704,-16.025399 4.71772,-24.038442 0.14128,-3.231004 1.82414,0.478647 0.20268,0.234866 0,0 12.00868,-8.884779 12.00868,-8.884779 l 0,0 c 1.44139,-0.646157 1.93283,1.48744 1.09365,2.254937 -2.21069,8.023752 -3.55145,16.268496 -5.52517,24.350475 -3.10144,16.453493 -6.51058,32.842603 -9.15423,49.381593 -4.46636,24.89963 -10.37091,49.56281 -17.1849,73.91873 -7.19945,24.56528 -15.32252,48.84227 -24.07738,72.89681 -5.71252,17.29393 -11.39417,34.59685 -16.65327,52.03575 -2.58467,7.40486 -5.68983,14.69039 -9.99721,21.27517 -5.01851,7.2096 -8.24343,8.7872 -18.12141,13.16427 -1.65558,-0.35994 -3.14843,-1.43883 -4.082,-2.85283 -1.47852,-2.3377 -2.91424,-4.5822 -3.20983,-7.41888 -0.99859,-5.37466 -0.9582,-10.93386 -2.4289,-16.24418 -2.12733,-10.04049 -4.35502,-20.0372 -5.20621,-30.29567 -1.58202,-12.26774 -2.18769,-24.62161 -3.82242,-36.88156 -1.9694,-12.64392 -4.61914,-25.16386 -6.80302,-37.77139 -1.72392,-11.00881 -3.50543,-22.21176 -2.27932,-33.36717 0.90548,-11.62399 1.24396,-23.31146 3.03003,-34.84588 1.71358,-9.99693 3.59866,-19.96862 6.29766,-29.75304 1.50945,-4.86205 2.67473,-9.96717 5.07727,-14.46668 3.87673,-6.21748 12.02036,-13.92255 19.26055,-10.44553 4.26365,3.77464 4.52926,9.79412 4.84011,15.14777 0.7775,9.4387 2.16202,18.791 3.13801,28.20162 -1.28078,10.44092 -4.11479,20.55687 -6.90121,30.68018 -4.52814,16.95524 -9.45111,33.80462 -13.77625,50.81504 -4.95185,18.45624 -10.49314,36.73662 -15.89648,55.06177 -3.77487,13.46648 -7.2621,27.02161 -12.76146,39.92672 -6.26139,15.16535 -9.13606,15.97067 -24.79177,24.51842 -3.09475,1.50519 -6.52442,2.89831 -10.03456,2.36412 -2.08688,-0.59225 -3.75256,-1.67369 -4.77496,-3.65785 -1.44804,-3.58985 -2.91215,-7.1231 -3.57744,-10.97398 -2.32553,-8.06096 -4.08918,-16.27848 -5.76408,-24.49662 -2.60619,-12.08401 -5.68842,-24.02533 -8.69562,-36.01471 -3.09116,-12.30255 -5.34255,-24.73758 -7.39356,-37.25 -2.32988,-11.50565 -4.11288,-23.11699 -6.42978,-34.62575 -2.593,-14.80847 -5.09175,-29.63215 -8.02956,-44.3782 -2.56798,-13.70439 -6.14213,-27.13346 -9.4337,-40.66437 -2.6875,-13.80615 -5.66269,-27.53348 -9.6135,-41.046074 -2.61198,-8.187316 -5.51714,-16.232019 -8.76153,-24.186774 0,0 13.05126,-7.057856 13.05126,-7.057856 z"
       id="path3271"
       style="fill:#000000;stroke:#000000" />
    <path
       d="m 297.9623,347.28302 c -21.78068,13.12794 -9.64395,5.56378 -5.2677,1.80186 1.59395,-1.3702 2.92391,-2.69326 4.43926,-4.15233 6.18727,-5.09344 11.05459,-11.40861 15.46706,-18.03948 5.20645,-9.28101 8.24911,-19.53937 12.37096,-29.30832 4.98709,-10.98448 10.95706,-21.45219 17.37537,-31.6509 7.17657,-10.31949 13.69663,-21.03755 19.68508,-32.08335 5.10626,-8.32923 8.09734,-17.49022 11.12122,-26.67836 2.55771,-6.61325 3.54876,-13.63947 5.0076,-20.53722 1.39415,-6.14564 2.71391,-12.32367 4.40086,-18.39911 1.64049,-7.08856 4.5826,-13.75504 6.7609,-20.67712 1.06607,-3.07979 2.51255,-6.01846 3.43627,-9.14832 2.61229,5.54403 -0.002,1.05911 13.14785,-5.33148 0.29538,-0.14354 -0.40656,0.51647 -0.62629,0.76055 -0.69822,0.77561 -1.49788,1.35197 -2.36051,1.92766 -2.39364,2.22031 -2.64097,5.81737 -3.43879,8.83079 -2.6622,7.30157 -3.0268,15.09565 -4.23858,22.69978 -2.27595,13.84421 -4.77213,27.65204 -6.67922,41.55373 -1.73174,12.86334 -2.04525,25.84654 -2.31874,38.80396 -0.20817,14.18319 -0.0696,28.36766 -0.0137,42.55128 0.78708,12.60871 3.17438,25.02824 5.60454,37.40012 1.37283,8.46719 3.42046,16.78113 8.25246,23.95096 4.18453,5.02553 9.85099,7.8292 16.26256,8.59023 4.24791,0.0534 8.29269,-0.81934 12.23019,-2.38104 1.43094,-0.56754 5.49167,-2.75687 4.20115,-1.91767 -2.67052,1.73659 -5.39955,3.45628 -8.36324,4.6242 -1.48987,0.58712 2.57737,-1.90131 3.86605,-2.85197 6.68267,-5.63165 12.01899,-12.64142 16.58672,-20.04777 2.04063,-3.14201 4.04447,-6.31045 5.43524,-9.79846 0,0 13.40108,-6.21477 13.40108,-6.21477 l 0,0 c -1.37868,3.64782 -3.34627,6.98429 -5.61002,10.16129 -4.54956,7.56901 -9.97907,14.67286 -16.54169,20.61018 -10.66296,8.38947 -23.09335,16.36377 -37.05994,16.16725 -6.71085,-1.16634 -12.60813,-4.17819 -16.87618,-9.63318 -4.90399,-7.38754 -7.0273,-15.88593 -8.24078,-24.61186 -2.34028,-12.47761 -4.78756,-24.97553 -5.67763,-37.66129 0.0174,-14.2115 0.0832,-28.423 0.12933,-42.63443 0.0929,-13.00523 0.34981,-26.042 2.2019,-38.93952 1.96343,-13.85564 4.43951,-27.62944 6.46653,-41.47564 1.16101,-7.54687 1.18061,-15.32957 3.72523,-22.6095 0.82435,-3.24059 1.18256,-6.75559 2.92329,-9.64546 1.89993,-1.77291 -0.27022,0.0758 1.72963,-1.14609 4.80958,-2.93871 12.74069,-14.57981 15.57645,-7.67344 -1.44004,0.87105 -2.7046,7.32366 -3.95832,8.87792 -2.19791,6.93595 -5.29125,13.5665 -6.89234,20.68492 -1.69103,6.03714 -2.83164,12.20775 -4.35631,18.28372 -1.54136,6.94518 -2.48407,14.05378 -5.04118,20.73031 -1.68814,4.92969 -0.91502,2.43136 -2.31555,7.49617 -2.24184,6.85006 -5.78534,13.19677 -9.07337,19.57383 -5.94966,11.02958 -12.28412,21.8334 -19.48289,32.10444 -6.52256,10.09798 -12.52432,20.51481 -17.52667,31.46033 -4.16217,9.76773 -7.14975,20.02142 -12.08371,29.4509 -4.23352,6.70414 -8.98926,13.17805 -15.15001,18.25396 -7.27375,7.185 -14.60496,12.6755 -24.18731,17.15733 0,0 11.57585,-9.25959 11.57585,-9.25959 z"
       id="path3273"
       style="fill:#000000;stroke:#000000" />
    <path
       d="m 357.9623,285.0608 c 0.82729,-0.29288 1.66813,-0.54999 2.48187,-0.87864 3.4551,-1.39543 4.60377,-2.05575 8.03667,-3.90052 1.5961,-0.8577 6.31436,-3.55529 4.76601,-2.61412 -18.12929,11.01991 -4.14367,2.10962 -2.8925,1.3018 10.58015,-8.36238 21.99568,-15.07099 33.67209,-21.78609 2.60195,-1.31677 1.38421,-0.728 3.64456,-1.78414 0,0 -11.53928,9.19268 -11.53928,9.19268 l 0,0 c -2.12128,1.02662 -0.97485,0.45401 -3.431,1.73431 3.26145,-1.90687 6.51528,-3.82684 9.78435,-5.72062 1.07636,-0.62354 -2.16046,1.23596 -3.20607,1.9098 -5.42032,3.49313 -10.35363,7.70243 -15.70681,11.29477 -11.7858,7.82817 -24.17658,14.9176 -37.18574,20.51036 0,0 11.57585,-9.25959 11.57585,-9.25959 z"
       id="path3275"
       style="fill:#000000;stroke:#000000" />
    <path
       d="m 493.26138,130.41335 c -0.19212,7.56327 -0.19968,15.12986 -0.2491,22.69505 -1.44672,13.24066 -3.58081,26.39809 -5.37302,39.59998 -1.703,14.34364 -2.91793,28.71157 -4.95665,43.01489 -1.90117,12.67139 -2.53736,25.47052 -2.87405,38.2633 -0.44633,11.11577 -1.83786,22.14608 -3.00602,33.19818 -0.61785,12.10102 -1.95037,24.09191 -4.10669,36.01298 -1.62868,9.16246 -3.62192,18.274 -6.48533,27.1341 -3.76218,11.78587 -5.88265,9.95814 -19.24522,16.97598 -1.73834,-0.75144 -0.95093,-0.29867 -2.38313,-1.32126 0,0 12.47293,-8.04351 12.47293,-8.04351 l 0,0 c 1.05688,0.52574 0.49074,0.37784 1.70361,0.4233 -3.81959,2.28649 -7.67565,4.51311 -11.45876,6.85945 -0.4528,0.28083 1.00967,-0.36769 1.45743,-0.65649 2.70278,-1.74328 3.16073,-5.39976 4.37531,-8.09504 3.02471,-8.82432 5.20618,-17.90634 6.84596,-27.08759 2.25241,-11.87221 3.69358,-23.8262 4.16036,-35.90844 1.05124,-11.0385 2.53132,-22.03377 3.07252,-33.11969 0.41677,-12.8532 0.99358,-25.72411 2.90522,-38.4585 2.10347,-14.31833 3.43657,-28.68903 5.0906,-43.06364 1.716,-13.0872 3.60549,-26.15079 5.1137,-39.2615 -0.0492,-7.48056 -0.0555,-14.96261 -0.24909,-22.4412 0,0 13.18942,-6.72035 13.18942,-6.72035 z"
       id="path3277"
       style="fill:#000000;stroke:#000000" />
    <path
       d="m 496.28894,264.03553 c 5.13602,1.29311 10.41822,0.60291 15.63124,0.28285 5.21895,0.17082 10.00002,-0.87775 14.79497,-2.77764 3.38106,-1.45818 7.0421,-2.10644 10.62282,-2.89862 3.58703,-1.65472 7.1955,-2.8815 11.10779,-3.4364 -2.23073,2.46823 8.99587,-4.2512 5.91971,-2.5228 -19.1058,10.73502 -9.94473,5.87606 -5.56046,1.85832 3.30473,-3.39878 1.70992,-1.70281 4.79034,-5.08233 0,0 13.36672,-5.61295 13.36672,-5.61295 l 0,0 c -3.08662,3.41807 -1.51299,1.69624 -4.7225,5.16401 -7.00591,7.01548 -15.92844,12.60321 -25.55586,15.04184 -3.82358,0.73518 -7.33031,2.25416 -11.00806,3.48393 -3.54918,0.89105 -7.17177,1.54366 -10.52471,3.06935 -4.83308,1.77756 -9.81629,2.29204 -14.95907,2.3438 -5.36512,0.32357 -10.74765,0.7814 -16.04487,-0.45279 0,0 12.14194,-8.46057 12.14194,-8.46057 z"
       id="path3279"
       style="fill:#000000;stroke:#000000" />
    <path
       d="m 592.62082,137.44778 c -5.11367,9.28484 -8.85275,19.2589 -12.51673,29.1839 -4.64299,13.0193 -8.44774,26.32858 -11.79161,39.7354 -2.52323,12.38328 -4.82783,24.82009 -6.67461,37.32335 -1.56914,9.99446 -1.45126,20.12443 -2.16134,30.1852 -1.12939,11.07296 -2.67001,22.07742 -3.47136,33.18686 -0.701,11.50623 -0.7424,23.03569 -0.76737,34.55859 0.45512,6.64006 -0.67322,13.4941 0.60778,20.05173 1.18117,5.40325 4.02519,10.06918 8.28804,13.54794 5.63281,3.98015 12.45842,5.42333 19.18689,6.26673 5.70611,0.52116 11.43668,0.27049 17.15332,0.15257 1.66123,-0.0458 2.66987,0.023 4.30305,-0.42239 0.68338,-0.18635 2.58818,-1.13492 1.97964,-0.77242 -20.23542,12.05392 -11.28226,6.7698 -7.28209,3.27516 5.22809,-5.92827 7.33024,-13.9616 10.04245,-21.23707 2.1135,-5.78576 3.96596,-11.65982 5.80725,-17.53594 0,0 12.7648,-6.01654 12.7648,-6.01654 l 0,0 c -1.88644,5.84975 -3.73169,11.71274 -5.66705,17.54659 -2.72926,7.33205 -4.67099,15.33058 -9.39681,21.67664 -6.40121,6.5005 -15.0362,12.3004 -24.38468,12.12093 -5.71073,0.11852 -11.44337,0.18947 -17.1285,-0.45738 -6.97144,-1.08315 -13.96306,-2.57635 -19.74088,-6.87299 -4.40252,-3.79827 -7.48016,-8.66366 -8.8032,-14.37487 -1.45805,-6.67554 -0.0631,-13.69056 -0.45371,-20.47522 0.11318,-11.58082 0.33526,-23.16475 0.92357,-34.73218 0.65799,-11.0851 2.11289,-22.05825 3.25969,-33.09252 0.76585,-10.11296 0.63414,-20.30054 2.24047,-30.34462 1.90902,-12.55985 4.2928,-25.04534 6.75143,-37.50776 3.30853,-13.44725 7.21044,-26.75355 11.69556,-39.85664 3.56105,-9.8476 7.32141,-19.62855 11.73279,-29.12823 0,0 13.50321,-5.98482 13.50321,-5.98482 z"
       id="path3281"
       style="fill:#000000;stroke:#000000" />
    <path
       d="m 588.56844,210.27583 c -3.02885,-6.87006 -4.6167,-14.04571 -4.62031,-21.53304 0.27233,-9.19631 2.38518,-18.04229 7.08052,-25.9587 5.20528,-6.9361 13.13228,-9.93406 20.89777,-13.80723 1.38704,-0.69181 3.02216,-0.69476 4.51613,-1.10778 5.71375,-1.77581 11.60322,-1.18517 17.45512,-0.71971 7.76377,1.32203 15.38002,3.18858 23.19474,4.22555 7.93003,1.39875 15.9004,2.51363 23.93145,3.10641 7.67244,-0.33536 15.2101,-1.91606 22.83965,-2.77319 8.43546,-1.41059 16.91209,-2.47703 25.43853,-3.12891 8.15788,-0.50493 16.31871,-1.27868 24.31563,-3.00081 7.76253,-1.78328 15.55073,-3.50085 23.42006,-4.7444 7.18868,-1.42177 14.26082,-3.44617 21.20622,-5.77218 3.48781,-1.02662 6.73809,-2.633 10.19166,-3.78451 0,0 -11.63935,9.05586 -11.63935,9.05586 l 0,0 c -3.36997,1.17739 -6.59784,2.73415 -10.05561,3.65786 -6.94995,2.24131 -14.03672,4.149 -21.21428,5.49626 -7.82336,1.33419 -15.57988,3.03954 -23.32848,4.74922 -8.08748,1.60391 -16.31291,2.41167 -24.53722,2.93576 -8.47486,0.6349 -16.88888,1.75623 -25.28202,3.08619 -7.71683,0.93862 -15.36718,2.72959 -23.16557,2.65769 -7.98994,-0.71558 -15.9022,-1.98996 -23.8168,-3.28066 -7.8312,-1.0718 -15.4898,-2.93862 -23.31316,-4.0402 -5.8259,-0.4329 -11.62654,-0.65729 -17.26542,1.19962 -6.95538,1.85154 -8.10719,3.77697 5.96673,-5.04724 0.71348,-0.44734 -1.53013,0.71669 -2.23602,1.17592 -2.16846,1.41074 -2.51445,2.06492 -4.28025,4.02074 -4.99857,7.60586 -7.33621,16.19489 -7.56972,25.30771 -0.0584,7.26053 1.45639,14.30812 4.78096,20.81395 0,0 -12.91096,7.20982 -12.91096,7.20982 z"
       id="path3283"
       style="fill:#000000;stroke:#000000" />
    <path
       d="m 697.72339,187.91636 c -2.75592,14.79034 -5.07082,29.6679 -7.21786,44.5582 -2.72923,19.63552 -5.4135,39.28637 -7.25393,59.02825 -1.08103,9.83846 -2.3531,19.65503 -3.05781,29.53009 -0.34889,5.50826 -0.39132,11.02929 -0.40455,16.5466 -0.0549,7.02902 -0.0368,14.05866 -0.0112,21.08783 -0.13784,7.23598 0.26075,14.48881 -0.23344,21.71149 -0.31526,4.07653 -0.71079,8.11297 -2.29535,11.90928 0,0 -13.48317,6.11207 -13.48317,6.11207 l 0,0 c 2.03907,-3.5702 2.52768,-7.4838 2.82442,-11.54484 0.60782,-7.18488 0.18477,-14.40673 0.28219,-21.61062 0.0102,-7.01758 5e-5,-14.03547 -0.0656,-21.05276 0.002,-5.55864 -0.0632,-11.1266 0.4001,-16.67155 0.87777,-9.99784 2.40087,-19.91924 3.68136,-29.87045 2.05491,-19.81074 5.05946,-39.5061 7.59487,-59.25829 1.96644,-14.58292 4.08245,-29.15506 6.0154,-43.73705 0,0 13.22456,-6.73825 13.22456,-6.73825 z"
       id="path3285"
       style="fill:#000000;stroke:#000000" />
    <path
       d="m 773.27894,152.3608 c 0.28444,5.85372 -0.74156,11.53346 -1.79294,17.26278 -1.68241,10.3536 -3.82015,20.62235 -5.3276,31.00398 -1.11456,11.70078 -2.24788,23.38186 -3.93298,35.017 -1.27204,10.21649 -3.51988,20.28007 -5.55699,30.36486 -1.74948,9.58392 -3.0216,19.25572 -4.31414,28.91257 -0.88337,9.04251 -2.80706,17.94806 -4.64589,26.83553 -1.42091,7.94123 -3.09017,15.83935 -4.47269,23.78796 -0.67018,4.0232 -0.99987,8.09304 -1.07786,12.16833 -0.0787,1.6614 2.4357,1.28929 3.62802,1.39196 4.36711,0.45034 8.66614,1.41211 13.05185,1.85522 6.67257,0.52964 13.37301,0.53798 20.06227,0.58679 6.3023,-0.20743 12.52517,0.97761 18.77153,1.61477 5.43394,0.0306 10.6523,-1.27146 15.91709,-2.41044 4.59528,-1.01449 9.23313,-1.12363 13.75421,-2.46845 7.12013,-1.73679 14.14411,-3.86143 21.20503,-5.83293 0.88967,-0.24725 1.77933,-0.49449 2.669,-0.74174 0,0 -11.57675,8.88944 -11.57675,8.88944 l 0,0 c -0.86238,0.22864 -1.72477,0.45728 -2.58716,0.68593 -7.10373,1.93375 -14.15226,4.06876 -21.28537,5.89271 -4.55396,1.15143 -9.23696,1.34034 -13.81221,2.41236 -5.33528,1.15771 -10.70463,2.31797 -16.20591,2.04264 -6.15524,-0.68692 -12.28311,-1.89127 -18.50893,-1.62343 -6.77321,-0.0286 -13.56318,0.0157 -20.31601,-0.58068 -4.42205,-0.47889 -8.76774,-1.47054 -13.20724,-1.75647 -1.88534,-0.25472 -5.04471,-0.69214 -4.78075,-3.27783 0.20326,-4.17717 0.51464,-8.3532 1.2314,-12.4788 1.46999,-7.98898 3.33059,-15.90233 4.64949,-23.92056 1.87134,-8.84304 3.79165,-17.72474 4.65537,-26.73018 1.38183,-9.69288 2.71195,-19.39943 4.38441,-29.04403 2.01629,-10.07853 4.31043,-20.1172 5.6249,-30.31726 1.76884,-11.63505 3.03284,-23.31075 4.00483,-35.03982 1.40427,-10.36333 3.49867,-20.60505 5.08225,-30.94094 0.95463,-5.58323 2.01065,-11.12951 1.48522,-16.82302 0,0 13.22455,-6.73825 13.22455,-6.73825 z"
       id="path3287"
       style="fill:#000000;stroke:#000000" />
    <path
       d="m 773.62318,261.00565 c 6.09882,-2.12485 12.28906,-3.71513 18.67483,-4.67266 9.25094,-1.42771 18.41471,-3.28278 27.54169,-5.34789 2.62534,-0.76141 5.17921,-1.42196 7.7114,-2.4711 1.11207,-0.46075 4.28183,-2.19523 3.24725,-1.57991 -18.61961,11.07408 -7.26546,3.93477 -3.14084,1.47508 0,0 13.53125,-5.21109 13.53125,-5.21109 l 0,0 c -10.55392,6.20259 -20.57339,13.94154 -32.76178,16.46836 -9.15533,2.0187 -18.35117,3.81249 -27.60974,5.29559 -6.48115,1.14802 -12.74408,2.96177 -18.98055,5.05624 0,0 11.78649,-9.01262 11.78649,-9.01262 z"
       id="path3289"
       style="fill:#000000;stroke:#000000" />
    <path
       d="m 787.56681,190.32781 c 7.58457,-0.78638 15.0843,-2.17555 22.47174,-4.05366 10.34886,-2.48748 20.74082,-4.95582 30.85369,-8.29444 5.04354,-2.0496 3.38128,-1.18749 7.83528,-3.66739 1.00925,-0.56192 4.0219,-2.27419 3.00746,-1.72171 -17.96069,9.78168 -10.34877,6.30443 -6.38505,2.53078 4.66827,-4.65392 9.50852,-9.12808 14.30804,-13.64538 0,0 13.18515,-5.41384 13.18515,-5.41384 l 0,0 c -4.70902,4.42158 -9.36463,8.89983 -13.97463,13.4143 -6.89554,8.07843 -19.35179,12.92094 -29.23662,17.23229 -10.18392,3.1885 -20.56977,5.72117 -30.93682,8.23718 -7.58767,1.8465 -15.285,3.36745 -23.07207,4.05958 0,0 11.94383,-8.67771 11.94383,-8.67771 z"
       id="path3291"
       style="fill:#000000;stroke:#000000" />
    <path
       d="m 900.12478,156.64545 c 1.20178,9.74941 1.1106,19.60279 1.66499,29.40028 1.60901,13.76418 2.97285,27.53854 3.80123,41.37242 0.57316,12.79167 0.5142,25.58432 1.31903,38.36548 0.42007,11.0433 2.85017,21.91789 2.62396,32.97704 -0.78378,8.53596 -1.89946,17.03193 -2.54178,25.58193 -0.44461,6.2162 -0.49441,12.45112 -0.51076,18.68036 -0.34197,3.75885 0.84162,7.83048 -0.605,11.40891 -0.9238,1.32747 -0.45615,0.69907 -1.39574,1.89051 0,0 -13.65953,5.79504 -13.65953,5.79504 l 0,0 c 0.98942,-1.09941 0.49292,-0.52986 1.48708,-1.71075 2.55304,-2.52621 0.58179,-7.5594 1.17604,-10.77019 0.0513,-6.27663 0.12603,-12.55682 0.54768,-18.82172 0.74306,-8.56013 1.87585,-17.07499 2.77209,-25.61894 0.48268,-11.04548 -2.0616,-21.91553 -2.39092,-32.94805 -0.7627,-12.79229 -0.81526,-25.58941 -1.28014,-38.39423 -0.716,-13.84147 -2.05725,-27.62049 -3.78007,-41.373 -0.65413,-9.59186 -0.60095,-19.29011 -2.27942,-28.77724 0,0 13.05126,-7.05785 13.05126,-7.05785 z"
       id="path3293"
       style="fill:#000000;stroke:#000000" />
    <path
       d="m 911.29564,153.94968 c 4.35653,-2.06171 8.67268,-4.0957 13.26668,-5.59095 6.06612,-2.56148 12.53596,-3.61466 19.04762,-4.2037 7.65213,-0.76438 15.29004,0.28998 22.90872,0.94234 6.15977,0.24099 12.26407,1.14556 18.26436,2.54081 8.91168,2.92534 17.29638,7.48972 25.42888,12.13476 6.6749,4.14131 12.0094,8.25043 16.4154,14.75857 1.7837,3.76044 3.9311,7.56682 4.5663,11.75035 0.4,2.6344 0.1052,4.93087 -0.064,7.56664 -0.674,8.46643 -1.8295,16.80693 -3.7264,25.08161 -2.2722,8.10892 -7.1455,14.71648 -12.9149,20.6734 -5.6341,5.34936 -12.2028,9.39724 -18.79545,13.41314 -8.64825,6.83737 -19.20322,10.05473 -28.59364,15.48055 -3.54437,2.08314 -7.37211,3.22035 -11.42835,3.65247 -4.8018,-0.39549 -9.33824,-2.08444 -14.02799,-3.09178 -5.3225,-0.94688 -10.54971,-2.2463 -15.93066,-2.86887 -4.83123,-0.50169 -9.69215,-0.52753 -14.54369,-0.5718 -4.11022,0.16836 -8.08285,-0.93855 -11.50961,-3.18191 -2.55643,-2.29361 -4.91115,-5.06934 -6.58128,-8.08996 -1.40928,-2.21383 -3.11837,-4.41903 -3.45618,-7.07678 1.85881,-6.76396 10.68646,-12.46009 17.30243,-11.79553 2.90999,0.91743 5.49239,3.29626 7.51967,5.53712 4.20375,5.2643 7.83319,10.97718 11.48515,16.63363 5.13856,9.01676 11.94936,16.87947 18.25263,25.07365 7.60206,9.31727 15.42461,18.43805 23.60887,27.2482 7.05697,9.112 16.49567,15.19489 26.51364,20.54702 10.04496,5.55102 20.62576,9.54796 31.82946,11.9187 6.1009,1.02559 11.9064,-0.12886 17.7918,-1.57662 0,0 -11.6405,8.87735 -11.6405,8.87735 l 0,0 c -5.9603,1.35169 -11.8417,2.13596 -17.935,0.86582 -11.156,-2.69712 -21.72794,-6.83707 -31.79485,-12.3983 -10.19266,-5.41635 -19.75855,-11.5618 -26.86208,-20.88919 -8.12669,-8.90802 -16.02748,-18.00439 -23.59966,-27.3913 -6.41413,-8.17339 -13.36288,-15.98711 -18.6178,-24.99603 -3.65088,-5.55888 -7.25033,-11.20479 -11.54853,-16.29081 -1.81429,-1.82737 -4.23182,-4.20254 -6.94818,-4.35899 -5.27179,1.53096 -0.97658,0.3679 10.6746,-6.60266 0.2851,-0.17057 -3.29097,2.39102 -2.80115,2.8305 -0.37906,2.30615 2.06544,4.5686 3.0302,6.48388 1.5434,2.79764 3.69186,5.45807 6.16847,7.45937 3.36174,1.96139 7.08291,2.73219 10.97387,2.57477 4.87186,0.0406 9.75493,0.15171 14.59674,0.7367 5.40689,0.6946 10.67343,2.04771 16.04213,2.96549 4.55912,1.05455 9.07142,2.76873 13.80883,2.61305 3.91692,-0.62974 7.58484,-1.98945 11.0067,-4.02295 5.06654,-2.71554 25.28291,-12.60583 3.71089,-1.07171 6.58087,-4.04664 13.27028,-7.88096 19.01422,-13.13188 5.8368,-5.67853 10.7203,-12.08361 13.2398,-19.94181 1.9184,-8.20427 3.211,-16.43328 3.7785,-24.85386 0.1483,-1.95918 0.501,-5.10478 0.2256,-7.11383 -0.5519,-4.02561 -2.7267,-7.67257 -4.3919,-11.2929 -4.2069,-6.28618 -9.3678,-10.34363 -15.76449,-14.38259 -8.08088,-4.60417 -16.47478,-9.07233 -25.46319,-11.58736 -5.96602,-1.22828 -11.98628,-2.17084 -18.07946,-2.44618 -7.57525,-0.7054 -15.18369,-1.6039 -22.78687,-0.69211 -6.47105,0.7155 -12.82947,1.97245 -18.87197,4.48763 -4.60188,1.64583 -8.98164,3.7835 -13.37034,5.92443 0,0 11.57586,-9.25959 11.57586,-9.25959 z"
       id="path3295"
       style="fill:#000000;stroke:#000000" />
    <path
       d="m 1104.17,152.76725 c -1.5771,6.80031 -2.8136,13.62496 -3.5532,20.56806 -1.1988,10.26141 -2.6494,20.49162 -3.7812,30.76046 -0.6945,10.98167 -3.0237,21.74849 -4.4718,32.63635 -1.513,10.71676 -3.2428,21.40005 -4.9646,32.08506 -1.704,10.86436 -5.0715,21.32922 -8.0809,31.87407 -2.4834,8.46701 -4.9526,16.93601 -7.5317,25.37433 -1.2986,6.18271 -4.6063,11.48697 -7.4376,17.02183 -4.1307,7.78833 -7.7629,15.83444 -11.5566,23.79249 -1.4137,3.19014 -2.7821,6.39988 -4.1748,9.59916 0,0 -13.2936,6.0694 -13.2936,6.0694 l 0,0 c 1.5484,-3.22605 3.0955,-6.45408 4.472,-9.75876 3.7681,-7.91365 7.3111,-15.9432 11.3461,-23.72023 2.6621,-5.56726 6.2183,-10.70904 7.5839,-16.83781 2.6735,-8.45299 5.1943,-16.94825 7.7462,-25.43962 3.0126,-10.50788 6.4544,-20.91312 8.1927,-31.73834 1.6879,-10.67308 3.4497,-21.33146 4.9512,-32.03267 1.3865,-10.90229 3.8795,-21.6437 4.5417,-32.63642 1.0823,-10.23554 2.4199,-20.43786 3.6157,-30.66026 0.5992,-6.91471 1.7982,-13.69572 3.0805,-20.50011 0,0 13.316,-6.45699 13.316,-6.45699 z"
       id="path3297"
       style="fill:#000000;stroke:#000000" />
    <path
       d="m 1104.3725,148.19113 c -0.364,8.42558 -0.2826,16.8126 0.569,25.20291 1.367,14.04609 3.1494,28.04014 5.017,42.02633 1.8428,14.72844 5.2862,29.07975 9.59,43.25636 4.4573,15.15711 9.8174,30.01116 15.3926,44.78368 5.9332,15.13959 10.5195,30.7239 17.2109,45.56366 4.2533,8.73388 9.5788,17.10301 17.9568,22.41423 1.5332,0.97192 3.2057,1.70406 4.8086,2.55608 11.0927,5.11136 22.4649,4.23696 34.1085,2.09669 9.2938,-1.90584 17.5621,-6.23778 25.728,-10.85808 0,0 -10.8954,8.79404 -10.8954,8.79404 l 0,0 c -8.2781,4.52382 -16.6977,8.7173 -26.0564,10.52451 -12.2642,2.11136 -23.1553,2.62029 -34.7546,-2.80383 -1.6452,-0.90984 -3.3618,-1.70106 -4.9355,-2.7295 -8.5089,-5.56055 -13.839,-14.15721 -18.0799,-23.16954 -6.4708,-14.95225 -11.1734,-30.53033 -17.2032,-45.65362 -5.6263,-14.79233 -10.839,-29.72311 -15.3818,-44.89 -4.4358,-14.21262 -8.0295,-28.58347 -9.806,-43.40268 -1.8404,-13.97197 -3.6636,-27.94364 -5.23,-41.94954 -0.9903,-8.33159 -1.1812,-16.65703 -1.228,-25.04136 0,0 13.1894,-6.72034 13.1894,-6.72034 z"
       id="path3299"
       style="fill:#000000;stroke:#000000" />
    <path
       d="m 1082.7839,285.4898 c 8.6835,-3.06289 17.4812,-5.76124 26.2085,-8.69457 8.9791,-3.38728 17.6536,-7.50199 26.3466,-11.54771 0,0 -10.6158,8.43925 -10.6158,8.43925 l 0,0 c -8.8037,4.05177 -17.5734,8.21095 -26.6589,11.60806 -9.0104,3.08751 -18.0253,6.18692 -27.0789,9.12818 0,0 11.7985,-8.93321 11.7985,-8.93321 z"
       id="path3301"
       style="fill:#000000;stroke:#000000" />
    <path
       d="m 913.09148,428.08039 c -1.69741,5.26082 -0.18703,10.64026 0.70132,15.91449 0.1017,0.58169 0.60725,3.66445 0.85783,4.50543 0.15743,0.52838 0.45852,1.65742 0.92833,1.36891 0.23611,-0.145 0.60779,-0.87137 0.35881,-0.7498 -3.98492,1.94558 -7.81279,4.19756 -11.71919,6.29635 3.39052,-5.79824 5.9973,-12.1098 8.33782,-18.40694 1.13147,-4.14566 3.31784,-7.888 4.55062,-11.99138 0.64702,-1.8362 0.29901,-0.97429 1.02427,-2.59363 0,0 13.49953,-6.10502 13.49953,-6.10502 l 0,0 c -0.82715,1.47497 -0.42401,0.69551 -1.19675,2.3449 -1.03975,4.30085 -3.54366,7.99884 -4.77713,12.24291 -2.34035,6.39793 -5.25418,12.54707 -7.77088,18.87369 -13.26425,7.99338 -15.20555,13.41474 -16.93564,1.02709 -0.88584,-5.39056 -2.54677,-10.87809 -1.2402,-16.31681 0,0 13.38126,-6.41019 13.38126,-6.41019 z"
       id="path3305"
       style="fill:#000000;stroke:#000000" />
    <path
       d="m 955.68008,392.50698 c 1.03924,7.74855 1.29522,15.57338 1.54119,23.37893 0.52187,7.36259 1.38472,14.69792 2.22277,22.03034 0.86945,7.38975 2.07486,2.90543 -12.81914,9.3062 -0.22944,0.0986 0.0554,-0.49659 0.0704,-0.74586 0.0283,-0.46874 0.0397,-0.93834 0.0595,-1.4075 -0.29254,-5.45197 1.13559,-10.67554 2.64872,-15.85667 2.09669,-5.62757 3.69574,-11.50716 6.61975,-16.78198 11.20243,-14.29575 14.92035,-12.33947 17.43996,-2.2411 1.46005,6.46072 2.89213,12.83818 5.14301,19.07518 0.26474,0.77715 1.27339,3.85826 1.72843,4.80573 0.13986,0.29121 0.28079,0.92958 0.56933,0.78429 0.33895,-0.17068 0.46519,-1.29237 0.12123,-1.13202 -4.15804,1.93842 -8.02061,4.45611 -12.03092,6.68416 0,0 13.64389,-5.84521 13.64389,-5.84521 l 0,0 c -13.83487,8.66045 -13.24999,12.86086 -16.74883,1.7411 -2.21251,-6.28353 -3.65435,-12.69071 -5.3002,-19.13546 -0.79597,-2.93325 -0.31273,-1.43974 -1.24584,-3.92711 -0.0927,-0.24708 -0.091,-0.55191 -0.27282,-0.74319 -0.0757,-0.0797 -0.39059,0.201 -0.29653,0.14415 12.38508,-7.48607 15.30092,-10.06186 10.68068,-6.14566 -3.38041,4.95982 -4.75219,10.99126 -6.95613,16.51077 -1.48826,5.0072 -2.99526,10.07549 -2.55846,15.35804 0.0124,0.46481 0.0242,0.92963 0.0371,1.39442 0.008,0.27151 0.25664,0.67384 0.0243,0.81449 -14.41105,8.72302 -13.00966,11.75289 -13.55477,4.11882 -0.54101,-7.43412 -1.35546,-14.84267 -1.94575,-22.27263 -0.25483,-7.66098 -0.47174,-15.38 -1.87159,-22.9347 0,0 13.05075,-6.97753 13.05075,-6.97753 z"
       id="path3307"
       style="fill:#000000;stroke:#000000" />
    <path
       d="m 993.14881,422.05032 c -4.13541,3.13386 -13.21288,5.22545 5.9721,-3.01875 1.08289,-0.46535 -1.86277,1.44875 -2.73218,2.24458 -2.45305,2.24544 -2.67705,2.75402 -4.68348,5.33607 -2.61311,4.48665 -7.05757,8.68824 -7.91772,13.98534 0.42735,1.90984 2.59651,1.79817 4.14952,1.20252 0.72496,-0.27806 2.7403,-1.46064 2.06746,-1.07311 -3.34226,1.92498 -6.71819,3.79091 -10.07728,5.68637 7.44665,-5.11913 12.79198,-12.71845 17.96672,-19.99744 4.27975,-5.32008 8.28005,-10.81436 11.85995,-16.62244 7.2053,-10.25258 13.6384,-12.7551 15.9958,-4.03848 0.9458,6.41106 2.0266,12.80613 3.4605,19.12658 1.7672,5.44563 1.8473,13.00212 5.3506,17.68853 1.3026,0.10999 0.6956,0.24409 1.8235,-0.39145 0,0 -11.8842,8.8909 -11.8842,8.8909 l 0,0 c -1.7972,-0.25137 -0.9085,0.0524 -2.6186,-1.03982 -3.4627,-5.32399 -3.5348,-12.36918 -5.3298,-18.33416 -1.4535,-6.25276 -2.693,-12.56285 -3.8112,-18.88167 -0.1752,-0.6768 -0.3721,-2.13581 -1.0803,-2.58109 -0.076,-0.0479 -0.092,0.31449 -0.015,0.26932 12.1447,-7.05807 15.4151,-11.09754 11.6305,-6.62028 -4.0831,5.62509 -7.6273,11.66503 -12.3162,16.8605 -5.1372,7.29417 -10.3434,14.89689 -17.43267,20.43306 -5.00694,2.87147 -9.9395,5.87672 -15.02082,8.61442 -3.08285,1.66096 -6.8972,0.91265 -7.91741,-2.63294 0.30242,-5.64354 5.14291,-10.11167 7.82219,-14.81315 6.92985,-9.63293 15.76882,-13.83152 26.31351,-19.553 0,0 -11.57589,9.25959 -11.57589,9.25959 z"
       id="path3309"
       style="fill:#000000;stroke:#000000" />
    <path
       d="m 1042.5427,430.16862 c 1.2446,2.40869 1.9463,9.87652 4.115,10.79607 4.3546,-3.56673 -2.4037,2.04195 -11.2756,5.77314 -0.569,0.23927 0.6374,-1.06674 0.8422,-1.64899 1.0117,-2.87675 1.395,-6.12826 1.9728,-9.10875 0.7432,-7.06316 2.2926,-13.81455 4.7653,-20.45998 4.1566,-9.83497 14.2883,-17.81558 25.292,-17.00106 6.1981,2.16981 11.0244,6.49295 15.5187,11.11851 4.116,4.63299 6.7122,10.32896 9.0313,16.01299 0.9407,2.01202 1.0488,4.3657 2.2602,6.25305 0,0 -12.9428,7.40255 -12.9428,7.40255 l 0,0 c -0.938,-2.09828 -1.1666,-4.4279 -2.036,-6.55666 -2.1466,-5.5459 -4.7798,-11.0155 -8.6972,-15.54322 -4.2604,-4.34369 -8.898,-8.62263 -14.967,-10.13077 -5.2929,0.17702 -14.6417,4.42525 4.9126,-5.30744 0.878,-0.437 -1.406,1.37916 -1.9905,2.16672 -0.3262,0.43961 -2.979,5.04949 -3.2246,5.47339 -2.5555,6.57199 -4.306,13.17355 -4.8903,20.23535 -1.5014,8.17436 -2.5222,23.16369 -17.0894,19.26895 -3.0864,-2.87988 -2.4542,-7.94325 -4.5077,-11.53404 0,0 12.911,-7.20981 12.911,-7.20981 z"
       id="path3311"
       style="fill:#000000;stroke:#000000" />
    <path
       d="m 1100.3059,427.61812 c 1.438,5.3403 3.4321,10.42832 5.6901,15.46919 2.9924,7.70249 5.2772,5.09443 -11.1877,10.23571 -0.5859,0.18295 -0.2534,-1.2013 -0.3982,-1.79774 -0.1848,-0.76099 -0.3937,-1.51593 -0.5905,-2.27389 -1.4984,-6.70215 -2.1545,-13.59513 -2.0271,-20.45517 0.6526,-5.74627 1.7949,-11.60502 5.5663,-16.15422 4.6955,-2.67583 9.2185,-5.68005 14.0865,-8.0275 2.5185,-1.2145 10.2774,7.91377 11.5673,9.37313 6.3811,6.91583 11.3981,14.86589 16.4622,22.74896 5.9463,10.39528 4.5208,6.76382 -10.2272,14.1628 0,0 12.5515,-8.07947 12.5515,-8.07947 l 0,0 c -4.2327,2.43767 -8.531,4.76469 -12.698,7.31299 -0.1527,0.0934 0.4567,0.30189 0.5199,0.13442 0.1513,-0.4005 0.047,-0.87477 -0.087,-1.28139 -0.2841,-0.86273 -2.2418,-4.41789 -2.5457,-4.98502 -4.7987,-7.95838 -9.7941,-15.82954 -16.266,-22.56605 -2.3399,-2.52457 -4.7325,-5.39 -7.7278,-7.1971 -2.2838,-1.37784 -3.3756,-0.31347 -3.1339,-0.47874 3.5742,-2.44352 7.3928,-4.50877 11.0892,-6.76316 -4.428,3.80459 -5.359,9.77491 -6.2447,15.26906 -0.2755,6.70329 0.4223,13.45971 1.9867,19.98808 0.2163,0.75073 0.4257,1.50351 0.649,2.2522 0.1926,0.64571 1.1154,1.49842 0.5986,1.93079 -13.1818,11.0283 -11.5977,11.97601 -14.6904,3.81731 -2.1163,-5.04494 -4.1579,-10.09129 -5.8253,-15.30046 0,0 12.8819,-7.33473 12.8819,-7.33473 z"
       id="path3313"
       style="fill:#000000;stroke:#000000" />
    <path
       d="m 1148.8345,421.2497 c 1.2221,5.52034 3.1953,10.84498 4.7703,16.27538 2.9935,7.7843 6.8677,2.14099 -10.4881,10.00305 -0.3022,0.13691 0.4578,-0.49644 0.593,-0.79945 0.2713,-0.60844 0.4081,-1.2684 0.6121,-1.9026 1.478,-5.5102 1.8941,-11.2149 2.8916,-16.82126 1.471,-4.4663 0.3781,-9.62872 1.9238,-14.00989 4.672,-2.26854 9.0806,-5.18818 14.016,-6.80563 0.3098,-0.10155 2.9284,2.85572 4.0854,4.26745 4.0282,4.91524 7.7571,10.09395 11.6684,15.1023 6.9067,7.61293 13.8359,17.18674 24.0002,20.72075 4.8267,1.67817 9.3435,1.35113 14.3096,1.40902 0,0 -11.3283,8.17881 -11.3283,8.17881 l 0,0 c -5.3161,-0.25595 -9.4288,-0.0613 -14.5658,-2.02279 -10.2146,-3.90033 -17.1965,-13.45226 -24.3244,-21.17002 -4.0042,-4.91008 -7.861,-10.01377 -12.1447,-14.68931 -0.7488,-0.81734 -1.5092,-1.63021 -2.3472,-2.35577 -0.4806,-0.41605 -2.081,-0.64919 -1.5899,-1.05285 3.6048,-2.96351 7.92,-4.93776 11.8801,-7.40663 -0.2898,0.13837 -0.724,0.12876 -0.8693,0.41511 -1.0974,2.16321 -0.3552,10.39977 -1.6387,13.04052 -0.9703,5.62549 -1.5394,11.29884 -2.684,16.89087 -0.1595,0.64003 -0.3519,1.27274 -0.4784,1.92009 -0.098,0.50015 0.2394,1.24736 -0.1933,1.51658 -12.2394,7.61499 -12.9013,11.28231 -16.1382,2.54145 -1.4784,-5.5863 -3.4121,-11.01121 -5.1848,-16.50694 0,0 13.2246,-6.73824 13.2246,-6.73824 z"
       id="path3315"
       style="fill:#000000;stroke:#000000" />
  </g>
</svg>
