<?xml version="1.0" encoding="UTF-8" standalone="no"?>
<!-- Created with Inkscape (http://www.inkscape.org/) -->

<svg
   xmlns:dc="http://purl.org/dc/elements/1.1/"
   xmlns:cc="http://creativecommons.org/ns#"
   xmlns:rdf="http://www.w3.org/1999/02/22-rdf-syntax-ns#"
   xmlns:svg="http://www.w3.org/2000/svg"
   xmlns="http://www.w3.org/2000/svg"
   version="1.1"
   width="728"
   height="90"
   id="svg2987">
  <defs
     id="defs2989" />
  <metadata
     id="metadata2992">
    <rdf:RDF>
      <cc:Work
         rdf:about="">
        <dc:format>image/svg+xml</dc:format>
        <dc:type
           rdf:resource="http://purl.org/dc/dcmitype/StillImage" />
        <dc:title></dc:title>
      </cc:Work>
    </rdf:RDF>
  </metadata>
  <g
     id="layer1">
    <path
       d="m 28.838419,41.112287 c 3.071752,1.457405 6.157132,1.368832 9.453537,1.030814 3.136983,-0.410818 6.310636,-0.107933 9.457328,0.04441 2.202692,-0.359983 4.413976,-0.963592 6.647187,-0.651893 2.341534,0.373618 4.660965,0.727898 6.98756,1.184814 3.584326,0.567272 7.229941,0.896279 10.852251,0.617479 0.665074,-0.05846 1.328041,-0.150663 1.995221,-0.175384 2.5003,-0.09264 1.635799,0.123144 4.030163,0.05515 1.685754,-0.04787 3.246701,-0.325082 4.937494,-0.248232 3.176754,0.25012 6.356388,0.424159 9.541217,0.524469 4.376666,0.134898 8.757073,0.127911 13.135383,0.101134 3.52212,-0.647758 7.07485,-0.419255 10.62588,-0.260052 3.94899,0.155835 7.90005,0.223866 11.85164,0.266954 4.14093,0.25127 8.23326,-0.374188 12.33368,-0.834023 2.43796,-0.314808 4.89809,-0.446179 7.3555,-0.433762 2.79349,-0.118528 5.52754,0.05804 8.28462,0.471865 3.13956,0.559857 6.24218,0.619247 9.39666,0.258667 2.71344,-0.371771 5.44207,-0.580673 8.1777,-0.681421 2.23909,-0.304277 4.34618,0.455754 6.5337,0.764529 3.28528,0.334658 6.59332,0.398034 9.89326,0.433587 3.92357,0.11175 7.80132,0.0607 11.69013,-0.441355 3.01491,-0.753671 5.98072,-0.398751 9.01292,-0.0848 4.09592,0.380236 8.21189,0.4712 12.3226,0.542013 4.00256,0.03927 8.00481,-0.0116 12.00698,-0.06135 3.33704,-0.03598 6.67442,0.02267 10.01147,0.04597 4.27597,-0.09584 8.55339,-0.39138 12.82621,-0.68784 3.0246,-0.103916 6.10733,-0.79822 9.11598,-0.304166 2.24508,0.454442 4.49111,0.864686 6.77929,0.618525 3.53045,-0.601983 7.05921,-0.326922 10.60268,-0.08519 3.36791,0.608816 6.47042,-0.215311 9.69378,-1.060596 2.56095,-0.613931 5.15117,-0.805206 7.7736,-0.824899 4.11974,-0.144203 8.20439,0.205168 12.26857,0.857344 4.00612,0.717743 8.05078,1.146172 12.11349,1.344342 3.33798,-0.0671 6.6123,0.569153 9.92187,0.900516 4.13989,0.368555 8.29803,0.382885 12.4506,0.406786 3.26422,0.194618 6.60116,-0.419513 9.83099,0.135811 3.48264,0.828861 6.97444,1.46102 10.54374,1.80521 4.28074,0.34007 8.57788,0.362352 12.86945,0.351986 3.63199,0.05308 7.26827,-0.216197 10.88371,0.18295 4.23954,0.542549 8.50795,0.755133 12.77665,0.888759 3.79077,0.10768 7.58345,0.05526 11.37481,0.01557 2.69792,-0.148462 4.98336,-0.04433 7.63148,0.426976 2.68177,0.333891 5.26343,1.089866 7.94141,1.465177 2.70978,0.333118 5.44235,0.367109 8.16856,0.374109 2.34477,0.01631 4.6891,0.0034 7.03383,-0.01452 2.35707,-0.162789 4.62005,0.07482 6.93196,0.473169 3.54699,0.546741 7.14198,0.656223 10.72424,0.726606 3.46049,0.02789 6.92188,0.05023 10.38219,-0.0028 2.77352,0.0069 5.54688,-0.04062 8.32034,-0.01879 3.03224,-0.0066 6.06396,0.03545 9.0962,0.02405 3.34438,0.01442 6.68939,0.03736 10.03354,-0.0098 2.61462,0.0219 5.22858,-0.03945 7.84294,-0.05333 2.35068,-0.011 4.70119,0.0153 7.05163,0.04554 2.87938,0.05326 5.71608,0.662944 8.58883,0.910941 2.61621,0.397135 5.17037,-0.261725 7.75489,-0.588879 1.38952,-0.351893 2.91591,-0.06713 4.30472,-0.345488 0.28787,-0.0577 1.12807,-0.489981 1.41355,-0.630495 1.25496,-0.412931 2.56983,-0.603429 3.88766,-0.59564 2.26309,0.164716 4.45146,-0.009 6.68672,-0.344814 2.95296,-0.282779 5.86786,-0.608651 8.78979,-1.090288 3.10345,-0.178091 6.10962,-0.81995 9.15408,-1.382083 2.63721,-0.479857 5.31925,-0.508736 7.99045,-0.518958 3.37136,0.02274 6.74281,-0.0059 10.11416,0.0069 3.13933,0.08448 6.3203,-0.162618 9.34561,-1.03672 2.3879,-0.779442 4.87504,-1.037504 7.3601,-1.27149 2.01724,-0.119239 4.03986,-0.0805 6.0595,-0.06971 2.12841,0.01915 4.25656,-0.0093 6.38481,0.01876 2.33282,0.0059 4.66528,0.0098 6.99817,0.01317 2.27943,0.0126 4.55857,-0.01124 6.8378,-0.0275 1.43518,-0.679043 2.91066,-0.978178 4.48117,-1.073734 1.96783,-0.333104 3.76288,0.246774 5.67344,0.604337 2.34643,0.407062 4.73379,0.43843 7.10782,0.503366 3.09916,0.07743 6.19961,0.05368 9.29912,0.01834 2.34539,-0.03597 4.69134,-0.009 7.0366,-0.04871 1.94746,-0.172898 3.79988,0.455216 5.68385,0.863812 1.31995,0.30733 2.4046,1.090459 3.78446,1.274921 2.40511,0.589052 4.84785,0.953016 7.32981,1.160874 3.47919,0.251869 6.96911,0.206478 10.45456,0.226275 3.29895,-0.02628 6.59774,0.01233 9.89659,0.03562 3.87184,0.207178 7.69144,-0.46857 11.5408,-0.764925 3.20338,-0.306415 6.42355,-0.395941 9.63961,-0.455305 3.03361,-0.190237 6.01509,0.108506 9.01826,0.476882 4.917,0.552697 9.86806,0.6502 14.80996,0.761363 3.12702,0.09636 6.25242,0.137902 9.38068,0.130305 0,0 -16.63388,12.074712 -16.63388,12.074712 l 0,0 c -3.2004,-0.03456 -6.399,-0.0049 -9.59949,-0.01548 -5.03994,-0.10108 -10.07441,-0.350103 -15.10024,-0.745497 -3.02794,-0.214924 -6.05055,-0.190652 -9.08455,-0.135011 -3.12144,0.04661 -6.24083,0.157639 -9.35197,0.429083 -3.88208,0.379449 -7.75363,0.800019 -11.66359,0.629609 -3.33958,0.02878 -6.67936,0.08387 -10.01901,0.03221 -3.5008,-0.03046 -6.9997,-0.180688 -10.49333,-0.405255 -2.64579,-0.236903 -5.26324,-0.638892 -7.86281,-1.177001 -1.26387,-0.413098 -2.42082,-1.09587 -3.75489,-1.274954 -1.75781,-0.438741 -3.50442,-0.628434 -5.31975,-0.518764 -2.30651,-0.03795 -4.61367,-0.0041 -6.92033,-0.03638 -3.10405,-0.03395 -6.20805,-0.04796 -9.31221,-0.07929 -2.48446,-0.06339 -4.97844,-0.178394 -7.41962,-0.681079 -1.79437,-0.312829 -3.5552,-0.358899 -5.35562,-0.01057 -1.52614,0.319392 -3.01148,0.95246 -4.59955,0.808791 -2.25411,-0.01633 -4.50813,-0.03999 -6.76244,-0.02756 -2.3436,0.0029 -4.6867,0.0063 -7.03024,0.0069 -2.13236,0.02158 -4.26431,-0.0178 -6.39678,-0.0026 -1.98453,0.01653 -3.97281,0.03464 -5.94825,0.247177 -2.39992,0.251857 -4.7365,0.811045 -7.07931,1.375474 -3.16106,0.493977 -6.34014,0.738824 -9.54256,0.607043 -3.38154,0.0063 -6.76444,-0.0425 -10.14462,0.08141 -2.62362,0.116477 -5.24686,0.292539 -7.82698,0.81512 -3.03245,0.555315 -6.09214,0.837213 -9.13611,1.316494 -2.93254,0.4771 -5.90787,0.589197 -8.84508,1.045694 -2.33235,0.260576 -4.67584,0.237175 -7.01011,0.464511 -1.2174,0.222527 -2.40918,0.546957 -3.5786,0.951912 -1.90863,0.292523 -3.86899,0.209387 -5.77713,0.548632 -2.67419,0.348005 -5.33543,0.600471 -8.02368,0.167119 -2.79457,-0.357029 -5.58931,-0.865053 -8.41743,-0.755161 -2.39222,0.02972 -4.78452,0.05639 -7.17698,0.04553 -2.56541,-0.01383 -5.13039,-0.07603 -7.69607,-0.05338 -3.33513,-0.04892 -6.67119,-0.02278 -10.00656,-0.0097 -3.05519,-0.01138 -6.10985,0.03111 -9.16504,0.02744 -2.76324,0.02454 -5.52649,-0.01481 -8.28982,-0.0059 -3.41445,-0.05695 -6.83077,-0.03676 -10.24389,-0.167953 -3.70381,-0.13016 -7.41668,-0.23709 -11.09043,-0.767755 -2.26782,-0.264366 -4.54569,-0.15294 -6.82567,-0.166977 -2.34369,-0.0093 -4.68753,-0.002 -7.03079,-0.0445 -2.7563,-0.101655 -5.51893,-0.241461 -8.24627,-0.674472 -2.66357,-0.460574 -5.29511,-1.080792 -7.98119,-1.410545 -2.45826,-0.282333 -4.92894,-0.167708 -7.39975,-0.217556 -3.72024,-0.05477 -7.43954,-0.152103 -11.15866,-0.257425 -4.32424,-0.165093 -8.63773,-0.46383 -12.94675,-0.862805 -3.58969,-0.116892 -7.1837,-0.01547 -10.77486,-0.09564 -4.31563,-0.08143 -8.63734,-0.151615 -12.93811,-0.549563 -3.63425,-0.403792 -7.20121,-1.150857 -10.8237,-1.615124 -3.14016,-0.111638 -6.28268,-0.111774 -9.42403,-0.174833 -4.24419,-0.05837 -8.49759,-0.09895 -12.72896,-0.453841 -3.27862,-0.361649 -6.54512,-0.817562 -9.85104,-0.852699 -4.01769,-0.344079 -7.99774,-0.953335 -11.97321,-1.624888 -4.11395,-0.474233 -8.2394,-0.61758 -12.3752,-0.31718 -2.53386,0.189544 -5.05501,0.525967 -7.52374,1.144694 -3.31603,0.696781 -6.56415,0.941127 -9.94676,0.465683 -3.55385,-0.217174 -7.05929,-0.05082 -10.59632,0.355987 -2.37311,-0.03601 -4.68032,-0.446746 -7.02341,-0.783981 -2.88224,-0.008 -5.75882,0.21263 -8.63562,0.363456 -4.30643,0.273374 -8.6195,0.511856 -12.93311,0.593957 -3.38392,0.02503 -6.76813,0.0868 -10.15208,0.05527 -3.91593,-0.05089 -7.83178,-0.109292 -11.74761,-0.165177 -4.22825,-0.0528 -8.45847,-0.119463 -12.6748,-0.473546 -2.93364,-0.203896 -5.80801,-0.07923 -8.71892,0.380827 -3.906,0.349135 -7.82731,0.165564 -11.74421,0.167046 -3.45976,-0.04173 -6.93324,0.0045 -10.37047,-0.459648 -2.08685,-0.34339 -4.12959,-0.729955 -6.2598,-0.442324 -2.67177,0.142749 -5.33232,0.40695 -7.99655,0.647929 -3.24855,0.170426 -6.47334,-0.101969 -9.6873,-0.593548 -2.73485,-0.279195 -5.47317,-0.217293 -8.2187,-0.138946 -2.36568,0.10338 -4.7301,0.21646 -7.08696,0.454206 -4.08425,0.377721 -8.16772,0.682018 -12.27416,0.505738 -4.02289,-0.01189 -8.04753,-0.01389 -12.067466,-0.187256 -3.502313,-0.09791 -6.978212,-0.02971 -10.471741,0.239016 -4.408778,-0.04119 -8.817733,-0.06031 -13.226524,-0.10237 -3.214108,-0.07547 -6.42126,-0.254158 -9.632042,-0.396478 -3.589707,0.149268 -7.178598,0.07154 -10.762885,0.336083 -3.778647,0.01755 -7.565789,-0.244159 -11.294502,-0.875128 -2.304463,-0.390773 -4.639811,-0.62437 -6.966092,-0.832636 -2.19953,0.187094 -4.379367,0.713843 -6.596208,0.571174 -3.019574,-0.201207 -6.04641,-0.391634 -9.062988,9.21e-4 -2.090037,0.07769 -4.061406,0.04782 -6.131015,-0.305325 -0.741867,-0.126588 -2.162964,-0.492589 -2.998863,-0.554017 -0.286004,-0.02102 -0.573007,0.02494 -0.859511,0.03741 0,0 17.492106,-12.708759 17.492106,-12.708759 z"
       id="path3032"
       style="fill:#000000;stroke:#000000" />
  </g>
</svg>
