<?xml version="1.0" encoding="UTF-8" standalone="no"?>
<!-- Created with Inkscape (http://www.inkscape.org/) -->

<svg
   xmlns:dc="http://purl.org/dc/elements/1.1/"
   xmlns:cc="http://creativecommons.org/ns#"
   xmlns:rdf="http://www.w3.org/1999/02/22-rdf-syntax-ns#"
   xmlns:svg="http://www.w3.org/2000/svg"
   xmlns="http://www.w3.org/2000/svg"
   version="1.1"
   width="400"
   height="384"
   id="svg3158">
  <metadata
     id="metadata3164">
    <rdf:RDF>
      <cc:Work
         rdf:about="">
        <dc:format>image/svg+xml</dc:format>
        <dc:type
           rdf:resource="http://purl.org/dc/dcmitype/StillImage" />
        <dc:title></dc:title>
      </cc:Work>
    </rdf:RDF>
  </metadata>
  <defs
     id="defs3162" />
  <path
     d="m 29.070482,18.213078 c 3.62503,0.09518 7.25191,0.06274 10.877839,0.07014 5.21104,-0.02308 10.414488,0.03814 15.619268,0.291444 3.855718,0.176191 7.718763,-0.15872 11.573459,-0.06921 1.451335,0.0337 4.809057,0.311191 6.243999,0.421365 5.787545,0.580853 11.605902,0.659634 17.405905,1.027577 5.520801,0.312127 11.000468,1.140015 16.471608,1.917784 5.20649,0.610283 10.40882,1.269673 15.63584,1.682297 4.95339,0.446556 9.92198,0.08999 14.87845,-0.101239 5.22491,0.105458 10.35958,-0.665006 15.50753,-1.42372 5.09462,-0.760695 10.23466,-1.081224 15.37829,-1.240718 5.10718,0.05294 10.19571,-0.446628 15.2995,-0.472657 4.81428,-0.03809 9.59946,0.514116 14.39686,0.82991 4.77337,0.273195 9.53204,0.72769 14.30835,0.965113 4.9809,0.251726 9.95764,0.23712 14.93575,-0.02171 4.80742,-0.275301 9.61624,-0.430182 14.42006,-0.763625 4.97797,-0.487449 9.95821,0.180512 14.92157,0.53773 4.72961,0.324801 9.47064,0.402218 14.20969,0.435846 4.51313,0.307148 9.02661,0.56933 13.54833,0.706627 4.37462,0.112384 8.75105,0.105515 13.12674,0.09924 3.8552,0.103571 7.6943,-0.285726 11.5393,-0.4998 3.55072,-0.196056 7.10568,-0.273851 10.66088,-0.323937 3.43232,-0.0797 6.85251,-0.439303 10.28537,-0.587596 3.41565,-0.09301 6.80004,-0.602299 10.20769,-0.83476 3.06556,-0.09907 6.13017,-0.357376 9.16177,-0.827748 2.65543,-0.290305 5.25687,-0.821075 7.87071,-1.346653 1.83774,-0.377763 3.71317,-0.417829 5.58124,-0.457014 2.01174,0.12227 3.97617,-0.170595 5.96327,-0.421744 2.59846,-0.537497 5.23434,-0.831852 7.87694,-1.037043 1.55556,-0.268031 3.02642,-0.02072 4.5184,0.406389 0.90491,0.668651 1.48481,1.634023 1.91042,2.655503 1.03904,2.238292 1.5943,4.640718 2.24322,7.009528 1.20685,3.800851 2.67001,7.491569 3.58485,11.379305 1.01025,4.863412 1.95131,9.733745 3.08248,14.570956 0.75844,3.919861 1.66789,7.808527 2.3339,11.745585 0.59402,3.782856 0.67959,7.618602 0.73656,11.439693 0.15436,4.227671 -0.43751,8.42079 -0.91173,12.608967 -0.56963,4.621139 -1.5533,9.174631 -2.48236,13.732527 -1.12354,4.73463 -1.96897,9.5238 -2.91443,14.29506 -0.95728,5.0723 -1.90491,10.14824 -2.99498,15.19398 -1.03962,4.55326 -1.59769,9.19379 -2.27284,13.80953 -0.60561,4.50426 -1.07412,9.0278 -1.53436,13.54947 -0.51775,4.95113 -0.8352,9.91801 -1.24098,14.87827 -0.34928,4.73012 -0.96354,9.4332 -1.34511,14.16009 -0.17214,4.57894 -0.57082,9.14289 -0.87179,13.71412 -0.1738,4.95233 -0.41395,9.8985 -0.69623,14.84589 -0.27819,4.74964 -0.38637,9.50598 -0.44215,14.26264 -0.0513,4.36664 -0.11159,8.71002 0.441,13.04544 0.64874,4.02274 0.90851,8.0853 1.07257,12.15148 0.11432,3.69987 0.15657,7.40198 0.15011,11.10354 -0.0117,3.93478 -0.0296,7.86949 -0.0385,11.80429 0.0153,3.99061 0.0134,7.98111 -3.6e-4,11.97171 -0.0366,4.21904 -0.002,8.43829 0.017,12.65734 0.15062,3.5021 -0.2158,6.98546 -0.46738,10.47254 -0.3329,3.23623 -0.72182,6.46482 -0.92667,9.71253 -0.16385,3.0395 -0.19564,6.08458 -0.21419,9.12786 -0.002,3.44709 -0.003,6.8943 0.0222,10.34132 -0.16247,2.52079 0.63657,4.92703 1.17131,7.35506 0.35929,1.65596 0.45037,3.34837 0.49799,5.03672 0.0428,1.46463 0.0216,2.93027 0.0227,4.39543 -0.003,1.16775 0.0144,2.33533 0.008,3.50308 0.009,0.89446 0.0537,1.78393 -0.0729,2.67059 -0.99606,2.74638 -7.39819,7.16627 -10.97612,5.26762 -0.81388,-0.56896 -1.82523,-0.57308 -2.78078,-0.63293 -1.84599,-0.39679 -3.72489,-0.78163 -5.61742,-0.63914 -1.9061,0.17132 -3.78544,0.38376 -5.65707,0.77523 -1.71962,0.41111 -3.40125,0.54059 -5.14089,0.27361 -1.80343,-0.3786 -3.58117,-0.83195 -5.41712,-1.0705 -0.80291,-0.05 -2.01194,-0.19955 -2.7521,0.28361 -0.11624,0.0759 -0.3781,0.39556 -0.25705,0.32763 2.89526,-1.62479 5.73759,-3.34213 8.60639,-5.01319 -0.5668,-0.12778 0.37919,1.08331 0.49309,1.29507 0.42274,0.79319 0.5718,1.67431 0.55533,2.56264 -0.22921,1.0827 -0.6263,2.12328 -0.96106,3.17681 -0.35504,1.54857 -0.83542,3.05759 -1.51815,4.49229 -2.20187,3.6224 -5.02629,3.71599 -10.05556,6.33944 -0.16018,0.0836 -0.83952,-0.42576 -1.00898,-0.50557 -0.62009,-0.58258 -1.02186,-1.3427 -1.43139,-2.08053 -0.21135,-0.91097 -0.51594,-1.06955 -1.11293,-1.6077 -0.67316,-0.48525 -1.46072,-0.77911 -2.18383,-1.23271 -1.08238,-0.74979 -2.19698,-1.43829 -3.27063,-2.19764 -1.13464,-1.05305 -2.39733,-1.97205 -3.67582,-2.84813 -2.21274,-1.17936 -4.6391,-1.84708 -6.99296,-2.67562 -2.40235,-0.71945 -4.85564,-1.24934 -7.17159,-2.22609 -2.4742,-1.01564 -4.89716,-2.0891 -7.46895,-2.84592 -3.25041,-0.71965 -6.549,-1.15631 -9.77225,-2.00205 -2.4309,-0.76488 -4.92582,-1.2158 -7.46086,-1.41849 -2.84108,-0.15683 -5.68832,-0.13961 -8.53269,-0.14107 -2.82345,-0.002 -5.64679,0.0216 -8.47016,0.0397 -1.97188,0.25836 -3.93143,0.56689 -5.91654,0.70792 -2.52667,0.49368 -5.10414,0.64464 -7.67075,0.76559 -2.87103,0.10462 -5.74422,0.11904 -8.61677,0.13916 -2.83612,-0.0837 -5.64878,0.31351 -8.47645,0.48125 -3.5183,0.16296 -7.0298,0.19282 -10.53486,0.55214 -2.86006,0.54144 -5.73351,0.98852 -8.60461,1.46372 -3.75519,0.42701 -7.52889,0.713 -11.26879,1.27186 -3.05246,0.51765 -6.1204,0.85494 -9.21336,0.96353 -3.7411,0.0716 -7.48315,0.0487 -11.22472,0.0642 -3.15309,0.21862 -6.28287,-0.23481 -9.42528,-0.27308 -3.8227,-0.1287 -7.62792,-0.15499 -11.45275,-0.0143 -3.3562,0.16469 -6.71541,0.24263 -10.07529,0.26543 -4.06616,0.0669 -8.13877,-0.18777 -12.18041,-0.62378 -4.02633,-0.60584 -8.05969,-0.77028 -12.12146,-0.65465 -4.3212,0.3216 -8.62109,-0.13097 -12.91288,-0.56847 -4.26175,-0.42671 -8.54701,-0.50314 -12.82642,-0.5546 -3.89034,-0.0356 -7.78095,-0.009 -11.671369,10e-4 -4.16953,0.34334 -8.328656,0.52643 -12.50999,0.39683 -3.112594,0.008 -6.243304,-0.46379 -9.349909,-0.18892 -2.666422,0.18045 -5.334754,0.0184 -8.00628,-0.0607 -3.177519,-0.0699 -6.342704,-0.0268 -9.502866,-0.38257 -2.147653,-0.21485 -4.297996,-0.29998 -6.452231,-0.12514 -2.902236,0.33937 -5.818606,0.4245 -8.730748,0.68584 -2.572031,0.22767 -5.182078,0.18915 -7.638179,1.0665 -0.243713,0.10362 -0.476422,0.23838 -0.731139,0.31085 -0.653598,0.18595 -1.36584,0.22328 -2.023099,0.42745 -0.457935,0.14226 -0.895698,0.34369 -1.350724,0.49499 -1.551,0.49896 -3.076316,0.71682 -4.701153,0.73605 -1.125429,-0.14909 -2.204789,0.32921 -3.31298,0.38614 -0.350644,0.018 -1.183735,-0.0779 -1.553164,-0.11519 -1.410521,-0.41501 -2.511389,-1.473 -3.597512,-2.42464 -0.456126,-0.57152 -0.989727,-1.07153 -1.517774,-1.57433 0,0 8.785988,-5.40488 8.785988,-5.40488 l 0,0 c 0.507594,0.49742 1.024309,0.98691 1.502013,1.51366 0.963822,0.81258 1.893942,1.78028 3.220212,1.87532 1.605961,0.0415 3.175263,-0.40256 4.786502,-0.34581 1.555405,-0.10489 3.05601,-0.48006 4.533618,-0.97504 1.351498,-0.45232 2.753403,-0.70771 4.098904,-1.18019 2.514902,-0.58366 5.09422,-0.58266 7.655537,-0.82738 2.940958,-0.25351 5.889086,-0.3904 8.822302,-0.72466 2.178394,-0.10781 4.362932,0.0237 6.526879,0.29034 3.12234,0.32928 6.259555,0.26994 9.395049,0.35612 2.680205,0.0589 5.357076,0.0985 8.034774,-0.0584 3.084686,-0.0531 6.15913,0.30341 9.242374,0.36496 4.204189,0.0855 8.378908,-0.21281 12.572875,-0.4751 3.86254,0.006 7.72494,0.0282 11.58718,0.0788 4.31809,0.0732 8.64505,0.12181 12.94353,0.58207 4.24604,0.45826 8.50351,0.82785 12.77824,0.50203 4.09602,-0.10673 8.16048,0.15017 12.21783,0.74544 4.04766,0.39345 8.11397,0.60755 12.18155,0.48192 3.33924,-0.0518 6.67777,-0.1281 10.0153,-0.2497 3.85314,-0.11725 7.69458,-0.0484 11.54722,0.0191 3.12355,0.11766 6.23967,0.39613 9.3712,0.28058 3.75025,0.0142 7.5027,0.0149 11.25037,-0.14134 3.04915,-0.17818 6.08054,-0.52314 9.09896,-0.99381 3.76659,-0.48319 7.5554,-0.79174 11.31322,-1.34214 2.8714,-0.4934 5.74754,-0.96652 8.62997,-1.3878 3.50563,-0.28962 7.02104,-0.28401 10.53037,-0.5192 2.85997,-0.22439 5.7146,-0.58761 8.58963,-0.48126 2.85129,0.002 5.70415,-0.01 8.55233,-0.15726 2.59416,-0.16209 5.17067,-0.44076 7.73767,-0.84976 1.97968,-0.18575 3.9418,-0.5412 5.93092,-0.61578 2.80062,0.0102 5.60123,0.0202 8.40186,0.0119 2.88791,-4.6e-4 5.78255,-0.0426 8.66458,0.16627 2.53866,0.28406 5.02129,0.8404 7.45972,1.6073 3.25075,0.78472 6.57276,1.20536 9.81389,2.03013 2.59479,0.80082 5.07402,1.85639 7.58666,2.87758 2.32203,0.89142 4.75592,1.42388 7.11575,2.20376 2.44245,0.8387 4.95516,1.56572 7.20908,2.85465 1.29057,0.86934 2.5263,1.81709 3.70701,2.83046 1.08274,0.70939 2.15127,1.43874 3.25329,2.11795 0.78997,0.41736 1.65242,0.74184 2.31245,1.35805 0.68229,0.51073 1.09552,1.11851 1.30706,1.94829 0.27509,0.51224 0.56612,1.18666 1.08298,1.47359 0.0847,0.031 0.16482,0.0799 0.25404,0.093 0.11712,0.0172 0.41732,-0.22347 0.31506,-0.16384 -17.45436,10.17932 -9.93089,6.56173 -7.56392,4.2376 0.7921,-1.3181 1.32019,-2.77658 1.59984,-4.28837 0.26494,-1.03704 0.61204,-2.05096 0.95973,-3.0558 0.28788,-0.60052 0.0127,-1.3658 -0.23214,-1.95144 -0.43664,-0.81436 -1.11227,-1.53643 -1.1083,-2.51561 5.64032,-3.3872 7.15791,-6.2295 12.42151,-5.45801 1.82015,0.29373 3.5979,0.78764 5.42475,1.02869 1.66562,0.12952 3.29783,-0.1777 4.92721,-0.51219 1.90154,-0.34927 3.83188,-0.52001 5.76111,-0.62858 1.92677,0.065 3.8119,0.42618 5.71604,0.69911 1.04628,0.10967 2.03046,0.31097 2.9736,0.79111 0.30249,10e-4 0.65669,0.0454 0.94801,-0.0564 0.0943,-0.033 0.34814,-0.19656 0.26179,-0.14621 -8.73738,5.09484 -11.98051,5.11919 -8.28847,5.02612 0.10009,-0.0452 0.24658,-0.0398 0.30027,-0.1356 0.21427,-0.38231 -0.15762,-1.63381 0.0127,-2.09179 -0.005,-1.17327 0.0168,-2.34625 0.0202,-3.51949 0.009,-1.45971 0.007,-2.91913 0.003,-4.37887 -0.0295,-1.63469 -0.082,-3.27493 -0.38227,-4.88681 -0.48795,-2.51215 -1.29451,-5.00768 -1.16597,-7.59259 0.02,-3.45409 0.01,-6.9083 0.0127,-10.36243 -0.005,-3.05031 -0.058,-6.10358 0.11403,-9.15078 0.2305,-3.2622 0.62957,-6.50413 1.0088,-9.75165 0.20154,-3.47194 0.61508,-6.93274 0.50155,-10.41623 0.0189,-4.22485 0.0534,-8.44989 0.017,-12.67472 -0.0134,-3.9915 -0.0148,-7.98288 0.004,-11.97437 -0.005,-3.92442 -0.0142,-7.84881 -0.0203,-11.77322 -0.01,-3.69878 0.0283,-7.39827 -0.0823,-11.09604 -0.14129,-4.03791 -0.4061,-8.07214 -1.03032,-12.06828 -0.14701,-1.09181 -0.43058,-3.02282 -0.4838,-4.12302 -0.14623,-3.02335 0.15837,-6.06619 0.0635,-9.09085 0.0345,-4.76861 0.0565,-9.54155 0.40323,-14.30027 0.31869,-4.94108 0.54518,-9.87984 0.66564,-14.82976 0.2493,-4.58563 0.74511,-9.15319 0.90304,-13.74466 0.31373,-4.73897 0.95281,-9.44061 1.33939,-14.17347 0.46692,-4.94442 0.71639,-9.90995 1.16276,-14.85663 0.47954,-4.54317 1.01008,-9.08166 1.57124,-13.61493 0.68158,-4.64061 1.16158,-9.32017 2.27217,-13.8869 1.11573,-5.0303 2.05762,-10.09782 2.98191,-15.1663 0.95116,-4.76898 1.76086,-9.5647 2.90586,-14.29387 0.90269,-4.52845 1.90099,-9.043162 2.47375,-13.629961 0.45343,-4.147099 1.10305,-8.295383 0.94165,-12.481141 -0.0643,-3.773311 -0.13356,-7.55875 -0.6832,-11.299614 -0.63186,-3.930205 -1.54118,-7.808112 -2.24419,-11.726057 -1.06168,-4.848687 -1.99725,-9.719756 -3.06739,-14.566497 -0.93017,-3.861908 -2.42699,-7.512017 -3.68253,-11.273887 -0.69158,-2.305634 -1.23334,-4.664609 -2.32814,-6.824497 -0.2893,-0.682504 -0.71981,-1.55844 -1.46291,-1.83088 -1.38252,-0.360873 -2.76628,-0.371748 -4.18575,-0.202421 -2.64544,0.224683 -5.26625,0.609675 -7.87666,1.093892 -2.0103,0.254509 -4.01311,0.394405 -6.04174,0.354862 -1.83292,0.06439 -3.66424,0.195507 -5.46152,0.584877 -2.59264,0.516367 -5.20242,0.886101 -7.82226,1.238856 -3.06076,0.39904 -6.13452,0.665565 -9.21935,0.782355 -3.38279,0.257689 -6.75442,0.679332 -10.14873,0.763218 -3.46113,0.19443 -6.91282,0.582509 -10.38064,0.608401 -3.51643,0.02573 -7.03347,0.09787 -10.54475,0.299089 -3.8652,0.238987 -7.72902,0.59632 -11.60612,0.472452 -4.35147,-0.02649 -8.70287,-0.07654 -13.05311,-0.18736 -4.53114,-0.137727 -9.05281,-0.4107 -13.57849,-0.661618 -4.73755,-0.07655 -9.47749,-0.16917 -14.20459,-0.515662 -4.93356,-0.369475 -9.88421,-0.956234 -14.83107,-0.427616 -4.80438,0.332198 -9.61517,0.488915 -14.42418,0.741715 -5.0088,0.231213 -10.0184,0.202657 -15.02786,-0.03415 -4.77651,-0.244007 -9.53148,-0.762677 -14.30923,-0.985541 -4.77331,-0.330753 -9.53993,-0.842085 -14.33156,-0.782836 -5.10444,0.06628 -10.19657,0.518125 -15.30438,0.50602 -5.10363,0.179802 -10.20565,0.505671 -15.25674,1.293972 -5.17112,0.786084 -10.33887,1.40689 -15.5836,1.344877 -4.99292,0.200372 -10.00198,0.549081 -14.98856,0.02982 -5.22202,-0.460627 -10.41994,-1.154503 -15.626845,-1.7563 -5.45265,-0.747043 -10.90151,-1.622663 -16.406377,-1.868259 -5.788652,-0.328157 -11.58788,-0.497982 -17.360631,-1.075209 -2.139667,-0.146452 -4.072963,-0.310014 -6.217555,-0.334076 -3.877946,-0.04351 -7.76093,0.231759 -11.639202,0.0407 -5.235936,-0.241547 -10.470499,-0.2287 -15.711126,-0.166601 -3.690303,0.0075 -7.38145,-0.02346 -11.070914,0.07014 0,0 8.341232,-6.060259 8.341232,-6.060259 z"
     id="path3174"
     style="fill:#000000;stroke:#000000" />
  <path
     d="m 10.79482,345.40371 c 0.915366,-2.91935 1.284832,-5.98203 1.83849,-8.9851 0.7171,-3.57349 1.05103,-7.20029 1.234983,-10.83498 0.102368,-3.14975 0.05989,-6.29179 0.331728,-9.43306 0.345704,-3.49538 0.463745,-7.00516 0.549258,-10.51455 -0.04194,-4.15776 0.186124,-8.30151 0.444746,-12.44874 0.218191,-4.96378 0.37596,-9.91086 0.983947,-14.845 0.525541,-3.62388 0.794397,-7.27255 0.946953,-10.92856 0.112549,-3.44807 0.08914,-6.89835 0.08381,-10.34768 0.05087,-3.29029 0.05819,-6.54678 -0.422095,-9.80529 -0.601515,-3.37399 -0.9106,-6.78359 -1.082382,-10.20307 -0.139764,-3.67163 -0.105127,-7.34715 -0.09035,-11.0206 -0.01837,-4.16945 -0.0415,-8.33257 0.223248,-12.4947 0.32236,-4.21912 0.458015,-8.44776 0.541009,-12.67722 0.05169,-4.17544 -0.0045,-8.34552 0.265479,-12.514 0.336566,-3.88111 0.359482,-7.77901 0.606809,-11.66441 0.317131,-3.48101 0.541071,-6.96746 0.660151,-10.4606 -0.0066,-3.67041 0.213725,-7.32364 0.472674,-10.98272 0.280532,-3.90226 0.366876,-7.81423 0.426107,-11.72491 -0.08499,-4.32592 0.653582,-8.5999 1.089784,-12.88981 0.410121,-4.28073 0.49385,-8.5826 0.553012,-12.8796 0.217848,-4.37055 0.80499,-8.7216 1.330082,-13.06572 0.601446,-4.39969 0.844702,-8.83294 0.992798,-13.267218 0.01314,-3.996605 -0.90628,-7.924514 -1.682433,-11.826009 -0.933577,-4.201329 -1.708931,-8.435547 -2.538026,-12.65895 -0.796308,-4.474496 -1.473475,-8.964738 -1.813854,-13.497839 -0.153469,-3.611917 -0.376775,-7.250678 -0.107821,-10.864154 0.151294,-2.032682 0.677093,-5.743965 0.950995,-7.790387 0,0 8.731369,-4.29768 8.731369,-4.29768 l 0,0 c -0.410769,2.836873 -0.753464,4.770226 -0.914635,7.643128 -0.199645,3.558717 0.132561,7.131999 0.246492,10.686661 0.337598,4.497087 0.924708,8.958396 1.757551,13.392021 0.832737,4.217379 1.614567,8.446068 2.575611,12.635808 0.796334,3.97404 1.737484,7.974585 1.763814,12.043659 -0.13773,4.462682 -0.399505,8.922718 -0.966748,13.35398 -0.527594,4.31367 -1.065821,8.6366 -1.38334,12.96898 -0.0356,4.32127 -0.09002,8.64694 -0.496386,12.95278 -0.434192,4.25956 -1.190083,8.5037 -1.105072,12.7971 -0.03717,3.92693 -0.116847,7.85374 -0.391411,11.77249 -0.252345,3.63927 -0.482924,7.2735 -0.438429,10.92432 -0.116257,3.51237 -0.334759,7.01874 -0.68819,10.51589 -0.297386,3.88325 -0.262374,7.78742 -0.623064,11.66862 -0.284193,4.15772 -0.304076,8.31376 -0.308042,12.48098 -0.07054,4.24159 -0.199692,8.48248 -0.510318,12.71426 -0.273734,4.1432 -0.300428,8.28409 -0.252964,12.43634 0.01724,3.6476 0.02339,7.29613 0.140507,10.94222 0.146595,3.38961 0.411404,6.77427 1.014651,10.1176 0.114567,0.71719 0.458446,2.76541 0.508729,3.4955 0.147064,2.13532 -0.10657,4.29836 0.0047,6.43601 -0.0029,3.4636 -0.01433,6.92761 -0.08628,10.39053 -0.114158,3.70216 -0.409163,7.39457 -0.987903,11.05579 -0.68966,4.91063 -0.936958,9.82562 -1.020607,14.78334 -0.236173,4.12508 -0.464639,8.24386 -0.393986,12.37825 -0.05459,3.51986 -0.160122,7.04128 -0.474334,10.54896 -0.253446,3.13499 -0.303728,6.26752 -0.36717,9.41229 -0.178789,3.67866 -0.505504,7.34989 -1.210656,10.97004 -0.538108,2.99996 -0.92957,6.02578 -1.552959,9.00916 0,0 -9.360085,4.39585 -9.360085,4.39585 z"
     id="path3176"
     style="fill:#000000;stroke:#000000" />
  <path
     d="m 73.995291,157.77733 c -1.992982,0.49578 -4.036691,0.67552 -6.059447,0.98161 -1.711365,0.26091 -3.440909,0.33334 -5.111561,0.83637 -1.135025,0.43427 -2.223823,1.02844 -3.279145,1.65305 -2.125141,1.28228 0.992436,-0.60532 0.74357,-0.45544 -0.975652,0.58766 -1.951212,1.17551 -2.924297,1.76804 -3.43588,2.09221 7.488709,-4.56483 -2.066366,1.26578 -0.216652,0.13127 -0.428114,0.27296 -0.649956,0.39382 -0.454895,0.24785 -1.811999,1.00724 -1.360009,0.75335 0.507716,-0.2852 0.983975,-0.63683 1.507285,-0.88742 0.254302,-0.12177 -0.464949,0.32921 -0.694617,0.49827 -0.232068,0.17083 -0.460329,0.34754 -0.690494,0.52131 -1.19489,0.86514 -2.157894,1.99413 -2.94773,3.27749 -0.870614,1.23283 -1.687629,2.50599 -2.527577,3.76251 -0.825986,1.10704 -1.72015,2.14609 -2.673235,3.12709 -0.807574,0.87221 -1.587836,1.79397 -2.219827,2.82254 -0.598829,1.1596 -1.407286,2.15988 -2.175774,3.18849 -0.928707,1.25842 -1.760771,2.5928 -2.633561,3.89637 -0.730856,1.05765 -1.232691,2.25196 -1.654508,3.48043 -0.543499,2.01029 -1.01628,4.03555 -1.615397,6.02825 -0.395933,1.61955 -0.97126,3.17949 -1.554141,4.72987 -0.439359,0.97017 -0.924103,1.91755 -1.211814,2.95519 -0.267367,0.86655 -0.585735,1.71346 -0.824522,2.58997 -0.254438,1.2093 -0.441616,2.47384 -0.258536,3.70534 0.34994,1.51582 0.744009,3.02011 1.141475,4.52231 0.394354,1.42288 0.591277,2.89028 0.880539,4.33831 0.324418,1.24083 0.699672,2.4622 1.116315,3.67052 0.434688,1.26005 0.88077,2.51511 1.314998,3.77573 0.241218,0.96516 0.875461,1.69911 1.244859,2.60002 0.2634,0.78204 0.56518,1.54919 1.032594,2.21644 0.518607,0.69565 1.164089,1.21133 1.876976,1.65135 0.958217,0.52066 1.902119,1.07032 2.857952,1.59525 1.120025,0.52824 2.162287,1.17564 3.328041,1.58636 1.088108,0.37651 2.092874,0.94226 3.079278,1.55435 0.963407,0.54446 1.930024,1.04962 2.988128,1.33903 1.297144,0.18533 2.578988,0.46462 3.879527,0.62896 1.364592,0.15613 2.737305,0.18422 4.108266,0.20048 1.020277,0.0126 2.026052,0.0689 3.023471,-0.18276 0.849645,-0.10508 1.650882,-0.3691 2.466134,-0.62674 0.920387,-0.19258 1.821424,-0.46508 2.745113,-0.64766 0.922165,-0.0539 1.788351,-0.38709 2.689536,-0.57021 0.816648,-0.16795 1.635965,-0.41681 2.42757,-0.70222 0.453526,-0.2444 0.96012,-0.31404 1.436097,-0.4725 0.107152,-0.0356 0.205567,-0.0966 0.30835,-0.14482 -0.626705,0.38015 -1.253411,0.76029 -1.880116,1.14044 0.848175,-0.52408 1.695703,-1.04937 2.544528,-1.57223 0.980134,-0.60376 0.335748,-0.11569 -1.592009,0.95294 -0.08501,0.0471 0.145627,-0.13349 0.214654,-0.20463 0.07683,-0.0792 0.148431,-0.16407 0.222647,-0.24611 0.08453,-0.0848 0.169066,-0.16966 0.253599,-0.25449 0.524119,-0.60101 1.019379,-1.24659 1.46895,-1.91645 0.367791,-0.67457 0.758669,-1.33448 1.161656,-1.98539 0.356684,-0.56447 0.720168,-1.12036 1.086207,-1.67797 0.27187,-0.4371 0.368227,-0.92241 0.407092,-1.43654 0.03393,-0.74015 0.02757,-1.48181 0.02073,-2.2226 8.5e-5,-0.75207 -0.248601,-1.47158 -0.368752,-2.20839 -0.05061,-0.94942 -0.27458,-1.8668 -0.451086,-2.79448 -0.177142,-0.72935 -0.106738,-1.50352 -0.265347,-2.23137 -0.13533,-0.63914 -0.501922,-1.16311 -0.710109,-1.77152 -0.129249,-0.5614 -0.282432,-1.09478 -0.492082,-1.62753 -0.353987,-0.49731 -0.59982,-1.06253 -0.972992,-1.54618 -0.34128,-0.54949 -0.739978,-1.04184 -1.224461,-1.44915 -0.612566,-0.3222 -1.174657,-0.73319 -1.780307,-1.06903 -0.768049,-0.27733 -1.532222,-0.58235 -2.32865,-0.7571 -0.978364,-0.39973 -2.012386,-0.56813 -3.048235,-0.67839 -1.032201,-0.2559 -2.072517,-0.44552 -3.125924,-0.56184 -0.73119,-0.11566 -1.484675,0.0125 -2.202827,-0.17202 -0.546735,-0.20314 -1.105552,-0.34928 -1.680448,-0.41609 -0.801185,-0.21844 -1.55988,-0.55664 -2.355337,-0.79421 -1.006616,-0.20025 -2.008158,-0.39637 -3.009199,-0.63157 -0.977502,-0.16369 -1.942253,-0.27381 -2.877787,-0.63795 -0.760732,-0.35163 -1.556006,-0.58489 -2.332817,-0.88873 -0.634513,-0.36768 -1.160054,-0.90938 -1.68038,-1.44209 -0.410331,-0.47543 -0.626854,-1.13378 -0.889198,-1.71973 -0.159936,-0.65167 -0.425945,-1.26411 -0.614783,-1.90637 -0.166697,-0.56992 -0.208125,-1.16713 -0.228862,-1.76039 -0.02015,-0.7259 -0.06285,-1.42839 0.181205,-2.11488 0.27941,-0.55803 0.595456,-1.09616 0.746173,-1.7128 0.26925,-0.79186 0.616477,-1.54532 0.897854,-2.33384 0.560054,-1.49541 1.402183,-2.81423 2.382354,-4.02252 1.859741,-2.05711 4.195277,-3.39088 6.498532,-4.77951 1.256979,-0.73514 2.549013,-1.37456 3.894376,-1.89755 0.982132,-0.26298 1.814474,-0.88984 2.73924,-1.29575 0.917971,-0.44135 1.838365,-0.83099 2.814203,-1.10294 1.546314,-0.35828 3.099594,-0.66874 4.649792,-1.00548 1.479387,-0.42844 2.974722,-0.76603 4.492408,-0.98824 0.846877,-0.22957 1.697109,-0.42432 2.504254,-0.7855 -0.640299,0.38432 -1.275691,0.77823 -1.920897,1.15297 -0.09817,0.057 0.182393,-0.13872 0.278752,-0.19921 0.829612,-0.52071 1.679088,-1.00522 2.498613,-1.54404 0.623416,-0.40989 -1.26878,0.78016 -1.910001,1.15704 -0.103864,0.0611 0.194398,-0.14581 0.297111,-0.20907 0.839928,-0.51726 1.686802,-1.02139 2.530202,-1.5321 -4.913741,3.0214 0.415569,-0.28161 0.630206,-0.40973 0.510672,-0.30483 1.090523,-0.50701 1.615642,-0.78668 1.132143,-0.56933 2.321175,-0.99154 3.457277,-1.54712 0.81098,-0.37722 0.32815,-0.12285 1.047448,-0.56683 0.147659,-0.0911 0.594892,-0.35649 0.445779,-0.26812 -3.057897,1.81228 -2.006278,1.30637 -1.300725,0.60528 0.411801,-0.38824 0.69575,-0.83483 0.841791,-1.3997 0.112639,-0.51661 0.07997,-1.04714 0.154149,-1.5691 0.19295,-0.85464 0.327491,-1.71901 0.399262,-2.59449 0.06148,-0.92302 0.159218,-1.80446 -0.205105,-2.66072 -0.33918,-0.70321 -0.572193,-1.45125 -0.695979,-2.23037 -0.0411,-0.84178 -0.459259,-1.57959 -0.801596,-2.31958 -0.477451,-0.92399 -0.975993,-1.85021 -1.795462,-2.46425 -0.712246,-0.50949 -1.52613,-0.76431 -2.31046,-1.09939 -0.912642,-0.30499 -1.836179,-0.58534 -2.765799,-0.83009 -1.253406,-0.34841 -2.479059,-0.11 -3.71167,0.19565 -0.946168,0.31834 -1.812901,0.84166 -2.675065,1.356 -0.375755,0.22417 -0.875734,0.30389 -1.122284,0.68204 -0.40692,0.62412 3.130571,-2.15209 0.103164,0.15726 0,0 -2.330479,0.98871 -2.330479,0.98871 l 0,0 c 2.477334,-1.91288 5.175452,-3.6935 8.047214,-4.83648 1.262404,-0.2937 2.519188,-0.46676 3.790425,-0.0995 0.935886,0.25808 1.875049,0.51904 2.789258,0.85327 0.809481,0.32297 1.622335,0.6364 2.343467,1.16283 0.825102,0.67524 1.363575,1.60846 1.859685,2.5747 0.357209,0.75693 0.796773,1.52619 0.848161,2.38796 0.106968,0.75876 0.323712,1.48726 0.656766,2.16867 0.419458,0.97961 0.327525,1.73138 0.265069,2.7855 -0.06105,0.88313 -0.182372,1.75647 -0.381696,2.61689 -0.109217,0.52222 -0.04014,1.05498 -0.140872,1.58076 -0.126788,0.60774 -0.342796,1.12074 -0.787335,1.54255 -1.260802,1.35819 -2.970122,2.14648 -4.559883,2.97573 -1.150884,0.52768 -2.329553,0.98523 -3.461039,1.56228 -0.420684,0.21205 -0.846031,0.41213 -1.265432,0.62705 -0.115888,0.0594 -0.456859,0.2511 -0.346916,0.17985 0.117059,-0.0759 5.961327,-3.71501 -0.640131,0.39667 0.6211,-0.39427 1.241171,-0.79041 1.863301,-1.18279 0.101266,-0.0639 -0.199809,0.13261 -0.300674,0.19721 -0.824169,0.52785 -1.659449,1.03602 -2.474408,1.5801 -0.619578,0.41364 1.254459,-0.80041 1.888113,-1.18867 0.09715,-0.0596 -0.18525,0.13467 -0.277874,0.202 -0.828163,0.51664 -1.656326,1.03327 -2.484488,1.5499 -0.818406,0.32942 -1.676343,0.52846 -2.529832,0.72345 -1.509016,0.22368 -2.990719,0.58606 -4.466484,0.98937 -1.550967,0.34221 -3.110381,0.63564 -4.651359,1.02891 -0.967221,0.29598 -1.881545,0.71521 -2.803296,1.14304 -0.905273,0.44265 -1.765023,0.9962 -2.735488,1.27512 -1.32824,0.54936 -2.616004,1.18021 -3.865482,1.91429 0.473563,-0.30965 0.946037,-0.62123 1.42069,-0.92893 0.25511,-0.1654 -0.515863,0.32164 -0.762053,0.50194 -1.003638,0.73505 -1.960517,1.57126 -2.853683,2.45242 -0.984553,1.17515 -1.832074,2.45207 -2.399475,3.92212 -0.269798,0.78 -0.560021,1.54101 -0.896865,2.28937 -0.109051,0.64585 -0.399904,1.21663 -0.729356,1.76629 -0.309109,0.63551 -0.243371,1.29776 -0.226071,1.99912 0.01639,0.57043 0.04191,1.14605 0.19428,1.69686 0.179172,0.63258 0.452236,1.22803 0.599066,1.87063 0.244339,0.55883 0.452042,1.18081 0.837229,1.63565 0.494326,0.50639 1.001479,1.02854 1.619839,1.34924 0.772935,0.304 1.56854,0.53286 2.32365,0.88913 0.935789,0.32653 1.899173,0.41912 2.862227,0.61159 1.002978,0.24058 2.015765,0.40383 3.017624,0.64564 0.783881,0.24723 1.542028,0.57953 2.346429,0.74999 0.574614,0.0902 1.129151,0.25943 1.686078,0.43333 0.722163,0.11066 1.459757,0.0441 2.183562,0.15949 1.049691,0.133 2.083993,0.34429 3.120334,0.56466 1.043371,0.12657 2.074434,0.32811 3.069453,0.69903 0.808049,0.20133 1.60275,0.48767 2.3732,0.81421 0.613216,0.35317 1.204151,0.74759 1.812227,1.11057 0.485944,0.43251 0.897713,0.93691 1.248742,1.50033 0.381695,0.50885 0.655047,1.08686 1.015236,1.61151 0.209196,0.53932 0.384661,1.06835 0.493461,1.6423 0.205994,0.61881 0.588657,1.14498 0.724835,1.79411 0.183649,0.72889 0.091,1.51101 0.262944,2.24854 0.170823,0.9309 0.410583,1.84795 0.457501,2.7996 0.117567,0.75227 0.373318,1.48401 0.392113,2.24682 -0.0012,0.74625 0.0093,1.49271 -0.0077,2.23878 -0.03177,0.55361 -0.09333,1.07613 -0.350207,1.57108 -0.359294,0.56588 -0.743525,1.10161 -1.090307,1.67612 -0.412769,0.64724 -0.820635,1.30296 -1.164518,1.99332 -0.445897,0.68973 -0.959127,1.32074 -1.4416,1.97606 -0.237739,0.20473 -0.435715,0.54488 -0.68647,0.71754 -0.80731,0.55593 -1.636897,1.07365 -2.458254,1.60531 -0.105596,0.0684 -0.428986,0.26126 -0.322438,0.19463 0.612163,-0.38281 1.226211,-0.76213 1.839316,-1.14319 -0.844015,0.51496 -1.677837,1.0497 -2.532045,1.5449 -0.526237,0.30506 -1.22055,0.27688 -1.74669,0.60133 -0.804025,0.26342 -1.615246,0.52996 -2.44493,0.67794 -0.894307,0.20472 -1.771727,0.48341 -2.68753,0.56545 -0.917953,0.19654 -1.823899,0.4507 -2.735646,0.67514 -0.814438,0.26717 -1.636446,0.46045 -2.47749,0.6071 -1.006066,0.20184 -2.023545,0.13017 -3.04284,0.1229 -1.375354,-0.0224 -2.752328,-0.0568 -4.120132,-0.22726 -1.309675,-0.17408 -2.608067,-0.43329 -3.91099,-0.65241 -1.065243,-0.32021 -2.049855,-0.83831 -3.022261,-1.39943 -0.979528,-0.5944 -1.976138,-1.14294 -3.052182,-1.51044 -1.163918,-0.43667 -2.222485,-1.08503 -3.346981,-1.62165 -0.958548,-0.53298 -1.919586,-1.0603 -2.874907,-1.59976 -0.738075,-0.46326 -1.397557,-1.02303 -1.936458,-1.74341 -0.470108,-0.68914 -0.800732,-1.46566 -1.058657,-2.27229 -0.365469,-0.90762 -1.015478,-1.6432 -1.241981,-2.62026 -0.430233,-1.26188 -0.874371,-2.51708 -1.311415,-3.77586 -0.431071,-1.21742 -0.799908,-2.45433 -1.133799,-3.70644 -0.286585,-1.44362 -0.479708,-2.90656 -0.864132,-4.32696 -0.403164,-1.5094 -0.794116,-3.02281 -1.164071,-4.54203 -0.219651,-1.26041 -0.0366,-2.56161 0.200751,-3.81046 0.219418,-0.88245 0.524283,-1.72834 0.815051,-2.58492 0.258062,-1.06173 0.750709,-2.02445 1.217887,-2.99418 0.602651,-1.54092 1.181436,-3.10351 1.581029,-4.72069 0.609811,-1.98897 1.100149,-4.00659 1.601845,-6.02962 0.401334,-1.25071 0.882807,-2.47161 1.617219,-3.54513 0.864718,-1.31421 1.730141,-2.62811 2.633403,-3.91134 0.750393,-1.03055 1.58508,-1.99903 2.172645,-3.15526 0.601276,-1.06766 1.408587,-1.98849 2.205139,-2.89083 0.96633,-0.95915 1.844257,-2.00333 2.695008,-3.08085 0.845349,-1.24647 1.637031,-2.53362 2.52662,-3.74564 0.767829,-1.32092 1.726223,-2.48921 2.925411,-3.38062 1.966711,-1.50905 4.062022,-2.80628 6.213377,-3.9831 -0.496447,0.31552 -1.990818,1.25277 -1.489341,0.94657 0.958902,-0.58552 1.906718,-1.19175 2.861725,-1.78457 0.229282,-0.14233 0.914389,-0.57379 0.691112,-0.42085 -0.461321,0.31601 -1.881882,1.19985 -1.405715,0.91036 8.873221,-5.39461 0.505601,-0.38798 3.591539,-2.23182 1.068269,-0.61229 2.156524,-1.22684 3.318983,-1.60373 1.676537,-0.44467 3.398172,-0.53147 5.104002,-0.78978 2.031588,-0.30186 4.089459,-0.48182 6.077757,-1.04419 0,0 -2.026275,1.67561 -2.026275,1.67561 z"
     id="path3256"
     style="fill:#000000;stroke:#000000;stroke-width:1.0357368" />
  <path
     d="m 100.04117,161.45438 c -0.714777,1.47978 -1.236349,3.0337 -1.820999,4.56706 -0.578393,1.68184 -1.058121,3.39673 -1.557844,5.10344 -0.44749,1.57717 -0.570335,3.21422 -0.644042,4.84396 -0.132004,1.53622 0.102937,3.05699 0.267964,4.5796 0.138965,1.62947 0.240258,3.26764 0.151538,4.9019 -0.09416,1.57895 -0.440654,3.1232 -0.690139,4.68098 -0.211495,1.41901 -0.245385,2.85486 -0.271783,4.28667 -0.03956,1.55628 -0.207929,3.11872 -0.440046,4.65855 -0.415329,1.56158 -0.770947,3.12717 -0.961981,4.73258 -0.157414,1.64699 -0.162606,3.30362 -0.169032,4.95663 -0.02883,1.58409 -0.441332,3.11562 -0.717979,4.66572 -0.134422,1.24923 -0.292226,2.48534 -0.520965,3.72094 -0.20033,1.105 -0.2539,2.22727 -0.287267,3.34732 -0.02369,1.20883 -0.01848,2.41798 -0.01609,3.62696 -6.02e-4,0.90628 0.0079,1.81252 0.01,2.71878 9.5e-4,0.58726 0.0041,1.17455 0.0036,1.76181 -0.01577,0.63681 -0.03525,1.25504 0.129517,1.8728 0.114625,0.74992 0.472172,1.36153 0.919391,1.95863 0.539562,0.60734 1.125816,1.0824 1.897346,1.34919 0.7404,0.14514 1.478496,0.1939 2.216539,0.35587 0.913008,0.19997 1.846443,0.26823 2.777782,0.31292 0.82419,0.0305 1.64908,0.0273 2.47369,0.0275 0.97717,-0.003 1.95432,-1.9e-4 2.93149,7.4e-4 1.61764,-0.11372 3.20493,-0.42893 4.8055,-0.66889 1.56181,-0.21997 3.13567,-0.30983 4.7108,-0.35522 1.05774,-0.12797 2.02708,-0.60594 3.06333,-0.8459 0.85605,-0.37601 1.7855,-0.53442 2.70773,-0.64732 0.76065,-0.0773 1.5254,-0.0847 2.28918,-0.087 0.788,0.003 1.576,0.004 2.364,0.006 0.71597,3.6e-4 1.43193,-1.7e-4 2.1479,8.9e-4 0.28636,-0.0114 0.55395,0.0572 0.81105,-0.0938 0.0518,-0.0304 0.19684,-0.13701 0.14419,-0.1081 -2.09506,1.15036 -2.49913,1.84518 -1.98981,1.03101 0.29262,-0.51988 0.43416,-1.09968 0.54128,-1.68139 0.1119,-0.80653 0.0947,-1.62517 0.10186,-2.43764 0.004,-1.1691 -2.7e-4,-2.3382 -0.003,-3.50729 -0.002,-1.16537 6.3e-4,-2.33074 -2.6e-4,-3.49611 0.002,-1.12327 -0.002,-2.24652 -0.003,-3.36979 -3.6e-4,-1.02035 -1.1e-4,-2.04071 0,-3.06106 -7.7e-4,-0.80885 0.0879,-1.62827 -0.27475,-2.37443 -0.33242,-0.47068 -0.75927,-0.84199 -1.09243,-1.3132 -0.50481,-0.62115 -1.23656,-0.88708 -1.92757,-1.23005 -1.03893,-0.4067 -2.08752,-0.76964 -3.18478,-0.97807 -1.21408,-0.3382 -2.45484,-0.5513 -3.70758,-0.6757 -0.81519,-0.0773 -1.63447,-0.082 -2.45254,-0.0847 -0.7165,0.0285 -1.44248,-0.0661 -2.14641,0.0833 -0.87279,0.23609 -1.77049,0.3293 -2.66968,0.3886 -1.03764,-0.0236 -2.04317,0.23116 -3.06326,0.38127 -0.78299,0.19362 -1.62477,0.0437 -2.39373,0.27029 -0.61746,0.22822 -1.07314,0.40464 -1.60071,-0.0702 -0.41419,-0.29352 -0.67041,-0.71874 -0.7929,-1.20203 -0.11215,-0.56659 -0.10279,-1.14724 -0.10711,-1.72212 -0.10014,-0.81004 0.35038,-1.47445 0.61765,-2.20428 0.29283,-0.94223 0.3694,-1.92632 0.41557,-2.90592 0.13024,-0.93247 0.30349,-1.85868 0.5765,-2.76001 0.29727,-0.9063 0.38758,-1.85421 0.44352,-2.80047 0.0223,-1.35316 0.0447,-2.69613 0.19033,-4.04236 0.23813,-1.65112 0.73677,-3.24252 1.20858,-4.83691 0.38639,-1.42451 0.79529,-2.84141 1.04424,-4.29778 0.30843,-1.16414 0.45853,-2.35675 0.67065,-3.53879 0.2523,-1.19862 0.4021,-2.41261 0.63691,-3.61431 0.26723,-1.3046 0.28155,-2.63362 0.6032,-3.92663 0.34741,-1.14021 0.55923,-2.31195 0.90711,-3.45119 0.40322,-1.1122 0.85451,-2.20439 1.31496,-3.29373 0.33989,-0.84696 0.56672,-1.73571 0.67167,-2.64149 0.0558,-0.70237 0.0508,-1.40794 0.0478,-2.112 -0.006,-0.72395 -0.004,-1.44793 -0.008,-2.17189 0.0225,-0.6659 -0.0156,-1.3547 -0.34688,-1.94741 -0.28221,-0.51039 -0.71591,-0.90674 -1.18134,-1.24942 -0.50146,-0.23612 -1.07278,-0.22868 -1.61594,-0.24239 -0.76068,-0.12875 -1.48277,-0.193 -2.25941,-0.13327 -0.72231,0.10672 -1.47332,0.0169 -2.17906,0.20683 -0.67499,0.20463 -1.36415,0.27644 -2.00094,0.58528 0.51995,-0.41563 -1.4694,0.68908 -0.86823,0.34385 4.26795,-2.45099 0.65253,-0.41955 -0.77236,0.43862 4.75893,-2.72229 -0.60861,0.33786 -1.973016,1.08758 -1.520917,0.86365 2.644066,-1.61681 1.246623,-0.68939 0,0 -2.38911,0.93732 -2.38911,0.93732 l 0,0 c 0.997234,-0.69444 2.069577,-1.27267 3.135373,-1.85508 0.36027,-0.19882 0.71712,-0.40427 1.07867,-0.60071 0.11133,-0.0605 0.44465,-0.24288 0.33596,-0.17777 -0.77391,0.46361 -5.067539,2.95787 0.56123,-0.31725 0.95536,-0.52264 0.39074,-0.21723 -1.65903,0.97787 1.17925,-0.63044 2.1012,-1.33968 3.31864,-1.74004 0.65399,-0.25749 1.35634,-0.3464 2.03036,-0.54136 0.72638,-0.11383 1.46776,-0.0956 2.19883,-0.17602 0.77598,-0.0422 1.51194,0.0803 2.27936,0.1507 0.58667,0.0265 1.19664,0.0471 1.70816,0.37093 0.48045,0.37703 0.93404,0.80418 1.23386,1.34237 0.34606,0.6302 0.43533,1.35216 0.40386,2.06365 -8e-4,0.72387 0.006,1.44773 0.008,2.17159 0.002,0.7123 0.0127,1.42528 -0.0352,2.13656 -0.0868,0.93152 -0.32659,1.8422 -0.65586,2.71723 -0.45316,1.08419 -0.90915,2.16571 -1.31775,3.26718 -0.35413,1.13824 -0.58773,2.30281 -0.92504,3.44679 -0.34576,1.28531 -0.35401,2.60707 -0.60649,3.91133 -0.23567,1.20109 -0.38621,2.41349 -0.63732,3.61189 -0.22737,1.17691 -0.33279,2.37758 -0.67257,3.5339 -0.23412,1.47073 -0.66635,2.89443 -1.04489,4.33243 -0.46114,1.5849 -0.97592,3.15742 -1.22553,4.79496 -0.14327,1.33954 -0.17922,2.67358 -0.17691,4.0208 -0.049,0.96234 -0.1238,1.92955 -0.41307,2.85497 -0.27687,0.88475 -0.45579,1.78618 -0.60621,2.70197 -0.0406,0.99997 -0.11545,2.0027 -0.38509,2.97136 -0.22521,0.72265 -0.72568,1.34158 -0.6428,2.12241 1.6e-4,0.55645 -0.006,1.1176 0.0827,1.66848 0.0963,0.44154 0.33699,0.79624 0.71245,1.05742 0.45334,0.34051 0.96927,-0.0192 1.46014,-0.11869 0.79146,-0.12501 1.60385,-0.0881 2.39302,-0.24752 1.02229,-0.16019 2.03654,-0.37699 3.07715,-0.36681 0.89775,-0.0719 1.78539,-0.20017 2.66196,-0.41111 0.72085,-0.0838 1.44773,-0.0405 2.17251,-0.0496 0.82004,0.005 1.64133,0.022 2.45711,0.11328 1.25479,0.1425 2.49377,0.37877 3.71603,0.69778 1.11073,0.22981 2.18261,0.59571 3.23191,1.02544 0.7346,0.35097 1.48175,0.67543 2.00465,1.3314 0.34681,0.47511 0.79355,0.85601 1.11189,1.35202 0.38551,0.78689 0.34059,1.62412 0.31873,2.4828 1.1e-4,1.02036 3.4e-4,2.04072 -4e-5,3.06108 -7.6e-4,1.12419 -0.004,2.24836 -0.003,3.37254 -6.2e-4,1.16486 0.002,2.3297 0.003,3.49456 3.9e-4,1.16941 0.001,2.33881 0.003,3.50822 0.002,0.82136 0.022,1.64874 -0.066,2.4661 -0.0893,0.59468 -0.2209,1.20634 -0.50455,1.74017 -0.45835,1.34088 -2.1396,1.78137 -3.38665,1.7487 -0.71539,7.5e-4 -1.43079,-2.6e-4 -2.14617,-0.003 -0.78867,-0.001 -1.57734,-0.006 -2.36601,-0.002 -0.75592,0.006 -1.51333,0.0166 -2.2647,0.10914 -0.91914,0.13126 -1.82028,0.33444 -2.68917,0.66847 -1.02796,0.26845 -2.01199,0.73596 -3.08422,0.79401 -1.56462,0.0471 -3.12845,0.14089 -4.67848,0.36995 -1.61065,0.25207 -3.21431,0.56063 -4.84571,0.65083 -0.98074,0.002 -1.96147,0.007 -2.94222,0.007 -0.827215,1e-5 -1.654883,0.001 -2.481353,-0.0389 -0.939548,-0.0563 -1.879591,-0.1409 -2.800225,-0.34562 -0.74654,-0.15255 -1.511076,-0.16338 -2.243095,-0.38505 -0.788933,-0.3222 -1.41401,-0.83114 -1.971352,-1.47415 -0.464749,-0.61999 -0.851342,-1.26014 -0.972997,-2.0387 -0.180829,-0.63934 -0.190175,-1.26831 -0.165625,-1.93172 -4.96e-4,-0.58826 0.0026,-1.17654 0.0027,-1.7648 6.59e-4,-0.90851 0.0065,-1.81701 0.0034,-2.72552 -1.98e-4,-1.21158 -9.96e-4,-2.42323 0.01686,-3.63471 0.02219,-1.13163 0.07478,-2.26357 0.263721,-3.38179 0.238511,-1.23581 0.419975,-2.46978 0.533561,-3.72404 0.273486,-1.54067 0.696034,-3.05859 0.745605,-4.63087 0.0084,-1.66059 0.0063,-3.32424 0.152183,-4.97987 0.184642,-1.60918 0.512268,-3.18475 0.95921,-4.74236 0.249437,-1.52519 0.396684,-3.08112 0.450589,-4.62427 0.02039,-1.44227 0.05676,-2.88821 0.255334,-4.31901 0.249874,-1.55274 0.602633,-3.08968 0.708981,-4.66259 0.110642,-1.61933 -0.0074,-3.24523 -0.138198,-4.86101 -0.161518,-1.53445 -0.410036,-3.06622 -0.284792,-4.61431 0.07569,-1.64697 0.188343,-3.30261 0.622664,-4.90104 0.502242,-1.71284 0.993506,-3.43044 1.555139,-5.12466 0.584356,-1.52074 1.072635,-3.07489 1.790408,-4.54048 0,0 2.320022,-1.08956 2.320022,-1.08956 z"
     id="path3258"
     style="fill:#000000;stroke:#000000" />
  <path
     d="m 147.3948,159.50303 c -0.18843,0.10581 -0.75341,0.42378 -0.56528,0.31743 3.3024,-1.86696 0.73599,-0.45337 0.10845,-0.0235 -0.51321,0.35154 -0.72094,0.58287 -1.16848,1.00845 -0.8817,0.86585 -1.79076,1.69961 -2.72,2.51295 -0.60844,0.51129 -1.06608,1.16077 -1.57704,1.76166 -0.52912,0.68112 -0.97925,1.43841 -1.35952,2.21317 -0.59985,1.16081 -1.12728,2.35399 -1.64181,3.55416 -0.60431,1.4312 -1.16876,2.87385 -1.68063,4.34039 -0.60906,1.33845 -1.01758,2.73107 -1.24658,4.18038 -0.19248,1.41221 -0.11691,2.84001 -0.22972,4.257 -0.12583,1.55761 -0.37663,3.09552 -0.62071,4.63732 -0.23599,1.54028 -0.29677,3.09837 -0.33243,4.65379 0.24177,1.62827 0.62085,3.22733 0.82065,4.86337 0.1714,1.57218 0.19108,3.15534 0.20366,4.73516 0.0629,1.55332 0.46039,3.05973 0.72829,4.58431 0.32315,1.3802 0.59121,2.77105 0.86194,4.16234 0.25014,1.65546 0.40449,3.31767 0.73493,4.96073 0.35929,1.59223 0.67322,3.19654 1.07178,4.77938 0.26787,1.44067 0.90969,2.75991 1.55977,4.05993 0.72925,1.30485 1.59091,2.52881 2.32148,3.83311 0.48371,0.97199 1.07926,1.89892 1.83594,2.68087 0.51494,0.57881 1.09383,0.74588 1.83611,0.81601 1.01193,0.0964 2.00775,0.0228 3.00788,-0.13028 1.18531,-0.0926 2.30209,-0.43748 3.41533,-0.82847 -0.71727,0.59017 2.91605,-1.28313 2.03644,-0.79671 -1.99056,1.10078 -2.31684,1.446 -1.46214,0.67235 0.68534,-0.59631 1.21212,-1.34626 1.76134,-2.0649 0.517,-0.87026 0.87735,-1.83431 1.23548,-2.77989 0.5632,-1.72671 1.01788,-3.48475 1.56659,-5.21553 1.20594,-3.30679 3.04609,-6.34839 5.00434,-9.25785 1.08458,-1.79679 2.54279,-3.308 3.82828,-4.95138 0.54049,-0.68781 0.59565,-1.50895 0.62542,-2.34773 0.0203,-1.05158 -0.0476,-2.10191 0.0421,-3.15058 0.16696,-1.34757 0.29759,-2.69569 0.53326,-4.03326 0.30454,-1.57042 0.30999,-3.17349 0.46941,-4.7594 0.18888,-1.39146 0.34962,-2.78552 0.42952,-4.18762 -0.006,-1.36464 0.11902,-2.71234 0.29013,-4.06429 0.17858,-1.31423 0.23276,-2.63991 0.26836,-3.96426 0.0243,-1.32603 0.0224,-2.65234 0.0198,-3.97853 -0.0378,-1.24644 0.0902,-2.49981 -0.11416,-3.73267 -0.36921,-1.44515 -0.64347,-2.90292 -0.80135,-4.38561 -0.18387,-1.33978 -0.54304,-2.64555 -0.91176,-3.94418 -0.43912,-1.43136 -1.11958,-2.7531 -1.92751,-4.00813 -0.72961,-1.30392 -1.57065,-2.54688 -2.48871,-3.72548 -0.72832,-1.01132 -1.70321,-1.77306 -2.64591,-2.56829 -0.77051,-0.60607 -1.48407,-1.27699 -2.24198,-1.89666 -0.62871,-0.58848 -1.26848,-1.19067 -2.06197,-1.54313 -0.68734,-0.47272 -1.46947,-0.63857 -2.2818,-0.73671 -1.17163,-0.13274 -2.33219,-0.0802 -3.4963,0.0745 -1.17632,0.19065 -2.35347,0.46657 -3.49953,0.79756 -0.17715,0.0981 -0.70937,0.3908 -0.53144,0.29417 0.54546,-0.29625 1.05465,-0.67038 1.63407,-0.89301 0.22611,-0.0869 -0.36894,0.31404 -0.54898,0.47608 -0.6763,0.60874 -1.28585,1.27129 -1.90131,1.94035 -1.06043,1.00724 -0.53047,0.52423 -1.58763,1.4515 0,0 -2.33144,0.94649 -2.33144,0.94649 l 0,0 c 1.06483,-0.9145 0.53209,-0.44058 1.59659,-1.42357 1.6509,-1.82284 3.26908,-3.47601 5.6923,-4.3459 1.15863,-0.30391 2.3267,-0.60996 3.5155,-0.76414 1.18039,-0.14294 2.36396,-0.17156 3.54783,-0.0303 0.83082,0.12111 1.61883,0.33337 2.32972,0.79997 0.79131,0.39675 1.44817,0.9985 2.09157,1.59984 0.75097,0.62834 1.47785,1.2832 2.23742,1.90209 0.95744,0.80424 1.92686,1.59572 2.66431,2.61977 0.92013,1.18658 1.76158,2.43792 2.49947,3.74558 0.81811,1.27659 1.50964,2.62083 1.96691,4.07065 0.38216,1.30971 0.73332,2.63311 0.93255,3.98436 0.14598,1.47819 0.4097,2.93315 0.79175,4.36969 0.2336,1.24317 0.1142,2.50852 0.13963,3.7695 -0.001,1.32836 0.003,2.65684 -0.0189,3.98506 -0.0279,1.33225 -0.0848,2.66633 -0.2584,3.98868 -0.17421,1.34626 -0.31352,2.686 -0.29483,4.04617 -0.0757,1.40883 -0.23575,2.8089 -0.43661,4.20543 -0.177,1.58723 -0.15549,3.19523 -0.45188,4.77071 -0.23917,1.3304 -0.37707,2.66997 -0.53676,4.01208 -0.11051,1.04035 -0.0211,2.08536 -0.0399,3.13033 -0.0185,0.87328 -0.0375,1.75661 -0.56324,2.49797 -1.30165,1.66193 -2.81508,3.15802 -3.92012,4.97262 -1.96714,2.87313 -3.79107,5.89702 -4.99793,9.17572 -0.54059,1.7249 -0.97758,3.47904 -1.51706,5.20464 -0.3395,0.96783 -0.73698,1.92688 -1.19626,2.84258 -0.52838,0.73883 -1.08258,1.48653 -1.74606,2.10481 -1.32884,1.36287 -3.17062,2.09489 -4.94964,2.66561 -1.12035,0.38762 -2.25818,0.67716 -3.44267,0.78853 -1.01557,0.14288 -2.03687,0.19373 -3.06003,0.0859 -0.7825,-0.10596 -1.39557,-0.35928 -1.92769,-0.96865 -0.75889,-0.80909 -1.37479,-1.74466 -1.85284,-2.74524 -0.72982,-1.3086 -1.59721,-2.53387 -2.32669,-3.84272 -0.66595,-1.31266 -1.30934,-2.6524 -1.58448,-4.10993 -0.4005,-1.58669 -0.71371,-3.19567 -1.07104,-4.79265 -0.34265,-1.64111 -0.49623,-3.30261 -0.74304,-4.9587 -0.27635,-1.39183 -0.54261,-2.78473 -0.86655,-4.16661 -0.26028,-1.53988 -0.6675,-3.05678 -0.74385,-4.62268 -0.0133,-1.57158 -0.0264,-3.14622 -0.1886,-4.7111 -0.19577,-1.648 -0.5623,-3.2597 -0.84078,-4.8937 0.0358,-1.56526 0.0885,-3.13318 0.31787,-4.6845 0.24304,-1.53684 0.50307,-3.06727 0.62641,-4.62023 0.1336,-1.41945 0.035,-2.85154 0.21648,-4.2693 0.22044,-1.46399 0.59955,-2.8832 1.23597,-4.22656 0.51094,-1.47007 1.06523,-2.91951 1.66835,-4.35468 0.51756,-1.19635 1.01707,-2.39941 1.62385,-3.55521 0.36064,-0.79977 0.83267,-1.55195 1.31866,-2.27843 0.55432,-0.57082 0.95531,-1.27542 1.57511,-1.78942 0.91298,-0.8368 1.87492,-1.62325 2.74416,-2.51109 0.35844,-0.35904 0.7353,-0.7651 1.14918,-1.06392 1.50057,-1.08345 3.28027,-1.78844 4.81991,-2.80584 0,0 -2.00021,1.59998 -2.00021,1.59998 z"
     id="path3260"
     style="fill:#000000;stroke:#000000" />
  <path
     d="m 151.77067,166.09888 c -1.05257,1.26214 -2.20453,2.4262 -3.24233,3.70206 -1.06037,1.23352 -1.81938,2.64013 -2.4858,4.11059 -0.56266,1.15347 -0.93456,2.34662 -1.13921,3.6106 -0.38895,1.86417 -0.78096,3.71787 -1.00152,5.61157 -0.11249,1.98801 -0.3549,3.96368 -0.54104,5.94539 -0.28775,1.55375 -0.44203,3.12668 -0.67791,4.68743 -0.26448,1.42509 -0.4146,2.86598 -0.50069,4.31169 -0.12778,1.16388 0.21758,2.27075 0.5349,3.37271 0.31062,0.97903 0.52748,1.99164 0.84984,2.96589 0.37866,0.83748 0.77646,1.63548 1.35074,2.35561 0.41827,0.53357 0.64498,1.17755 1.0607,1.71082 0.30753,0.43366 0.80158,0.51734 1.2383,0.76966 0.59261,0.30763 1.18411,0.27915 1.81705,0.15679 0.9495,-0.29318 1.83192,-0.70426 2.72102,-1.14061 1.61097,-0.90628 -1.15355,0.64901 -1.16278,0.65363 -0.18913,0.0946 0.34978,-0.23793 0.5199,-0.36354 0.50827,-0.37533 1.00798,-0.76652 1.49687,-1.16664 0.78923,-0.76596 1.44024,-1.64311 1.8706,-2.65499 0.51272,-1.3062 0.88323,-2.65773 1.14874,-4.034 0.17071,-1.35003 0.33219,-2.69741 0.529,-4.04455 0.33585,-1.52429 0.56984,-3.0617 0.69977,-4.61647 0.0799,-1.49685 0.34214,-2.97478 0.48441,-4.46644 0.10336,-1.30126 0.0914,-2.60075 0.2796,-3.89378 0.21042,-1.19839 0.29314,-2.41242 0.34388,-3.62637 0.0293,-0.95001 0.14235,-1.87049 -0.23816,-2.75875 -0.44633,-0.90322 -0.59833,-1.9045 -0.69316,-2.89643 0.004,-1.00804 -0.36947,-1.92887 -0.67386,-2.86916 -0.19383,-0.80597 -0.31193,-1.57594 -0.77237,-2.27624 -0.25329,-0.503 -0.65031,-0.79837 -1.06712,-1.14082 -0.41388,-0.43174 -0.87962,-0.44038 -1.42546,-0.3382 -0.82105,0.19814 -1.60475,0.49981 -2.44031,0.66167 -1.22234,0.16822 -2.44795,0.3273 -3.66306,0.54621 -1.00359,0.15635 -1.93246,0.56782 -2.86409,0.94966 0,0 1.97993,-1.55739 1.97993,-1.55739 l 0,0 c 0.94582,-0.37208 1.89221,-0.76041 2.90471,-0.91437 1.22486,-0.20737 2.45486,-0.38284 3.68241,-0.57109 0.83054,-0.18497 1.61821,-0.50989 2.45617,-0.65357 0.59456,-0.0612 1.11286,0.0756 1.54798,0.50801 0.45094,0.34622 0.82679,0.70746 1.10402,1.21531 0.46816,0.72798 0.62286,1.49971 0.79718,2.34015 0.30657,0.95715 0.70484,1.89418 0.69718,2.92009 0.087,0.96641 0.22269,1.94365 0.66189,2.82224 0.4408,1.02184 0.31821,1.77704 0.28198,2.86482 -0.0493,1.22165 -0.12341,2.44556 -0.3328,3.6519 -0.20248,1.28973 -0.20141,2.58313 -0.29167,3.88406 -0.14166,1.49227 -0.40634,2.96997 -0.49119,4.46619 -0.12605,1.55781 -0.33876,3.10226 -0.68767,4.62737 -0.18838,1.35243 -0.37496,2.69989 -0.52718,4.05664 -0.2591,1.38708 -0.6159,2.75033 -1.11342,4.07241 -0.40415,1.05622 -1.04857,1.95115 -1.82529,2.77136 -1.58288,1.3603 -3.33617,2.4915 -5.20962,3.42351 -0.89467,0.4435 -1.80746,0.83714 -2.77719,1.08928 -0.67298,0.0948 -1.31864,0.0418 -1.92479,-0.29367 -0.46808,-0.2555 -0.98074,-0.38223 -1.28886,-0.86069 -0.40735,-0.53917 -0.64844,-1.16983 -1.05237,-1.71188 -0.58356,-0.74977 -0.99918,-1.57078 -1.39188,-2.43422 -0.3258,-0.97699 -0.53622,-1.99625 -0.85021,-2.97809 -0.31946,-1.12813 -0.69441,-2.26107 -0.56889,-3.45205 0.0867,-1.45389 0.23252,-2.90475 0.49954,-4.33778 0.24666,-1.55642 0.3725,-3.13154 0.69191,-4.67786 0.19231,-1.98435 0.44833,-3.96158 0.54786,-5.95387 0.21004,-1.89298 0.58459,-3.74774 0.97429,-5.6097 0.19157,-1.2848 0.52838,-2.50346 1.10705,-3.6723 0.67921,-1.48221 1.40486,-2.92615 2.47564,-4.17626 1.02647,-1.27312 2.15671,-2.43864 3.21014,-3.68666 0,0 2.3567,-1.00688 2.3567,-1.00688 z"
     id="path3262"
     style="fill:#000000;stroke:#000000" />
  <path
     d="m 182.39892,152.19693 c -0.9298,2.26453 -1.48262,4.63897 -1.98872,7.02521 -0.68114,2.66798 -1.10884,5.38302 -1.34572,8.12345 -0.20047,2.29964 -0.60884,4.56966 -1.03995,6.83463 -0.35279,2.00672 -0.61655,4.04259 -0.56406,6.08276 0.0952,1.23866 0.26733,2.46954 0.36545,3.70785 0.055,0.69955 0.12984,1.38914 -0.0524,2.07266 -0.39614,1.33732 -0.71449,0.84269 -2.73378,1.72225 0,0 2.15276,-1.41246 2.15276,-1.41246 l 0,0 c -0.68885,0.4313 -1.38733,0.84758 -2.06654,1.2939 -0.0447,0.0294 0.11882,4e-4 0.1557,-0.0383 0.11363,-0.11914 0.0547,-0.34808 0.1703,-0.46362 0.20603,-0.65925 0.16586,-1.3091 0.10525,-1.99694 -0.0888,-1.24654 -0.24891,-2.4861 -0.34446,-3.73204 -0.0637,-2.05847 0.20733,-4.11369 0.55563,-6.13956 0.43171,-2.25885 0.84571,-4.52105 1.05588,-6.81396 0.23866,-2.75222 0.66455,-5.48112 1.35178,-8.15998 0.4967,-2.38475 1.0353,-4.75341 1.89922,-7.03808 0,0 2.32369,-1.0678 2.32369,-1.0678 z"
     id="path3264"
     style="fill:#000000;stroke:#000000" />
  <path
     d="m 186.43561,154.9416 c 1.74467,-0.50645 3.5561,-0.64228 5.35985,-0.75479 2.04513,-0.0224 4.07382,-0.15853 6.10707,-0.36613 1.26575,-0.24084 2.49681,-0.16962 3.76053,-0.0107 1.6611,0.18938 3.33482,0.21692 5.00471,0.24561 1.80984,0.11551 3.60282,-0.11213 5.39728,-0.30663 1.11549,-0.14343 2.23972,-0.17763 3.36286,-0.19663 1.21189,-0.009 2.42382,-0.008 3.63574,-0.008 0.94729,-7.7e-4 1.89458,-8.9e-4 2.84188,-3e-5 0.76998,-9.8e-4 1.53996,-0.002 2.30995,-0.001 0.76511,0.002 1.51393,-0.0724 2.24584,0.17746 0.60884,0.37097 0.85608,0.90351 1.04229,1.56713 0.27102,0.83018 0.56028,1.65513 0.80519,2.49371 0.2055,1.09269 0.39866,2.18807 0.59486,3.28398 0.20693,1.07967 0.26244,2.18002 0.29399,3.27643 -0.0452,1.01949 0.0494,2.00595 0.24423,3.00324 0.11751,0.83813 0.3508,1.7023 0.16919,2.54125 -0.27398,0.565 -0.49471,1.16933 -0.81353,1.71148 -0.34081,0.39833 -0.67296,0.7871 -0.96488,1.2239 -0.81689,0.97103 -2.44648,1.65223 -3.36781,2.17663 -0.59084,0.2288 -1.23858,0.24434 -1.86472,0.2638 -0.88164,0.0994 -1.71935,-0.0928 -2.57873,-0.24758 -0.92293,-0.20673 -1.8754,-0.16195 -2.80095,-0.33045 -1.09918,-0.24651 -2.22022,-0.34788 -3.34247,-0.41059 -0.87051,0.0829 -1.72623,0.26883 -2.59149,0.39191 -0.63542,0.0292 -1.25288,0.21287 -1.81853,0.50195 -1.12572,0.63614 1.07382,-0.6215 1.61942,-0.91655 0.097,-0.0524 -0.18127,0.12569 -0.26904,0.19243 -0.30588,0.23261 -0.60834,0.4719 -0.90631,0.71461 -0.73914,0.60223 -1.52414,1.14318 -2.2404,1.77284 -0.90204,0.80446 -1.5925,1.79558 -2.20611,2.82744 -0.86325,1.4211 -1.36783,3.02023 -1.87221,4.59481 -0.53684,1.99499 -1.0592,3.99001 -1.53598,6.00011 -0.51171,2.03412 -0.69087,4.1225 -0.79439,6.21048 -0.20381,2.05118 -0.38847,4.10221 -0.48752,6.16137 -0.077,1.78386 -0.0797,3.56961 -0.0886,5.35475 0.0194,1.90886 0.0208,3.80991 -0.14289,5.71236 -0.18104,1.73642 -0.27743,3.47914 -0.33125,5.2236 -0.035,1.23289 -0.0304,2.46627 -0.0337,3.69949 -9e-4,1.04617 0.002,2.09234 0.009,3.13848 0.0236,0.77358 -0.23106,1.51817 -0.365,2.27341 -0.14986,0.8027 -0.57058,1.50732 -0.86739,2.25813 -0.75517,1.52124 -2.95322,2.29583 -4.22079,3.00234 -1.5246,0.52169 -2.9986,1.16983 -4.5499,1.61112 -1.04136,0.19926 -2.07207,0.38525 -3.09678,0.66043 -0.69835,0.18921 -1.39423,0.06 -1.84377,-0.52223 -0.33473,-0.52153 -0.55683,-1.06187 -0.67823,-1.66805 -0.32392,-1.08368 -0.45963,-2.20737 -0.55385,-3.33056 -0.0417,-0.98914 -0.31872,-1.94488 -0.47236,-2.91956 -0.13648,-0.98971 -0.13065,-1.99076 -0.14455,-2.98756 -0.009,-0.9832 -0.005,-1.96646 -0.003,-2.94968 -0.0163,-1.03813 -0.0227,-2.06428 0.1412,-3.09085 0.13105,-1.17077 0.38117,-2.29722 0.71856,-3.42383 0.34669,-1.12442 0.54428,-2.2807 0.64582,-3.45051 -0.004,-1.22977 0.22089,-2.42568 0.51151,-3.61482 0.25873,-1.30605 0.49457,-2.61367 0.76431,-3.91802 0.33685,-1.3695 0.68592,-2.73683 0.97598,-4.11725 0.28273,-1.38898 0.52507,-2.78713 0.81338,-4.17485 0.35185,-1.46637 0.67772,-2.94361 1.13904,-4.38042 0.45105,-1.40285 0.81611,-2.82325 1.31415,-4.21095 0.41397,-1.23292 0.90644,-2.44404 1.44191,-3.6294 0.43149,-0.95259 0.74638,-1.95816 1.03002,-2.96393 0.25523,-0.97155 0.31369,-1.97426 0.34674,-2.97327 0.0196,-0.93213 0.0136,-1.86459 0.0121,-2.79687 0.0567,-0.83632 -0.0336,-1.6333 -0.22809,-2.44312 -0.0957,-0.60413 -0.40703,-1.13945 -0.63865,-1.69903 -0.29886,-0.33769 -0.84931,-0.29603 -1.26451,-0.31498 -0.76762,-0.017 -1.53551,-0.006 -2.30323,-0.005 -1.07756,-0.0455 -2.1326,0.19952 -3.19841,0.32673 -1.30899,0.0277 -2.54962,0.26268 -3.8091,0.59377 -2.11556,0.54635 -4.1262,1.38274 -6.0605,2.38712 0.30748,-0.16888 1.18576,-0.73844 0.92245,-0.50663 -0.37617,0.33116 -0.85149,0.52927 -1.26681,0.80978 -0.96324,0.65058 -1.60023,1.14768 -2.51998,1.84022 0,0 -2.30653,0.91809 -2.30653,0.91809 l 0,0 c 2.26296,-1.71205 4.5682,-3.34033 7.11667,-4.62137 1.96008,-0.99574 3.99608,-1.82303 6.12993,-2.37193 1.26499,-0.33169 2.52774,-0.50254 3.83459,-0.57042 1.07295,-0.13724 2.13967,-0.36587 3.22722,-0.31035 0.77404,-0.006 1.5488,-0.0172 2.32246,0.0114 0.52742,0.0402 1.10451,0.0738 1.42469,0.55664 0.22545,0.57616 0.54666,1.12187 0.64655,1.73783 0.19899,0.82869 0.31988,1.64152 0.25023,2.49895 0.003,0.9355 0.007,1.87106 -0.0126,2.80643 -0.0273,1.01643 -0.0742,2.03557 -0.31959,3.02757 -0.27213,1.02023 -0.59739,2.03544 -1.01594,3.00437 -0.55845,1.17052 -1.03666,2.38792 -1.45962,3.61281 -0.50294,1.38658 -0.88399,2.80009 -1.32453,4.20704 -0.47133,1.42534 -0.78612,2.89552 -1.14307,4.3524 -0.29834,1.38578 -0.53104,2.78719 -0.81723,4.17561 -0.28257,1.37988 -0.62437,2.74643 -0.96648,4.11233 -0.26918,1.30856 -0.53277,2.61376 -0.765,3.92937 -0.2939,1.17515 -0.53953,2.35374 -0.51766,3.57262 -0.0948,1.18749 -0.29052,2.36125 -0.63597,3.50368 -0.32683,1.11872 -0.60982,2.22472 -0.72086,3.39007 -0.1745,1.01437 -0.18528,2.024 -0.15815,3.05281 -0.001,0.9826 -0.003,1.96522 4e-5,2.94782 0.006,0.985 0.012,1.97345 0.13356,2.9524 0.14611,0.98337 0.4288,1.94601 0.46743,2.94211 0.0911,1.11254 0.21251,2.22943 0.55853,3.29662 0.10663,0.56884 0.31005,1.06836 0.62427,1.55633 0.41895,0.50153 1.08728,0.44444 1.66838,0.28332 1.01816,-0.2615 2.05165,-0.41225 3.07428,-0.65178 1.53991,-0.46026 3.02366,-1.08216 4.52586,-1.64972 -3.43193,2.06312 -0.5442,0.55948 -0.0915,-0.33231 0.26886,-0.75174 0.70539,-1.43129 0.88946,-2.21345 0.11715,-0.74794 0.3824,-1.47653 0.38475,-2.23563 0.005,-1.04835 0.005,-2.09671 0.003,-3.14507 -0.002,-1.23749 0.004,-2.47527 0.0406,-3.7123 0.0614,-1.75068 0.15443,-3.50084 0.3402,-5.24331 0.16664,-1.89537 0.17613,-3.78881 0.14812,-5.6912 -1.2e-4,-1.78939 0.0101,-3.5793 0.0873,-5.36733 0.10415,-2.05944 0.27294,-4.11269 0.4918,-6.1632 0.0985,-2.10124 0.26752,-4.20439 0.7753,-6.25303 0.47997,-2.0124 0.99481,-4.01196 1.52079,-6.01287 0.49116,-1.58629 0.98968,-3.19801 1.83044,-4.63882 0.6088,-1.04564 1.26852,-2.06627 2.16475,-2.89437 0.7,-0.64703 1.47487,-1.19382 2.22997,-1.77453 1.15666,-1.05671 2.55297,-1.84137 3.94091,-2.5499 0.59925,-0.24218 1.21509,-0.41138 1.86372,-0.44438 0.86712,-0.12551 1.728,-0.32549 2.60708,-0.33919 1.12956,0.072 2.25415,0.19247 3.36302,0.42734 0.93191,0.13031 1.88105,0.12643 2.80368,0.33446 0.84913,0.15407 1.68641,0.28895 2.55398,0.19548 0.61456,-0.0336 1.24421,-0.0709 1.80493,-0.35082 -3.87209,2.28628 -1.69754,1.11035 -1.00245,0.44722 0.32701,-0.40211 0.56056,-0.88326 0.95918,-1.22668 0.42907,-0.42334 0.49983,-1.14702 0.86259,-1.63094 0.30112,-0.75583 -0.0372,-1.64927 -0.10893,-2.43336 -0.19753,-1.01142 -0.31308,-2.00906 -0.25721,-3.04404 -0.0292,-1.08525 -0.0765,-2.17424 -0.27336,-3.24437 -0.1938,-1.08736 -0.40052,-2.16969 -0.58854,-3.25673 -0.24246,-0.84019 -0.53904,-1.66378 -0.81788,-2.49205 -0.15111,-0.57973 -0.34255,-1.06491 -0.91101,-1.34526 -0.71564,-0.20062 -1.46083,-0.0958 -2.19588,-0.11768 -0.76839,7.5e-4 -1.53678,-5.3e-4 -2.30516,-0.002 -0.94505,3e-5 -1.89009,-0.002 -2.83514,-0.005 -1.21135,-0.002 -2.42282,-0.007 -3.63407,0.0127 -1.11545,0.0238 -2.23049,0.0734 -3.33909,0.20665 -1.79595,0.18823 -3.59211,0.37631 -5.40154,0.27102 -1.68273,-0.0293 -3.36918,-0.0586 -5.04292,-0.25087 -1.24489,-0.14858 -2.46478,-0.16286 -3.70952,0.0436 -2.03075,0.20369 -4.06044,0.29953 -6.10076,0.35039 -1.80737,0.12436 -3.62606,0.27895 -5.36116,0.83732 0,0 2.02408,-1.5725 2.02408,-1.5725 z"
     id="path3266"
     style="fill:#000000;stroke:#000000" />
  <path
     d="m 236.41816,150.61097 c -0.65851,2.66741 -1.38922,5.31121 -2.18868,7.93966 -1.0927,3.64153 -2.08336,7.31248 -3.05274,10.98875 -0.82175,2.94518 -1.16022,5.98599 -1.53261,9.0113 -0.3074,2.63519 -0.63368,5.26486 -0.81314,7.91273 -0.1775,2.3526 -0.50988,4.68591 -0.81266,7.02399 -0.21721,2.28877 -0.43328,4.57833 -0.73696,6.85773 -0.34537,2.28219 -0.50402,4.58467 -0.76252,6.87704 -0.27279,2.34757 -0.60703,4.68341 -0.78347,7.04142 -0.0277,2.17025 -0.53313,4.28561 -0.85087,6.42208 -0.34388,1.79704 -0.61493,3.60425 -0.76127,5.428 -0.002,1.22799 -0.19826,2.43162 -0.40252,3.63777 -0.12883,0.74574 -0.17482,1.50034 -0.19789,2.2555 -0.0644,0.65478 0.005,1.00275 0.61587,1.27692 0.60271,0.1186 1.17732,0.33464 1.76522,0.51269 0.62562,0.0656 1.21016,0.24371 1.80999,0.42642 0.77337,0.27653 1.51658,0.11546 2.2963,-0.007 0.95991,-0.25776 1.94452,-0.43857 2.90778,-0.6923 1.10269,-0.17969 2.14024,-0.59588 3.21524,-0.88096 0.39297,-0.0389 0.74935,-0.19127 1.09746,-0.36701 0.0773,-0.039 0.3033,-0.16726 0.2278,-0.12487 -2.11438,1.18715 -2.54631,1.70987 -1.84195,0.92956 0.33191,-0.47109 0.73221,-0.89499 0.95939,-1.42867 0.22348,-1.24888 0.33046,-2.52847 0.45922,-3.79369 0.28448,-1.87317 0.55277,-3.74473 0.6886,-5.63508 0.11107,-1.92682 0.1149,-3.85767 0.1152,-5.78704 5.7e-4,-1.03578 -0.0188,-2.07153 -0.0187,-3.10727 -3e-5,-0.76586 -0.003,-1.53171 -0.003,-2.29757 0.0896,-0.77729 0.40878,-1.4979 0.64554,-2.23654 0.2372,-0.759 0.30029,-1.54865 0.50966,-2.3142 0.24932,-0.65013 0.53732,-1.28302 0.77147,-1.93942 1.27612,-2.54812 2.26782,-1.3814 3.80419,-1.43918 1.47004,-0.0572 2.9188,-0.33226 4.37724,-0.51227 1.38662,-0.33919 2.83373,-0.40313 4.21543,-0.74698 0.61843,-0.21848 1.24917,-0.4892 1.74836,0.056 0.52949,0.87983 0.56343,1.93269 0.63722,2.9292 0.13518,1.5036 0.46492,2.97501 0.73177,4.45735 0.24628,1.21256 0.33291,2.44391 0.37221,3.6776 0.0308,1.29722 0.0192,2.59494 0.0173,3.89239 -7.2e-4,1.32905 -0.003,2.65808 -0.002,3.98713 -0.003,1.33762 -0.006,2.67528 8e-4,4.0129 10e-4,0.8022 0.005,1.60438 0.0104,2.40656 0.10782,0.44626 0.41007,0.8517 0.74806,1.15731 0.64041,0.33602 1.39889,0.3305 2.1052,0.35659 0.91187,0.11761 1.77335,-0.17398 2.65992,-0.32039 0.84901,-0.0357 1.64021,-0.24122 2.4565,-0.4491 2.65852,-0.9266 -2.26412,1.9355 -0.99698,0.74626 0.50687,-0.38994 0.79418,-0.94048 1.10515,-1.48427 0.5436,-1.04724 0.85721,-2.19814 1.1762,-3.32965 0.34294,-1.42058 0.62524,-2.85325 0.90237,-4.28805 0.34776,-1.42351 0.70606,-2.8433 0.90877,-4.29596 0.15301,-1.32565 0.13984,-2.6635 0.1476,-3.99587 0.006,-1.59668 -0.005,-3.19334 -0.0122,-4.78999 -0.005,-1.49106 0.002,-2.98213 0.005,-4.47318 -0.0316,-1.8004 0.0718,-3.60581 -0.0601,-5.40265 -0.21031,-1.50253 -0.24749,-3.02557 -0.46062,-4.52634 -0.18737,-1.03421 -0.38129,-2.06535 -0.47085,-3.11325 -0.0688,-1.0973 -0.0594,-2.19789 -0.0579,-3.29684 -10e-4,-1.46347 0.008,-2.92692 0.009,-4.39038 0.003,-1.46927 -0.002,-2.93854 -0.005,-4.40781 -0.005,-1.36274 -0.24909,-2.71114 -0.3666,-4.06827 -0.11418,-1.36988 -0.13392,-2.74492 -0.14966,-4.11871 -0.007,-1.34134 -0.003,-2.6827 -0.003,-4.02406 -0.0313,-1.15232 0.21585,-2.28706 0.36407,-3.42504 0.0453,-0.78171 0.14272,-1.53278 0.36344,-2.28347 0.19774,-0.66465 0.25295,-1.35341 0.28391,-2.04228 0.0236,-0.71481 0.0218,-1.4302 0.0229,-2.14532 0.0622,-0.93098 -0.0385,-1.83098 -0.22517,-2.73999 -0.19779,-0.58261 -0.46524,-1.18647 -1.02032,-1.50335 -0.50337,-0.20117 -0.95977,-0.44084 -1.49564,-0.56288 -0.64548,-0.11317 -1.24718,0.18902 -1.81031,0.46179 -0.75257,0.37373 -1.81173,0.90532 1.69737,-0.96735 0.0868,-0.0463 -0.15684,0.11876 -0.23591,0.17726 -0.21433,0.15858 -0.40213,0.32182 -0.59382,0.50739 -0.39592,0.2873 -0.59984,0.66454 -0.76255,1.11108 -0.49712,1.06462 -1.17284,2.04079 -1.78329,3.04501 -0.62654,1.18731 -1.28569,2.36785 -1.78257,3.61705 -0.49335,1.32149 -0.90683,2.67707 -1.2403,4.04785 -0.23064,1.27793 -0.48655,2.61172 -0.27718,3.90554 0.37861,1.17703 0.63447,2.37697 0.78755,3.60272 0.11917,1.10214 0.13054,2.21161 0.13795,3.31892 0.005,0.91364 0.002,1.82728 -10e-4,2.74093 -0.0507,0.9476 0.12218,1.88241 0.3535,2.79745 0.29149,0.91888 0.49436,1.85134 0.61043,2.80722 0.0744,0.7656 0.0746,1.53584 0.0805,2.30429 -0.002,0.6401 -0.002,1.28021 -0.004,1.92032 0.0399,0.5566 -0.0133,1.07238 -0.21162,1.59341 -0.32673,0.50651 -0.50693,1.09187 -0.88397,1.56227 -0.41976,0.39463 -0.7019,0.90008 -1.13784,1.27652 -0.40221,0.30417 -0.72731,0.68547 -1.14103,0.97523 -1.34851,0.73417 -2.61049,1.7039 -4.14206,1.98219 -1.11759,0.14514 -2.24918,0.12584 -3.37392,0.12915 -1.40403,0.004 -2.80807,-0.001 -4.2121,3.2e-4 -0.78927,-0.0669 -1.65155,0.18516 -2.3809,-0.18627 -0.27041,-0.30877 -0.066,-0.67713 0.025,-1.01651 0.125,-0.47247 0.1198,-0.96688 0.13298,-1.45192 0.0128,-1.0019 0.012,-2.00394 0.0118,-3.00591 -0.1404,-1.12165 -0.32765,-2.23252 -0.41916,-3.3604 -0.0818,-1.15319 -0.0949,-2.30957 -0.10288,-3.46514 -0.004,-1.04887 -0.002,-2.09775 -6.3e-4,-3.14662 -0.0102,-1.06624 -0.0331,-2.12058 0.13932,-3.17475 0.19345,-0.86488 0.29151,-1.74199 0.34246,-2.62531 0.17034,-1.00424 0.36017,-2.00135 0.46085,-3.01596 0.0812,-0.95273 0.0888,-1.9094 0.0955,-2.8649 -0.0355,-0.66816 -0.0114,-1.30256 0.20725,-1.93712 0.1726,-0.45308 0.24157,-0.93569 0.28023,-1.41637 0.0308,-0.50716 0.0272,-1.01571 0.0251,-1.52358 -0.0159,-0.70801 -0.24906,-1.40667 -0.49814,-2.06472 -0.37319,-0.85741 -0.63447,-1.74815 -0.91744,-2.63713 -0.3415,-0.91193 -0.90156,-1.70612 -1.44803,-2.50156 -0.46213,-0.53564 -0.54476,-1.25651 -0.90805,-1.84 -0.34314,-0.49412 -0.78751,-0.84802 -1.3452,-1.06594 -0.88743,-0.1883 -1.84098,0.22067 -2.68049,0.49024 -1.24077,0.42238 -2.44104,0.94505 -3.59294,1.57145 -0.39419,0.21436 -0.82338,0.38287 -1.16605,0.67253 -0.25307,0.21391 0.59418,-0.29351 0.89127,-0.44026 -0.37146,0.252 -0.74293,0.50401 -1.11439,0.75601 0,0 -2.32083,0.91068 -2.32083,0.91068 l 0,0 c 0.37333,-0.25507 0.74666,-0.51014 1.11998,-0.76521 2.63819,-1.59231 5.23174,-3.32006 8.1931,-4.26114 0.89538,-0.27432 1.878,-0.68181 2.80841,-0.35865 0.58311,0.27248 1.06683,0.65897 1.42534,1.20033 0.36143,0.58534 0.45881,1.28504 0.89612,1.83329 0.55902,0.81707 1.12356,1.63616 1.48065,2.56788 0.28905,0.88204 0.53791,1.77274 0.91687,2.62313 0.25819,0.68369 0.51166,1.40804 0.55402,2.13971 -6.8e-4,0.51359 6.1e-4,1.02735 -0.0156,1.54073 -0.0347,0.50073 -0.0926,1.00485 -0.24967,1.48393 -0.2536,0.60905 -0.30523,1.20146 -0.25959,1.86088 -0.005,0.96311 -0.0206,1.92706 -0.0909,2.88794 -0.0921,1.01169 -0.2569,2.01 -0.46234,3.00477 -0.0433,0.89217 -0.12017,1.78259 -0.33217,2.65318 -0.1843,1.04114 -0.18436,2.08007 -0.15894,3.13672 -10e-4,1.04863 -0.004,2.09726 -0.002,3.14589 0.005,1.15063 0.0131,2.30213 0.0897,3.45069 0.0893,1.13384 0.2716,2.25128 0.43251,3.37624 9e-4,1.00131 0.005,2.00261 10e-4,3.00391 -0.002,0.49874 0.0104,1.00959 -0.0931,1.4994 -0.0551,0.22829 -0.17012,0.5162 -0.20446,0.70468 0.71863,0.27368 1.5483,0.0248 2.29556,0.11402 1.40106,0.006 2.80215,0.009 4.20321,0.004 1.1217,-0.0113 2.25412,0.005 3.36332,-0.18479 1.07675,-0.25622 3.68086,-1.72657 -0.29592,0.50165 0.43788,-0.26618 0.78299,-0.60326 1.14374,-0.96643 0.51655,-0.29019 0.74144,-0.83041 1.15927,-1.23272 0.46567,-0.39572 0.54365,-0.9982 0.91705,-1.47227 0.22563,-0.4948 0.31426,-0.9573 0.26069,-1.50489 6.8e-4,-0.64005 0.007,-1.28009 0.006,-1.92016 0.003,-0.7608 0.002,-1.523 -0.0624,-2.28165 -0.10004,-0.94725 -0.29456,-1.87159 -0.58396,-2.78038 -0.24856,-0.93048 -0.44071,-1.8851 -0.39043,-2.85209 9.5e-4,-0.91388 0.006,-1.82774 0.007,-2.74161 -0.005,-1.09925 -0.0111,-2.20054 -0.11945,-3.29554 -0.14303,-1.22341 -0.39269,-2.42025 -0.78039,-3.59124 -0.24717,-1.31955 0.0146,-2.6895 0.23548,-4.00065 0.32374,-1.38196 0.74395,-2.74323 1.22442,-4.07831 0.47858,-1.26992 1.15156,-2.45208 1.76638,-3.65941 0.60423,-0.98785 1.2356,-1.96477 1.77921,-2.98453 0.15607,-0.45921 0.28442,-0.93223 0.70792,-1.22625 1.06563,-0.90255 2.13086,-1.81693 3.52147,-2.28932 0.60104,-0.27914 1.25404,-0.48348 1.91888,-0.32277 0.54625,0.14681 1.03092,0.40443 1.54549,0.63335 0.5697,0.41287 0.89619,1.02452 1.11092,1.68517 0.18887,0.92414 0.31629,1.83736 0.25039,2.78488 0.003,0.71796 0.009,1.43608 -0.0139,2.1538 -0.0308,0.7055 -0.0645,1.41214 -0.25523,2.09683 -0.21637,0.74482 -0.37935,1.46947 -0.38996,2.25326 -0.15532,1.12966 -0.40277,2.25774 -0.39124,3.40095 -0.003,1.3403 -0.004,2.68063 0.003,4.02091 0.01,1.36916 0.0281,2.7393 0.13395,4.10508 0.11508,1.36335 0.36872,2.71547 0.38464,4.0834 -0.003,1.47146 -0.009,2.94293 -0.007,4.4144 -0.001,1.46145 0.004,2.9229 0.002,4.38435 0.004,1.09082 -0.002,2.18274 0.061,3.27217 0.0815,1.04517 0.25926,2.07634 0.44872,3.10693 0.22217,1.50611 0.2385,3.0384 0.45938,4.54663 0.13929,1.80286 0.0265,3.61509 0.0641,5.42195 0.003,1.48829 0.0106,2.97657 0.0102,4.46485 -0.002,1.5992 -0.005,3.1984 -2.4e-4,4.79759 4.5e-4,1.33863 0.0333,2.68426 -0.11536,4.01673 -0.18763,1.46313 -0.56493,2.88898 -0.92242,4.31799 -0.26761,1.43793 -0.54606,2.87222 -0.87218,4.29731 -0.31566,1.14593 -0.63968,2.30538 -1.14618,3.38267 -0.30609,0.56057 -0.57737,1.13423 -1.04221,1.57051 -0.0928,0.0572 -0.14443,0.16842 -0.23799,0.22442 -1.45288,0.86967 -1.90131,1.27338 -3.19544,1.54481 -0.8138,0.2177 -1.62733,0.34023 -2.46506,0.43038 -0.89265,0.17192 -1.77379,0.38392 -2.69183,0.27423 -0.75928,-0.0362 -1.57316,-0.0536 -2.22049,-0.50163 -0.37525,-0.37488 -0.71131,-0.82086 -0.84925,-1.33896 0.005,-0.80569 0.009,-1.61138 0.0103,-2.41709 0.006,-1.33813 0.004,-2.6763 0.002,-4.01445 0.003,-1.3299 0.003,-2.6598 0.007,-3.98969 0.002,-1.29403 0.004,-2.58821 -0.0195,-3.88207 -0.0363,-1.22318 -0.11508,-2.44533 -0.34427,-3.65002 -0.26757,-1.49031 -0.59975,-2.96789 -0.75012,-4.4777 -0.0677,-0.92892 -0.0858,-1.93454 -0.58113,-2.7545 -0.42152,-0.38694 -1.11544,0.0693 -1.57819,0.14362 -1.39551,0.28265 -2.82007,0.42486 -4.21546,0.71583 -1.47166,0.18477 -2.93557,0.46558 -4.42126,0.50288 -0.87678,-0.0443 -0.0149,0.0172 -0.73585,-0.0782 -0.10463,-0.0138 -0.21012,-0.0323 -0.3155,-0.0265 -0.0753,0.004 -0.28239,0.0971 -0.21916,0.056 2.50042,-1.6246 2.56896,-1.69446 1.87486,-1.10593 -0.23764,0.65383 -0.50171,1.29519 -0.79165,1.92737 -0.21509,0.76925 -0.29867,1.55281 -0.51077,2.32317 -0.21587,0.72578 -0.51656,1.42063 -0.67261,2.16427 1.3e-4,0.76606 -0.002,1.53212 8.6e-4,2.29818 0.005,1.04134 -0.008,2.08278 -0.0115,3.12411 -0.0114,1.93491 -0.0158,3.87107 -0.1117,5.80404 -0.12682,1.89414 -0.3928,3.76761 -0.68766,5.64239 -0.1184,1.27783 -0.2415,2.55768 -0.38806,3.82978 -0.17806,0.58627 -0.5781,1.009 -0.92428,1.5055 -0.82829,1.16614 -2.49186,1.78908 -3.87676,2.13157 -1.0672,0.30355 -2.11659,0.66883 -3.21086,0.87034 -0.97542,0.23225 -1.94929,0.47481 -2.92892,0.68025 -0.80462,0.12982 -1.58471,0.1996 -2.37151,-0.0821 -0.59889,-0.18271 -1.20024,-0.30729 -1.81367,-0.42525 -0.59497,-0.18819 -1.19215,-0.36785 -1.78855,-0.54794 -0.64597,-0.35477 -0.84463,-0.79845 -0.75791,-1.53101 0.0186,-0.76737 0.0623,-1.53408 0.19013,-2.2922 0.20708,-1.20364 0.44349,-2.3997 0.43409,-3.62807 0.14676,-1.83119 0.41435,-3.64646 0.76721,-5.44963 0.31165,-2.13504 0.84088,-4.2443 0.8721,-6.41222 0.17133,-2.36086 0.49666,-4.69946 0.77603,-7.04871 0.26129,-2.29407 0.41451,-4.59853 0.76164,-6.88256 0.31129,-2.27668 0.52314,-4.56589 0.73198,-6.85376 0.30229,-2.33645 0.64944,-4.66594 0.83274,-7.01655 0.17335,-2.65343 0.50296,-5.28806 0.81265,-7.92805 0.37314,-3.04073 0.72137,-6.09678 1.54803,-9.05618 0.97328,-3.67757 1.96805,-7.34892 3.04856,-10.99634 0.78081,-2.60137 1.49411,-5.21647 2.11334,-7.86111 0,0 2.29702,-1.12962 2.29702,-1.12962 z"
     id="path3268"
     style="fill:#000000;stroke:#000000" />
  <path
     d="m 282.08914,158.75184 c 0.004,2.42303 -0.0277,4.83592 -0.24638,7.24997 -0.41343,3.70115 -0.86161,7.39386 -1.11583,11.11055 -0.19971,3.20555 -0.22004,6.41808 -0.23904,9.62861 0.0689,2.96869 -0.0449,5.92786 -0.22263,8.89001 -0.26687,2.62167 -0.51872,5.24414 -0.82784,7.86113 -0.2739,2.45982 -0.91991,4.84778 -1.41738,7.26539 -0.44363,2.11412 -0.42494,4.28117 -0.79928,6.40325 -0.278,1.60833 -0.68053,3.18157 -1.20189,4.72661 -0.31752,0.91876 -0.52613,1.86814 -0.62965,2.83354 -0.097,0.57358 -0.31235,1.11527 -0.45188,1.67848 -0.0431,0.54819 -0.17468,1.06286 -0.32782,1.58925 -0.14681,0.77189 -0.29534,1.53501 -0.50085,2.29451 -0.21837,0.6411 -0.20621,1.32469 -0.34459,1.97958 -0.0615,0.36563 -0.4741,0.77268 -0.32868,1.14335 0.42302,0.1596 0.96825,0.0528 1.39349,-0.0549 0.77567,-0.27659 1.59057,-0.36949 2.40494,-0.44595 0.93992,-0.0506 1.88166,-0.0554 2.82272,-0.0572 0.74204,-0.001 1.48409,-1.7e-4 2.22613,0.002 1.03979,0.0467 2.05833,-0.2 3.08735,-0.31762 1.79033,-0.0947 3.57618,-0.28554 5.34653,-0.56969 1.46045,-0.27941 2.94068,-0.39888 4.38016,-0.77328 0.66038,-0.14981 1.30926,-0.35154 1.98699,-0.39681 0.72379,-0.0355 1.4493,-0.0192 2.17371,-0.0166 1.46885,0.009 2.93773,0.009 4.40659,0.0103 1.37077,0.083 2.68371,-0.25747 3.98262,-0.64415 0.86342,-0.2835 2.55638,-1.27851 -1.26903,0.80588 -0.0574,0.0313 0.1059,-0.0775 0.15248,-0.12345 0.13629,-0.13435 0.11755,-0.15321 0.18493,-0.34069 0.10383,-1.02133 0.26919,-2.0359 0.37927,-3.05766 0.25225,-1.43679 0.4749,-2.87629 0.60541,-4.32951 0.0209,-0.87147 0.27123,-1.71084 0.46157,-2.55499 0.20016,-0.58477 0.0182,-0.87749 -0.28413,-1.37232 -0.26713,-0.70825 -0.59616,-1.3699 -0.99001,-2.0154 -0.29968,-0.73616 -0.76506,-1.35818 -1.24397,-1.98254 -0.6747,-0.66357 -1.55936,-1.09665 -2.42561,-1.45695 -1.06746,-0.35055 -2.14017,-0.70586 -3.24659,-0.91765 -1.09976,-0.26437 -2.18174,-0.12473 -3.28054,0.0344 -0.98252,0.11999 -1.90566,0.48185 -2.88149,0.64644 -0.79663,0.11663 -1.60138,0.14089 -2.4051,0.15095 -0.57738,-0.0802 -0.96008,-0.39231 -1.15564,-0.93186 -0.13173,-0.50335 -0.0678,-1.0253 -0.14314,-1.5358 -0.27494,-1.09083 -0.28584,-2.21863 -0.4395,-3.32708 -0.0763,-0.87395 -0.44159,-1.64984 -0.76747,-2.44738 -0.24233,-0.51344 -0.25942,-1.07695 -0.27904,-1.63348 -0.0803,-0.81853 -0.48903,-1.53709 -0.72409,-2.31465 -0.23433,-0.76099 -0.27859,-1.55848 -0.30902,-2.34875 -0.0723,-1.48128 1.87252,-2.24466 3.22266,-2.14217 0.67034,0.0777 1.34482,0.10095 2.01885,0.11961 0.83116,-0.002 1.66735,0.0816 2.48964,-0.0552 1.09946,-0.29154 2.19243,-0.61377 3.28606,-0.93281 1.1103,-0.33123 2.26078,-0.44779 3.41153,-0.5229 0.79036,-0.0395 1.5819,-0.0344 2.37296,-0.0337 0.69113,0.003 1.38227,0.006 2.07341,0.006 0.59339,-0.0621 1.25341,0.13004 1.81728,-0.0884 0.77452,-0.47903 1.96369,-0.98411 -1.74312,0.97619 -0.0214,0.0113 0.12235,-0.14931 0.18829,-0.48554 0.0666,-0.58944 0.0451,-1.18603 0.0472,-1.77832 5.9e-4,-1.01479 -0.003,-2.02957 -0.0104,-3.04433 0.0471,-0.61489 -0.0333,-1.17757 -0.22093,-1.76014 -0.22727,-0.50456 -0.59693,-0.96255 -1.02939,-1.3087 -0.55127,-0.36525 -1.16645,-0.56836 -1.78051,-0.80263 -1.06525,-0.385 -2.16912,-0.663 -3.28635,-0.84963 -1.40291,-0.16209 -2.80645,-0.20447 -4.2049,-0.4029 -0.96389,-0.27473 -2.08075,-0.0412 -3.01131,-0.41522 -0.45357,-0.25255 -0.47769,-0.77301 -0.4947,-1.23776 0.005,-0.93816 0.0245,-1.87616 0.0317,-2.81432 0.0125,-1.42302 0.0106,-2.84608 0.006,-4.26912 0.0842,-0.81444 -0.0822,-1.56839 -0.30575,-2.33964 -0.14666,-0.45634 -0.1855,-0.93444 -0.21577,-1.40974 -0.0205,-0.45848 -0.24862,-0.87976 -0.37111,-1.32064 -0.52303,-1.3355 1.02734,-2.17212 2.49375,-2.15683 0.58983,0.17006 1.10854,0.26191 1.73198,0.22291 1.01584,-0.28475 2.0393,-0.56039 3.07452,-0.76992 1.72769,-0.30965 3.45831,-0.57238 5.20612,-0.74064 1.22676,-0.10777 2.45811,-0.14881 3.68913,-0.16073 0.71842,-0.006 1.43687,-8.2e-4 2.1553,-5.4e-4 0.60319,-0.032 1.17776,-0.28485 1.77903,-0.39347 0.74419,-0.1462 1.52271,-0.009 2.25377,-0.20302 -0.44742,0.38862 1.46092,-0.61802 0.86603,-0.26867 -3.89862,2.28942 -2.3508,1.5193 -1.79371,0.91794 0.23453,-0.44325 0.17352,-1.01052 0.1773,-1.49895 2e-4,-0.93872 -0.004,-1.87743 -0.006,-2.81615 -0.002,-1.038 -0.002,-2.07599 -0.003,-3.11399 0.0932,-0.94966 0.28965,-1.88468 0.41206,-2.83083 0.0725,-0.58319 0.0928,-1.17077 0.0991,-1.75784 7.7e-4,-0.50693 0.0666,-1.00433 -0.12462,-1.48073 -0.46843,-0.47627 -1.22894,-0.62016 -1.83526,-0.8872 -1.04511,-0.4305 -2.04874,-0.94107 -3.11213,-1.32771 -1.28019,-0.59099 -2.67647,-0.73012 -4.04909,-0.95489 -2.07744,-0.319 -4.17822,-0.42713 -6.27617,-0.50116 -1.52318,-0.0472 -3.0472,-0.0438 -4.57091,-0.0447 -1.16198,0.17933 -2.31805,0.35679 -3.49216,0.43702 -1.64838,0.0478 -3.29287,0.21557 -4.92139,0.47294 -1.41605,0.20744 -2.80515,0.51099 -4.19403,0.84868 -0.89168,0.25939 -2.73022,1.2616 0.90999,-0.68841 0.0952,-0.051 -0.17836,0.12216 -0.26331,0.18887 -0.1949,0.15305 -0.17926,0.15464 -0.32608,0.34014 -0.31024,0.71233 -0.2048,1.55357 -0.27459,2.31653 -0.20994,1.86062 -0.32278,3.75876 -0.81124,5.57604 -0.14687,0.54644 -0.35503,1.07453 -0.53254,1.6118 -0.19604,0.49757 -0.39208,0.99514 -0.58811,1.4927 0,0 -2.24619,1.03903 -2.24619,1.03903 l 0,0 c 0.19979,-0.49407 0.39957,-0.98814 0.59936,-1.4822 0.17706,-0.52538 0.3869,-1.04083 0.53118,-1.57614 0.4848,-1.7987 0.58384,-3.68435 0.76984,-5.52766 0.0786,-0.80058 -0.0209,-1.63322 0.19785,-2.40942 0.12525,-0.25984 0.29707,-0.49328 0.55357,-0.64692 1.29287,-0.77442 2.17525,-1.42058 3.5076,-1.78248 1.38361,-0.33623 2.77657,-0.60124 4.18501,-0.81424 1.64055,-0.24234 3.29205,-0.4115 4.94985,-0.47002 1.17465,-0.0972 2.33072,-0.30783 3.50268,-0.42085 1.52014,2.6e-4 3.04048,0.0128 4.55986,0.0647 2.10553,0.0893 4.21297,0.20858 6.29925,0.52125 1.39389,0.21205 2.79495,0.39802 4.0942,0.98511 1.06113,0.40182 2.07394,0.9073 3.12461,1.33427 0.67228,0.27856 1.50243,0.43848 1.95549,1.04703 0.21586,0.51209 0.18755,1.02058 0.17167,1.57316 -0.008,0.59738 -0.0213,1.1952 -0.0932,1.78909 -0.12642,0.93849 -0.30742,1.86766 -0.43677,2.80559 1.6e-4,1.03768 2.9e-4,2.07536 0.003,3.11304 0.003,0.93745 0.008,1.87489 0.0164,2.81231 0.003,0.54687 0.0284,1.10555 -0.093,1.64228 -0.71703,1.15507 -2.21576,1.60824 -3.48849,1.92107 -0.74759,0.10551 -1.51205,0.0475 -2.25511,0.20427 -0.60064,0.13399 -1.18774,0.38038 -1.81109,0.35257 -0.71444,-0.004 -1.42891,-0.007 -2.14337,-0.004 -1.21907,0.0139 -2.43859,0.0489 -3.65314,0.16167 -1.74586,0.17274 -3.47461,0.44426 -5.19826,0.77017 -1.04561,0.23225 -2.07191,0.54589 -3.1228,0.75244 -0.6072,0.0125 -1.14546,-0.15428 -1.73675,-0.21684 -0.95814,0.11072 -0.50258,0.09 1.73279,-1.31245 0.0796,-0.0499 0.008,0.7684 0.11221,0.71602 0.12063,0.46083 0.36095,0.8955 0.3995,1.36716 0.0189,0.45827 0.0488,0.91973 0.18294,1.36134 0.22433,0.79666 0.41535,1.57373 0.31837,2.41366 -0.006,1.42399 -0.01,2.84798 -0.009,4.27199 -0.003,0.93109 -0.004,1.86217 -0.009,2.79324 0.006,0.35194 -0.0452,0.80481 0.33477,0.96999 0.95518,0.26123 1.99121,0.17197 2.95708,0.39285 1.40034,0.18899 2.81018,0.21744 4.21052,0.40941 1.12996,0.20188 2.25078,0.48252 3.32959,0.87676 0.64426,0.23164 1.27186,0.47734 1.83792,0.87192 0.4515,0.4016 0.85472,0.87749 1.10076,1.43284 0.19491,0.60795 0.32076,1.1898 0.25045,1.83436 -0.004,1.01538 -0.003,2.03078 0.005,3.04614 0.007,0.60164 0.0304,1.20608 -0.0108,1.80659 -0.16733,1.32346 -1.60384,1.79088 -2.80335,2.20643 -0.612,0.0833 -1.23492,0.009 -1.85095,0.0337 -0.69095,-0.003 -1.38191,-0.003 -2.07287,-0.006 -0.78493,-0.003 -1.57054,-0.003 -2.35445,0.0423 -1.13857,0.0786 -2.27241,0.22351 -3.36765,0.5594 -1.10042,0.32359 -2.20061,0.66934 -3.3208,0.91063 -0.83683,0.0866 -1.67929,0.035 -2.51955,0.0248 -0.67624,-0.0238 -1.35162,-0.0568 -2.02574,-0.11661 -1.08455,0.003 -1.33159,0.58956 1.482,-1.16707 0.2018,-0.12599 -0.77968,0.4142 -0.33781,0.63342 0.0241,0.77051 0.0561,1.54813 0.27437,2.29303 0.23616,0.79985 0.65541,1.53308 0.76173,2.36928 0.0166,0.52693 0.0197,1.06322 0.23847,1.55398 0.32228,0.82204 0.70214,1.61672 0.77269,2.5138 0.1637,1.10188 0.16921,2.22626 0.45703,3.30924 0.0984,0.49742 0.0486,0.99684 0.13429,1.496 0.13949,0.46184 0.50099,0.64306 0.97167,0.66446 0.79418,-0.0159 1.59005,-0.0455 2.37462,-0.18066 0.96649,-0.18946 1.89708,-0.536 2.88129,-0.63352 1.1156,-0.15344 2.22149,-0.23578 3.33067,0.0359 1.11332,0.23412 2.20377,0.5828 3.27451,0.96158 0.90059,0.39178 1.82289,0.83833 2.50679,1.56026 0.48752,0.6288 0.95116,1.265 1.25981,2.00554 0.39403,0.64455 0.72906,1.3042 0.99301,2.01264 0.32888,0.53039 0.60125,0.90985 0.37706,1.54551 -0.17604,0.84328 -0.47631,1.66791 -0.49776,2.5373 -0.12959,1.45478 -0.3436,2.89834 -0.60864,4.33463 -0.0989,1.02753 -0.28095,2.04466 -0.33196,3.07478 -0.23535,1.45879 -2.14361,1.87074 -3.41142,2.32879 -1.31052,0.37023 -2.63656,0.65786 -4.01034,0.57506 -1.47444,2.7e-4 -2.94888,-0.002 -4.42332,0.002 -0.72462,0.001 -1.4512,-0.009 -2.17413,0.0476 -0.65963,0.0829 -1.30072,0.26839 -1.94794,0.41548 -1.4381,0.34617 -2.91757,0.45202 -4.36883,0.73581 -1.78157,0.26936 -3.57362,0.45458 -5.37093,0.57721 -1.03767,0.13304 -2.07038,0.3573 -3.122,0.30437 -0.74035,-3e-4 -1.4807,-0.004 -2.22106,-0.004 -0.93709,0.004 -1.87582,0.002 -2.81047,0.0785 -0.81175,0.0838 -1.6082,0.22953 -2.39008,0.46766 -0.54129,0.0852 -1.17896,0.21107 -1.59494,-0.22972 -0.2206,-0.47767 0.0433,-0.85508 0.25443,-1.29967 0.20714,-0.63768 0.10658,-1.34629 0.35036,-1.98324 0.20126,-0.76084 0.38861,-1.51182 0.4983,-2.29206 0.12536,-0.53088 0.33743,-1.0222 0.3194,-1.58086 0.13709,-0.55844 0.332,-1.09541 0.47846,-1.65089 0.0925,-0.98698 0.30917,-1.95674 0.62571,-2.89648 0.52989,-1.53763 0.96102,-3.09654 1.23756,-4.70216 0.40172,-2.12328 0.37407,-4.29454 0.81123,-6.41501 0.49244,-2.41421 1.1476,-4.79532 1.43256,-7.24914 0.3059,-2.61493 0.56606,-5.23382 0.84135,-7.8523 0.18505,-2.95997 0.30942,-5.91724 0.24258,-8.88438 0.0108,-3.21721 0.0362,-6.43655 0.24246,-9.64836 0.26569,-3.71536 0.70332,-7.40909 1.10596,-11.11097 0.21154,-2.39349 0.24584,-4.78592 0.17281,-7.18773 0,0 2.28508,-1.16431 2.28508,-1.16431 z"
     id="path3270"
     style="fill:#000000;stroke:#000000" />
  <path
     d="m 353.14311,152.01382 c -1.39553,-0.0104 -2.79115,-0.0107 -4.18671,-0.006 -0.93319,-0.0576 -1.89459,0.11804 -2.81403,-0.0735 -0.68321,-0.1996 -1.37915,-0.3217 -2.0862,-0.39081 -0.51002,0.005 -0.90726,-0.44452 -1.42422,-0.36293 -0.51213,0.003 -0.78882,0.016 -1.29263,0.14442 -0.5219,0.14731 -1.09217,0.0489 -1.59312,0.2486 -2.43975,1.17443 2.78513,-1.79917 0.99853,-0.60324 -0.80912,0.4571 -1.61168,0.92599 -2.42734,1.3713 -0.23807,0.12997 -0.20912,0.0247 -0.46896,0.118 -0.0776,0.0278 -0.28668,0.16285 -0.21507,0.12202 0.67138,-0.38278 2.69536,-1.51333 2.01439,-1.14789 -0.81804,0.439 -1.61714,0.91242 -2.42571,1.36862 -0.60581,0.20936 -1.17726,0.51877 -1.7534,0.80696 -0.79338,0.24541 -1.55359,0.58623 -2.36156,0.78541 -0.79641,0.32486 -1.55998,0.71689 -2.30572,1.145 0.21965,-0.16591 -1.04903,0.55085 -0.79191,0.40364 0.58702,-0.33608 2.34455,-1.35007 1.76549,-1.00047 -0.86661,0.52321 -1.77081,0.98343 -2.62833,1.5214 -0.57479,0.3606 1.17761,-0.6752 1.77935,-0.98878 0.14037,-0.0732 -0.26208,0.17758 -0.39312,0.26637 -6.31199,3.62885 -1.27766,0.72585 -0.76722,0.45937 0.13381,-0.0699 -0.24613,0.17501 -0.36458,0.26855 -0.38619,0.30495 -0.71046,0.61368 -1.01612,0.9976 -0.53817,0.72374 -1.13175,1.38159 -1.45675,2.23187 -0.31312,0.83697 -0.72654,1.62938 -0.99503,2.48255 -0.27995,0.90973 -0.72761,1.75186 -1.02462,2.65469 -0.22926,0.81088 -0.28576,1.65389 -0.3123,2.49186 -0.037,0.73626 -0.0253,1.4542 0.12674,2.17577 0.30817,0.94937 0.68636,1.87361 0.99113,2.82378 0.3551,0.90974 0.75211,1.78979 1.19662,2.65848 0.35822,0.81278 0.73019,1.59251 1.3144,2.26918 0.6239,0.66449 1.43101,1.10654 2.21267,1.55553 0.87076,0.45255 1.85122,0.60206 2.79244,0.84876 0.82858,0.21748 1.59898,0.58983 2.44003,0.76751 0.80314,0.13266 1.57242,0.3973 2.37535,0.54279 0.85381,0.42165 1.73791,0.72384 2.6431,1.01991 1.14557,0.31856 2.30504,0.58943 3.46292,0.86267 0.83988,0.30016 1.66585,0.61927 2.4697,1.00623 0.67632,0.23748 1.25933,0.6595 1.889,0.99211 0.66911,0.4308 1.37565,0.79954 2.04324,1.2308 0.62193,0.37273 1.22427,0.78402 1.70992,1.32553 0.65409,0.86301 0.96875,1.90631 1.2849,2.92759 0.31061,1.16284 0.92147,2.18527 1.50279,3.22486 0.46363,0.68312 0.96828,1.38482 1.58634,1.94013 0.50373,0.51569 1.02401,1.00953 1.3355,1.66638 0.26594,0.75614 0.29574,1.56215 0.3157,2.35532 0.0572,1.11319 -0.13837,2.21656 -0.36873,3.30116 -0.32972,1.2654 -0.65837,2.53652 -1.03206,3.79045 -0.32561,0.776 -0.65662,1.57401 -1.15441,2.25838 -0.42899,0.45478 -0.98572,0.75085 -1.45906,1.15206 -0.45661,0.43935 -0.86188,0.9231 -1.27154,1.40531 -0.44816,0.52133 -0.97985,0.96592 -1.49371,1.42112 -0.96853,0.88967 -2.0296,1.33783 -3.22321,2.05488 -0.61692,0.37061 2.50494,-1.41824 1.87215,-1.07543 -0.86082,0.46634 -1.70426,0.96407 -2.55639,1.4461 -0.68895,0.35705 -1.36471,0.70214 -2.12691,0.87 -0.77509,0.0985 -1.53045,0.10827 -2.28212,0.32464 -0.61512,0.21719 -1.2676,0.27953 -1.91458,0.3144 -0.68187,0.10665 -1.2862,-0.0357 -1.92801,-0.23811 -0.70346,-0.11996 -1.37337,-0.35195 -2.07049,-0.49903 -1.15124,-0.24947 -2.32987,-0.41865 -3.46619,-0.7312 -0.99088,-0.13521 -1.77509,-0.6403 -2.6131,-1.13099 -0.72361,-0.4085 -1.07653,-1.00725 -1.46808,-1.70266 -0.37304,-0.91173 -0.69003,-1.84235 -0.93255,-2.79806 -0.17826,-0.87543 -0.24428,-1.76669 -0.26892,-2.65795 -0.0169,-0.65194 -0.009,-1.30412 -0.008,-1.95617 -0.10852,-0.55924 -0.44283,-1.06019 -0.75751,-1.52943 -0.36211,-0.55458 -0.88734,-0.91181 -1.4251,-1.27468 -0.62417,-0.36442 -1.24937,-0.45044 -1.94297,-0.30122 -1.55165,0.23512 -2.58286,1.01547 0.59363,-0.78508 -0.38704,0.21482 -0.34975,0.66881 -0.44455,1.04909 -0.20555,0.52728 -0.44217,1.04284 -0.69029,1.55144 -0.45289,0.94527 -0.97318,1.85668 -1.48315,2.77229 -0.56803,1.01761 -0.94476,2.10029 -1.27467,3.21158 -0.32772,1.28309 -0.56612,2.58824 -0.83433,3.88586 -0.23576,1.13254 -0.29758,2.28759 -0.33125,3.44051 -0.0226,1.1477 -0.0168,2.29571 -0.0141,3.44356 0.002,1.06899 0.006,2.13797 0.003,3.20696 -0.0612,1.29325 0.0682,2.55868 0.499,3.78033 0.34389,1.20772 0.95901,2.29 1.47941,3.42246 0.25272,0.77439 0.59732,1.45273 1.11351,2.08143 0.38886,0.40915 0.8044,0.82024 1.27044,1.14236 0.55356,0.40724 1.09381,0.8188 1.73163,1.08465 0.65572,0.37994 1.35088,0.60659 2.09892,0.70485 0.81513,0.2791 1.65676,0.42543 2.50993,0.52184 0.80117,0.0744 1.60652,0.0755 2.41038,0.0787 0.77534,0.0853 1.49768,-0.17916 2.24336,-0.33887 0.93918,-0.24187 1.87635,-0.44603 2.84372,-0.56219 0.89405,-0.10817 1.79512,-0.13459 2.69478,-0.14369 1.27153,-0.0592 3.82546,-1.67071 0.16951,0.40931 7.8611,-4.65661 -4.7684,2.86172 3.61031,-2.08689 0.62244,-0.36763 -1.2553,0.71745 -1.889,1.0653 -0.10698,0.0587 0.20548,-0.13173 0.30822,-0.19759 1.29054,-1.04686 2.81698,-1.7432 4.27388,-2.52105 -4.37979,2.49001 0.43011,-0.24068 0.93818,-0.55124 0.56852,-0.34751 -1.15655,0.6627 -1.74684,0.97178 -1.11696,0.58487 0.95155,-0.62261 1.13338,-0.74447 0.95073,-0.72093 1.76039,-1.6128 2.6006,-2.45636 0.88565,-0.90561 1.74645,-1.83129 2.56718,-2.79633 0.33252,-0.48139 0.61977,-0.98549 1.0433,-1.39544 0.36284,-0.31266 0.50514,-0.7165 0.57784,-1.17482 0.0143,-0.54463 0.28869,-1.00336 0.54663,-1.46428 0.32308,-0.88252 0.51328,-1.81549 0.7271,-2.73164 0.24322,-1.14403 0.51208,-2.27903 0.68563,-3.4367 0.0345,-0.85575 0.39109,-1.60933 0.74736,-2.36732 0.26821,-0.66091 0.35934,-1.36807 0.696,-2.00133 0.39859,-0.60315 0.5569,-1.2993 0.76211,-1.97915 0.23448,-0.60194 0.36454,-1.23243 0.61606,-1.8271 0.26608,-0.5316 0.36356,-1.10201 0.41297,-1.6875 0.0475,-0.84304 0.0393,-1.68789 0.0395,-2.53191 -0.002,-0.65188 -0.008,-1.30375 -0.008,-1.95563 0.003,-0.74311 10e-4,-1.48622 0.002,-2.22933 0.0389,-0.74284 -0.23355,-1.44762 -0.36624,-2.16933 -0.0266,-0.62873 -0.27285,-1.19769 -0.44947,-1.79139 -0.13401,-0.54123 -0.19549,-1.09405 -0.21856,-1.64985 0.002,-0.58106 -0.42066,-1.03921 -0.66817,-1.54683 -0.15727,-0.68353 -0.54304,-1.24475 -0.87992,-1.84514 -0.4557,-0.58841 -0.82583,-1.2385 -1.26914,-1.8338 -0.52846,-0.7769 -1.06993,-1.53952 -1.61099,-2.30837 -0.67329,-0.89366 -1.39928,-1.75217 -2.15123,-2.58035 -0.97572,-1.09943 -2.12399,-1.99979 -3.3547,-2.79245 -1.30131,-0.7938 -2.72942,-1.32563 -4.11497,-1.94588 -1.22273,-0.5875 -2.42234,-1.21331 -3.56397,-1.94908 -0.86711,-0.49583 -1.79698,-0.9086 -2.74125,-1.23873 -0.74689,-0.22609 -1.4528,-0.56135 -2.16355,-0.87851 -0.73019,-0.40792 -1.38093,-0.93499 -2.07841,-1.391 -0.6939,-0.42248 -0.96994,-1.05574 -1.27691,-1.76229 -0.26025,-0.54662 -0.54292,-1.1104 -0.34337,-1.7126 0.95437,-1.06476 2.44407,-1.53237 3.75379,-2.04894 0.66232,-0.22189 1.2929,-0.23407 1.96282,-0.0698 0.67226,0.18378 1.36275,0.262 2.05581,0.30905 0.76428,0.0376 1.52982,0.0337 2.2948,0.034 0.95211,-0.007 1.87881,-0.36957 2.75964,-0.70649 1.0773,-0.31318 2.07803,-0.82196 3.16111,-1.11414 1.35313,-0.17568 2.69173,-0.41805 4.01971,-0.73323 1.16945,-0.28757 2.37465,-0.55615 3.50002,-0.99539 0.82175,-0.33782 1.61501,-0.75017 2.42947,-1.11387 -0.77156,0.63373 2.27242,-1.10988 1.3018,-0.53662 -0.61104,0.3609 -1.23326,0.70275 -1.85719,1.04087 -0.11332,0.0614 0.21305,-0.14553 0.32451,-0.21026 0.84157,-0.48881 1.68942,-0.96673 2.53413,-1.4501 -0.62825,0.35461 -1.25275,0.71595 -1.88474,1.06383 -0.10897,0.06 0.20703,-0.1383 0.31512,-0.19985 0.84494,-0.48108 1.68886,-0.96428 2.54357,-1.42779 0.63358,-0.3436 -1.24938,0.7192 -1.88011,1.068 -0.17832,0.0986 0.33384,-0.23526 0.48595,-0.37084 0.41829,-0.40467 0.42029,-0.93467 0.52234,-1.47084 0.16962,-0.61846 0.3107,-1.24197 0.39899,-1.87716 0.0522,-0.5182 -0.18958,-1.02053 -0.29805,-1.52485 -0.071,-0.5447 -0.25922,-1.0609 -0.502,-1.55134 -0.29664,-0.44251 -0.4792,-0.94137 -0.74714,-1.39941 -0.40438,-0.41905 -0.86192,-0.75615 -1.38214,-1.02067 -1.26392,-0.72315 -2.66559,-1.06006 -4.09025,-1.28782 -1.23263,-0.26882 -2.50664,-0.30656 -3.74012,-0.56691 -0.91774,-0.1937 -1.97999,-0.55041 -2.87676,-0.83259 0,0 2.05563,-1.39996 2.05563,-1.39996 l 0,0 c 2.17028,0.68042 4.36366,1.09277 6.62321,1.35183 1.45264,0.24269 2.87738,0.60322 4.17107,1.33291 0.54775,0.30158 1.06082,0.65507 1.46695,1.13596 0.26918,0.464 0.45876,0.96349 0.75086,1.41532 0.25866,0.50557 0.46899,1.04255 0.53555,1.60897 0.10946,0.53451 0.36251,1.05819 0.34292,1.60195 -0.0907,0.64114 -0.20868,1.27737 -0.40005,1.89728 -0.12902,0.55304 -0.0631,1.13997 -0.45933,1.59828 -0.70784,0.86455 -2.27951,1.5109 -2.98219,1.89012 -0.6315,0.34081 1.23487,-0.73134 1.85275,-1.09624 0.10656,-0.0629 -0.2125,0.12688 -0.31876,0.19032 -0.83371,0.49263 -1.66742,0.98525 -2.50113,1.47788 4.67402,-2.74388 -0.74055,0.65194 -2.30879,1.14093 -0.80772,0.37838 -1.60937,0.77832 -2.44169,1.09737 -1.1447,0.38668 -2.32278,0.69619 -3.50132,0.95773 -1.33417,0.30433 -2.68128,0.52055 -4.02779,0.7556 -1.06521,0.32354 -2.07635,0.79984 -3.14216,1.12453 -0.90819,0.32984 -1.84739,0.67405 -2.8277,0.64322 -0.76981,-0.002 -1.54064,0.001 -2.30922,-0.0474 -0.70056,-0.0599 -1.39485,-0.16044 -2.07645,-0.33816 -0.63992,-0.12237 -1.26529,-0.0416 -1.87426,0.19446 -0.28213,0.11395 -0.56194,0.23189 -0.84561,0.34199 -0.0896,0.0348 -0.35009,0.1563 -0.26849,0.10545 1.50504,-0.93796 2.69977,-1.53111 1.72832,-1.04338 -0.37518,0.44553 0.0465,1.05098 0.23276,1.50971 0.29471,0.66172 0.52672,1.25362 1.19569,1.64055 0.68125,0.45866 1.33023,0.96656 2.05778,1.35457 0.70381,0.31921 1.41417,0.62602 2.15032,0.86444 0.94977,0.35763 1.89484,0.76486 2.76198,1.29284 1.13447,0.72326 2.32134,1.34631 3.53692,1.92096 1.39673,0.61989 2.82726,1.17373 4.13142,1.98179 1.24722,0.80712 2.40324,1.73326 3.39862,2.84275 0.76071,0.83567 1.50023,1.69792 2.17901,2.60184 0.53429,0.77096 1.08204,1.52743 1.6148,2.29866 0.44344,0.60851 0.82789,1.2606 1.28456,1.86148 0.339,0.6044 0.74188,1.16597 0.89072,1.85714 0.25734,0.53853 0.71865,1.0231 0.72285,1.63766 0.0182,0.53619 0.0614,1.07158 0.18612,1.59517 0.17374,0.60411 0.44141,1.17821 0.45855,1.81765 0.1295,0.73726 0.41102,1.45518 0.38501,2.21098 10e-4,0.74188 -9.2e-4,1.48377 0.004,2.22564 0.002,0.65333 -2e-4,1.30668 -6e-5,1.96001 10e-4,0.84877 0.002,1.69793 -0.0271,2.54628 -0.0354,0.60605 -0.0983,1.21032 -0.37334,1.76253 -0.25227,0.59223 -0.40839,1.20129 -0.62958,1.8079 -0.23418,0.68238 -0.33922,1.41072 -0.73308,2.03484 -0.42455,0.58369 -0.463,1.31039 -0.71264,1.97327 -0.334,0.74857 -0.76631,1.46021 -0.78811,2.30771 -0.17863,1.16189 -0.43424,2.30456 -0.67728,3.45357 -0.20812,0.93208 -0.42944,1.86373 -0.68828,2.78101 -0.2032,0.45653 -0.57359,0.85901 -0.57551,1.38582 -0.0611,0.49577 -0.15359,0.96051 -0.50468,1.34086 -0.46336,0.37685 -0.77749,0.84934 -1.06972,1.36817 -0.83169,0.97019 -1.69063,1.91114 -2.58304,2.82513 -0.84539,0.83659 -1.64135,1.73205 -2.55862,2.48957 -1.20384,0.84491 -2.51091,1.53024 -3.75436,2.31234 -0.30861,0.1941 6.76806,-3.96222 -0.94637,0.54828 -0.27772,0.14345 -0.55904,0.28012 -0.8337,0.42935 -0.1228,0.0667 -0.48367,0.28027 -0.3633,0.20927 3.46227,-2.042 1.96639,-1.27251 1.30752,-0.6454 -0.10394,0.0629 -0.20733,0.12672 -0.31183,0.18867 -7.76781,4.60503 4.90557,-2.80998 -3.55415,2.10078 -0.61151,0.35497 1.22215,-0.71147 1.83322,-1.0672 -1.59722,0.92892 -2.81343,1.89586 -4.62905,2.02394 -0.89072,0.015 -1.78236,0.0452 -2.66689,0.15932 -0.96478,0.13152 -1.89692,0.36804 -2.84243,0.59074 -0.75191,0.17473 -1.49409,0.36628 -2.27502,0.29048 -0.80977,-0.006 -1.62137,-0.0118 -2.42701,-0.10327 -0.85324,-0.11137 -1.68804,-0.28776 -2.51474,-0.52742 -0.76018,-0.12898 -1.46381,-0.38836 -2.14092,-0.75931 -0.63805,-0.29944 -1.19822,-0.71478 -1.76704,-1.1272 -0.46754,-0.3593 -0.91281,-0.75954 -1.30312,-1.20139 -0.51537,-0.65437 -0.88718,-1.34545 -1.12913,-2.1461 -0.51704,-1.14184 -1.13801,-2.23035 -1.48346,-3.44511 -0.44816,-1.24313 -0.60859,-2.53321 -0.54564,-3.85417 -0.004,-1.06846 -0.003,-2.13694 -0.005,-3.2054 -10e-4,-1.15077 -0.005,-2.30165 0.0153,-3.4523 0.0279,-1.16617 0.0765,-2.33496 0.31256,-3.48142 0.26753,-1.30363 0.52521,-2.60904 0.82387,-3.90449 0.32977,-1.12515 0.67947,-2.22846 1.25081,-3.26127 0.49857,-0.91641 1.0309,-1.8155 1.47432,-2.75771 0.25597,-0.49499 0.4552,-1.00933 0.6959,-1.51015 0.16086,-0.39353 0.0443,-0.90225 0.37196,-1.21215 1.81237,-1.04608 2.17009,-1.44577 3.85898,-1.69249 0.73591,-0.0932 1.42031,0.0697 2.05461,0.46305 0.56014,0.38503 1.1022,0.77582 1.477,1.35862 0.34209,0.51512 0.69844,1.05234 0.83233,1.66183 -0.004,0.6507 -0.006,1.30148 -7.7e-4,1.95217 0.0202,0.87482 0.0655,1.75156 0.23671,2.61203 0.22619,0.93684 0.54309,1.84257 0.90618,2.73373 0.37008,0.65859 0.70274,1.21229 1.39669,1.58971 0.81311,0.49237 1.60458,0.92873 2.56416,1.0778 1.14254,0.28811 2.30952,0.48656 3.46425,0.71946 0.70118,0.15922 1.39301,0.35331 2.09489,0.50953 0.61844,0.19229 1.22177,0.246 1.86944,0.16279 0.6401,-0.0525 1.27343,-0.14866 1.8846,-0.35429 0.75228,-0.18751 1.52591,-0.15178 2.28276,-0.32006 0.7385,-0.20988 1.40672,-0.57017 2.09004,-0.91426 -0.6119,0.35967 -2.45417,1.42726 -1.83571,1.07899 0.0794,-0.0447 5.67557,-3.30178 0.61639,-0.35238 -0.62645,0.36521 1.42902,-0.90628 0.74777,-0.58889 0.53395,-0.42348 1.02963,-0.90397 1.51132,-1.38251 0.41572,-0.48287 0.80643,-0.98442 1.25865,-1.42887 0.42575,-0.44981 0.9852,-0.74009 1.47034,-1.11635 0.54162,-0.63672 0.8563,-1.43175 1.21265,-2.18158 0.39696,-1.24153 0.69827,-2.51858 1.04692,-3.77342 0.2361,-1.0619 0.43172,-2.14714 0.37971,-3.23881 -0.0172,-0.75835 -0.0316,-1.53119 -0.27018,-2.25889 -0.29146,-0.6269 -0.80772,-1.08981 -1.28168,-1.58279 -0.62523,-0.58894 -1.15163,-1.30083 -1.62158,-2.01516 -0.57789,-1.06137 -1.20328,-2.09509 -1.51819,-3.27553 -0.30712,-0.98406 -0.60864,-1.99296 -1.24832,-2.81906 -0.4803,-0.51435 -1.07063,-0.90624 -1.67098,-1.26903 -0.67338,-0.41382 -1.35737,-0.80834 -2.03572,-1.21445 -0.62189,-0.33999 -1.21446,-0.73639 -1.88352,-0.98274 -0.78491,-0.38237 -1.60027,-0.68756 -2.42622,-0.9693 -1.15955,-0.28463 -2.3275,-0.53914 -3.47195,-0.87932 -0.90356,-0.28349 -1.76446,-0.63472 -2.6388,-0.98528 -0.79972,-0.16111 -1.5729,-0.42247 -2.37893,-0.55139 -0.83192,-0.20391 -1.60638,-0.5716 -2.437,-0.77951 -0.95959,-0.25166 -1.95913,-0.4072 -2.83352,-0.90205 -0.80828,-0.4593 -1.62268,-0.94388 -2.2625,-1.62937 -0.58481,-0.69965 -0.98566,-1.48662 -1.3371,-2.32412 -0.45226,-0.88092 -0.86318,-1.76934 -1.21715,-2.69542 -0.30275,-0.95866 -0.68685,-1.88877 -1.01038,-2.84067 -0.16593,-0.7405 -0.20648,-1.47119 -0.15866,-2.23047 0.0288,-0.85848 0.0755,-1.72079 0.28783,-2.55732 0.27304,-0.91199 0.72508,-1.74882 1.02643,-2.65152 0.24478,-0.86606 0.65131,-1.66153 0.98732,-2.49211 0.28643,-0.89533 0.85036,-1.57299 1.43046,-2.30067 0.33462,-0.51292 0.81162,-1.02568 1.34142,-1.35211 0.20357,-0.12544 5.4531,-3.21001 0.77103,-0.4579 1.23685,-0.81283 0.26116,-0.17907 2.98031,-1.8167 0.56282,-0.36431 -2.31599,1.35197 -1.73955,1.00963 1.12437,-0.66774 2.2288,-1.35642 3.39922,-1.93534 0.75519,-0.41888 1.52637,-0.82176 2.34767,-1.09577 0.79165,-0.22872 1.56576,-0.52947 2.33149,-0.83009 0.57452,-0.29761 1.16592,-0.56165 1.76391,-0.80804 -4.45642,2.59495 -0.65279,0.37273 0.41492,-0.21494 0.82782,-0.45563 2.77839,-0.35082 -1.30384,0.92463 1.10167,-0.7103 2.18951,-1.48434 3.43826,-1.90301 0.53037,-0.10022 1.07776,-0.0967 1.60098,-0.24436 0.44685,-0.11244 0.87834,-0.0531 1.33318,-0.0909 0.49664,0.0757 0.92487,0.3669 1.43135,0.38785 0.70842,0.0837 1.40132,0.2317 2.09309,0.40525 0.91619,0.11904 1.85068,0.006 2.77202,0.0505 1.4011,0.005 2.80226,0.004 4.20334,-0.006 0,0 -2.07481,1.50743 -2.07481,1.50743 z"
     id="path3272"
     style="fill:#000000;stroke:#000000" />
</svg>
