<?xml version="1.0" encoding="UTF-8" standalone="no"?>
<!-- Created with Inkscape (http://www.inkscape.org/) -->

<svg
   xmlns:dc="http://purl.org/dc/elements/1.1/"
   xmlns:cc="http://creativecommons.org/ns#"
   xmlns:rdf="http://www.w3.org/1999/02/22-rdf-syntax-ns#"
   xmlns:svg="http://www.w3.org/2000/svg"
   xmlns="http://www.w3.org/2000/svg"
   version="1.1"
   width="400"
   height="384"
   id="svg2">
  <metadata
     id="metadata8">
    <rdf:RDF>
      <cc:Work
         rdf:about="">
        <dc:format>image/svg+xml</dc:format>
        <dc:type
           rdf:resource="http://purl.org/dc/dcmitype/StillImage" />
        <dc:title></dc:title>
      </cc:Work>
    </rdf:RDF>
  </metadata>
  <defs
     id="defs6" />
  <g
     id="layer1">
    <path
       d="m 151.64621,141.0774 c -1.31674,2.46232 -2.76307,4.85991 -4.27404,7.20801 -2.51194,3.68482 -5.33878,7.13768 -7.85669,10.81713 -2.05486,2.84148 -3.75206,5.90457 -5.52965,8.91846 -1.08874,1.9289 -1.80508,4.03364 -2.55194,6.11 -0.75806,2.16917 -2.18764,3.97494 -3.45094,5.86033 -1.35918,2.09212 -2.70749,4.19099 -4.11195,6.25313 -1.25253,2.09335 -2.57652,4.14055 -3.89028,6.19539 -1.16858,1.82374 -2.02198,3.81927 -2.73185,5.85897 -0.85686,2.34618 -1.36311,4.78872 -1.89467,7.22178 -0.54922,2.43372 -1.3524,4.78936 -2.28782,7.09834 -1.34209,2.44671 -2.71465,4.86955 -4.00632,7.34433 -1.20552,2.05028 -2.2665,4.17794 -3.36482,6.28655 -0.9983,1.79148 -1.86649,3.65686 -2.53156,5.59737 -0.48512,1.33012 -0.91968,2.67431 -1.13621,4.0753 0.14022,0.95668 0.62424,1.84754 1.13733,2.65659 0.71786,1.44975 1.52389,2.85297 2.41684,4.20147 0.70094,1.45114 1.97799,2.29611 3.17377,3.28231 0.91554,0.68267 1.97297,1.16067 3.05317,1.52397 1.10971,0.36345 2.14482,-0.0554 3.16897,-0.46762 1.31353,-0.19611 4.84795,-2.57725 -2.89373,1.79227 -0.7419,0.41874 0.68069,-0.44686 0.86131,-0.58746 10.44165,-6.00724 0.84435,-0.48038 0.36581,-0.22516 -0.0696,0.0371 0.0847,-0.13362 0.11792,-0.20516 0.11049,-0.238 0.14702,-0.52246 0.2131,-0.77416 0.42395,-0.89649 0.77521,-1.83073 1.25863,-2.69747 0.73868,-1.23071 1.55671,-2.40922 2.32957,-3.61869 0.95189,-1.64794 1.9635,-3.25975 2.94169,-4.89187 0.98767,-1.73522 2.11877,-3.39089 3.05673,-5.15356 0.60684,-1.19005 1.029,-2.45718 1.52674,-3.69353 0.41991,-1.04961 0.56834,-2.16997 0.65282,-3.28881 0.0392,-1.44627 0.4595,-2.84785 0.88327,-4.22032 0.62214,-2.12069 1.1727,-4.26077 1.69593,-6.40767 0.57257,-2.20665 1.05355,-4.42667 1.72771,-6.60555 0.43134,-1.50076 1.25785,-2.7342 2.36054,-3.80898 2.01344,-1.71134 4.28667,-3.3256 6.90781,-3.85039 1.67384,-0.23359 3.34801,0.17656 4.92645,0.7087 1.32735,0.45105 2.63301,0.89134 3.75707,1.74704 1.07102,0.97135 1.30077,2.35347 1.45398,3.72155 0.29655,1.51409 0.50397,3.03571 0.62357,4.57353 0.23366,1.43776 0.5025,2.86578 0.64686,4.31635 0.12277,1.5469 0.11523,3.10058 0.12086,4.65126 0.0108,1.5837 0.004,3.1675 -0.005,4.75121 -0.003,2.00896 -0.007,4.01791 -0.0117,6.02687 -0.17531,2.65268 0.24239,5.25382 0.6677,7.85972 0.2603,1.98583 0.50921,3.96606 0.9096,5.92923 0.11039,1.16174 0.48448,2.21888 0.94334,3.27884 0.44605,1.19075 1.35364,1.80902 2.40261,2.42639 1.40957,0.77034 2.94999,0.91651 4.51993,0.80177 1.38803,-0.28172 2.77309,-0.76148 4.02318,-1.43105 -5.93388,3.63915 -2.76729,1.81733 -1.63383,-0.094 0.48429,-0.89941 0.52042,-1.92615 0.56869,-2.92312 0.0329,-1.40165 0.0203,-2.80394 0.0241,-4.20589 0.0872,-2.85588 0.36506,-5.70425 0.50329,-8.56022 0.13096,-3.02465 0.1505,-6.0523 0.16367,-9.07924 0.0139,-2.97668 0.0195,-5.95338 0.0161,-8.93008 0.002,-2.61645 -0.54188,-5.17253 -0.94282,-7.74391 -0.37125,-2.5973 -0.6948,-5.20043 -1.01508,-7.80487 -0.21843,-3.10766 -0.97061,-6.12768 -1.67639,-9.14883 -0.76976,-2.88353 -1.23189,-5.82943 -1.99647,-8.71455 -0.86765,-2.78416 -1.62365,-5.59693 -2.47975,-8.38437 -0.98154,-2.60514 -1.60146,-5.31251 -2.30205,-8.00063 -0.74382,-2.53802 -1.12998,-5.15024 -1.3254,-7.78145 -0.22613,-2.21121 -0.62479,-4.4041 -1.11861,-6.57024 -0.53138,-1.77617 -1.03996,-3.55631 -1.59573,-5.32408 -0.17007,-1.21038 -0.10996,-0.61303 -0.18501,-1.79156 0,0 4.01046,-2.07039 4.01046,-2.07039 l 0,0 c 0.0478,1.12396 0.002,0.56125 0.13918,1.68806 0.5547,1.78269 1.02872,3.58614 1.5866,5.36909 0.5028,2.18752 0.90182,4.40496 1.13879,6.63758 0.17883,2.60919 0.52622,5.20373 1.25901,7.72224 0.71629,2.67694 1.32442,5.38024 2.31205,7.97634 0.84328,2.79862 1.58963,5.62152 2.46192,8.41147 0.77705,2.88582 1.25666,5.83029 2.01743,8.71948 0.70577,3.03786 1.44908,6.07758 1.67913,9.19935 0.33603,2.59249 0.70168,5.18033 1.06062,7.7688 0.37833,2.6012 0.91848,5.18444 0.92983,7.82567 -4.3e-4,2.97363 0.0134,5.94723 0.008,8.92086 -0.0219,3.03899 -0.0741,6.07805 -0.19459,9.11489 -0.12317,2.83481 -0.36805,5.66603 -0.43377,8.50055 0.0119,1.40273 0.0262,2.80561 0.009,4.20837 -0.0241,1.05085 -0.0581,2.13274 -0.46749,3.11632 -1.36414,2.52347 -3.22058,3.42089 -6.0673,4.77907 -1.31828,0.58343 -2.67326,1.13317 -4.12066,1.27595 -1.6336,0.0489 -3.23623,-0.1924 -4.67806,-1.01446 -1.12373,-0.668 -2.06488,-1.40772 -2.56042,-2.66296 -0.47647,-1.09059 -0.88684,-2.17065 -0.97444,-3.37383 -0.3724,-1.98084 -0.63545,-3.96754 -0.86629,-5.9699 -0.41246,-2.62455 -0.88223,-5.24196 -0.71881,-7.91334 -0.005,-2.00582 -0.007,-4.01162 -0.008,-6.01744 -0.006,-1.58226 -0.005,-3.16454 5e-4,-4.74679 -0.006,-1.53606 -0.007,-3.07427 -0.11668,-4.60719 -0.13122,-1.45621 -0.3837,-2.89135 -0.64086,-4.32984 -0.10879,-1.5334 -0.30766,-3.05195 -0.62297,-4.55765 -0.12472,-1.24094 -0.2767,-2.52559 -1.27666,-3.38993 -1.10582,-0.78709 -2.38357,-1.19355 -3.65545,-1.6387 -1.55347,-0.47741 -3.18,-0.84718 -4.80179,-0.49569 -1.67097,0.45478 -3.71743,1.78769 2.22245,-1.61614 0.1527,-0.0875 -0.28433,0.20752 -0.4265,0.31128 -0.60768,0.45467 -0.30785,0.23077 -0.89946,0.67174 -1.07878,1.05924 -2.07698,2.10601 -2.49523,3.62556 -0.69121,2.16887 -1.18637,4.37452 -1.74615,6.57986 -0.50647,2.15431 -1.09252,4.28817 -1.66007,6.42693 -0.43478,1.32756 -0.84392,2.70401 -0.89884,4.10638 -0.0672,1.15803 -0.20831,2.32081 -0.5986,3.41989 -0.49267,1.25518 -0.95154,2.52452 -1.52928,3.74442 -0.90665,1.7942 -2.08933,3.43561 -3.07234,5.18854 -0.95997,1.63747 -1.98265,3.23701 -2.90873,4.89436 -0.7721,1.20226 -1.56157,2.38665 -2.31013,3.60167 -0.5512,0.80692 -0.81284,1.74852 -1.26479,2.60916 -0.1211,0.21379 -0.10348,0.93656 -0.28892,1.0656 -2.59876,1.8085 -7.77096,4.74454 -0.29656,0.4018 -0.65952,0.35116 0.19535,-0.13471 -0.54002,0.41121 -1.58707,1.17819 -3.33401,2.33305 -5.26785,2.8502 -1.1032,0.39204 -2.20995,0.63545 -3.35087,0.20371 -1.10892,-0.4178 -2.20279,-0.9111 -3.13021,-1.66045 -1.23175,-1.00714 -2.4879,-1.94528 -3.22619,-3.41003 -0.88499,-1.35571 -1.712391,-2.74623 -2.445766,-4.19068 -0.582681,-0.90038 -1.077036,-1.88399 -1.287818,-2.94243 0.188289,-1.435 0.614306,-2.80802 1.127888,-4.15987 0.625272,-1.97675 1.527496,-3.86223 2.529806,-5.67413 1.07746,-2.12378 2.15898,-4.24782 3.37529,-6.29583 1.30237,-2.45796 2.60907,-4.90556 4.02094,-7.30355 0.94037,-2.28671 1.75677,-4.61948 2.32212,-7.03019 0.54162,-2.43788 1.00461,-4.8983 1.85239,-7.25585 0.68309,-2.07954 1.53949,-4.10365 2.7,-5.96491 1.32126,-2.05091 2.65926,-4.09001 3.87782,-6.20517 1.42213,-2.05387 2.77672,-4.15272 4.13094,-6.25188 1.21717,-1.88226 2.67621,-3.63606 3.4763,-5.75689 0.76742,-2.09366 1.445,-4.23617 2.53178,-6.19493 1.83472,-3.01799 3.52723,-6.1247 5.61457,-8.98415 2.49413,-3.67289 5.29731,-7.1201 7.8066,-10.7835 1.49717,-2.30495 2.91851,-4.67407 4.18326,-7.11339 0,0 4.14214,-1.87403 4.14214,-1.87403 z"
       id="path3303"
       style="fill:#000000;stroke:#000000" />
    <path
       d="m 147.64565,167.98193 c -0.90051,1.33473 -1.77363,2.67595 -2.79838,3.92244 -1.40298,1.66184 -2.41819,3.59823 -3.35193,5.54977 -0.61339,1.58197 -1.3702,3.1066 -1.87836,4.72785 -0.17154,0.59579 -0.32111,1.21862 -0.21965,1.83753 0.1959,0.78742 0.6569,1.44415 1.05932,2.13317 0.66525,0.86587 1.43961,1.66137 2.29343,2.34163 0.95394,0.80651 2.13059,1.26936 3.27117,1.74626 0.81587,0.30004 1.76089,0.65082 2.6309,0.43067 1.6126,-0.41651 3.3221,-1.57802 -2.92856,1.82249 -0.11443,0.0623 0.21721,-0.14471 0.31743,-0.22792 0.17993,-0.1494 0.4285,-0.42866 0.58181,-0.5933 0.49825,-0.58201 0.86636,-1.24056 1.05498,-1.9815 0.21192,-0.88115 0.0298,-1.71436 -0.1555,-2.57641 -0.52129,-1.49027 -0.73492,-3.0565 -0.88156,-4.62091 -0.41916,-3.16483 -0.16081,-6.31634 0.088,-9.48382 0,0 3.86009,-1.92913 3.86009,-1.92913 l 0,0 c -0.24189,3.12644 -0.40601,6.21559 0.0496,9.32929 0.14138,1.54402 0.33162,3.09583 0.89007,4.55394 0.20171,0.91464 0.43455,1.79084 0.25751,2.73577 -0.12791,0.82223 -0.48175,1.5314 -0.96478,2.20804 -1.50056,1.7224 -3.51311,3.17206 -5.82658,3.48701 -0.95296,0.002 -1.88434,-0.24724 -2.75199,-0.63608 -1.16788,-0.51245 -2.36041,-1.01031 -3.33592,-1.85459 -0.8821,-0.73126 -1.70866,-1.54761 -2.38763,-2.47339 -0.43236,-0.72682 -0.91989,-1.4229 -1.14291,-2.252 -0.17813,-0.68584 -0.0744,-1.38056 0.12903,-2.05569 0.51263,-1.65735 1.3048,-3.19757 1.92225,-4.81587 0.90344,-1.97122 1.902,-3.92744 3.25334,-5.63451 1.0469,-1.21965 1.98156,-2.50893 2.78185,-3.9036 0,0 4.183,-1.78714 4.183,-1.78714 z"
       id="path3305"
       style="fill:#000000;stroke:#000000" />
    <path
       d="m 195.85871,150.26045 c -0.24982,3.12101 -0.48231,6.22744 -0.95518,9.32378 -0.55583,3.04302 -1.45304,6.00175 -1.96322,9.0543 -0.47914,2.56863 -0.89777,5.15043 -1.24272,7.74067 -0.28573,2.84856 -0.40174,5.70434 -0.82455,8.53834 -0.57836,2.67456 -1.25428,5.32458 -1.86464,7.99208 -0.73134,2.17727 -1.16138,4.41609 -1.58532,6.66587 -0.4641,2.62733 -0.80382,5.27371 -1.20484,7.91072 -0.57229,2.61666 -1.00139,5.25943 -1.53021,7.88436 -0.41987,1.83198 -0.56798,3.70127 -0.64079,5.57393 0.0165,2.31624 -0.1249,4.61725 -0.33874,6.92195 -0.17241,1.70998 -0.27078,3.42544 -0.31806,5.14304 0.0862,1.23568 -0.17825,2.42537 -0.39888,3.62944 -0.18558,1.10798 -0.19944,2.22322 -0.43191,3.32351 -0.24604,1.00623 -0.38495,2.02837 -0.45075,3.06066 -0.12077,0.96118 -0.0499,1.74303 0.48617,2.55988 0.37146,0.65639 1.06381,1.06857 1.74649,1.35383 0.76483,0.25764 1.7127,0.0304 2.45767,-0.24544 2.05432,-0.28735 6.31635,-2.9657 -0.57337,0.96203 0.72356,-0.506 1.41305,-1.08927 1.86866,-1.85257 0.35194,-1.05984 0.49961,-2.18598 0.72023,-3.28329 0.29105,-1.67221 0.60635,-3.34643 1.08362,-4.97642 0.67118,-1.99319 0.98523,-4.06727 1.1597,-6.15481 0.16803,-2.36745 0.0682,-4.74272 0.20763,-7.11028 0.14703,-2.09858 0.60188,-4.16101 1.12711,-6.19307 0.41171,-1.69924 0.87665,-3.37836 1.16098,-5.10542 0.21048,-1.00858 0.0556,-2.06552 0.44684,-3.02681 0.97919,-1.62951 3.5842,-2.40995 4.84013,-3.11606 0.46404,-0.2609 0.89346,-0.39996 1.41762,-0.46549 1.31986,-0.0909 2.22738,0.90177 3.20869,1.61593 1.11549,1.09782 2.0327,2.36575 2.95508,3.627 1.11235,1.4974 2.14947,3.03419 3.03491,4.67891 0.97887,1.70803 1.85827,3.46204 2.67854,5.25002 0.81782,2.14434 1.55006,4.32193 2.27771,6.49884 0.64974,2.1178 1.04226,4.30331 1.53709,6.4601 0.42379,1.79902 0.79506,3.61337 1.2975,5.39254 0.41987,1.23142 0.89739,2.44269 1.49071,3.60087 0.32623,0.72141 0.59299,1.5289 1.14496,2.11622 0.48985,0.33502 1.01419,0.65867 1.59057,0.83996 1.1562,0.27928 2.3183,0.14804 3.48062,0.002 1.97094,-0.18746 3.83675,-0.8981 5.76682,-1.30897 0.75709,-0.27122 1.56735,-0.40687 2.28748,-0.77977 0.20303,-0.10513 0.77655,-0.48244 0.57696,-0.37092 -3.20092,1.78859 -4.40365,2.69571 -2.86094,1.56623 0.83823,-0.73892 1.54084,-1.63117 2.03725,-2.63196 0.30296,-0.66437 0.39374,-1.38224 0.43715,-2.10247 0.007,-0.68003 0.0511,-1.36323 -0.0516,-2.03688 -0.26099,-1.21017 -0.61198,-2.39947 -0.95925,-3.58783 -0.52699,-1.75831 -1.20203,-3.46301 -1.77286,-5.20873 -0.64476,-1.97964 -1.86388,-3.67229 -2.89456,-5.45411 -1.03705,-1.73616 -1.87864,-3.57226 -2.9824,-5.26841 -1.17976,-1.66649 -2.21319,-3.42601 -3.32374,-5.13735 -0.92606,-1.40406 -1.8248,-2.8288 -2.76563,-4.22437 -1.05527,-1.29963 -1.85999,-2.71715 -2.52094,-4.24568 -0.65373,-1.54757 -1.46168,-2.98748 -2.47233,-4.32726 -1.15062,-1.40498 -2.39222,-2.74052 -3.74279,-3.95468 -1.38527,-1.0375 -2.93957,-1.82722 -4.43541,-2.69274 -1.12234,-0.53712 -1.98919,-1.45407 -3.02608,-2.11478 -2.59,-0.62443 2.14969,-2.84007 3.9846,-2.99683 1.24723,-0.0198 2.47159,-0.10544 3.70661,-0.28235 2.05278,-0.37775 4.04062,-0.99649 6.04035,-1.57742 0.32551,-0.11456 0.65569,-0.21664 0.97654,-0.34367 0.458,-0.18133 1.419,-0.63639 1.8477,-0.86319 0.30761,-0.16274 1.21125,-0.68599 0.90773,-0.51574 -3.89176,2.18293 -5.035,2.86188 1.77516,-1.06068 1.76943,-1.10332 3.72035,-1.81709 5.69222,-2.45993 1.76538,-0.59385 3.60791,-0.94678 5.33901,-1.63528 1.35327,-0.82237 4.52467,-2.33404 -1.78705,1.04141 -0.22138,0.11839 0.41578,-0.28185 0.61637,-0.43281 0.45146,-0.33978 0.70063,-0.57047 1.11882,-0.93642 0.83344,-0.61774 1.19812,-1.55857 1.67968,-2.43537 0.53259,-1.11153 1.04206,-2.23046 1.59847,-3.3327 0.42363,-1.03841 0.80229,-2.09038 1.26388,-3.11471 0.41419,-0.88103 0.62179,-1.82808 0.73456,-2.78899 0.088,-1.20892 0.0735,-2.42319 0.0734,-3.63464 0.009,-1.22926 0.0431,-2.44713 -0.18,-3.65865 -0.24795,-1.16882 -0.36772,-2.35817 -0.44453,-3.54886 -0.12444,-1.16168 -0.46602,-2.20954 -1.01974,-3.22829 -0.4944,-1.05206 -1.15349,-2.02467 -1.82303,-2.97321 -0.55576,-0.77938 -0.89383,-1.6757 -1.39351,-2.48804 -0.69099,-0.75275 -1.2003,-1.61703 -1.98971,-2.27799 -1.07669,-0.87226 -2.32444,-1.49817 -3.59715,-2.0299 -1.71003,-0.88961 -3.51881,-1.41374 -5.36411,-1.92457 -1.6192,-0.36028 -3.19943,-0.86176 -4.81603,-1.23269 -1.16842,-0.27009 -2.30434,-0.61721 -3.49748,-0.78298 -1.42924,-0.48524 -2.93333,-0.61559 -4.42886,-0.71639 -2.30574,-0.13901 -4.6167,0.20926 -6.84544,0.78188 -1.9659,0.61394 -3.89424,1.3056 -5.80076,2.0804 -1.66179,0.56941 -3.352,1.00549 -4.88522,1.87264 -1.65257,0.86297 -1.24679,0.66126 2.69034,-1.5743 0.16945,-0.0962 -0.34185,0.18902 -0.50001,0.30284 -0.34019,0.24484 -0.38993,0.48229 -0.41276,0.8751 0.0945,0.8402 0.22627,1.67364 0.30433,2.51617 0.0389,1.35633 -0.25257,2.71644 -0.48247,4.05043 -0.21434,1.43658 -0.44671,2.87036 -0.67014,4.30555 0,0 -3.99095,1.95591 -3.99095,1.95591 l 0,0 c 0.22506,-1.42486 0.45456,-2.84966 0.61364,-4.28386 0.21445,-1.29392 0.46906,-2.61751 0.48726,-3.92483 -0.066,-0.85414 -0.18675,-1.69946 -0.32512,-2.54475 -0.0475,-0.79887 0.0199,-1.20483 0.74627,-1.62699 4.19953,-2.44092 3.00543,-1.80213 5.06443,-2.88705 1.56202,-0.79071 3.26795,-1.19839 4.89975,-1.82279 1.90744,-0.77179 3.85293,-1.43231 5.82648,-2.01626 2.27309,-0.51647 4.60562,-0.85168 6.94171,-0.68093 1.51427,0.11196 3.01649,0.29511 4.47798,0.72588 1.19282,0.19592 2.33935,0.55197 3.51667,0.8168 1.6034,0.40326 3.18546,0.8843 4.79478,1.26474 1.86746,0.5076 3.67046,1.1125 5.41458,1.96421 1.30714,0.56916 2.59223,1.21629 3.6944,2.13391 0.80025,0.71124 1.36661,1.59074 2.06778,2.39235 0.49988,0.80321 0.83591,1.69013 1.37535,2.46987 0.66837,0.96994 1.34458,1.95065 1.8448,3.0191 0.58456,1.07788 0.95824,2.17763 1.11975,3.40078 0.0619,1.17388 0.16131,2.34774 0.413,3.49858 0.24547,1.24079 0.23764,2.47501 0.20994,3.73883 0.004,1.22148 0.0166,2.44339 -0.028,3.66436 -0.088,1.00443 -0.28993,1.99845 -0.68498,2.93065 -0.47721,1.02392 -0.89567,2.06442 -1.25777,3.13269 -0.56764,1.10331 -1.12335,2.19778 -1.58045,3.35042 -0.53145,0.87684 -0.81223,1.91755 -1.64008,2.5767 -2.26329,2.0457 -4.94501,3.50633 -7.69408,4.81694 -1.75063,0.6194 -3.57151,1.0211 -5.3337,1.60971 -1.95909,0.6671 -3.87815,1.43302 -5.64307,2.53016 8.2866,-4.84333 -3.18911,2.31599 -5.56798,2.70184 -2.0105,0.5982 -4.02842,1.17743 -6.09849,1.53716 -1.25081,0.16501 -2.5021,0.2162 -3.75977,0.29588 -0.48572,0.0468 -0.65727,0.0645 -0.64439,0.0536 3.74088,-3.17039 2.22266,-3.23767 4.16453,-2.22692 0.99191,0.70293 1.88082,1.55636 2.9787,2.10759 1.52074,0.87368 3.09225,1.6923 4.47184,2.78196 1.36948,1.23662 2.63283,2.59134 3.798,4.0223 1.0305,1.36988 1.85856,2.8384 2.5277,4.41846 0.65312,1.50076 1.44196,2.896 2.48012,4.17334 0.94242,1.3975 1.84694,2.82207 2.75706,4.23951 1.10465,1.71535 2.13505,3.476 3.32639,5.13517 1.10182,1.70662 1.9424,3.55118 2.98502,5.29321 1.0462,1.80825 2.28122,3.52714 2.94331,5.53274 0.58167,1.74523 1.25172,3.45392 1.79975,5.20836 0.36643,1.19583 0.72143,2.3964 1.01171,3.61233 0.15579,0.69818 0.11129,1.41079 0.11179,2.12429 -0.0196,0.77224 -0.11454,1.54258 -0.37575,2.27399 -0.47506,1.06348 -1.14192,1.99974 -1.96574,2.82464 -2.20497,1.95355 -4.96817,3.26995 -7.79915,4.00193 -1.93127,0.44597 -3.81987,1.11483 -5.80536,1.28104 -1.21656,0.13441 -2.45803,0.23183 -3.64415,-0.14773 -0.61192,-0.25476 -1.22386,-0.58406 -1.71479,-1.03083 -0.54108,-0.65169 -0.87237,-1.4447 -1.18355,-2.22526 -0.5986,-1.18846 -1.08555,-2.4307 -1.50635,-3.69244 -0.50953,-1.78595 -0.87211,-3.6123 -1.29127,-5.42098 -0.50114,-2.14274 -0.86478,-4.32111 -1.50276,-6.43037 -0.7217,-2.16106 -1.45921,-4.31886 -2.26896,-6.44815 -0.81776,-1.77805 -1.70185,-3.51898 -2.66852,-5.22188 -0.8828,-1.62309 -1.90428,-3.14328 -3.01688,-4.61602 -0.90755,-1.21449 -1.77994,-2.46827 -2.89278,-3.50567 -0.91357,-0.67672 -1.77856,-1.54137 -3.01344,-1.29018 -0.53264,0.15678 -0.36378,0.0865 -0.90707,0.34023 -0.14889,0.0695 -0.58353,0.30148 -0.44281,0.21664 7.37665,-4.44689 3.77174,-2.54722 2.87706,-1.59489 -0.58391,0.85143 -0.29922,1.93516 -0.54027,2.90821 -0.27908,1.74431 -0.74325,3.43714 -1.15718,5.15132 -0.53345,2.01158 -1.03033,4.04768 -1.18897,6.12866 -0.1775,2.36562 -0.0362,4.74224 -0.20031,7.11032 -0.13781,2.11453 -0.44925,4.21475 -1.10339,6.23789 -0.50583,1.60103 -0.79742,3.2666 -1.07265,4.91991 -0.21472,1.13113 -0.42916,2.25809 -0.64994,3.38488 -0.36392,0.8795 -1.05073,1.48534 -1.77717,2.08285 -2.57584,1.50029 -4.47244,2.8804 -7.27003,3.4677 -0.87623,0.20738 -1.80559,0.39037 -2.65193,-0.0201 -0.7391,-0.36827 -1.4849,-0.82949 -1.88815,-1.57486 -0.5904,-0.96592 -0.75582,-1.68617 -0.61603,-2.81434 0.0671,-1.05313 0.16574,-2.10041 0.42745,-3.12661 0.25073,-1.0962 0.29711,-2.19312 0.44022,-3.30631 0.20159,-1.1914 0.54397,-2.35368 0.44245,-3.57697 0.0495,-1.73364 0.15527,-3.46474 0.34267,-5.18942 0.22681,-2.29451 0.39092,-4.582 0.33411,-6.89017 0.0663,-1.89644 0.16999,-3.79683 0.62524,-5.64798 0.53528,-2.6248 0.99256,-5.26309 1.56923,-7.87997 0.41081,-2.63222 0.71655,-5.2802 1.16185,-7.9077 0.43812,-2.25677 0.80617,-4.52221 1.60236,-6.69273 0.61661,-2.65819 1.25846,-5.30761 1.88218,-7.96419 0.45063,-2.82867 0.57141,-5.68163 0.83476,-8.53071 0.31999,-2.59436 0.73098,-5.18052 1.21868,-7.74815 0.5167,-3.06405 1.41868,-6.0282 2.01859,-9.07427 0.46894,-3.0569 0.7214,-6.11515 0.86915,-9.20471 0,0 4.04878,-2.06295 4.04878,-2.06295 z"
       id="path3307"
       style="fill:#000000;stroke:#000000" />
    <path
       d="m 204.27792,154.18877 c -0.65736,2.00353 -0.88464,4.10557 -1.05913,6.19617 -0.0238,1.87025 -0.45969,3.67768 -0.90233,5.48113 -0.38119,1.47703 -0.47315,2.99915 -0.5299,4.51651 -0.0789,1.24154 0.0564,2.49292 -0.0817,3.72946 -0.20166,0.77431 -0.38169,1.4727 -0.23016,2.2657 0.19667,0.58131 0.65284,0.74722 1.11006,1.06372 0.56274,0.28944 1.03397,0.005 1.59466,-0.14033 1.3679,-0.0999 2.5887,-0.75506 3.90609,-1.10689 1.44236,-0.35522 2.92665,-0.43692 4.40449,-0.49731 1.18124,0.0211 2.32589,-0.0138 3.48584,-0.23213 1.11153,-0.0572 2.10831,-0.4326 3.15471,-0.747 1.69417,-1.00786 -0.75905,0.45459 -3.19914,1.81794 -0.12096,0.0676 0.2316,-0.15246 0.34249,-0.23554 0.35914,-0.2691 0.67712,-0.59178 0.99842,-0.90313 0.9166,-0.82603 1.94818,-1.51451 2.95929,-2.21867 0.98292,-0.76571 2.06369,-1.38794 3.10484,-2.06737 1.08753,-0.74739 2.17472,-1.48969 3.2398,-2.26938 0.90317,-0.67725 1.53292,-1.5715 1.87268,-2.63916 0.17721,-0.85231 0.28211,-1.72763 -0.0469,-2.54903 -0.34018,-0.88224 -0.99535,-1.54028 -1.6746,-2.17405 -0.83816,-0.83461 -1.65824,-1.71858 -2.37185,-2.66766 -0.77832,-0.97235 -1.80434,-1.67399 -2.67445,-2.55872 -0.86336,-0.88578 -1.80076,-1.61493 -2.89895,-2.18433 -0.95405,-0.56825 -1.83858,-1.26166 -2.88162,-1.6587 -0.96858,-0.54131 -1.91956,-1.05807 -3.00234,-1.3233 -1.85117,-0.33085 -3.7324,0.19262 -5.56496,0.45671 -2.21063,0.18782 -4.297,0.75648 -6.24943,1.80166 5.66975,-3.46745 2.50188,-1.43903 1.38495,-0.40387 -0.68034,0.63054 -1.21084,1.25852 -1.70948,2.03679 -0.40362,0.63416 -0.46063,1.21373 -0.40621,1.93079 0,0 -4.02566,2.10073 -4.02566,2.10073 l 0,0 c -0.0921,-0.79335 -0.116,-1.47696 0.30874,-2.20142 1.6912,-3.08151 4.98766,-4.64647 7.95278,-6.27033 2.0013,-0.9628 4.11393,-1.48009 6.32836,-1.67977 1.88396,-0.28699 3.81907,-0.79213 5.71573,-0.33775 1.08235,0.31513 2.05111,0.84617 3.04853,1.36346 1.02689,0.45823 1.92833,1.13721 2.89807,1.70206 1.115,0.61768 2.08035,1.38233 2.96603,2.30046 0.89272,0.88687 1.94409,1.59936 2.71212,2.60758 0.7049,0.92574 1.5063,1.79524 2.34208,2.59941 0.71376,0.69197 1.41229,1.38795 1.77172,2.33691 0.3911,0.91713 0.35465,1.83964 0.18989,2.81303 -0.26817,1.15328 -0.87331,2.15352 -1.77799,2.92849 -1.0574,0.79081 -2.12377,1.54116 -3.22082,2.27389 -0.99397,0.74896 -2.15152,1.26621 -3.11096,2.06985 -0.99989,0.70801 -2.01674,1.38341 -2.97806,2.14337 -1.67295,1.69948 -3.59173,3.09117 -5.94223,3.84656 -1.03946,0.34672 -2.09137,0.54755 -3.17947,0.68904 -1.16928,0.18747 -2.33994,0.16091 -3.52138,0.18471 -1.45581,0.0623 -2.91614,0.18003 -4.32606,0.57276 -1.31067,0.40151 -2.5758,0.95411 -3.9464,1.12285 -0.65151,0.16766 -1.24704,0.23014 -1.83162,-0.16981 -0.54778,-0.37141 -1.03699,-0.71812 -1.27815,-1.37433 -0.17864,-0.85591 -0.13722,-1.58669 0.17125,-2.4166 0.2515,-1.20414 0.0116,-2.47074 0.12964,-3.69239 0.0526,-1.54334 0.11698,-3.09698 0.49344,-4.60229 0.44252,-1.78876 0.94329,-3.56854 0.95824,-5.4292 0.17684,-2.10854 0.39663,-4.22031 0.95906,-6.26737 0,0 4.11788,-1.93391 4.11788,-1.93391 z"
       id="path3309"
       style="fill:#000000;stroke:#000000" />
    <path
       d="m 256.84316,146.30398 c -0.63397,1.93863 -0.88818,3.96419 -1.05967,5.98754 -0.27721,1.93298 -0.53754,3.86508 -0.68629,5.81264 -0.13295,1.2789 -0.011,2.57433 -0.16891,3.84874 -0.17216,1.04064 -0.45058,2.04919 -0.78072,3.04896 -0.23455,0.60661 -0.367,1.23677 -0.4272,1.88212 0.43192,0.36424 0.71043,0.83806 1.19452,1.13929 0.82122,0.73315 1.97012,0.86142 3.02133,0.98961 1.17354,0.10507 2.35155,-0.2034 3.50858,-0.39066 0.91541,-0.15299 1.77906,-0.49194 2.69487,-0.67527 1.00027,-0.14224 1.95874,-0.48981 2.96243,-0.6562 0.88276,-0.004 1.67744,-0.3551 2.50973,-0.59946 0.73521,0.014 0.98179,0.54496 1.11587,1.18652 0.0919,0.93258 0.0544,1.87412 0.0479,2.8101 8e-5,1.45756 -0.31134,2.89909 -0.65917,4.30825 -0.31437,1.55341 -0.86745,3.03616 -1.44942,4.50486 -0.78872,1.61402 -1.78674,3.12328 -2.73744,4.64805 -1.06885,1.79173 -1.8862,3.70667 -2.74697,5.60161 -0.97997,2.28638 -1.78197,4.63038 -2.46738,7.01924 -0.57738,2.4217 -1.33263,4.79279 -2.02407,7.18227 -0.79707,2.70215 -1.51477,5.43153 -1.97249,8.21279 -0.28409,2.84477 -0.48504,5.67955 -0.92892,8.50668 -0.43258,2.56111 -0.64122,5.15 -0.75546,7.74242 0.0179,1.45107 -0.0611,2.86809 -0.32931,4.29237 -0.23354,1.16608 -0.29808,2.35378 -0.34653,3.53892 0.002,1.11468 -0.3011,2.19937 -0.48325,3.29328 -0.14124,0.931 -0.16721,1.87341 -0.18637,2.81318 0.1066,0.57681 -0.2239,1.39478 0.0984,1.90419 0.36639,0.52002 0.89876,0.95146 1.51481,1.12832 0.96669,-0.044 1.88845,0.16352 2.83451,0.32683 1.77022,0.20944 3.563,0.32638 5.34162,0.18901 1.52558,-0.11779 2.96911,-0.65889 4.45209,-1.0027 1.79376,-0.73041 4.9338,-2.51043 -1.88748,1.32195 0.47252,-0.35882 0.85561,-0.85599 1.10056,-1.39644 0.33962,-1.07173 0.56658,-2.15863 0.70845,-3.27296 0.18225,-1.36941 0.0965,-2.75614 0.25008,-4.12558 0.31156,-1.59114 0.44397,-3.20231 0.52732,-4.81886 0.21347,-1.82154 0.46629,-3.63564 0.60509,-5.46525 0.11655,-1.8041 0.12452,-3.61297 0.13058,-5.42012 -0.002,-1.70684 -0.007,-3.41366 -0.004,-5.12051 -0.0852,-2.10366 0.20833,-4.18901 0.39426,-6.27907 0.374,-2.09688 0.57482,-4.2167 0.86393,-6.32486 0.324,-2.28442 0.67451,-4.56675 1.1097,-6.83293 0.5537,-2.25623 1.11873,-4.49714 1.84011,-6.70556 0.46435,-1.70638 0.93544,-3.40368 1.53709,-5.06747 0.46229,-1.62467 1.03727,-3.21324 1.62014,-4.79951 0.65332,-1.36655 1.24,-2.7511 1.59473,-4.22595 0.16517,-1.27123 0.65243,-2.45781 1.32178,-3.54186 0.62781,-0.92619 1.17783,-1.90209 1.91231,-2.75079 0.68392,-0.67457 1.26176,-1.44884 2.00154,-2.06406 2.14389,-1.39971 4.23128,-2.98438 6.79454,-3.32628 2.11949,0.0328 4.20196,0.42794 6.29604,0.70953 2.434,0.19596 4.84644,0.57036 7.27107,0.85164 1.33454,0.18821 2.69615,0.22936 3.96074,-0.2892 1.7334,-0.59168 5.36306,-2.8082 -1.53397,1.10304 14.51449,-8.30209 -8.52687,4.58532 5.39505,-3.22516 0.3134,-0.17582 0.66318,-0.27803 0.98608,-0.43575 -0.94645,0.806 2.73872,-1.47708 1.55013,-0.78683 -6.20659,3.60435 -3.7512,2.28304 -2.51704,1.34903 0.88796,-0.64264 1.57318,-1.48379 2.26782,-2.31915 0.55715,-0.68855 1.00631,-1.424 1.20199,-2.29017 0.0733,-0.8855 0.16715,-1.74516 0.38835,-2.60816 0.21375,-1.02097 0.37727,-2.03798 0.70409,-3.0324 0.42032,-1.19164 0.99667,-2.31641 1.34697,-3.53289 0.21525,-0.77074 0.27221,-1.56379 0.29631,-2.35911 -0.0135,-0.68706 0.16211,-1.01222 -0.29863,-1.54299 -0.48644,-0.46811 -1.0264,-0.91269 -1.659,-1.17084 -0.83972,-0.26061 -1.72104,-0.18326 -2.57228,-0.36362 -1.76981,-0.31496 -3.54772,-0.60588 -5.30112,-1.00538 -1.77546,-0.31853 -3.52145,-0.75296 -5.28587,-1.12086 -1.68466,-0.32499 -3.40559,-0.35834 -5.11539,-0.39418 -2.22682,-0.0307 -4.45395,-0.026 -6.68091,-0.0182 -1.80772,0.01 -3.60775,-0.0906 -5.3922,0.23247 -1.70337,0.32082 -3.43869,0.35624 -5.16608,0.39091 -2.83195,-0.0374 -5.62538,0.46005 -8.42197,0.83092 -3.42802,0.59975 -6.8377,1.29581 -10.24672,1.99494 -2.92222,0.54476 -5.80225,1.285 -8.68462,2.0047 0,0 3.40624,-2.60369 3.40624,-2.60369 l 0,0 c 2.90763,-0.71728 5.81014,-1.46561 8.75165,-2.0348 3.43765,-0.72252 6.87265,-1.46776 10.34174,-2.02674 2.81298,-0.37805 5.6263,-0.82939 8.47389,-0.81073 1.73038,-0.0599 3.46291,-0.13942 5.16795,-0.4653 1.7926,-0.24527 3.59805,-0.13039 5.40279,-0.15265 2.23273,0.002 4.46559,-0.009 6.69819,0.0188 1.73192,0.0411 3.47518,0.0931 5.17575,0.45588 1.75554,0.38701 3.50379,0.79437 5.26953,1.13519 1.76566,0.37518 3.54631,0.67892 5.3291,0.96007 0.89177,0.11512 1.81258,0.0913 2.65502,0.45422 0.6548,0.34002 1.25585,0.7988 1.76468,1.33202 0.59112,0.6888 0.47654,0.97829 0.45621,1.83832 -0.0112,0.82937 -0.0459,1.65895 -0.26446,2.46469 -0.30734,1.24389 -0.8905,2.37284 -1.33743,3.56765 -0.36835,0.97325 -0.53117,1.97144 -0.69948,2.99282 -0.24473,0.85556 -0.40246,1.68462 -0.39742,2.57904 -0.16856,0.94485 -0.52976,1.74033 -1.1268,2.50435 -0.70021,0.83663 -1.33087,1.7489 -2.23247,2.38545 -1.87856,1.82509 -4.46686,2.81574 -6.80096,3.97803 -0.32561,0.15161 -1.27973,0.65075 -0.9709,0.46736 1.14917,-0.68241 4.61005,-2.70674 3.46618,-2.01548 -14.09901,8.52032 2.13362,-1.62023 -1.08485,0.70966 -2.09982,1.23632 -3.99766,2.61277 -6.29556,3.35596 -1.3343,0.3558 -2.68019,0.32236 -4.03917,0.0971 -2.41717,-0.30766 -4.82792,-0.6589 -7.25638,-0.86928 -2.07543,-0.28156 -4.161,-0.68648 -6.26434,-0.56444 -0.52735,0.10863 -0.66996,0.11463 -1.15445,0.29652 -0.16097,0.0604 -0.61965,0.29575 -0.47268,0.20653 6.19326,-3.75959 4.07321,-2.32036 2.68739,-1.57521 -0.82818,0.50541 -1.34307,1.31365 -2.03251,1.97779 -0.79362,0.79891 -1.35114,1.75472 -1.95952,2.69539 -0.73122,0.9862 -1.23237,2.16384 -1.38551,3.38649 -0.32638,1.50367 -0.88945,2.92883 -1.5972,4.29449 -0.60457,1.57524 -1.16792,3.16493 -1.6099,4.78951 -0.60876,1.66513 -1.14039,3.34684 -1.57337,5.06761 -0.71436,2.19932 -1.32378,4.41121 -1.86819,6.66011 -0.46435,2.25237 -0.78188,4.53357 -1.11634,6.80775 -0.30201,2.09962 -0.45159,4.22127 -0.87417,6.30458 -0.18541,2.07454 -0.48169,4.14595 -0.39335,6.23337 0.006,1.70813 0.008,3.41627 4.5e-4,5.1244 -0.007,1.81515 -0.003,3.63165 -0.10682,5.44456 -0.13837,1.82788 -0.36836,3.64383 -0.62205,5.45885 -0.066,1.62124 -0.15662,3.24535 -0.4831,4.83903 -0.20457,1.36351 -0.0827,2.7544 -0.2585,4.12401 -0.12577,1.13619 -0.32591,2.24657 -0.62866,3.34403 -0.17884,0.67617 -0.60064,1.12273 -0.97372,1.68764 -1.93938,1.09836 -3.84548,2.38536 -5.98999,3.07761 -1.47771,0.35003 -2.92996,0.85853 -4.46161,0.91381 -1.81344,0.079 -3.63825,-0.007 -5.43783,-0.24877 -0.97063,-0.16848 -1.9429,-0.22683 -2.90913,-0.39018 -0.66742,-0.32918 -1.26543,-0.74498 -1.67421,-1.38187 -0.37138,-0.64245 -0.18202,-1.40429 -0.20935,-2.13131 0.0136,-0.95986 0.0514,-1.92098 0.16586,-2.8747 0.16577,-1.08366 0.48801,-2.15004 0.51793,-3.24684 0.0299,-1.20487 0.10077,-2.41278 0.31355,-3.60094 0.27019,-1.41387 0.44314,-2.80822 0.39824,-4.25603 0.13419,-2.61259 0.34559,-5.22363 0.77446,-7.80646 0.45144,-2.82598 0.66534,-5.65469 0.92,-8.50229 0.42603,-2.79939 1.16483,-5.53843 1.9431,-8.25815 0.66986,-2.39442 1.44997,-4.75811 2.02134,-7.18024 0.67134,-2.40667 1.46846,-4.76263 2.42352,-7.07323 0.86461,-1.90314 1.66745,-3.83019 2.70432,-5.64983 0.95853,-1.49955 1.89294,-3.01926 2.75995,-4.56988 0.597,-1.44363 1.15453,-2.91187 1.47239,-4.44622 0.34959,-1.37399 0.67865,-2.77834 0.69009,-4.20167 0.002,-0.9068 0.018,-1.81553 -0.0386,-2.72097 -0.0695,-0.4748 -0.15713,-0.7111 -0.69087,-0.54787 -0.83269,0.25072 -1.65563,0.49535 -2.53008,0.55442 -0.99186,0.20395 -1.95605,0.52123 -2.9592,0.66889 -0.90573,0.20481 -1.77381,0.56026 -2.70357,0.65179 -1.17997,0.18294 -2.37892,0.46411 -3.57495,0.27423 -1.12176,-0.17001 -2.27608,-0.38812 -3.1627,-1.15175 -0.56177,-0.42216 -1.03857,-0.98097 -1.44289,-1.55191 0.058,-0.67718 0.13656,-1.35638 0.40091,-1.98993 0.34138,-0.98105 0.63824,-1.95607 0.81643,-2.98154 0.25304,-1.25162 0.0543,-2.56427 0.2202,-3.83062 0.13761,-1.95304 0.39522,-3.89237 0.70282,-5.82564 0.16553,-2.04298 0.40864,-4.07738 0.95852,-6.0586 0,0 4.11788,-1.93391 4.11788,-1.93391 z"
       id="path3311"
       style="fill:#000000;stroke:#000000" />
  </g>
  <g
     id="layer2">
    <path
       d="m 31.777384,17.736172 c -0.121254,2.650049 0.0092,5.272924 -0.495046,7.887272 -0.763687,2.742055 -1.430552,5.48914 -1.943597,8.289205 -0.580537,2.88631 -0.690945,5.828975 -0.950372,8.752196 -0.321252,2.816796 -0.483796,5.644553 -0.59218,8.476233 0.03563,3.135407 -0.254809,6.2487 -0.651986,9.35444 -0.671225,3.621371 -1.051835,7.274903 -1.267783,10.948591 -0.304888,3.681991 -0.555817,7.366303 -0.70234,11.058016 -0.09848,3.559985 -0.07363,7.1181 -0.290533,10.673798 -0.272615,3.273415 -0.302271,6.557661 0.08123,9.821047 0.628629,3.57174 0.990375,7.1729 1.231292,10.7887 0.437346,3.75362 0.964609,7.49159 1.235904,11.26218 0.05704,3.93391 0.45218,7.83556 0.901171,11.73996 0.254717,3.62792 0.598975,7.22057 1.263159,10.79777 0.835852,3.37984 1.465876,6.79385 1.794752,10.25965 0.470519,3.71044 0.573049,7.44861 0.819903,11.17612 0.555153,3.86927 0.182702,7.72731 -0.124931,11.59448 -0.01937,3.73624 0.46875,7.44597 0.555708,11.17897 0.10751,3.64416 0.197814,7.28753 0.233128,10.93313 0.043,3.51953 0.275279,7.04176 0.612618,10.54512 0.422846,3.23823 0.60159,6.49624 0.691804,9.75815 -0.170123,3.24479 -0.654724,6.46089 -0.93446,9.69801 -0.219418,2.834 -0.243907,5.6764 -0.250445,8.5171 0.0097,2.25543 0.01882,4.51091 0.03333,6.76634 0.08308,2.29432 -0.18138,4.57461 -0.391899,6.85468 -0.136154,2.46668 -0.322566,4.94195 -0.313348,7.41262 0.225358,2.65607 0.426034,5.31119 0.543202,7.97468 0.197201,2.66314 0.04031,5.30897 -0.380458,7.93978 -0.438094,2.20919 -0.608804,4.45247 -0.715399,6.69783 -0.06251,2.42439 -0.362134,4.83248 -0.522142,7.25099 -0.137776,2.11904 -0.173178,4.2431 -0.199546,6.36592 -0.0081,2.24674 0.0029,4.49344 -0.0017,6.74017 -3.21e-4,2.21271 -0.06476,4.42151 0.172818,6.62398 0.300005,2.08592 0.330379,4.19337 0.493867,6.29028 0.122527,2.76518 0.04146,5.53452 0.01754,8.3012 0.06591,2.72613 -0.108758,5.43576 -0.332775,8.1498 -0.150921,2.51357 -0.538716,5.00379 -0.768818,7.51005 -0.324034,1.63263 0.09043,3.09408 0.525734,4.64511 0.358116,1.08132 0.509571,2.20989 0.594068,3.34107 -0.0011,1.13553 -0.321731,2.23338 -0.466274,3.35284 -0.112659,0.89303 -0.130922,1.79341 -0.146801,2.69211 -0.05357,0.70343 0.103742,1.38817 0.12661,2.08778 -0.06082,-0.28513 0.357814,0.58226 0.454176,0.78435 0.359218,0.72234 0.406245,1.55217 0.183045,2.32185 -0.297958,0.72413 -0.663112,0.0281 -0.634501,-0.4578 0.04842,-0.162 0.763789,0.7854 0.727969,0.71122 -0.123521,-0.25579 -0.337861,-0.46821 -0.425153,-0.73852 -0.04523,-0.14007 0.216725,0.2044 0.293264,0.33012 0.208248,0.34207 0.370707,0.71 0.556061,1.06499 -2.112798,-4.19159 0.03799,-0.35297 -11.260069,5.00381 -0.187324,0.0888 0.02348,-0.4798 0.199703,-0.589 3.578274,-2.2173 7.938297,-3.45049 10.810799,-6.5277 2.693192,-2.88512 -6.833407,3.95137 -10.25011,5.92705 4.556201,-2.96227 9.147219,-6.09603 14.272309,-7.93874 1.754855,-0.56969 3.505455,-1.14952 5.302144,-1.5848 1.556473,-0.4305 3.160327,-0.23207 4.657057,-0.87267 1.385619,-0.48698 2.779529,-0.95511 4.229947,-1.19958 1.958101,-0.49877 3.955561,-0.80805 5.946646,-1.13919 2.211703,-0.33133 4.436302,-0.40702 6.647738,-0.73967 1.996201,-0.37335 3.976203,-0.75958 6.004488,-0.92816 2.747336,-0.3934 5.513603,-0.59943 8.270965,-0.90835 1.797302,-0.0739 3.526149,-0.65749 5.313574,-0.80602 0.744083,-0.0618 1.915553,-0.012 2.645047,0.006 3.076828,0.15447 6.140326,0.19664 9.214821,0.0115 1.769092,-0.0648 3.537625,-0.34956 5.310517,-0.33498 1.639604,0.0979 0.824304,0.0786 2.445844,0.06 2.72859,-0.0678 5.45788,-0.0863 8.18713,-0.10587 2.68408,0.19114 5.33251,-0.40782 8.00567,-0.3781 2.55872,-0.0199 5.07637,0.45946 7.62596,0.52793 2.80709,0.0294 5.60188,-0.0214 8.38576,-0.38537 2.86584,-0.0951 5.70637,0.36797 8.55923,0.58448 3.02805,0.0727 6.03075,0.45893 9.04702,0.69796 3.12073,0.49576 6.2728,0.69138 9.42631,0.81777 3.10328,0.2406 6.19935,0.50971 9.29005,0.87274 3.52213,0.39219 7.06775,0.47194 10.60807,0.52173 3.42678,0.26549 6.8542,0.47639 10.28935,0.5936 3.82329,0.10699 7.63527,0.44047 11.45763,0.59417 4.00843,0.15218 8.01983,0.16459 12.03048,0.18537 3.77176,-0.008 7.52869,-0.38445 11.29752,-0.51882 3.90169,0.0397 7.7902,-0.33649 11.68633,-0.39799 3.63177,0.058 7.24536,0.48967 10.87309,0.68439 3.36311,0.15314 6.73027,0.16438 10.09611,0.18779 3.59127,0.0284 7.18244,0.028 10.77374,0.01 3.369,-0.054 6.72713,-0.36646 10.0955,-0.49259 3.5545,-0.11456 7.1108,-0.15019 10.66682,-0.17934 3.50173,0.0249 7.00714,-0.0686 10.50467,0.11957 3.35935,0.28471 6.73809,0.27759 10.09433,0.58098 3.48704,0.40436 7.00192,0.39515 10.49687,0.6697 3.32706,0.3766 6.65136,0.46628 9.99253,0.34611 3.82536,-0.15564 7.65158,-0.27263 11.47936,-0.34583 3.80499,-0.0512 7.61026,-0.0166 11.41547,-0.0323 3.34792,0.17801 6.69078,0.41829 10.04193,0.53297 3.2124,0.0455 6.43031,0.21924 9.61756,0.63059 2.28508,0.19596 4.49515,0.80824 6.76023,1.12942 2.03589,0.43401 4.09687,0.69287 6.14105,1.08088 1.47067,0.3859 3.03369,0.22248 4.4939,0.60407 0.61043,0.0931 1.29443,0.49202 1.92863,0.42686 0.9114,-0.0936 -0.36885,-0.25786 0.6021,-0.0835 1.84097,-4.56825 -6.91135,8.12911 -10.51149,6.09965 -0.50618,-0.55657 -0.69286,-1.22883 -0.77481,-1.95788 -0.0322,-1.84961 0.029,-3.70015 0.0495,-5.54986 0.12854,-3.35531 -0.12002,-6.70521 -0.30951,-10.05303 -0.19714,-3.31504 -0.25423,-6.63576 -0.29219,-9.95567 0.0426,-2.51845 -0.21708,-5.00004 -0.95758,-7.40733 -0.48091,-1.64852 -1.22388,-3.19775 -1.88826,-4.77828 -0.72117,-1.76266 -1.18439,-3.60805 -1.74967,-5.42214 -0.60459,-2.2236 -1.18569,-4.45355 -1.7889,-6.67806 -0.47091,-2.23636 -1.02287,-4.45614 -1.49424,-6.69306 -0.4591,-2.48694 -0.89831,-4.97016 -1.14911,-7.48783 -0.11525,-2.45976 -0.26186,-4.90853 -0.50827,-7.3589 -0.15355,-2.66595 -0.3759,-5.32333 -0.60209,-7.98383 -0.23145,-2.71928 -0.35137,-5.44504 -0.40219,-8.17308 -0.0204,-2.60411 -0.0262,-5.20842 -0.025,-7.81266 0.002,-2.33703 -0.0216,-4.67392 -0.016,-7.01097 0.0271,-2.3758 0.0347,-4.74775 -0.14093,-7.11786 -0.26389,-2.77494 -0.37818,-5.55806 -0.41814,-8.34407 -0.10366,-3.4764 -0.06,-6.93272 0.33412,-10.38845 0.37697,-3.77058 1.22648,-7.46489 1.73064,-11.21755 0.29826,-3.78558 0.66534,-7.55457 1.27497,-11.30411 0.57338,-3.23267 1.22322,-6.44389 1.55634,-9.71264 0.21618,-2.34688 0.26416,-4.70471 0.26096,-7.06012 -0.29702,-1.98277 -0.76926,-3.93327 -1.09456,-5.91498 -0.65962,-2.4102 -1.08379,-4.85664 -1.29175,-7.34435 -0.31304,-2.78355 0.15197,-5.55357 0.52203,-8.30504 0.43654,-2.97799 0.44179,-5.99124 0.62907,-8.98862 0.40737,-2.93293 0.7976,-5.86888 1.23562,-8.79778 0.3391,-2.89364 0.90733,-5.75074 1.38838,-8.62179 0.4236,-2.40895 0.43643,-4.8575 0.62457,-7.288 0.27497,-2.27578 0.44746,-4.56026 0.54825,-6.84979 0.0677,-2.15055 0.14839,-4.30117 -0.10356,-6.44142 -0.26499,-1.89285 -0.39014,-3.79774 -0.44399,-5.7069 -0.0542,-2.13386 -0.0531,-4.26899 -0.0458,-6.40343 0.0243,-2.14557 3.8e-4,-4.29104 -0.023,-6.43648 -0.0804,-1.88116 0.13229,-3.74625 0.43151,-5.5996 0.36668,-1.97286 0.72712,-3.947101 1.07556,-5.923342 0.31399,-1.964588 0.40106,-3.956072 0.44773,-5.942174 -0.003,-1.963832 0.2842,-3.911234 0.64437,-5.836705 0.42266,-2.028383 0.56025,-4.097622 0.63632,-6.1633 0.0257,-1.657071 0.0511,-3.314154 0.0701,-4.971349 0.0573,-1.95013 -0.0749,-3.902513 0.0251,-5.850803 0.18764,-1.779854 0.46043,-3.546723 0.77837,-5.307387 0.26828,-1.359075 0.3795,-2.738508 0.43608,-4.12022 0.019,-1.733402 0.35614,-3.439266 0.69095,-5.133355 0.39074,-1.842132 0.48242,-3.723143 0.67494,-5.590131 0.26572,-1.585155 0.46555,-3.174366 0.56385,-4.778548 0.0692,-1.063254 0.0381,-2.128395 0.0374,-3.192611 0.002,-1.006403 0.0175,-2.012856 0.0363,-3.019204 -0.005,-1.165657 -0.0226,-2.330941 -0.0192,-3.496632 -0.007,-0.901161 -0.008,-1.802484 -0.0199,-2.703615 0.0397,-0.494094 -0.0821,-1.011672 -0.004,-1.502758 -0.12203,-0.581743 -0.56115,-0.856021 -1.01024,-1.197301 -0.43848,-0.545425 -1.05328,-0.976848 -1.71431,-1.220377 -0.94924,-0.227175 -1.84614,-0.590693 -2.81912,-0.760276 -1.6179,-0.31355 -3.23747,-0.577816 -4.88611,-0.71715 -1.82732,-0.400285 -3.67761,-0.605325 -5.54201,-0.716302 -2.87916,-0.160273 -5.74521,-0.185835 -8.608,0.173909 -3.29337,0.465062 -6.5425,1.198944 -9.80936,1.821358 -3.91801,0.615599 -7.84401,1.193965 -11.72767,2.004073 -3.31192,0.769258 -6.66429,1.306281 -10.03349,1.756793 -3.45023,0.40192 -6.881,0.915907 -10.34673,1.177777 -3.70576,0.238645 -7.42164,0.408005 -11.12121,0.735662 -3.72737,0.598951 -7.47987,1.009964 -11.23125,1.424471 -3.80337,0.438879 -7.64054,0.382527 -11.4505,0.707103 -3.64513,0.375242 -7.28085,0.784885 -10.94219,0.996355 -3.5623,0.361789 -7.12126,-0.104009 -10.68356,-0.08061 -3.65132,0.08902 -7.3025,0.184012 -10.95411,0.261492 -3.22099,-0.05419 -6.42365,0.194548 -9.63507,0.384028 -3.4396,-0.0091 -6.87664,-0.164745 -10.31532,-0.23673 -3.39819,-0.116374 -6.78498,-0.448441 -10.18396,-0.604444 -3.22308,-0.164901 -6.41013,-0.607233 -9.60649,-1.017861 -3.25417,-0.314669 -6.51582,-0.571504 -9.76241,-0.960912 -2.15804,-0.126324 -4.27899,-0.609231 -6.42484,-0.822816 -0.99306,-0.09884 -1.99236,-0.122547 -2.98671,-0.207473 -3.42487,-0.243282 -6.85545,-0.48471 -10.26213,-0.92136 -3.12169,-0.408658 -6.21937,-0.915832 -9.35841,-1.181955 -3.69717,-0.459064 -7.37169,-1.043855 -11.08705,-1.349939 -3.89638,-0.507996 -7.82277,-0.640497 -11.71764,-1.154162 -3.65879,-0.527794 -7.34276,-0.833977 -11.01869,-1.21188 -3.87361,-0.253895 -7.74265,-0.539781 -11.61417,-0.827894 -3.6788,-0.431567 -7.33183,-1.010587 -11.02354,-1.329023 -2.43356,-0.246582 -4.88807,-0.138195 -7.31961,-0.401081 -1.18476,-0.128091 -2.36129,-0.323322 -3.54209,-0.483869 C 102.49585,23.138663 98.920302,22.98773 95.347875,22.907201 92.290958,22.804477 89.2184,22.618005 86.17874,22.259845 83.125904,21.978314 80.084689,21.611086 77.036227,21.287683 74.271844,20.973384 71.484934,21.051762 68.717136,20.813034 65.919554,20.52301 63.111444,20.386386 60.300987,20.313278 c -2.246581,-0.04404 -4.4936,-0.03163 -6.740441,-0.03256 -2.312301,-0.120404 -4.6016,0.130799 -6.90075,0.324353 -2.344506,0.05071 -4.642178,0.520339 -6.966687,0.769584 -2.945643,0.404767 -5.882936,0.765066 -8.803705,1.340653 -4.688652,0.890155 -8.866877,3.074446 -13.024257,5.312682 0,0 9.052134,-7.273325 9.052134,-7.273325 l 0,0 c 4.313094,-2.228826 8.683244,-4.362751 13.503683,-5.247381 3.005661,-0.57379 6.030478,-0.996349 9.06043,-1.418885 2.305983,-0.289568 4.609676,-0.58111 6.932641,-0.700337 2.336868,-0.209796 4.670151,-0.350034 7.018405,-0.277921 2.231643,0.0043 4.463721,0.02759 6.693894,0.11353 2.812531,0.110691 5.620086,0.291803 8.423105,0.550304 2.782189,0.148968 5.574646,0.161376 8.342882,0.519488 3.037504,0.358355 6.076808,0.679368 9.120971,0.975889 3.022745,0.272893 6.052858,0.519832 9.087508,0.596935 3.58744,0.136541 7.17414,0.345544 10.7339,0.831881 3.58901,0.458659 7.18882,0.635882 10.79776,0.872738 3.69293,0.361948 7.36253,0.896963 11.05194,1.290729 3.86677,0.329524 7.7365,0.584394 11.60709,0.861838 3.67263,0.354159 7.34804,0.693136 10.99486,1.266497 3.91258,0.46688 7.85505,0.580261 11.76694,1.066888 3.70416,0.358666 7.3649,1.039139 11.07318,1.356215 3.15219,0.282155 6.28045,0.730578 9.41009,1.19694 3.41434,0.399509 6.84201,0.653983 10.27332,0.856154 3.13797,0.256104 6.24133,0.748053 9.36924,1.103639 3.2875,0.348883 6.58689,0.57135 9.87485,0.912306 3.12951,0.438931 6.25755,0.890598 9.42075,1.018668 3.41301,0.147822 6.81684,0.4527 10.23198,0.541544 3.40828,0.10236 6.82016,0.281549 10.22989,0.163646 3.21901,-0.232053 6.43679,-0.378571 9.66567,-0.33531 3.65998,-0.05193 7.31757,-0.179555 10.97717,-0.242277 3.52718,0.06797 7.05357,0.400173 10.57985,0.0522 3.67779,-0.25685 7.32776,-0.743096 11.00061,-1.046658 3.78775,-0.197717 7.58883,-0.220511 11.35727,-0.705663 3.74984,-0.443488 7.49578,-0.910705 11.24151,-1.385104 3.74299,-0.286276 7.48995,-0.522676 11.23278,-0.81259 3.42171,-0.280791 6.82059,-0.750713 10.22581,-1.182212 3.3557,-0.507764 6.68841,-1.119501 10.00968,-1.817099 3.89965,-0.716433 7.82482,-1.280963 11.72413,-1.999859 3.2831,-0.655379 6.55752,-1.399016 9.89095,-1.754495 2.95424,-0.26718 5.91765,-0.267966 8.87998,-0.113694 1.88174,0.133447 3.73001,0.450783 5.59293,0.731063 1.69338,0.194078 3.37165,0.472754 5.04826,0.777424 1.01923,0.264671 2.04758,0.564305 3.01114,0.985252 0.69064,0.401154 1.36022,0.850157 1.89827,1.447135 0.5852,0.515857 1.16039,1.02007 1.38554,1.796863 0.24442,0.601906 0.16535,1.216757 0.15355,1.862067 -0.0114,0.907813 -0.0131,1.815824 -0.0198,2.723668 0.004,1.17135 -0.0134,2.342325 -0.0164,3.513652 0.0209,0.994277 0.0403,1.988618 0.0446,2.982995 -0.007,1.101613 -0.0708,2.202461 -0.10678,3.303323 -0.0879,1.634002 -0.20696,3.270093 -0.54605,4.874619 -0.31731,1.873001 -0.25657,3.80028 -0.68657,5.662666 -0.28162,1.629828 -0.65586,3.268118 -0.68163,4.924605 -0.0392,1.443495 -0.11587,2.889378 -0.39615,4.309722 -0.34034,1.727874 -0.65055,3.449987 -0.82346,5.204607 -0.27628,1.903106 -0.0666,3.850249 -0.11965,5.767366 0.0211,1.669342 0.0652,3.341293 -0.0308,5.009112 -0.0982,2.118737 -0.23605,4.238219 -0.56721,6.335369 -0.37835,1.85785 -0.72142,3.742847 -0.72182,5.644157 -0.0484,2.041376 -0.14999,4.080606 -0.40892,6.107982 -0.28936,1.989935 -0.70833,3.955944 -1.03377,5.940234 -0.38619,1.764982 -0.56666,3.5819 -0.51924,5.38886 -0.0254,2.15407 -0.0533,4.30819 -0.0303,6.46244 0.009,2.11947 0.003,4.23904 0.0512,6.35814 0.065,1.87288 0.158,3.74619 0.41846,5.60401 0.25393,2.2092 0.1985,4.41677 0.12865,6.6378 -0.0687,2.30902 -0.2162,4.61318 -0.50657,6.90616 -0.27346,2.45928 -0.21508,4.95076 -0.65292,7.39591 -0.46339,2.87146 -1.11761,5.71269 -1.40202,8.61179 -0.44717,2.90496 -0.81821,5.81914 -1.29055,8.72055 -0.25409,3.00985 -0.20125,6.04189 -0.57838,9.04421 -0.35563,2.67239 -0.86852,5.35493 -0.62758,8.06236 0.21334,2.44279 0.57619,4.85984 1.2904,7.21317 0.41205,2.03476 0.781,4.07738 1.22745,6.10513 -0.0385,2.41015 -0.0662,4.82298 -0.3161,7.22305 -0.37202,3.30499 -0.95649,6.56211 -1.60336,9.82302 -0.68938,3.72833 -1.09607,7.4846 -1.32407,11.26855 -0.45683,3.75744 -1.31501,7.44037 -1.73055,11.20182 -0.0788,0.66827 -0.35746,2.91943 -0.38896,3.61752 -0.0988,2.18862 0.11759,4.39092 0.0691,6.58057 0.0746,2.75274 0.16642,5.50699 0.43686,8.24886 0.22311,2.39432 0.2835,4.77988 0.23202,7.18557 0.004,2.34406 -0.0223,4.68792 -0.0245,7.03197 -0.002,2.59773 -0.0176,5.19551 0.0193,7.79309 0.0356,2.70713 0.0824,5.41697 0.31826,8.11558 0.25215,2.64657 0.51854,5.28742 0.66017,7.94274 0.23465,2.45431 0.43236,4.90339 0.50382,7.36874 0.21155,2.47996 0.62029,4.92287 1.08041,7.36772 0.45948,2.21545 1.10368,4.38642 1.49029,6.61782 0.58526,2.20566 1.1572,4.41546 1.76953,6.61293 0.60529,1.76307 1.04232,3.57687 1.761,5.30108 0.68495,1.62264 1.43664,3.22995 1.89653,4.93317 0.70707,2.53941 1.12596,5.11994 0.98859,7.76983 0.0164,3.3127 0.0546,6.62606 0.21101,9.9356 0.17177,3.34814 0.506,6.68923 0.47011,10.04465 0.0176,1.78003 0.0368,3.5611 0.12373,5.33933 0.0194,0.35233 -0.0245,0.80864 0.29057,1.04347 3.90414,3.52436 -5.67483,9.37224 -10.06802,7.77459 -0.84751,0.10478 -1.71169,-0.47072 -2.55561,-0.53172 -1.47709,-0.16326 -2.95122,-0.35601 -4.4065,-0.66375 -2.03313,-0.38698 -4.08641,-0.65898 -6.11895,-1.05154 -2.2055,-0.38805 -4.37984,-0.95007 -6.61355,-1.17502 -3.17209,-0.34705 -6.35499,-0.52242 -9.54561,-0.5637 -3.31632,-0.14519 -6.62454,-0.41378 -9.941,-0.54753 -3.81178,-0.0121 -7.62328,0.0181 -11.43471,0.0708 -3.8233,0.0571 -7.64553,0.16943 -11.46462,0.36124 -3.37381,0.11278 -6.72467,-0.10513 -10.083,-0.43946 -3.50886,-0.23379 -7.02814,-0.30731 -10.52997,-0.65361 -3.33472,-0.21701 -6.67418,-0.3643 -10.00849,-0.59044 -3.50987,-0.10851 -7.02106,-0.0238 -10.53216,-0.0298 -3.53004,0.004 -7.06123,0.0231 -10.58839,0.18069 -3.38171,0.17183 -6.75964,0.51077 -10.14825,0.46645 -3.60038,-0.014 -7.20057,-0.004 -10.80095,1.2e-4 -3.35749,-0.0169 -6.71454,-0.0889 -10.06714,-0.28152 -3.61368,-0.2053 -7.21979,-0.62057 -10.84174,-0.59316 -3.88473,0.10932 -7.76597,0.33984 -11.65282,0.4047 -3.75366,0.18829 -7.50698,0.51149 -11.26824,0.42949 -4.04622,-0.004 -8.09485,-0.004 -12.13823,-0.17058 -3.81206,-0.19744 -7.61794,-0.52749 -11.43562,-0.59033 -3.43622,-0.10711 -6.86375,-0.33445 -10.29298,-0.57068 -3.58354,-0.085 -7.17308,-0.17149 -10.73866,-0.56808 -3.05819,-0.33777 -6.12408,-0.61144 -9.19234,-0.83738 -3.19379,-0.14261 -6.37667,-0.39335 -9.5491,-0.79521 -2.98341,-0.28069 -5.95879,-0.64107 -8.95645,-0.74461 -2.83969,-0.20722 -5.69165,-0.60551 -8.53992,-0.32398 -2.80245,0.2481 -5.61924,0.24512 -8.43056,0.18931 -2.55165,-0.1502 -5.09547,-0.46616 -7.65679,-0.41427 -2.64397,0.12808 -5.28021,0.4167 -7.9331,0.3127 -2.752894,0.0325 -5.504771,0.1113 -8.257612,0.14278 -2.549908,-0.0292 -5.089883,0.10059 -7.634642,0.26481 -3.100875,0.13914 -6.194334,0.0225 -9.296406,-0.0239 -2.640405,0.0866 -5.212925,0.61598 -7.838801,0.87475 -2.797589,0.31961 -5.601365,0.58226 -8.389172,0.98296 -2.007647,0.25249 -3.977901,0.70279 -5.984289,0.96013 -2.201961,0.26607 -4.426111,0.34392 -6.607821,0.77016 -1.997431,0.37192 -4.003146,0.70226 -5.969758,1.22213 -1.412827,0.38807 -2.802726,0.85308 -4.198469,1.29826 -1.540173,0.30639 -3.13185,0.31406 -4.640812,0.79683 -1.76539,0.49665 -3.51258,1.06282 -5.222048,1.72796 -0.505002,0.23265 -1.02072,0.44235 -1.519803,0.68743 -0.24163,0.11866 -0.942861,0.51983 -0.710342,0.38418 19.261874,-11.23689 12.203043,-7.62123 9.116456,-5.19697 -10.866117,6.32145 -17.825755,10.45632 -0.696736,0.16112 0.118372,-0.0712 -0.224998,0.16172 -0.34714,0.22618 -11.322329,5.97525 -9.257187,9.64336 -11.414855,5.29174 0.274616,0.45643 1.557176,2.16601 0.225791,0.60338 -0.0878,-0.10305 0.324643,0.38856 0.03017,0.39558 -0.471694,-0.29645 -1.493286,-1.47028 -0.725269,-1.94849 0.131457,-0.0732 0.316101,-0.0835 0.400646,-0.20795 0.145424,-0.21409 0.149992,-0.67679 0.029,-0.8834 -0.274209,-0.45555 -0.5216,-0.93045 -0.773229,-1.39709 0.09587,-0.72158 -0.09941,-1.34924 -0.06962,-2.07179 0.0028,-0.94285 0.02133,-1.88593 0.109107,-2.82528 0.120436,-1.0647 0.295897,-2.11161 0.554327,-3.15335 -0.03852,-1.06005 -0.121089,-2.11897 -0.415765,-3.1441 -0.44345,-1.69083 -1.030332,-3.30364 -0.647126,-5.0793 0.250141,-2.51823 0.709562,-5.0103 0.865511,-7.53701 0.207426,-2.68855 0.422309,-5.36998 0.356792,-8.07013 0.04148,-2.71888 0.111499,-5.44107 -0.0098,-8.15874 -0.234064,-2.08196 -0.233369,-4.18415 -0.518672,-6.26298 -0.234712,-2.24734 -0.23596,-4.49197 -0.206444,-6.75064 -0.0078,-2.25002 -0.0046,-4.50009 0.0034,-6.75009 -0.0013,-2.14461 -0.0062,-4.29078 0.14636,-6.43138 0.19503,-2.40552 0.51254,-4.8075 0.552728,-7.22014 0.07345,-2.29332 0.218515,-4.59111 0.648221,-6.84928 0.499497,-2.55609 0.779326,-5.12474 0.560137,-7.73428 -0.107271,-2.66239 -0.317015,-5.31566 -0.595451,-7.96568 -0.13017,-2.50331 0.215937,-5.02149 0.251072,-7.53003 0.154671,-2.24762 0.502489,-4.48453 0.39192,-6.7433 0.0085,-2.27043 0.0064,-4.54078 0.03377,-6.81113 0.03037,-2.8738 0.05139,-5.75067 0.247874,-8.6189 0.254263,-3.21347 0.755841,-6.39806 1.054632,-9.60655 -0.106477,-3.23284 -0.28261,-6.46326 -0.674956,-9.67594 -0.351263,-3.54265 -0.528473,-7.11217 -0.590921,-10.67021 -0.06011,-3.64104 -0.159981,-7.28121 -0.262063,-10.92127 0.0069,-3.7732 -0.52677,-7.51571 -0.574802,-11.28786 0.288695,-3.8144 0.767342,-7.63006 0.22927,-11.44821 -0.283709,-3.70393 -0.396447,-7.42275 -0.903302,-11.10788 -0.2919,-3.4346 -0.813797,-6.83473 -1.709977,-10.16903 -0.713391,-3.61176 -1.047016,-7.23702 -1.255755,-10.91064 -0.405976,-3.91632 -0.935773,-7.8198 -0.95659,-11.76515 -0.248493,-3.77352 -0.675671,-7.52624 -1.261202,-11.26291 -0.181772,-3.59122 -0.530467,-7.16887 -1.201769,-10.70543 -0.48465,-3.318 -0.509289,-6.69702 -0.177768,-10.034167 0.232391,-3.547772 0.254967,-7.094188 0.312107,-10.648864 0.123796,-3.707162 0.398594,-7.403296 0.733316,-11.097177 0.182351,-3.681159 0.45591,-7.365021 1.159027,-10.989407 0.378298,-3.065058 0.723079,-6.131474 0.652661,-9.227376 0.06498,-2.853625 0.21567,-5.707752 0.560689,-8.542648 0.278884,-2.952949 0.358439,-5.92929 0.920579,-8.851228 0.483391,-2.8115 1.003757,-5.595176 1.884897,-8.315547 0.243197,-0.97464 0.438493,-1.576239 0.510818,-2.582833 0.118365,-1.64737 -0.07083,-3.320086 -0.100313,-4.967081 0,0 10.989529,-5.599445 10.989529,-5.599445 z"
       id="path2991"
       style="fill:#000000;stroke:#000000" />
  </g>
</svg>
