<?xml version="1.0" encoding="UTF-8" standalone="no"?>
<!-- Created with Inkscape (http://www.inkscape.org/) -->

<svg
   xmlns:dc="http://purl.org/dc/elements/1.1/"
   xmlns:cc="http://creativecommons.org/ns#"
   xmlns:rdf="http://www.w3.org/1999/02/22-rdf-syntax-ns#"
   xmlns:svg="http://www.w3.org/2000/svg"
   xmlns="http://www.w3.org/2000/svg"
   version="1.1"
   width="400"
   height="384"
   id="svg2">
  <metadata
     id="metadata8">
    <rdf:RDF>
      <cc:Work
         rdf:about="">
        <dc:format>image/svg+xml</dc:format>
        <dc:type
           rdf:resource="http://purl.org/dc/dcmitype/StillImage" />
        <dc:title></dc:title>
      </cc:Work>
    </rdf:RDF>
  </metadata>
  <defs
     id="defs6" />
  <g
     id="layer1" />
  <g
     id="layer2">
    <path
       d="m 31.777384,17.736172 c -0.121254,2.650049 0.0092,5.272924 -0.495046,7.887272 -0.763687,2.742055 -1.430552,5.48914 -1.943597,8.289205 -0.580537,2.88631 -0.690945,5.828975 -0.950372,8.752196 -0.321252,2.816796 -0.483796,5.644553 -0.59218,8.476233 0.03563,3.135407 -0.254809,6.2487 -0.651986,9.35444 -0.671225,3.621371 -1.051835,7.274903 -1.267783,10.948591 -0.304888,3.681991 -0.555817,7.366303 -0.70234,11.058016 -0.09848,3.559985 -0.07363,7.1181 -0.290533,10.673798 -0.272615,3.273415 -0.302271,6.557661 0.08123,9.821047 0.628629,3.57174 0.990375,7.1729 1.231292,10.7887 0.437346,3.75362 0.964609,7.49159 1.235904,11.26218 0.05704,3.93391 0.45218,7.83556 0.901171,11.73996 0.254717,3.62792 0.598975,7.22057 1.263159,10.79777 0.835852,3.37984 1.465876,6.79385 1.794752,10.25965 0.470519,3.71044 0.573049,7.44861 0.819903,11.17612 0.555153,3.86927 0.182702,7.72731 -0.124931,11.59448 -0.01937,3.73624 0.46875,7.44597 0.555708,11.17897 0.10751,3.64416 0.197814,7.28753 0.233128,10.93313 0.043,3.51953 0.275279,7.04176 0.612618,10.54512 0.422846,3.23823 0.60159,6.49624 0.691804,9.75815 -0.170123,3.24479 -0.654724,6.46089 -0.93446,9.69801 -0.219418,2.834 -0.243907,5.6764 -0.250445,8.5171 0.0097,2.25543 0.01882,4.51091 0.03333,6.76634 0.08308,2.29432 -0.18138,4.57461 -0.391899,6.85468 -0.136154,2.46668 -0.322566,4.94195 -0.313348,7.41262 0.225358,2.65607 0.426034,5.31119 0.543202,7.97468 0.197201,2.66314 0.04031,5.30897 -0.380458,7.93978 -0.438094,2.20919 -0.608804,4.45247 -0.715399,6.69783 -0.06251,2.42439 -0.362134,4.83248 -0.522142,7.25099 -0.137776,2.11904 -0.173178,4.2431 -0.199546,6.36592 -0.0081,2.24674 0.0029,4.49344 -0.0017,6.74017 -3.21e-4,2.21271 -0.06476,4.42151 0.172818,6.62398 0.300005,2.08592 0.330379,4.19337 0.493867,6.29028 0.122527,2.76518 0.04146,5.53452 0.01754,8.3012 0.06591,2.72613 -0.108758,5.43576 -0.332775,8.1498 -0.150921,2.51357 -0.538716,5.00379 -0.768818,7.51005 -0.324034,1.63263 0.09043,3.09408 0.525734,4.64511 0.358116,1.08132 0.509571,2.20989 0.594068,3.34107 -0.0011,1.13553 -0.321731,2.23338 -0.466274,3.35284 -0.112659,0.89303 -0.130922,1.79341 -0.146801,2.69211 -0.05357,0.70343 0.103742,1.38817 0.12661,2.08778 -0.06082,-0.28513 0.357814,0.58226 0.454176,0.78435 0.359218,0.72234 0.406245,1.55217 0.183045,2.32185 -0.297958,0.72413 -0.663112,0.0281 -0.634501,-0.4578 0.04842,-0.162 0.763789,0.7854 0.727969,0.71122 -0.123521,-0.25579 -0.337861,-0.46821 -0.425153,-0.73852 -0.04523,-0.14007 0.216725,0.2044 0.293264,0.33012 0.208248,0.34207 0.370707,0.71 0.556061,1.06499 -2.112798,-4.19159 0.03799,-0.35297 -11.260069,5.00381 -0.187324,0.0888 0.02348,-0.4798 0.199703,-0.589 3.578274,-2.2173 7.938297,-3.45049 10.810799,-6.5277 2.693192,-2.88512 -6.833407,3.95137 -10.25011,5.92705 4.556201,-2.96227 9.147219,-6.09603 14.272309,-7.93874 1.754855,-0.56969 3.505455,-1.14952 5.302144,-1.5848 1.556473,-0.4305 3.160327,-0.23207 4.657057,-0.87267 1.385619,-0.48698 2.779529,-0.95511 4.229947,-1.19958 1.958101,-0.49877 3.955561,-0.80805 5.946646,-1.13919 2.211703,-0.33133 4.436302,-0.40702 6.647738,-0.73967 1.996201,-0.37335 3.976203,-0.75958 6.004488,-0.92816 2.747336,-0.3934 5.513603,-0.59943 8.270965,-0.90835 1.797302,-0.0739 3.526149,-0.65749 5.313574,-0.80602 0.744083,-0.0618 1.915553,-0.012 2.645047,0.006 3.076828,0.15447 6.140326,0.19664 9.214821,0.0115 1.769092,-0.0648 3.537625,-0.34956 5.310517,-0.33498 1.639604,0.0979 0.824304,0.0786 2.445844,0.06 2.72859,-0.0678 5.45788,-0.0863 8.18713,-0.10587 2.68408,0.19114 5.33251,-0.40782 8.00567,-0.3781 2.55872,-0.0199 5.07637,0.45946 7.62596,0.52793 2.80709,0.0294 5.60188,-0.0214 8.38576,-0.38537 2.86584,-0.0951 5.70637,0.36797 8.55923,0.58448 3.02805,0.0727 6.03075,0.45893 9.04702,0.69796 3.12073,0.49576 6.2728,0.69138 9.42631,0.81777 3.10328,0.2406 6.19935,0.50971 9.29005,0.87274 3.52213,0.39219 7.06775,0.47194 10.60807,0.52173 3.42678,0.26549 6.8542,0.47639 10.28935,0.5936 3.82329,0.10699 7.63527,0.44047 11.45763,0.59417 4.00843,0.15218 8.01983,0.16459 12.03048,0.18537 3.77176,-0.008 7.52869,-0.38445 11.29752,-0.51882 3.90169,0.0397 7.7902,-0.33649 11.68633,-0.39799 3.63177,0.058 7.24536,0.48967 10.87309,0.68439 3.36311,0.15314 6.73027,0.16438 10.09611,0.18779 3.59127,0.0284 7.18244,0.028 10.77374,0.01 3.369,-0.054 6.72713,-0.36646 10.0955,-0.49259 3.5545,-0.11456 7.1108,-0.15019 10.66682,-0.17934 3.50173,0.0249 7.00714,-0.0686 10.50467,0.11957 3.35935,0.28471 6.73809,0.27759 10.09433,0.58098 3.48704,0.40436 7.00192,0.39515 10.49687,0.6697 3.32706,0.3766 6.65136,0.46628 9.99253,0.34611 3.82536,-0.15564 7.65158,-0.27263 11.47936,-0.34583 3.80499,-0.0512 7.61026,-0.0166 11.41547,-0.0323 3.34792,0.17801 6.69078,0.41829 10.04193,0.53297 3.2124,0.0455 6.43031,0.21924 9.61756,0.63059 2.28508,0.19596 4.49515,0.80824 6.76023,1.12942 2.03589,0.43401 4.09687,0.69287 6.14105,1.08088 1.47067,0.3859 3.03369,0.22248 4.4939,0.60407 0.61043,0.0931 1.29443,0.49202 1.92863,0.42686 0.9114,-0.0936 -0.36885,-0.25786 0.6021,-0.0835 1.84097,-4.56825 -6.91135,8.12911 -10.51149,6.09965 -0.50618,-0.55657 -0.69286,-1.22883 -0.77481,-1.95788 -0.0322,-1.84961 0.029,-3.70015 0.0495,-5.54986 0.12854,-3.35531 -0.12002,-6.70521 -0.30951,-10.05303 -0.19714,-3.31504 -0.25423,-6.63576 -0.29219,-9.95567 0.0426,-2.51845 -0.21708,-5.00004 -0.95758,-7.40733 -0.48091,-1.64852 -1.22388,-3.19775 -1.88826,-4.77828 -0.72117,-1.76266 -1.18439,-3.60805 -1.74967,-5.42214 -0.60459,-2.2236 -1.18569,-4.45355 -1.7889,-6.67806 -0.47091,-2.23636 -1.02287,-4.45614 -1.49424,-6.69306 -0.4591,-2.48694 -0.89831,-4.97016 -1.14911,-7.48783 -0.11525,-2.45976 -0.26186,-4.90853 -0.50827,-7.3589 -0.15355,-2.66595 -0.3759,-5.32333 -0.60209,-7.98383 -0.23145,-2.71928 -0.35137,-5.44504 -0.40219,-8.17308 -0.0204,-2.60411 -0.0262,-5.20842 -0.025,-7.81266 0.002,-2.33703 -0.0216,-4.67392 -0.016,-7.01097 0.0271,-2.3758 0.0347,-4.74775 -0.14093,-7.11786 -0.26389,-2.77494 -0.37818,-5.55806 -0.41814,-8.34407 -0.10366,-3.4764 -0.06,-6.93272 0.33412,-10.38845 0.37697,-3.77058 1.22648,-7.46489 1.73064,-11.21755 0.29826,-3.78558 0.66534,-7.55457 1.27497,-11.30411 0.57338,-3.23267 1.22322,-6.44389 1.55634,-9.71264 0.21618,-2.34688 0.26416,-4.70471 0.26096,-7.06012 -0.29702,-1.98277 -0.76926,-3.93327 -1.09456,-5.91498 -0.65962,-2.4102 -1.08379,-4.85664 -1.29175,-7.34435 -0.31304,-2.78355 0.15197,-5.55357 0.52203,-8.30504 0.43654,-2.97799 0.44179,-5.99124 0.62907,-8.98862 0.40737,-2.93293 0.7976,-5.86888 1.23562,-8.79778 0.3391,-2.89364 0.90733,-5.75074 1.38838,-8.62179 0.4236,-2.40895 0.43643,-4.8575 0.62457,-7.288 0.27497,-2.27578 0.44746,-4.56026 0.54825,-6.84979 0.0677,-2.15055 0.14839,-4.30117 -0.10356,-6.44142 -0.26499,-1.89285 -0.39014,-3.79774 -0.44399,-5.7069 -0.0542,-2.13386 -0.0531,-4.26899 -0.0458,-6.40343 0.0243,-2.14557 3.8e-4,-4.29104 -0.023,-6.43648 -0.0804,-1.88116 0.13229,-3.74625 0.43151,-5.5996 0.36668,-1.97286 0.72712,-3.947101 1.07556,-5.923342 0.31399,-1.964588 0.40106,-3.956072 0.44773,-5.942174 -0.003,-1.963832 0.2842,-3.911234 0.64437,-5.836705 0.42266,-2.028383 0.56025,-4.097622 0.63632,-6.1633 0.0257,-1.657071 0.0511,-3.314154 0.0701,-4.971349 0.0573,-1.95013 -0.0749,-3.902513 0.0251,-5.850803 0.18764,-1.779854 0.46043,-3.546723 0.77837,-5.307387 0.26828,-1.359075 0.3795,-2.738508 0.43608,-4.12022 0.019,-1.733402 0.35614,-3.439266 0.69095,-5.133355 0.39074,-1.842132 0.48242,-3.723143 0.67494,-5.590131 0.26572,-1.585155 0.46555,-3.174366 0.56385,-4.778548 0.0692,-1.063254 0.0381,-2.128395 0.0374,-3.192611 0.002,-1.006403 0.0175,-2.012856 0.0363,-3.019204 -0.005,-1.165657 -0.0226,-2.330941 -0.0192,-3.496632 -0.007,-0.901161 -0.008,-1.802484 -0.0199,-2.703615 0.0397,-0.494094 -0.0821,-1.011672 -0.004,-1.502758 -0.12203,-0.581743 -0.56115,-0.856021 -1.01024,-1.197301 -0.43848,-0.545425 -1.05328,-0.976848 -1.71431,-1.220377 -0.94924,-0.227175 -1.84614,-0.590693 -2.81912,-0.760276 -1.6179,-0.31355 -3.23747,-0.577816 -4.88611,-0.71715 -1.82732,-0.400285 -3.67761,-0.605325 -5.54201,-0.716302 -2.87916,-0.160273 -5.74521,-0.185835 -8.608,0.173909 -3.29337,0.465062 -6.5425,1.198944 -9.80936,1.821358 -3.91801,0.615599 -7.84401,1.193965 -11.72767,2.004073 -3.31192,0.769258 -6.66429,1.306281 -10.03349,1.756793 -3.45023,0.40192 -6.881,0.915907 -10.34673,1.177777 -3.70576,0.238645 -7.42164,0.408005 -11.12121,0.735662 -3.72737,0.598951 -7.47987,1.009964 -11.23125,1.424471 -3.80337,0.438879 -7.64054,0.382527 -11.4505,0.707103 -3.64513,0.375242 -7.28085,0.784885 -10.94219,0.996355 -3.5623,0.361789 -7.12126,-0.104009 -10.68356,-0.08061 -3.65132,0.08902 -7.3025,0.184012 -10.95411,0.261492 -3.22099,-0.05419 -6.42365,0.194548 -9.63507,0.384028 -3.4396,-0.0091 -6.87664,-0.164745 -10.31532,-0.23673 -3.39819,-0.116374 -6.78498,-0.448441 -10.18396,-0.604444 -3.22308,-0.164901 -6.41013,-0.607233 -9.60649,-1.017861 -3.25417,-0.314669 -6.51582,-0.571504 -9.76241,-0.960912 -2.15804,-0.126324 -4.27899,-0.609231 -6.42484,-0.822816 -0.99306,-0.09884 -1.99236,-0.122547 -2.98671,-0.207473 -3.42487,-0.243282 -6.85545,-0.48471 -10.26213,-0.92136 -3.12169,-0.408658 -6.21937,-0.915832 -9.35841,-1.181955 -3.69717,-0.459064 -7.37169,-1.043855 -11.08705,-1.349939 -3.89638,-0.507996 -7.82277,-0.640497 -11.71764,-1.154162 -3.65879,-0.527794 -7.34276,-0.833977 -11.01869,-1.21188 -3.87361,-0.253895 -7.74265,-0.539781 -11.61417,-0.827894 -3.6788,-0.431567 -7.33183,-1.010587 -11.02354,-1.329023 -2.43356,-0.246582 -4.88807,-0.138195 -7.31961,-0.401081 -1.18476,-0.128091 -2.36129,-0.323322 -3.54209,-0.483869 C 102.49585,23.138663 98.920302,22.98773 95.347875,22.907201 92.290958,22.804477 89.2184,22.618005 86.17874,22.259845 83.125904,21.978314 80.084689,21.611086 77.036227,21.287683 74.271844,20.973384 71.484934,21.051762 68.717136,20.813034 65.919554,20.52301 63.111444,20.386386 60.300987,20.313278 c -2.246581,-0.04404 -4.4936,-0.03163 -6.740441,-0.03256 -2.312301,-0.120404 -4.6016,0.130799 -6.90075,0.324353 -2.344506,0.05071 -4.642178,0.520339 -6.966687,0.769584 -2.945643,0.404767 -5.882936,0.765066 -8.803705,1.340653 -4.688652,0.890155 -8.866877,3.074446 -13.024257,5.312682 0,0 9.052134,-7.273325 9.052134,-7.273325 l 0,0 c 4.313094,-2.228826 8.683244,-4.362751 13.503683,-5.247381 3.005661,-0.57379 6.030478,-0.996349 9.06043,-1.418885 2.305983,-0.289568 4.609676,-0.58111 6.932641,-0.700337 2.336868,-0.209796 4.670151,-0.350034 7.018405,-0.277921 2.231643,0.0043 4.463721,0.02759 6.693894,0.11353 2.812531,0.110691 5.620086,0.291803 8.423105,0.550304 2.782189,0.148968 5.574646,0.161376 8.342882,0.519488 3.037504,0.358355 6.076808,0.679368 9.120971,0.975889 3.022745,0.272893 6.052858,0.519832 9.087508,0.596935 3.58744,0.136541 7.17414,0.345544 10.7339,0.831881 3.58901,0.458659 7.18882,0.635882 10.79776,0.872738 3.69293,0.361948 7.36253,0.896963 11.05194,1.290729 3.86677,0.329524 7.7365,0.584394 11.60709,0.861838 3.67263,0.354159 7.34804,0.693136 10.99486,1.266497 3.91258,0.46688 7.85505,0.580261 11.76694,1.066888 3.70416,0.358666 7.3649,1.039139 11.07318,1.356215 3.15219,0.282155 6.28045,0.730578 9.41009,1.19694 3.41434,0.399509 6.84201,0.653983 10.27332,0.856154 3.13797,0.256104 6.24133,0.748053 9.36924,1.103639 3.2875,0.348883 6.58689,0.57135 9.87485,0.912306 3.12951,0.438931 6.25755,0.890598 9.42075,1.018668 3.41301,0.147822 6.81684,0.4527 10.23198,0.541544 3.40828,0.10236 6.82016,0.281549 10.22989,0.163646 3.21901,-0.232053 6.43679,-0.378571 9.66567,-0.33531 3.65998,-0.05193 7.31757,-0.179555 10.97717,-0.242277 3.52718,0.06797 7.05357,0.400173 10.57985,0.0522 3.67779,-0.25685 7.32776,-0.743096 11.00061,-1.046658 3.78775,-0.197717 7.58883,-0.220511 11.35727,-0.705663 3.74984,-0.443488 7.49578,-0.910705 11.24151,-1.385104 3.74299,-0.286276 7.48995,-0.522676 11.23278,-0.81259 3.42171,-0.280791 6.82059,-0.750713 10.22581,-1.182212 3.3557,-0.507764 6.68841,-1.119501 10.00968,-1.817099 3.89965,-0.716433 7.82482,-1.280963 11.72413,-1.999859 3.2831,-0.655379 6.55752,-1.399016 9.89095,-1.754495 2.95424,-0.26718 5.91765,-0.267966 8.87998,-0.113694 1.88174,0.133447 3.73001,0.450783 5.59293,0.731063 1.69338,0.194078 3.37165,0.472754 5.04826,0.777424 1.01923,0.264671 2.04758,0.564305 3.01114,0.985252 0.69064,0.401154 1.36022,0.850157 1.89827,1.447135 0.5852,0.515857 1.16039,1.02007 1.38554,1.796863 0.24442,0.601906 0.16535,1.216757 0.15355,1.862067 -0.0114,0.907813 -0.0131,1.815824 -0.0198,2.723668 0.004,1.17135 -0.0134,2.342325 -0.0164,3.513652 0.0209,0.994277 0.0403,1.988618 0.0446,2.982995 -0.007,1.101613 -0.0708,2.202461 -0.10678,3.303323 -0.0879,1.634002 -0.20696,3.270093 -0.54605,4.874619 -0.31731,1.873001 -0.25657,3.80028 -0.68657,5.662666 -0.28162,1.629828 -0.65586,3.268118 -0.68163,4.924605 -0.0392,1.443495 -0.11587,2.889378 -0.39615,4.309722 -0.34034,1.727874 -0.65055,3.449987 -0.82346,5.204607 -0.27628,1.903106 -0.0666,3.850249 -0.11965,5.767366 0.0211,1.669342 0.0652,3.341293 -0.0308,5.009112 -0.0982,2.118737 -0.23605,4.238219 -0.56721,6.335369 -0.37835,1.85785 -0.72142,3.742847 -0.72182,5.644157 -0.0484,2.041376 -0.14999,4.080606 -0.40892,6.107982 -0.28936,1.989935 -0.70833,3.955944 -1.03377,5.940234 -0.38619,1.764982 -0.56666,3.5819 -0.51924,5.38886 -0.0254,2.15407 -0.0533,4.30819 -0.0303,6.46244 0.009,2.11947 0.003,4.23904 0.0512,6.35814 0.065,1.87288 0.158,3.74619 0.41846,5.60401 0.25393,2.2092 0.1985,4.41677 0.12865,6.6378 -0.0687,2.30902 -0.2162,4.61318 -0.50657,6.90616 -0.27346,2.45928 -0.21508,4.95076 -0.65292,7.39591 -0.46339,2.87146 -1.11761,5.71269 -1.40202,8.61179 -0.44717,2.90496 -0.81821,5.81914 -1.29055,8.72055 -0.25409,3.00985 -0.20125,6.04189 -0.57838,9.04421 -0.35563,2.67239 -0.86852,5.35493 -0.62758,8.06236 0.21334,2.44279 0.57619,4.85984 1.2904,7.21317 0.41205,2.03476 0.781,4.07738 1.22745,6.10513 -0.0385,2.41015 -0.0662,4.82298 -0.3161,7.22305 -0.37202,3.30499 -0.95649,6.56211 -1.60336,9.82302 -0.68938,3.72833 -1.09607,7.4846 -1.32407,11.26855 -0.45683,3.75744 -1.31501,7.44037 -1.73055,11.20182 -0.0788,0.66827 -0.35746,2.91943 -0.38896,3.61752 -0.0988,2.18862 0.11759,4.39092 0.0691,6.58057 0.0746,2.75274 0.16642,5.50699 0.43686,8.24886 0.22311,2.39432 0.2835,4.77988 0.23202,7.18557 0.004,2.34406 -0.0223,4.68792 -0.0245,7.03197 -0.002,2.59773 -0.0176,5.19551 0.0193,7.79309 0.0356,2.70713 0.0824,5.41697 0.31826,8.11558 0.25215,2.64657 0.51854,5.28742 0.66017,7.94274 0.23465,2.45431 0.43236,4.90339 0.50382,7.36874 0.21155,2.47996 0.62029,4.92287 1.08041,7.36772 0.45948,2.21545 1.10368,4.38642 1.49029,6.61782 0.58526,2.20566 1.1572,4.41546 1.76953,6.61293 0.60529,1.76307 1.04232,3.57687 1.761,5.30108 0.68495,1.62264 1.43664,3.22995 1.89653,4.93317 0.70707,2.53941 1.12596,5.11994 0.98859,7.76983 0.0164,3.3127 0.0546,6.62606 0.21101,9.9356 0.17177,3.34814 0.506,6.68923 0.47011,10.04465 0.0176,1.78003 0.0368,3.5611 0.12373,5.33933 0.0194,0.35233 -0.0245,0.80864 0.29057,1.04347 3.90414,3.52436 -5.67483,9.37224 -10.06802,7.77459 -0.84751,0.10478 -1.71169,-0.47072 -2.55561,-0.53172 -1.47709,-0.16326 -2.95122,-0.35601 -4.4065,-0.66375 -2.03313,-0.38698 -4.08641,-0.65898 -6.11895,-1.05154 -2.2055,-0.38805 -4.37984,-0.95007 -6.61355,-1.17502 -3.17209,-0.34705 -6.35499,-0.52242 -9.54561,-0.5637 -3.31632,-0.14519 -6.62454,-0.41378 -9.941,-0.54753 -3.81178,-0.0121 -7.62328,0.0181 -11.43471,0.0708 -3.8233,0.0571 -7.64553,0.16943 -11.46462,0.36124 -3.37381,0.11278 -6.72467,-0.10513 -10.083,-0.43946 -3.50886,-0.23379 -7.02814,-0.30731 -10.52997,-0.65361 -3.33472,-0.21701 -6.67418,-0.3643 -10.00849,-0.59044 -3.50987,-0.10851 -7.02106,-0.0238 -10.53216,-0.0298 -3.53004,0.004 -7.06123,0.0231 -10.58839,0.18069 -3.38171,0.17183 -6.75964,0.51077 -10.14825,0.46645 -3.60038,-0.014 -7.20057,-0.004 -10.80095,1.2e-4 -3.35749,-0.0169 -6.71454,-0.0889 -10.06714,-0.28152 -3.61368,-0.2053 -7.21979,-0.62057 -10.84174,-0.59316 -3.88473,0.10932 -7.76597,0.33984 -11.65282,0.4047 -3.75366,0.18829 -7.50698,0.51149 -11.26824,0.42949 -4.04622,-0.004 -8.09485,-0.004 -12.13823,-0.17058 -3.81206,-0.19744 -7.61794,-0.52749 -11.43562,-0.59033 -3.43622,-0.10711 -6.86375,-0.33445 -10.29298,-0.57068 -3.58354,-0.085 -7.17308,-0.17149 -10.73866,-0.56808 -3.05819,-0.33777 -6.12408,-0.61144 -9.19234,-0.83738 -3.19379,-0.14261 -6.37667,-0.39335 -9.5491,-0.79521 -2.98341,-0.28069 -5.95879,-0.64107 -8.95645,-0.74461 -2.83969,-0.20722 -5.69165,-0.60551 -8.53992,-0.32398 -2.80245,0.2481 -5.61924,0.24512 -8.43056,0.18931 -2.55165,-0.1502 -5.09547,-0.46616 -7.65679,-0.41427 -2.64397,0.12808 -5.28021,0.4167 -7.9331,0.3127 -2.752894,0.0325 -5.504771,0.1113 -8.257612,0.14278 -2.549908,-0.0292 -5.089883,0.10059 -7.634642,0.26481 -3.100875,0.13914 -6.194334,0.0225 -9.296406,-0.0239 -2.640405,0.0866 -5.212925,0.61598 -7.838801,0.87475 -2.797589,0.31961 -5.601365,0.58226 -8.389172,0.98296 -2.007647,0.25249 -3.977901,0.70279 -5.984289,0.96013 -2.201961,0.26607 -4.426111,0.34392 -6.607821,0.77016 -1.997431,0.37192 -4.003146,0.70226 -5.969758,1.22213 -1.412827,0.38807 -2.802726,0.85308 -4.198469,1.29826 -1.540173,0.30639 -3.13185,0.31406 -4.640812,0.79683 -1.76539,0.49665 -3.51258,1.06282 -5.222048,1.72796 -0.505002,0.23265 -1.02072,0.44235 -1.519803,0.68743 -0.24163,0.11866 -0.942861,0.51983 -0.710342,0.38418 19.261874,-11.23689 12.203043,-7.62123 9.116456,-5.19697 -10.866117,6.32145 -17.825755,10.45632 -0.696736,0.16112 0.118372,-0.0712 -0.224998,0.16172 -0.34714,0.22618 -11.322329,5.97525 -9.257187,9.64336 -11.414855,5.29174 0.274616,0.45643 1.557176,2.16601 0.225791,0.60338 -0.0878,-0.10305 0.324643,0.38856 0.03017,0.39558 -0.471694,-0.29645 -1.493286,-1.47028 -0.725269,-1.94849 0.131457,-0.0732 0.316101,-0.0835 0.400646,-0.20795 0.145424,-0.21409 0.149992,-0.67679 0.029,-0.8834 -0.274209,-0.45555 -0.5216,-0.93045 -0.773229,-1.39709 0.09587,-0.72158 -0.09941,-1.34924 -0.06962,-2.07179 0.0028,-0.94285 0.02133,-1.88593 0.109107,-2.82528 0.120436,-1.0647 0.295897,-2.11161 0.554327,-3.15335 -0.03852,-1.06005 -0.121089,-2.11897 -0.415765,-3.1441 -0.44345,-1.69083 -1.030332,-3.30364 -0.647126,-5.0793 0.250141,-2.51823 0.709562,-5.0103 0.865511,-7.53701 0.207426,-2.68855 0.422309,-5.36998 0.356792,-8.07013 0.04148,-2.71888 0.111499,-5.44107 -0.0098,-8.15874 -0.234064,-2.08196 -0.233369,-4.18415 -0.518672,-6.26298 -0.234712,-2.24734 -0.23596,-4.49197 -0.206444,-6.75064 -0.0078,-2.25002 -0.0046,-4.50009 0.0034,-6.75009 -0.0013,-2.14461 -0.0062,-4.29078 0.14636,-6.43138 0.19503,-2.40552 0.51254,-4.8075 0.552728,-7.22014 0.07345,-2.29332 0.218515,-4.59111 0.648221,-6.84928 0.499497,-2.55609 0.779326,-5.12474 0.560137,-7.73428 -0.107271,-2.66239 -0.317015,-5.31566 -0.595451,-7.96568 -0.13017,-2.50331 0.215937,-5.02149 0.251072,-7.53003 0.154671,-2.24762 0.502489,-4.48453 0.39192,-6.7433 0.0085,-2.27043 0.0064,-4.54078 0.03377,-6.81113 0.03037,-2.8738 0.05139,-5.75067 0.247874,-8.6189 0.254263,-3.21347 0.755841,-6.39806 1.054632,-9.60655 -0.106477,-3.23284 -0.28261,-6.46326 -0.674956,-9.67594 -0.351263,-3.54265 -0.528473,-7.11217 -0.590921,-10.67021 -0.06011,-3.64104 -0.159981,-7.28121 -0.262063,-10.92127 0.0069,-3.7732 -0.52677,-7.51571 -0.574802,-11.28786 0.288695,-3.8144 0.767342,-7.63006 0.22927,-11.44821 -0.283709,-3.70393 -0.396447,-7.42275 -0.903302,-11.10788 -0.2919,-3.4346 -0.813797,-6.83473 -1.709977,-10.16903 -0.713391,-3.61176 -1.047016,-7.23702 -1.255755,-10.91064 -0.405976,-3.91632 -0.935773,-7.8198 -0.95659,-11.76515 -0.248493,-3.77352 -0.675671,-7.52624 -1.261202,-11.26291 -0.181772,-3.59122 -0.530467,-7.16887 -1.201769,-10.70543 -0.48465,-3.318 -0.509289,-6.69702 -0.177768,-10.034167 0.232391,-3.547772 0.254967,-7.094188 0.312107,-10.648864 0.123796,-3.707162 0.398594,-7.403296 0.733316,-11.097177 0.182351,-3.681159 0.45591,-7.365021 1.159027,-10.989407 0.378298,-3.065058 0.723079,-6.131474 0.652661,-9.227376 0.06498,-2.853625 0.21567,-5.707752 0.560689,-8.542648 0.278884,-2.952949 0.358439,-5.92929 0.920579,-8.851228 0.483391,-2.8115 1.003757,-5.595176 1.884897,-8.315547 0.243197,-0.97464 0.438493,-1.576239 0.510818,-2.582833 0.118365,-1.64737 -0.07083,-3.320086 -0.100313,-4.967081 0,0 10.989529,-5.599445 10.989529,-5.599445 z"
       id="path2991"
       style="fill:#000000;stroke:#000000" />
    <path
       d="m 112.40876,250.06049 c -2.44112,0.63077 -4.88005,1.26659 -7.36685,1.69717 -2.72124,0.57193 -5.402763,1.28039 -8.15429,1.70266 -1.612986,-0.0637 -3.185017,-0.0644 -4.792116,0.0831 -1.022906,0.062 -1.87233,0.50923 -2.661569,-0.29353 -0.07306,-0.24092 -0.196007,-0.47207 -0.219178,-0.72276 -0.06749,-0.73014 0.288069,-2.01644 0.418559,-2.59683 0.637849,-2.83701 1.43358,-5.61544 2.245964,-8.40695 2.20872,-7.69068 5.915987,-14.76177 9.97643,-21.60888 2.38384,-3.80843 4.94299,-7.50338 7.60728,-11.12002 0.60285,-0.79889 1.11245,-1.66402 1.43303,-2.61186 0.65603,-2.42114 1.36715,-4.82728 2.29356,-7.15922 1.6273,-3.77735 4.00203,-6.90677 6.73201,-9.93831 2.59582,-2.80095 5.10927,-5.66326 7.2022,-8.8629 1.7783,-2.97776 3.38699,-6.04704 5.39722,-8.87692 2.80488,-3.62541 5.74845,-7.1276 8.37643,-10.88729 1.89449,-2.68632 3.44982,-5.57517 4.83677,-8.54823 0.64144,-1.77444 1.34622,-3.51584 2.10041,-5.24514 0.67536,-1.55856 1.27437,-3.1458 1.88097,-4.73125 1.26568,-2.91981 5.7346,-7.40514 8.56041,-5.19972 0.0931,0.17535 0.21143,0.33948 0.27928,0.52605 0.19759,0.54329 0.24786,1.1294 0.38281,1.69153 0.45683,1.90285 0.96682,3.79152 1.41998,5.69579 1.67895,7.24746 2.74694,14.61951 3.96232,21.95454 1.25464,7.89112 2.1875,15.81942 2.91771,23.77406 0.64618,6.80441 0.98112,13.6329 1.19555,20.46292 0.018,4.69251 0.2962,9.37605 0.51327,14.06182 0.11721,3.42058 0.51432,6.82262 0.78077,10.23337 0.12769,2.42628 0.2754,4.86302 0.1629,7.29217 -0.22872,1.93121 -1.00281,3.73764 -1.80804,5.48976 -2.16072,4.1713 -6.89099,6.42029 -11.25702,7.78774 -2.46453,0.61974 -4.9967,0.62727 -7.51176,0.44038 -1.95909,-0.008 -3.51217,-0.73135 -4.88357,-2.07548 -1.27534,-1.63423 -2.06919,-3.6016 -2.95958,-5.46325 -1.31828,-2.77087 -1.87884,-5.76476 -2.22567,-8.78775 -0.30474,-3.15161 -0.34709,-6.32023 -0.3616,-9.48404 -0.0624,-2.45125 0.0874,-4.91233 -0.0941,-7.35908 -0.22397,-1.58918 -0.4346,-3.17367 -0.51315,-4.7773 -0.1151,-1.6622 -0.48464,-3.27273 -0.88729,-4.88251 -0.28151,-1.26216 -1.11003,-2.01401 -2.25242,-2.5181 -1.51882,-0.43864 -3.14577,-0.26946 -4.66054,0.10747 -2.69517,1.1905 -6.56961,3.23184 5.23107,-3.10875 0.23972,-0.1288 -0.4408,0.32236 -0.63557,0.51242 -0.59298,0.57866 -0.78192,0.95918 -1.24728,1.66738 -1.90958,3.118 -3.31955,6.47236 -4.51404,9.91642 -1.7563,5.02121 -2.46774,10.29299 -3.33672,15.51436 -0.59188,3.84913 -1.31366,7.68334 -2.19936,11.47612 -0.49704,1.50639 -0.83673,3.17924 -1.95442,4.36442 -8.98851,5.29298 -5.47371,4.60192 -11.51193,3.23176 0,0 6.83386,-4.73534 6.83386,-4.73534 l 0,0 c 0.98752,0.225 2.07788,0.62645 3.09367,0.68584 0.17782,0.0104 0.35313,-0.0469 0.5297,-0.0704 -2.26527,1.33251 -4.53055,2.66501 -6.79582,3.99752 1.49083,-0.68304 1.74613,-2.51346 2.33358,-3.89856 1.04267,-3.78297 1.78994,-7.65058 2.43496,-11.51879 0.93169,-5.22489 1.56477,-10.52122 3.21016,-15.59129 1.12431,-3.46084 2.46081,-6.8252 4.26615,-9.99532 2.2978,-4.28374 6.08363,-6.13735 10.95278,-7.50867 1.6798,-0.24282 3.41284,-0.36863 5.00966,0.32711 1.27618,0.72166 2.2512,1.68069 2.60746,3.15216 0.39088,1.66489 0.77747,3.32287 0.94004,5.03079 0.0891,1.59716 0.26874,3.18309 0.48403,4.76807 0.20328,2.4781 -0.0393,4.97421 0.0356,7.45825 0.0117,3.14137 0.005,6.28823 0.28886,9.4199 0.33343,2.93043 0.86079,5.82465 2.16743,8.50017 0.86915,1.757 1.63843,3.63634 2.88376,5.16017 1.27627,1.17023 2.75284,1.61626 4.48842,1.64221 2.46309,0.143 4.96035,0.0497 7.3223,-0.73667 3.13565,-1.35411 1.74502,-0.80222 -5.26588,3.26338 -0.26512,0.15374 0.5208,-0.32462 0.76601,-0.50846 0.64028,-0.48001 0.67978,-0.55896 1.12001,-1.2256 0.15397,-0.23314 0.29163,-0.47666 0.43744,-0.71498 0.84644,-1.65627 1.59473,-3.39012 1.97999,-5.2162 0.2157,-2.39932 0.0149,-4.81602 -0.06,-7.2191 -0.19337,-3.44244 -0.5754,-6.87303 -0.65218,-10.32131 -0.19393,-4.70808 -0.49728,-9.41195 -0.42413,-14.12682 -0.0944,-6.84873 -0.32517,-13.69789 -0.96262,-20.52063 -0.75181,-7.93492 -1.64739,-15.84957 -2.89294,-23.72492 -1.19857,-7.28283 -2.26857,-14.61761 -4.19553,-21.75152 -0.60752,-2.21852 -0.55803,-2.12416 -1.19624,-4.1598 -0.29617,-0.94467 -0.68153,-1.91699 -0.88181,-2.89322 -0.005,-0.0231 0.0351,0.0315 0.0526,0.0473 -1.27366,2.55098 -0.12091,0.20024 7.14472,-3.96932 0.076,-0.0436 -0.16919,0.0464 -0.25114,0.0774 -0.39835,0.15042 -0.52002,0.47061 -0.73263,0.82579 -0.78904,1.51047 -1.21271,3.21857 -1.96104,4.75441 -0.74354,1.74517 -1.5013,3.46448 -2.101,5.26602 -1.38279,3.07311 -3.11757,5.98353 -4.99528,8.77878 -2.59425,3.75678 -5.46157,7.2875 -8.29092,10.86666 -2.048,2.78443 -3.65035,5.83339 -5.38505,8.81872 -2.04064,3.29606 -4.59077,6.19158 -7.22653,9.02478 -0.46887,0.5129 -2.38734,2.59115 -2.83855,3.16351 -1.55979,1.9786 -2.79811,4.22772 -3.91775,6.47353 -0.94468,2.24674 -1.58413,4.59042 -2.16362,6.95549 -0.17244,1.11951 -0.68864,2.06715 -1.37262,2.97591 -2.90844,3.59739 -5.59484,7.36716 -8.121,11.24218 -4.12677,6.73398 -7.82793,13.7398 -9.985458,21.38183 -0.957035,3.49351 -1.884298,7.0136 -2.40298,10.59795 0.740588,0.0408 1.497239,-0.20678 2.240638,-0.18256 1.57007,-0.11471 3.12588,0.0469 4.69322,-0.0872 2.718,-0.44215 5.37502,-1.15375 8.07777,-1.67384 2.51607,-0.50335 5.00054,-1.14463 7.46227,-1.86843 0,0 -6.68331,5.14583 -6.68331,5.14583 z"
       id="path3073"
       style="fill:#000000;stroke:#000000" />
    <path
       d="m 148.18403,171.10469 c -1.50671,2.32025 -2.90265,4.69519 -4.17421,7.15231 -1.21829,2.48568 -2.08297,5.10452 -2.62288,7.81448 -0.40733,1.93772 0.16636,1.99593 1.89127,2.2097 1.13478,0.0512 2.25555,-0.2402 3.28205,-0.7203 0.37995,-0.17771 1.45737,-0.83133 1.09188,-0.62552 -6.36354,3.58332 -7.8965,4.84643 -5.06578,2.65439 1.61365,-1.39964 2.6718,-3.16484 3.22139,-5.20841 0.37165,-1.60012 -0.27564,-3.18035 -0.70418,-4.71042 0,0 7.31734,-3.98041 7.31734,-3.98041 l 0,0 c 0.44958,1.64891 1.23647,3.3298 0.93237,5.06022 -0.43654,2.20293 -1.47148,4.12713 -3.06638,5.7279 -3.22783,2.92473 -1.02418,1.04587 -9.11604,5.64765 -1.43918,0.81846 -3.10906,1.12364 -4.7428,0.95687 -2.00044,-0.42394 -3.03491,-1.1657 -2.55905,-3.37343 0.6013,-2.77542 1.41886,-5.48713 2.636,-8.06235 1.21038,-2.43703 2.56896,-4.77527 3.94819,-7.11627 0,0 7.73083,-3.42641 7.73083,-3.42641 z"
       id="path3075"
       style="fill:#000000;stroke:#000000" />
    <path
       d="m 203.40028,131.7418 c -1.36635,4.94797 -2.81964,9.87252 -4.22409,14.81036 -2.65523,9.40017 -5.38313,18.7762 -7.74956,28.25439 -1.94591,7.98751 -3.80807,15.98718 -5.18648,24.09389 -0.96821,5.49011 -1.45662,11.04383 -2.35918,16.54356 -0.68628,4.63333 -1.25906,9.27681 -1.96722,13.90783 -0.35178,2.28885 -0.61452,4.59219 -0.71669,6.90615 -0.0634,0.7712 -0.0517,1.52976 0.34411,2.21349 0.42003,0.57358 1.05813,0.89569 1.61642,1.31747 1.16866,0.97248 2.34457,1.95887 3.35958,3.09357 0.68189,0.87964 1.58753,1.52684 2.13688,2.50667 0.30027,0.32609 0.69881,1.57024 0.92791,0.53684 -2.36939,1.38335 -4.71809,2.80278 -7.10817,4.15006 -0.0852,0.048 0.13182,-0.14913 0.17017,-0.23914 0.0969,-0.2274 0.15152,-0.4706 0.23187,-0.70436 0.47281,-1.37556 0.93992,-2.74628 1.37794,-4.13393 1.79092,-5.50208 3.45783,-11.04186 5.52169,-16.44957 1.72587,-4.19868 3.79995,-8.24297 5.45056,-12.47314 1.58073,-3.91957 2.16965,-3.1157 8.62325,-5.57127 0.0392,-0.0149 0.38917,0.76216 0.66549,1.36214 1.64604,3.20643 2.96583,6.56141 4.48906,9.82484 2.09755,4.64283 4.61656,9.05389 7.17267,13.45194 1.81166,2.76737 3.70586,5.48524 5.62451,8.18058 1.08847,1.54596 2.27801,2.97473 4.06503,3.67985 2.16055,0.41654 4.17139,-0.21337 6.12336,-1.09045 0.35406,-0.17748 0.70813,-0.35496 1.06219,-0.53243 -2.05808,1.15452 -4.07961,2.37677 -6.17424,3.46357 -0.36082,0.18721 0.65232,-0.48682 0.95659,-0.75638 0.34879,-0.30902 0.68082,-0.63739 0.99992,-0.97699 1.02888,-1.095 1.18542,-1.38584 2.09618,-2.61818 2.10485,-2.98991 3.71541,-6.26232 5.00907,-9.67171 1.05725,-2.99014 1.41366,-6.02736 0.84155,-9.14109 -0.61746,-2.25828 -2.2186,-4.05765 -3.83622,-5.68272 -2.44614,-2.47554 -5.35196,-4.38868 -8.30293,-6.19838 -2.93291,-1.7624 -6.1133,-3.0441 -8.84309,-5.12605 -2.15194,-1.64203 -3.9716,-3.63964 -6.10437,-5.30404 -1.91541,-1.36405 -3.62486,-2.98603 -5.04604,-4.8574 -0.66883,-0.94537 -1.54632,-2.17974 -0.91247,-3.3811 0.14684,-0.27832 0.38662,-0.49661 0.57993,-0.74491 4.78435,-3.39802 10.00301,-6.21795 15.43877,-8.42801 4.04812,-1.71131 8.14787,-3.28631 12.08544,-5.24517 5.00775,-2.79743 -2.65623,1.56383 -4.01756,2.28527 -0.39247,0.20799 0.72778,-0.50951 1.08731,-0.77034 0.85393,-0.6195 1.54379,-1.20365 2.20403,-2.02274 1.66636,-3.09762 2.27532,-6.66898 2.87277,-10.10063 0.55207,-2.99211 1.0446,-5.99483 1.31691,-9.0262 0.26282,-1.56796 -0.1722,-2.93703 -0.73936,-4.36439 -0.87645,-1.95321 -1.61332,-3.96787 -2.55682,-5.89065 -2.06533,-3.5236 -5.56303,-5.57819 -9.10017,-7.37283 -2.73221,-1.2283 -5.4741,-2.51551 -8.37995,-3.28925 -1.88762,-0.50262 -2.70487,-0.57724 -4.64696,-0.88151 -3.95213,-0.65244 -7.9173,-0.23043 -11.85048,0.29829 0,0 6.50822,-4.85277 6.50822,-4.85277 l 0,0 c 3.98042,-0.45548 7.97869,-0.81311 11.95876,-0.092 1.98252,0.33234 2.82214,0.4174 4.74837,0.95714 2.92425,0.81939 5.68272,2.14517 8.42733,3.41815 3.67694,1.9005 7.32116,4.09005 9.54715,7.70654 0.98742,1.92364 1.74674,3.9492 2.67055,5.90333 0.63723,1.54025 1.18316,3.03461 0.88952,4.74212 -0.32639,3.08527 -0.89702,6.13566 -1.49376,9.17868 -0.58106,3.4856 -1.15642,7.04047 -2.50383,10.32542 -0.61548,1.03424 -1.2042,1.58778 -2.16808,2.30927 -0.37039,0.27725 -0.7111,0.59777 -1.1067,0.83768 -6.74096,4.08795 -5.92653,3.62729 -10.03146,5.78141 -3.98302,1.89925 -8.09492,3.4971 -12.14878,5.23627 -0.58282,0.25115 -1.17004,0.49235 -1.74846,0.75347 -0.53599,0.24196 -1.06611,0.49691 -1.59426,0.75552 -6.34719,3.10799 8.27687,-4.90386 3.03731,-1.87552 -0.3159,0.18259 -0.63887,0.35264 -0.95831,0.52895 -1.63004,1.12631 -1.18937,1.52699 -0.22027,3.05094 1.35481,1.83203 3.01868,3.3824 4.86918,4.71146 2.11039,1.67731 3.93388,3.66112 6.07421,5.30294 2.7151,2.02736 5.85485,3.32416 8.72413,5.11174 2.99765,1.87096 5.99553,3.79298 8.51592,6.29591 1.72267,1.75905 3.4379,3.67977 4.08096,6.1137 0.62075,3.37451 0.31829,6.30276 -0.72926,9.57793 -1.24009,3.47532 -2.85917,6.79367 -4.91335,9.86608 -3.42173,5.04128 -6.69932,7.2762 -13.01434,9.84343 -2.12431,0.79339 -4.3355,1.3096 -6.56198,0.57078 -1.82463,-0.91166 -3.13245,-2.40802 -4.25658,-4.09304 -1.86386,-2.75568 -3.68528,-5.54327 -5.4706,-8.34969 -2.53588,-4.43336 -5.00823,-8.89114 -7.18596,-13.51572 -1.58097,-3.22254 -2.9476,-6.55284 -4.75831,-9.65896 -0.12015,-0.22555 -0.24015,-0.45117 -0.36043,-0.67665 -0.0523,-0.098 -0.25091,-0.23406 -0.15724,-0.29372 11.52562,-7.341 7.62606,-5.74156 6.06241,-2.45566 -1.77112,4.2789 -4.01871,8.34118 -5.79455,12.61882 -2.06523,5.32561 -3.67498,10.79946 -5.29789,16.27301 -0.72805,2.65437 -0.19238,0.76737 -0.87764,3.04539 -0.16532,0.54957 -0.39959,1.08118 -0.51054,1.64425 -0.0328,0.1666 0.12709,0.41362 -0.0132,0.50923 -2.37918,1.62104 -4.90809,3.01062 -7.36213,4.51593 -0.78999,-0.24369 -1.18548,-0.92207 -1.59506,-1.59189 -0.49044,-0.92359 -1.38576,-1.52641 -1.99015,-2.36964 -0.97823,-1.09386 -2.10761,-2.04893 -3.28371,-2.92382 -0.68211,-0.46357 -1.40678,-0.87457 -1.83625,-1.60876 -0.47011,-0.82942 -0.65662,-1.72086 -0.52857,-2.67223 0.19175,-2.375 0.50083,-4.73857 0.89754,-7.08816 0.8116,-4.63848 1.4115,-9.29412 2.06128,-13.9564 0.93872,-5.53029 1.49115,-11.11409 2.52193,-16.62969 1.46237,-8.16245 3.38603,-16.21915 5.40033,-24.26129 2.40481,-9.42744 5.07684,-18.78062 7.56986,-28.18464 1.26029,-4.83959 2.67112,-9.64699 3.65849,-14.55234 0,0 7.61913,-3.61872 7.61913,-3.61872 z"
       id="path3077"
       style="fill:#000000;stroke:#000000" />
    <path
       d="m 207.91428,153.60562 c -1.25395,4.05837 -2.00287,8.24712 -2.55829,12.45115 -0.0833,2.72471 -1.02266,5.69995 -0.12057,8.37296 0.23428,0.1871 0.40213,0.36586 0.73592,0.39511 0.92646,0.0812 2.88301,-0.76974 3.73525,-1.08349 0.47913,-0.20063 0.97232,-0.37054 1.4374,-0.60188 0.52437,-0.26083 2.03768,-1.15571 1.52541,-0.87184 -1.81246,1.00437 -3.56841,2.11535 -5.42609,3.03339 -0.57942,0.28634 1.05974,-0.74068 1.57534,-1.1304 1.48695,-1.12397 1.62366,-1.30125 3.01834,-2.55556 2.43554,-2.25295 4.88691,-4.48963 6.9437,-7.10156 0.65156,-0.96752 1.7275,-1.75168 0.42332,-2.59111 -2.75779,-1.44349 -5.72385,-2.42488 -8.65732,-3.44035 -2.72363,-0.97913 -5.60541,-1.1568 -8.4592,-1.39886 0,0 6.52367,-4.64569 6.52367,-4.64569 l 0,0 c 2.90661,0.30738 5.84169,0.55426 8.63015,1.50308 3.07829,0.99304 6.23789,1.92862 9.0837,3.49109 1.54675,1.33283 1.32713,2.2888 0.10024,3.80662 -2.08578,2.67492 -4.51919,5.00736 -7.03118,7.28178 -4.67778,4.43305 -10.26017,7.89093 -16.23102,10.321 -1.78062,0.59378 -4.00723,1.52494 -5.3115,-0.36929 -0.80802,-2.89277 0.0486,-5.91025 0.24445,-8.83549 0.55604,-4.18688 1.31229,-8.33213 2.21287,-12.45887 0,0 7.60541,-3.57179 7.60541,-3.57179 z"
       id="path3079"
       style="fill:#000000;stroke:#000000" />
    <path
       d="m 257.34544,139.50113 c -0.86682,3.59768 -1.35423,7.27179 -1.82026,10.93843 -0.62204,5.13344 -1.91076,10.13692 -3.50999,15.04249 -0.46291,2.0988 -1.70372,4.22737 -1.63463,6.42573 0.42441,1.22029 2.28709,1.14225 3.32536,1.01601 0.33532,-0.0549 0.67615,-0.083 1.00598,-0.16473 1.34045,-0.33197 2.64217,-0.92232 3.938,-1.38761 3.85977,-1.3859 -0.56575,0.25472 3.6192,-1.31201 3.89288,-1.43827 7.80215,-2.82595 11.72836,-4.17003 1.47784,-0.45308 3.77484,-1.25578 5.08424,-0.004 0.0557,0.23154 0.17617,0.45664 0.16715,0.69461 -0.0254,0.67097 -0.90085,1.4195 -1.23491,1.91825 -0.44246,0.66057 -1.00982,1.68278 -1.39129,2.34827 -2.84374,5.7582 -4.9611,11.84483 -7.2917,17.82179 -3.27673,8.32365 -6.57525,16.64419 -9.05022,25.24688 -1.51002,5.95161 -2.49342,12.01999 -3.15736,18.11935 -0.41128,4.21185 -0.63635,8.44084 -1.03111,12.65341 0.0591,1.47412 -0.90372,3.57708 -0.20051,4.96536 2.52742,-3.38644 -9.87645,5.52429 -5.56209,2.69671 0.3853,-0.25252 0.77371,-0.50026 1.16056,-0.75038 3.84457,-2.4694 7.82423,-4.7175 11.72679,-7.0939 0.71431,-0.41676 1.42425,-0.84109 2.14292,-1.25029 3.01247,-1.71527 6.00895,-3.45959 9.05035,-5.12303 2.27356,-1.24347 4.83715,-2.03008 7.29696,-2.8111 1.16685,-0.38574 2.37456,-0.58809 3.57912,-0.80479 0.36591,-0.0658 0.76824,-0.0383 1.09389,-0.21769 0.0804,-0.0443 0.1011,-0.15308 0.15165,-0.22962 -2.35039,1.38803 -4.64238,2.88011 -7.05119,4.1641 -0.14142,0.0754 0.0971,-0.30757 0.11497,-0.46682 0.0353,-0.31461 0.045,-0.63216 0.0438,-0.94874 -0.007,-1.74881 -0.26241,-3.50063 -0.44471,-5.23606 -0.52591,-5.40788 -0.0658,-10.85764 0.13102,-16.27449 0.12654,-4.46288 0.72272,-8.88717 1.12381,-13.32811 0.37963,-3.25385 0.26319,-6.5093 0.10897,-9.76996 -0.14121,-3.41056 0.38547,-6.78664 0.9091,-10.14339 0.18845,-1.25062 0.41929,-2.49738 0.53608,-3.75767 0.024,-0.83877 0.0714,-1.63711 0.2918,-2.4507 0.70132,-2.50006 2.12394,-4.52633 3.92045,-6.35295 5.34457,-4.27242 11.62694,-7.30817 18.03964,-9.62985 4.67137,-1.60794 9.50973,-2.667 14.35626,-3.58943 1.64163,-0.58661 4.89248,-0.16606 6.2286,-1.27118 -6.82695,3.95984 -5.64649,6.30123 -7.63341,3.31852 -0.6473,-1.28128 -1.00023,-2.69531 -1.41703,-4.0646 -0.41121,-1.50583 -0.67994,-3.04131 -1.07401,-4.55218 -0.22185,-1.10997 -0.40553,-2.21412 -0.69435,-3.30962 -0.15698,-0.7765 -0.41109,-1.51317 -0.7869,-2.21085 -0.56075,-1.16777 -1.56098,-1.80879 -2.62135,-2.48655 -2.92176,-1.73585 -6.20092,-2.58126 -9.47637,-3.35401 -7.64716,-1.76625 -15.40019,-0.81815 -23.05193,0.33401 -5.71542,0.94397 -11.20402,2.80892 -16.69264,4.59655 0,0 5.90748,-4.57882 5.90748,-4.57882 l 0,0 c 5.54925,-1.75317 11.09176,-3.61064 16.85125,-4.56622 7.84412,-1.20081 15.78534,-2.1426 23.63489,-0.39199 3.41593,0.75443 6.81045,1.65398 9.85629,3.43918 1.17498,0.74586 2.2944,1.50609 2.93169,2.78792 0.42479,0.75052 0.72781,1.55704 0.87252,2.40817 0.27895,1.10421 0.52056,2.20043 0.67835,3.32909 0.35005,1.51017 0.65544,3.02523 1.01291,4.5325 0.39354,1.28144 0.7732,2.59013 1.35875,3.79697 2.55823,3.50097 1.04435,2.14348 -6.28445,6.2665 -2.014,0.42957 -4.09103,0.46082 -6.10686,0.8913 -4.81738,0.89523 -9.61459,1.98375 -14.22628,3.66411 -2.07935,0.79501 -2.30013,0.84466 -4.29654,1.74105 -0.68731,0.3086 -2.67157,1.37977 -2.0469,0.95856 1.66505,-1.12272 3.46116,-2.03775 5.18218,-3.07264 0.51508,-0.30973 -1.06018,0.56947 -1.56412,0.89701 -0.45371,0.2949 -0.86926,0.64472 -1.30389,0.96708 -1.79787,1.66837 -3.28857,3.47828 -3.95027,5.89364 -0.23841,0.76917 -0.3484,1.47401 -0.30424,2.28293 -0.13149,1.31362 -0.42686,2.60356 -0.67955,3.8979 -0.62201,3.30081 -1.18151,6.6359 -1.05507,10.00882 0.204,3.30073 0.35437,6.59609 -0.0769,9.89032 -0.43761,4.45606 -1.11756,8.88744 -1.30343,13.36617 -0.19826,5.35733 -0.66835,10.76148 -0.0704,16.10319 0.22801,1.73701 0.53534,3.47525 0.68022,5.22206 0.0267,0.32164 0.0299,0.64481 0.0468,0.96712 0.0117,0.22375 0.2185,0.53689 0.039,0.67103 -2.31516,1.73045 -4.84448,3.15416 -7.26671,4.73125 -1.60326,0.0199 -3.17557,0.60198 -4.71276,0.97911 -1.72163,0.5611 -3.43872,1.14068 -5.09554,1.87756 -0.67375,0.29966 -2.60572,1.36955 -1.99414,0.9576 1.09626,-0.73842 8.3714,-4.89389 2.63866,-1.60819 -3.83895,2.33956 -7.73767,4.57865 -11.53618,6.9821 -1.66121,1.15334 -0.47168,0.37482 -1.87961,1.20592 -2.57126,1.51784 -5.10464,3.10109 -7.70674,4.56543 -0.12633,0.0711 -0.29401,0.0515 -0.43458,0.0161 -0.3439,-0.0866 -0.46038,-0.30158 -0.66758,-0.5485 -0.7569,-1.7642 0.0158,-3.64845 0.18809,-5.46828 0.53802,-4.2311 0.76704,-8.50214 1.2157,-12.74361 0.67418,-6.18511 1.73745,-12.32281 3.31157,-18.3466 2.51162,-8.62711 5.90157,-16.94482 9.08915,-25.33825 2.2371,-5.90511 4.24292,-11.90477 6.75392,-17.70056 0.34509,-0.63918 1.72599,-3.76639 2.54172,-3.92327 0.0956,-0.0184 0.18366,0.0643 0.27548,0.0965 -1.40652,-0.56872 -3.06321,0.18567 -4.40039,0.55346 -3.9068,1.31356 -7.79416,2.67927 -11.64867,4.14034 -2.89113,1.08342 -5.80076,2.42015 -8.88718,2.77651 -1.5753,-0.0607 -3.52539,-0.31306 -4.05417,-2.06138 -0.27816,-2.13853 1.20227,-4.81582 1.72939,-6.85715 1.69656,-4.85518 3.11086,-9.80873 3.68606,-14.93952 0.38702,-3.6073 0.78628,-7.21946 1.43056,-10.79127 0,0 7.59351,-3.71243 7.59351,-3.71243 z"
       id="path3081"
       style="fill:#000000;stroke:#000000" />
  </g>
</svg>
