<?xml version="1.0" encoding="UTF-8" standalone="no"?>
<!-- Created with Inkscape (http://www.inkscape.org/) -->

<svg
   xmlns:dc="http://purl.org/dc/elements/1.1/"
   xmlns:cc="http://creativecommons.org/ns#"
   xmlns:rdf="http://www.w3.org/1999/02/22-rdf-syntax-ns#"
   xmlns:svg="http://www.w3.org/2000/svg"
   xmlns="http://www.w3.org/2000/svg"
   version="1.1"
   width="400"
   height="384"
   id="svg2">
  <metadata
     id="metadata8">
    <rdf:RDF>
      <cc:Work
         rdf:about="">
        <dc:format>image/svg+xml</dc:format>
        <dc:type
           rdf:resource="http://purl.org/dc/dcmitype/StillImage" />
        <dc:title></dc:title>
      </cc:Work>
    </rdf:RDF>
  </metadata>
  <defs
     id="defs6" />
  <path
     d="m 145.50456,142.77175 c -2.06593,-0.35637 -4.13896,-0.42406 -6.22508,-0.29566 -2.222,0.0442 -4.35746,0.63635 -6.49789,1.16239 -1.94466,0.37868 -3.92451,0.46363 -5.88565,0.73217 -2.24485,0.0745 -4.35016,0.67618 -6.46735,1.36454 -1.96056,0.66939 -3.85681,1.5115 -5.68334,2.48607 1.04942,-0.59786 4.20286,-2.38222 3.14825,-1.79357 -1.82777,1.02021 -3.56696,2.22734 -5.49977,3.03096 -1.04816,0.4358 -2.14971,0.77833 -3.22166,1.14906 -2.39058,0.81837 -4.70939,1.76169 -6.99057,2.84456 -1.29664,0.86266 -5.066711,2.34931 1.23837,-0.7277 0.30766,-0.15014 -0.5482,0.41024 -0.82028,0.61803 -0.95156,0.72674 -0.65696,0.49653 -1.57284,1.28748 -2.025896,1.73813 -4.121418,3.39526 -6.197494,5.07347 -2.360043,1.92319 -4.874775,3.65154 -7.177719,5.64349 -1.7396,1.38997 -3.086369,3.14283 -4.294196,4.99358 -1.349654,2.02925 -2.284287,4.28054 -3.300378,6.48494 -1.171675,2.51789 -2.350731,5.03117 -3.578222,7.52241 -0.865844,1.79342 -1.569893,3.62454 -1.940388,5.5822 -0.2795,1.93352 -0.356489,3.8851 -0.02928,5.81306 0.544214,2.16752 1.555415,4.1896 2.58702,6.16155 0.755994,1.76307 1.792868,3.32258 3.034413,4.77343 1.286094,1.39753 2.448384,2.90203 3.623668,4.39215 1.105103,1.44998 2.254435,2.85265 3.692691,3.98113 1.960255,1.4847 4.249488,2.41966 6.414536,3.55493 2.092125,0.898 4.132075,1.90075 6.123348,3.00355 1.664951,0.85922 3.515281,1.21822 5.297701,1.74394 1.86139,0.64344 3.832,0.71065 5.75972,0.99731 2.06469,0.23001 4.10761,0.56996 6.15884,0.89313 1.75872,0.18136 3.46247,-0.29133 5.1779,-0.59344 1.78679,-0.45373 3.48505,-1.1794 5.26035,-1.67891 1.92281,-0.64405 3.89482,-1.12027 5.78242,-1.8672 2.60172,-1.53969 -1.03656,0.63354 -2.03769,1.01698 -0.34735,0.13304 0.56538,-0.48448 0.8298,-0.74609 0.77766,-0.76939 1.39383,-1.65413 2.04131,-2.52991 0.9428,-1.1944 1.77714,-2.4677 2.69652,-3.67962 0.67618,-0.97246 1.31551,-1.9691 1.95687,-2.96474 0.54934,-0.92101 0.87457,-1.96194 1.21813,-2.97464 0.43598,-1.08009 0.23383,-1.51788 -0.13433,-2.54622 -0.4187,-1.64797 -0.76311,-3.30905 -1.23762,-4.94455 -0.42936,-1.30073 -1.27877,-2.34991 -2.19649,-3.33654 -0.93918,-0.73875 -2.00115,-1.24111 -3.10056,-1.69063 -1.17504,-0.40501 -2.40912,-0.62742 -3.64752,-0.49266 -1.24514,0.18033 -2.38372,0.72549 -3.61777,0.97465 -1.01567,0.17886 -2.04579,0.21804 -3.07454,0.23334 -0.88788,0.006 -1.77577,0.001 -2.66365,-0.002 -1.03229,0.0576 -2.04337,0.35046 -3.07308,0.49649 -0.87515,0.18021 -1.78477,0.0393 -2.64523,0.26793 -0.84163,0.29346 -1.72498,0.42468 -2.6101,0.49161 -1.24567,0.0746 -2.42975,-0.44078 -3.61035,-0.77361 -1.56584,-0.21932 -3.06579,-0.53547 -4.57178,-1.01411 -1.39757,-0.31008 -2.73111,-0.76043 -4.00965,-1.40229 -1.05628,-0.50493 -1.686322,-1.33919 -2.342408,-2.25872 -0.590362,-0.67524 -0.863644,-1.45384 -0.986237,-2.32563 -0.227383,-0.72982 -0.452761,-1.45317 -0.610036,-2.20324 -0.258814,-0.94727 0.254402,-1.70451 0.62771,-2.53202 0.301684,-0.91227 0.485782,-1.83845 0.878457,-2.71989 0.577571,-1.18055 1.173144,-2.34645 1.837931,-3.481 0.808843,-1.61711 1.899693,-3.04759 2.966873,-4.49553 1.33944,-1.96781 3.08919,-3.5733 4.75678,-5.24984 1.82978,-1.62099 3.24137,-3.6281 4.86396,-5.43937 0.79267,-0.76356 1.64146,-1.44912 2.55591,-2.05819 2.49113,-1.73418 3.88044,-2.68188 6.50184,-2.7978 1.59636,0.007 3.17942,0.36595 4.73682,0.69487 2.07915,0.64387 4.2495,0.84442 6.34012,1.43435 1.81538,0.48532 3.63144,1.04527 5.13058,2.2084 1.01293,0.76189 1.788,1.77898 2.70729,2.64433 0.85928,0.75903 1.80891,1.45374 2.88373,1.86812 1.10443,0.32941 2.26289,0.33607 3.4049,0.35529 1.93544,-0.018 6.7213,-2.94649 0.44999,0.56718 1.80854,-1.44933 3.19575,-3.3481 4.49752,-5.24701 1.02055,-1.56631 2.12049,-3.09391 3.01535,-4.73749 0.52216,-1.03945 0.74674,-2.17355 0.84644,-3.32204 -0.17901,-1.19071 -0.63467,-2.31421 -0.87227,-3.50223 -0.19158,-1.62696 -0.35505,-3.20951 -0.86119,-4.77198 -0.54463,-1.22448 -1.18142,-2.46458 -2.02424,-3.5143 -0.86318,-1.01011 -2.03131,-1.6344 -3.13047,-2.34484 -1.40838,-0.97052 -2.93454,-1.48882 -4.60689,-1.76742 -3.5082,-0.29788 -6.71882,0.92392 -9.89103,2.26702 -0.77034,0.36095 -1.54068,0.72189 -2.31102,1.08284 0,0 3.40638,-2.70856 3.40638,-2.70856 l 0,0 c 0.77163,-0.35472 1.54326,-0.70945 2.3149,-1.06417 3.26304,-1.34234 6.58008,-2.57664 10.17207,-2.16059 1.71003,0.3253 3.278,0.9101 4.72237,1.90275 1.14975,0.72463 2.33962,1.40563 3.22227,2.46672 0.85843,1.10797 1.52182,2.38517 2.09108,3.66067 0.51455,1.58161 0.72274,3.168 0.88045,4.82149 0.24577,1.22951 0.71975,2.37219 0.96232,3.59502 -0.0782,1.2037 -0.30311,2.39592 -0.79715,3.50413 -0.85805,1.6856 -2.00585,3.20922 -3.02585,4.79803 -1.30581,1.92982 -2.69368,3.82732 -4.41489,5.41263 -2.6837,1.57137 -5.14033,3.58095 -8.3219,3.72064 -1.18521,-0.0311 -2.38606,-0.0684 -3.51034,-0.48953 -1.09384,-0.4931 -2.0834,-1.20771 -2.97247,-2.01003 -0.88867,-0.86941 -1.67022,-1.85499 -2.66396,-2.60971 -1.47353,-1.09412 -3.25561,-1.60526 -5.00817,-2.08218 -2.09399,-0.55274 -4.25491,-0.79394 -6.33749,-1.40286 -1.54185,-0.31805 -3.11846,-0.65007 -4.70007,-0.57021 -2.01055,0.17445 -5.1818,1.95639 1.40791,-1.55938 -0.92794,0.60255 -1.80442,1.23969 -2.63652,1.97354 -1.70262,1.76201 -3.04799,3.854 -4.90672,5.47092 -1.63219,1.67458 -3.40635,3.22142 -4.73407,5.16771 -1.04421,1.45409 -2.21128,2.82759 -2.98704,4.45849 -0.66989,1.11312 -1.24667,2.26676 -1.81761,3.42983 -0.45248,0.85751 -0.65398,1.76288 -0.88903,2.6979 -0.30224,0.77362 -0.924409,1.42431 -0.7316,2.28304 0.13839,0.76619 0.36209,1.49891 0.61233,2.23499 0.0951,0.80676 0.32867,1.50746 0.87225,2.13486 0.61014,0.86491 1.22125,1.61871 2.21917,2.07209 1.25928,0.62163 2.59167,1.0121 3.95016,1.35654 1.50526,0.46946 3.03226,0.69131 4.57568,0.99656 1.15098,0.33216 2.31128,0.78084 3.52975,0.62235 0.87721,-0.10342 1.73236,-0.29732 2.58508,-0.52543 0.88056,-0.10851 1.77365,-0.0892 2.64982,-0.24815 1.03887,-0.16211 2.06408,-0.47555 3.12281,-0.44778 0.88498,0.002 1.77009,0.0103 2.65498,-0.006 1.00929,-0.0286 2.02105,-0.0819 3.01073,-0.29853 1.22031,-0.3009 2.38565,-0.83605 3.65347,-0.91308 1.29269,-0.0299 2.56393,0.1849 3.77068,0.66212 1.1447,0.49212 2.25914,1.02897 3.20847,1.85448 0.94914,1.05247 1.83208,2.15996 2.27522,3.53172 0.46607,1.62371 0.83784,3.26637 1.24898,4.90269 0.44509,1.19624 0.74697,1.51329 0.27642,2.80987 -0.31599,1.05271 -0.70332,2.09989 -1.17507,3.0887 -0.65392,0.99559 -1.29228,1.99837 -1.93947,2.99774 -0.94973,1.2033 -1.78663,2.48682 -2.73743,3.6885 -2.60714,3.46423 -3.83576,4.7374 -8.50653,6.81573 -1.90897,0.70284 -3.87836,1.21407 -5.81202,1.84356 -1.77372,0.53248 -3.48639,1.27157 -5.30334,1.65113 -1.73668,0.31278 -3.4767,0.72293 -5.2523,0.46021 -2.04596,-0.33561 -4.09122,-0.64493 -6.15057,-0.88833 -1.9492,-0.25983 -3.92402,-0.39761 -5.79877,-1.04756 -1.815334,-0.51355 -3.682501,-0.91541 -5.35398,-1.8278 -1.986125,-1.09862 -4.018758,-2.09512 -6.096715,-3.00839 -2.193368,-1.14538 -4.498753,-2.11312 -6.485895,-3.61177 -1.443052,-1.17405 -2.631588,-2.58419 -3.74757,-4.06912 -1.167966,-1.48906 -2.330372,-2.98558 -3.617523,-4.37528 -1.255967,-1.48098 -2.305107,-3.07567 -3.068746,-4.8704 -1.04977,-2.01382 -2.066687,-4.07941 -2.65691,-6.28007 -0.363129,-1.97157 -0.314463,-3.96062 -0.05963,-5.94761 0.352518,-2.00733 1.029183,-3.88034 1.921487,-5.71373 1.252581,-2.47697 2.420128,-4.99204 3.586207,-7.51051 1.017427,-2.21316 1.931826,-4.48098 3.25726,-6.53367 1.190533,-1.89174 2.508011,-3.71201 4.269375,-5.11876 2.273962,-2.03823 4.82384,-3.73757 7.188641,-5.6674 2.056611,-1.67384 4.133617,-3.32424 6.158374,-5.03553 2.599765,-2.38367 5.686055,-4.1062 8.835775,-5.67382 2.28218,-1.07385 4.6285,-1.95662 7.00604,-2.79715 1.07605,-0.38209 2.17165,-0.74142 3.21559,-1.20774 0.29126,-0.13011 1.12941,-0.59104 0.85921,-0.42146 -0.96948,0.60844 -9.52051,5.54831 1.49077,-0.83261 1.84581,-0.93307 3.74022,-1.76934 5.70929,-2.41027 2.13418,-0.67919 4.27676,-1.18166 6.5232,-1.30646 1.95618,-0.25603 3.93741,-0.33579 5.86513,-0.77725 2.14824,-0.52553 4.30686,-1.03192 6.53118,-1.08341 2.12277,-0.10574 4.23137,0.0291 6.33546,0.33925 0,0 -3.72719,2.61502 -3.72719,2.61502 z"
     id="path3023"
     style="fill:#000000;stroke:#000000" />
  <path
     d="m 183.65855,147.58923 c -1.38123,0.23241 -2.77405,0.39185 -4.17148,0.48271 -1.1619,0.10274 -2.29299,0.4141 -3.45274,0.5696 -1.07995,0.2511 -2.0798,0.72418 -3.13706,1.04238 -0.19084,0.0782 -0.37998,0.16066 -0.57251,0.23458 -0.38074,0.14618 -0.78269,0.23892 -1.15237,0.4112 -0.15206,0.0709 -0.57592,0.34435 -0.42993,0.26167 3.25978,-1.84604 4.53131,-2.65909 2.91754,-1.63953 -0.88183,0.59365 -1.56923,1.40046 -2.33647,2.11959 -0.85129,0.63309 -1.40917,1.553 -2.0321,2.39567 -1.0581,1.34779 -2.39782,2.42931 -3.62709,3.61233 -1.44878,1.44669 -2.82473,2.94709 -4.13588,4.51937 -1.43061,1.57016 -2.79634,3.18731 -4.04458,4.9061 -0.90456,1.2641 -1.64193,2.59882 -2.08095,4.09052 -0.23587,1.33033 -0.42594,2.66821 -0.7558,3.98081 -0.52502,1.56224 -0.67561,3.19227 -0.77504,4.82622 -0.0732,1.90539 -0.0406,3.80291 -0.26245,5.6985 -0.23402,1.63662 -0.35878,3.28428 -0.42465,4.93527 -0.0733,1.61164 0.25212,3.21015 0.58681,4.77843 0.50133,1.61539 0.89806,3.25899 1.16484,4.92894 0.30232,1.32614 0.76822,2.65305 1.415,3.8541 0.65164,1.28362 1.52086,2.43832 2.34704,3.61225 1.07818,1.38785 2.04609,2.84585 3.16666,4.20258 0.87841,1.32905 2.11865,2.28183 3.37398,3.21842 0.98561,0.87365 2.06821,1.61772 3.1301,2.39308 0.84032,0.77374 1.74399,1.39777 2.82673,1.77191 1.00579,0.49144 2.09161,0.70672 3.19369,0.83359 1.19091,0.18979 2.33982,-0.15307 3.50881,-0.33212 1.38425,-0.0849 2.70731,-0.4167 3.98251,-0.9532 0.25477,-0.10292 0.51326,-0.19709 0.76432,-0.30877 0.92631,-0.41203 1.73136,-0.92887 1.47343,-0.7885 -5.72866,3.11768 -3.41006,1.94848 -2.04524,0.88787 1.1186,-0.85514 2.05485,-1.90884 3.0716,-2.87632 0.70739,-0.6997 1.40619,-1.4142 2.04237,-2.18033 0.74359,-0.8908 1.64038,-1.63012 2.41012,-2.49469 0.78069,-0.77118 1.61561,-1.47602 2.39079,-2.25486 0.89184,-1.05745 1.86164,-2.02957 2.8475,-2.99704 1.08044,-1.13427 2.00557,-2.3429 2.77948,-3.70404 0.73898,-1.2766 1.05405,-2.71969 1.50022,-4.10962 0.26654,-0.98877 0.63173,-1.94632 0.91818,-2.92889 0.14121,-0.80747 0.39966,-1.5766 0.67128,-2.34708 0.23795,-0.68143 0.26324,-1.40494 0.29036,-2.11878 0.19495,-1.11331 0.43343,-2.21012 0.54889,-3.33669 0.10171,-1.19629 0.11372,-2.39766 0.12374,-3.59747 -0.002,-1.0572 -3.2e-4,-2.1144 3.6e-4,-3.17159 0.005,-1.29677 6.4e-4,-2.59353 2.6e-4,-3.89031 -0.008,-1.11137 -0.004,-2.22279 -0.002,-3.33418 -0.30258,-1.17949 -0.77974,-2.29395 -1.0538,-3.48482 -0.32013,-1.20862 -0.72444,-2.39088 -1.06909,-3.592 -0.28546,-1.33953 -0.73995,-2.63337 -1.29234,-3.88423 -0.65585,-1.43039 -1.07316,-2.94576 -1.60786,-4.41861 -0.50943,-1.06982 -1.08783,-2.10297 -1.6836,-3.12627 -0.74654,-1.21166 -1.69414,-2.25934 -2.77811,-3.17274 -1.05164,-0.64739 -2.01753,-1.41624 -3.00201,-2.16 -0.67057,-0.51014 -1.44027,-0.86906 -2.11984,-1.36839 -0.70949,-0.37823 -1.35798,-0.84307 -2.09544,-1.16653 -0.61548,-0.26241 -1.30719,-0.24379 -1.96512,-0.25754 -0.84786,-0.009 -1.69574,-6.9e-4 -2.54361,4.1e-4 -1.23384,0.44871 -2.45476,0.51651 -3.74795,0.35155 -0.35529,-0.0617 -0.71059,-0.12333 -1.06589,-0.18499 0,0 3.67903,-2.58352 3.67903,-2.58352 l 0,0 c 0.34936,0.0528 0.69872,0.10554 1.04809,0.1583 1.30418,0.0667 2.50255,-0.16804 3.77067,-0.41982 0.85217,-0.005 1.70471,-0.0129 2.55668,0.01 0.70947,0.0296 1.43134,0.0707 2.07379,0.40653 0.74,0.36375 1.42393,0.82617 2.13822,1.23682 0.69826,0.47443 1.45631,0.85951 2.1142,1.39095 0.98352,0.75589 1.97433,1.49997 3.00533,2.18928 1.10257,0.96476 2.08053,2.05176 2.86322,3.29662 0.6167,1.04407 1.1958,2.10773 1.71793,3.20288 0.52536,1.46515 0.91657,2.9778 1.58852,4.39164 0.56824,1.26552 1.04254,2.57798 1.32871,3.93782 0.3402,1.21092 0.75802,2.39717 1.08925,3.61114 0.26232,1.22828 0.74133,2.3735 1.09809,3.57367 0.002,1.11203 0.006,2.22409 -0.002,3.3361 4e-5,1.29586 -0.004,2.59171 0.004,3.88755 0.003,1.05801 0.0115,2.11607 0.002,3.17407 -0.006,1.21288 -0.0272,2.42614 -0.11284,3.63644 -0.0961,1.1163 -0.25845,2.21483 -0.54343,3.3001 -0.0126,0.74643 -0.0168,1.51086 -0.22703,2.23268 -0.231,0.7802 -0.60983,1.51133 -0.69113,2.33367 -0.25748,1.00037 -0.66039,1.9528 -0.92144,2.95175 -0.45225,1.41612 -0.79411,2.87803 -1.48666,4.20341 -0.537,0.97287 -1.04882,1.93813 -1.80176,2.76831 -0.15518,0.1711 -0.35279,0.30069 -0.50541,0.47408 -0.15277,0.17356 -0.27105,0.37468 -0.40658,0.56203 -0.93958,1.00969 -2.0323,1.87141 -2.8424,3.00646 -0.7876,0.75249 -1.51633,1.55548 -2.39315,2.21502 -0.74734,0.89079 -1.62279,1.63992 -2.41942,2.48343 -0.62755,0.79127 -1.31213,1.52191 -2.02082,2.23616 -1.03136,0.96877 -1.97967,2.01556 -3.06945,2.91913 -2.40437,1.92675 -5.09118,3.5374 -7.95056,4.68485 -1.31452,0.48171 -2.66198,0.76789 -4.05798,0.88775 -1.19438,0.19879 -2.37614,0.45123 -3.5908,0.23005 -1.12525,-0.16313 -2.21901,-0.44203 -3.25662,-0.91914 -1.08361,-0.44652 -2.01628,-1.10259 -2.89278,-1.87733 -1.0517,-0.78637 -2.1221,-1.54591 -3.11882,-2.40299 -1.28206,-0.95855 -2.5019,-1.98534 -3.41843,-3.31975 -1.1177,-1.37115 -2.09531,-2.83831 -3.18868,-4.22689 -0.84304,-1.18414 -1.72115,-2.35601 -2.38145,-3.65542 -0.67487,-1.24542 -1.15424,-2.6192 -1.49235,-3.99045 -0.23582,-1.6687 -0.60991,-3.31064 -1.13295,-4.91404 -0.34618,-1.59933 -0.71166,-3.22852 -0.64883,-4.87384 0.0635,-1.66361 0.17455,-3.32531 0.41789,-4.97367 0.24106,-1.88697 0.23685,-3.77537 0.28229,-5.67582 0.0883,-1.65205 0.17129,-3.31731 0.7096,-4.89775 0.37464,-1.30082 0.5612,-2.6457 0.74562,-3.9838 0.42951,-1.54486 1.11033,-2.94109 2.04822,-4.24853 1.24786,-1.72875 2.57661,-3.3872 4.04108,-4.93981 1.32593,-1.56742 2.64777,-3.11991 4.11322,-4.55834 1.19844,-1.18423 2.50426,-2.25073 3.61875,-3.51845 0.5915,-0.87958 1.20515,-1.79526 1.97825,-2.51318 0.87221,-0.5814 1.44361,-1.56058 2.32352,-2.16255 2.23723,-1.48179 4.50314,-2.89562 7.06226,-3.7016 1.05052,-0.36132 2.08096,-0.79932 3.18423,-0.98229 1.15638,-0.17955 2.29486,-0.4901 3.46737,-0.5393 1.3938,-0.1072 2.78366,-0.26838 4.15834,-0.52638 0,0 -3.63881,2.73668 -3.63881,2.73668 z"
     id="path3025"
     style="fill:#000000;stroke:#000000" />
  <path
     d="m 182.42487,160.67083 c -1.50417,0.85463 -3.00767,1.71042 -4.5125,2.56388 -0.24288,0.13775 -0.48382,0.27914 -0.73061,0.40975 -3.23198,1.71045 4.59131,-2.90018 1.67597,-0.94178 -0.2169,0.14571 -0.43321,0.29229 -0.64982,0.43843 -1.50286,0.87073 -3.00518,1.74241 -4.5086,2.61221 -1.9935,1.15333 0.48085,-0.33872 2.67018,-1.49161 1.18368,-0.62332 -1.03546,0.79359 -1.31192,0.99582 -0.85566,0.61383 -1.62201,1.35505 -2.19133,2.24182 -0.69472,1.00987 -1.22397,2.08274 -1.71173,3.2017 -0.51729,0.86661 -1.06169,1.68811 -1.36385,2.65806 -0.20624,1.1013 -0.22193,2.217 -0.40379,3.32422 -0.24473,1.42172 -0.65102,2.80656 -0.89476,4.22961 -0.20398,1.44127 -0.22865,2.89953 -0.23851,4.35266 0.0945,1.29876 -0.17809,2.56321 -0.37869,3.83684 -0.28228,1.28296 -0.0508,2.55434 0.11691,3.83223 0.16874,1.06919 0.42461,2.14556 0.77868,3.17052 0.35812,1.12228 0.63482,2.23578 1.16687,3.29317 0.48543,0.84755 0.71662,1.76755 1.31532,2.54885 0.38522,0.68138 0.76495,1.26926 1.30434,1.82756 0.48441,0.49078 1.12734,0.75557 1.68606,1.16712 0.64928,0.30793 1.39798,0.28598 2.10172,0.30913 0.9687,-0.0253 1.88743,-0.007 2.82433,0.23958 1.14998,0.0719 2.23255,-0.22263 3.31129,-0.58342 1.84784,-0.55242 6.34473,-3.21341 -0.78986,0.82303 0.93791,-0.52683 1.53926,-1.37456 2.07122,-2.28056 0.66431,-0.91517 1.07933,-1.90378 1.30818,-3.00426 0.2213,-1.15364 0.7285,-2.21515 1.08401,-3.32804 0.30027,-0.92368 0.83382,-1.73874 1.2752,-2.59694 0.23694,-0.65833 0.56623,-1.28078 0.79712,-1.94071 0.23851,-0.94257 0.57729,-1.84339 0.75423,-2.80223 0.16305,-1.07093 0.18645,-2.15532 0.20274,-3.23632 -0.0613,-1.32546 0.0446,-2.61174 0.3602,-3.89905 0.39286,-1.20566 0.67836,-2.43391 0.84285,-3.69035 0.0911,-0.85435 0.24089,-1.66259 -0.20513,-2.42756 -0.49286,-0.79454 -0.75884,-1.69617 -1.0657,-2.57218 -0.40444,-0.99854 -0.92578,-1.9476 -1.60824,-2.78174 -0.49225,-0.73765 -0.80843,-1.58173 -1.1723,-2.39139 -0.36749,-0.60849 -0.8384,-1.10894 -1.3647,-1.5818 -0.49846,-0.60908 -1.00744,-1.2018 -1.50384,-1.81452 -0.41236,-0.51199 -0.93121,-0.91991 -1.4891,-1.26639 -0.64523,-0.50811 -1.37818,-0.87622 -2.05767,-1.33205 -0.89939,-0.50497 -1.80257,-0.97502 -2.81035,-1.22218 -0.96076,-0.20877 -1.85614,-0.61181 -2.8269,-0.79949 -1.0143,-0.25113 -1.88185,0.13875 -2.80602,0.50196 -1.73549,0.53986 -5.65169,2.88899 1.0975,-0.83483 -1.46561,1.18124 -2.61838,2.67122 -3.77937,4.13706 0,0 -4.07704,1.74592 -4.07704,1.74592 l 0,0 c 1.13721,-1.45668 2.23104,-2.9738 3.65106,-4.1751 2.28864,-1.42074 4.19362,-2.86333 6.68462,-3.67725 0.97884,-0.36562 1.93599,-0.5743 2.97242,-0.29661 0.95784,0.23099 1.86421,0.61896 2.82711,0.82795 1.02595,0.30593 1.97896,0.78647 2.89886,1.33056 0.6995,0.43085 1.40317,0.84889 2.07407,1.32487 0.57548,0.39374 1.12525,0.84049 1.55305,1.39477 0.47927,0.59498 0.9833,1.16583 1.46841,1.7543 0.56568,0.52065 1.07586,1.07321 1.46223,1.74375 0.34144,0.77759 0.6462,1.58427 1.1061,2.29522 0.69361,0.88947 1.24896,1.87299 1.68113,2.91557 0.30069,0.84767 0.55847,1.72268 1.03144,2.49427 0.55791,0.9691 0.4576,1.61251 0.33513,2.69236 -0.14849,1.2773 -0.41055,2.53639 -0.83607,3.75235 -0.33907,1.25093 -0.47342,2.49607 -0.3927,3.79325 -0.008,1.10152 -0.025,2.20444 -0.17006,3.29838 -0.14788,0.98256 -0.46202,1.89759 -0.71597,2.84644 -0.17873,0.71055 -0.57053,1.30995 -0.76004,2.01745 -0.43889,0.84778 -0.95031,1.65288 -1.32133,2.53281 -0.34587,1.10599 -0.83737,2.15304 -1.10416,3.2819 -0.2135,1.1326 -0.50913,2.22065 -1.25548,3.13343 -0.48191,0.93894 -1.0549,1.91151 -1.97304,2.47915 -2.3128,1.34619 -4.47508,2.82738 -7.03449,3.60703 -1.13277,0.33534 -2.29139,0.61126 -3.47794,0.40078 -0.9157,-0.19941 -1.84121,-0.13349 -2.77346,-0.16817 -0.78125,-0.0425 -1.59638,-0.0698 -2.26688,-0.52291 -0.57118,-0.42039 -1.25171,-0.68535 -1.71672,-1.23495 -0.56328,-0.56807 -0.9321,-1.19196 -1.3299,-1.88265 -0.59687,-0.81622 -0.88508,-1.73527 -1.34338,-2.62673 -0.53362,-1.07696 -0.85779,-2.19086 -1.20172,-3.33735 -0.38005,-1.0471 -0.62932,-2.16664 -0.81192,-3.26148 -0.17032,-1.31328 -0.44802,-2.6237 -0.17649,-3.9453 0.1873,-1.25851 0.50485,-2.49998 0.41317,-3.78254 0.0219,-1.47214 0.0188,-2.94899 0.20807,-4.41195 0.21106,-1.43014 0.63224,-2.81152 0.89478,-4.23044 0.17636,-1.11937 0.24069,-2.23141 0.35917,-3.35702 0.24379,-1.01738 0.72171,-1.89536 1.34437,-2.73308 0.54112,-1.09425 0.91534,-2.26241 1.69864,-3.23054 0.46521,-0.97828 1.26399,-1.7623 2.11147,-2.42173 1.89868,-1.39857 3.51282,-2.32869 5.75062,-3.66284 0.85865,-0.51192 5.22335,-2.87053 -2.58618,1.51844 1.98514,-1.30321 3.67348,-2.2917 5.91642,-3.57094 0.2566,-0.14635 0.52502,-0.271 0.78549,-0.41036 0.25079,-0.13418 0.99255,-0.55581 0.7482,-0.41022 -1.08495,0.6464 -2.18025,1.27527 -3.27038,1.91291 0,0 4.24969,-1.63951 4.24969,-1.63951 z"
     id="path3027"
     style="fill:#000000;stroke:#000000" />
  <path
     d="m 222.79929,138.43281 c -0.15622,3.29897 -0.35422,6.60154 -0.61118,9.8952 -0.29245,4.08438 -0.61652,8.16398 -0.97301,12.24326 -0.1813,3.15646 -0.66042,6.28415 -1.24868,9.3873 -0.60762,2.927 -0.89138,5.90145 -1.04693,8.8822 -0.18984,2.38529 -0.47706,4.75803 -0.99102,7.09582 -0.72959,2.18886 -1.24612,4.41324 -1.50926,6.70338 -0.14994,2.71828 -0.28087,5.43103 -0.52207,8.14368 -0.11281,1.85548 -0.55654,3.66461 -0.78439,5.50616 -0.12201,1.48636 -0.47501,2.93825 -0.67062,4.41541 -0.0717,1.41015 -0.35911,2.79089 -0.57268,4.18304 -0.0644,1.13627 -0.51724,2.15186 -0.99216,3.16321 -0.19892,0.45775 -0.32498,0.9411 -0.47972,1.41436 0,0 -4.1799,1.89592 -4.1799,1.89592 l 0,0 c 0.29384,-0.41679 0.32208,-0.95922 0.51939,-1.41867 0.43784,-0.99442 1.01991,-1.93767 1.06197,-3.05924 0.2184,-1.38872 0.51912,-2.7641 0.57871,-4.17235 0.18261,-1.48232 0.54656,-2.93248 0.68493,-4.41853 0.2146,-1.84996 0.67001,-3.65672 0.82513,-5.51296 0.26232,-2.7138 0.42212,-5.42443 0.51929,-8.14877 0.22367,-2.30764 0.70223,-4.55575 1.47548,-6.74666 0.55174,-2.31236 0.82108,-4.67142 1.04304,-7.03605 0.16949,-3.00015 0.43692,-5.99614 1.03816,-8.94545 0.60408,-3.09214 1.08328,-6.21477 1.29597,-9.36015 0.36445,-4.08056 0.73675,-8.15753 0.99065,-12.24719 0.25652,-3.25802 0.44316,-6.53325 0.49833,-9.79905 0,0 4.05057,-2.06387 4.05057,-2.06387 z"
     id="path3029"
     style="fill:#000000;stroke:#000000" />
  <path
     d="m 219.69921,141.46974 c 2.4503,-1.5471 4.81625,-3.31869 7.603,-4.20106 1.58609,-0.28267 3.16304,-0.58338 4.76586,-0.76615 1.69527,-0.18521 3.40084,-0.21125 5.10421,-0.23101 1.49402,0.0302 2.99907,-0.10882 4.48275,0.0929 1.76804,0.20408 3.51133,0.54481 5.26819,0.82189 1.8664,0.24374 3.70344,0.66604 5.53524,1.09105 1.81049,0.51829 3.62028,1.03141 5.31189,1.86989 1.53463,0.6386 2.82587,1.59214 3.88281,2.86498 0.92424,1.20547 1.6685,2.55019 2.27314,3.94117 0.86489,1.70976 1.50203,3.47803 1.86867,5.35691 0.32243,1.83813 0.345,3.70508 0.36545,5.5651 -0.0283,2.27797 -0.27621,4.56035 -0.56122,6.82054 -0.32271,2.43195 -0.80257,4.85751 -1.59765,7.18057 -0.72679,2.14503 -1.58312,4.22558 -2.55893,6.26792 -0.95939,2.47848 -1.95677,4.93336 -3.06164,7.35108 -0.80285,1.69398 -1.61445,3.37401 -2.62533,4.95368 -1.1054,1.49695 -1.78618,3.21573 -2.59481,4.87386 -0.63452,1.7303 -1.66864,3.23558 -2.66848,4.76481 -0.92273,1.34177 -2.01587,2.54398 -3.13242,3.72382 -1.00706,0.99584 -2.19811,1.77658 -3.29969,2.66254 -0.93857,0.62946 -1.82111,1.32001 -2.6918,2.03809 -1.96989,1.62654 -4.33666,2.67471 -6.53852,3.95464 -1.38906,0.6268 -2.85529,1.00331 -4.328,1.37875 -1.89073,0.59504 -3.84085,0.95621 -5.77594,1.37174 -1.61519,0.47144 -3.21386,1.00268 -4.83791,1.44339 -1.06884,0.31684 -2.17886,0.42711 -3.28814,0.46587 -0.99673,0.11972 -1.93445,-0.10639 -2.89654,-0.3301 -0.92421,-0.35745 -1.84308,-0.68453 -2.73575,-1.10937 -1.44817,-1.06291 -2.71306,-2.2903 -3.82994,-3.69262 0,0 3.8682,-2.30918 3.8682,-2.30918 l 0,0 c 1.06914,1.35988 2.30729,2.54336 3.76314,3.49015 0.86377,0.41168 1.76954,0.72204 2.67503,1.02964 0.93688,0.21035 1.86339,0.32892 2.82557,0.22806 1.0848,-0.0674 2.1622,-0.2129 3.20542,-0.53112 1.61402,-0.46536 3.21453,-0.97609 4.83775,-1.41036 1.93182,-0.4285 3.88027,-0.78732 5.76899,-1.38941 1.46366,-0.39124 2.93261,-0.78451 4.28094,-1.49563 1.39853,-0.79791 3.91799,-2.20884 -2.40682,1.4277 -0.90011,0.51753 2.14252,-1.18358 1.19416,-0.82072 0.87269,-0.72735 1.71688,-1.47397 2.7054,-2.04957 1.09416,-0.88946 2.25697,-1.69108 3.3182,-2.61459 1.15613,-1.12917 2.21109,-2.35876 3.1865,-3.647 0.97879,-1.52848 2.10087,-2.97785 2.69057,-4.71965 0.84282,-1.64993 1.45659,-3.41087 2.56781,-4.91561 1.01792,-1.57336 1.88535,-3.21335 2.6856,-4.91141 1.11823,-2.41324 2.1674,-4.847 3.05809,-7.35518 0.95955,-2.03806 1.86412,-4.08638 2.57731,-6.22657 0.84381,-2.27999 1.30426,-4.69453 1.64441,-7.09699 0.2964,-2.23491 0.51394,-4.49918 0.56254,-6.75167 -0.0155,-1.83517 -0.0384,-3.67796 -0.32462,-5.49517 -0.34766,-1.85114 -0.96648,-3.5868 -1.83674,-5.26034 -0.58973,-1.34992 -1.31246,-2.6584 -2.21332,-3.82671 -1.02652,-1.22009 -2.29904,-2.08781 -3.76901,-2.71024 -1.6793,-0.7931 -3.4623,-1.3048 -5.25162,-1.78941 -1.82336,-0.42406 -3.65717,-0.81544 -5.51321,-1.06825 -1.75668,-0.2855 -3.50721,-0.59657 -5.27777,-0.78936 -1.47537,-0.13011 -2.96136,-0.0327 -4.44104,-0.0533 -1.69172,0.0232 -3.38555,0.0667 -5.06759,0.26437 -1.58859,0.20287 -3.17134,0.4853 -4.72874,0.85461 -1.5786,0.56746 -3.95507,2.0639 1.95407,-1.35816 0.41675,-0.24135 -0.79871,0.53839 -1.19346,0.81426 -0.17057,0.11921 -0.35638,0.21496 -0.53458,0.32244 0,0 -4.24968,1.63951 -4.24968,1.63951 z"
     id="path3031"
     style="fill:#000000;stroke:#000000" />
  <path
     d="m 230.68407,154.85945 c -0.17749,3.30663 -0.81974,6.58935 -1.37784,9.85223 -0.51594,3.87895 -1.23773,7.72234 -1.88101,11.58077 -0.59558,2.99954 -1.29483,5.97013 -1.70173,9.00385 -0.13002,1.9976 -0.45676,3.97042 -0.70451,5.95466 -0.13295,1.4722 -0.50755,2.90511 -0.71354,4.36746 -0.12718,0.96323 -0.17411,1.93405 -0.18714,2.90475 0.11329,1.88795 -3.92423,4.76022 -4.57485,2.4023 0,0 4.01221,-2.16962 4.01221,-2.16962 l 0,0 c 0.3872,1.80594 0.18294,0.35265 -3.86088,2.64441 -0.0721,0.0409 0.13704,-0.0829 0.25931,-0.42865 0.0442,-0.12493 0.0659,-0.25671 0.0988,-0.38506 0.0178,-0.99049 0.0458,-1.98202 0.18579,-2.96452 0.19113,-1.46874 0.57445,-2.89984 0.73175,-4.37125 0.24944,-1.99364 0.60723,-3.97109 0.74319,-5.9779 0.40423,-3.04647 1.10509,-6.02964 1.73147,-9.03533 0.65578,-3.86307 1.41431,-7.70662 1.9093,-11.59586 0.5485,-3.21224 1.17886,-6.46062 1.27909,-9.71837 0,0 4.05057,-2.06387 4.05057,-2.06387 z"
     id="path3033"
     style="fill:#000000;stroke:#000000" />
  <path
     d="m 234.35176,150.16774 c 1.85686,0.33437 3.72575,-0.12814 5.56136,-0.41118 1.45573,-0.24271 2.92905,-0.29882 4.40104,-0.33773 1.39756,-0.12202 2.74127,0.0561 4.10726,0.31546 1.09279,0.38263 2.00218,1.12346 2.91138,1.81914 0.7455,0.66302 1.5513,1.29989 2.2052,2.05925 0.59847,0.85362 0.95135,1.80828 1.30493,2.77647 0.44484,1.15137 0.63387,2.36584 0.7329,3.58878 0.0881,1.6061 0.069,3.21599 0.0713,4.82393 -0.14125,1.72563 -0.59159,3.44213 -1.24516,5.04399 -0.55824,1.43047 -1.38832,2.71631 -2.34173,3.91046 -0.98018,1.30834 -1.86844,2.68573 -2.75717,4.05777 -0.81145,1.44205 -1.61101,2.89774 -2.53706,4.2703 -0.7992,1.23553 -1.70924,2.38305 -2.42717,3.66885 -0.70907,1.17054 -1.49049,2.29555 -2.19311,3.46944 -0.72026,1.14468 -1.38688,2.30988 -1.97184,3.5288 -0.66958,1.24971 -1.33168,2.49919 -2.14216,3.66463 -0.79911,1.04483 -1.64339,2.0237 -2.74739,2.75001 -2.60484,1.71492 -5.33887,3.1586 -8.15072,4.46928 -1.1367,0.49484 -2.32533,0.83584 -3.51008,1.18228 -1.15155,0.36925 -1.94901,0.54021 -2.88158,-0.3543 -0.60745,-0.87746 -1.29513,-1.64726 -2.09752,-2.34772 -0.84984,-0.77575 -1.75575,-1.48989 -2.64698,-2.21781 0,0 3.81549,-2.39086 3.81549,-2.39086 l 0,0 c 0.89888,0.73622 1.8242,1.44119 2.69683,2.20829 0.78918,0.71219 1.47019,1.49086 2.10606,2.34238 0.79695,0.63315 1.71851,0.24953 2.60139,-0.0198 1.16211,-0.38122 2.35665,-0.66619 3.45766,-1.21659 0.73022,-0.33235 1.45371,-0.65797 2.15609,-1.04719 0.24648,-0.13659 0.97734,-0.56155 0.73431,-0.41889 -3.74242,2.19684 -4.1206,2.44104 -2.51637,1.44191 1.1708,-0.61818 2.00381,-1.55832 2.82073,-2.58362 0.86878,-1.10842 1.47963,-2.36476 2.1691,-3.58603 0.60295,-1.21859 1.20318,-2.42978 1.96747,-3.56054 0.66047,-1.19878 1.46659,-2.30914 2.1994,-3.46328 0.71001,-1.30894 1.58021,-2.47991 2.41321,-3.71462 0.96527,-1.34375 1.76889,-2.80325 2.5484,-4.25972 0.89697,-1.37378 1.78579,-2.75377 2.72499,-4.09842 0.97174,-1.15113 1.84453,-2.38931 2.40375,-3.79897 0.69727,-1.53555 1.11871,-3.20914 1.32743,-4.87973 0.002,-1.59451 0.008,-3.1904 -0.0738,-4.78331 -0.0877,-1.18151 -0.24645,-2.36089 -0.68119,-3.47226 -0.34729,-0.91045 -0.64928,-1.82859 -1.22987,-2.63005 -0.64577,-0.72579 -1.41615,-1.34984 -2.1459,-1.98621 -0.86718,-0.64709 -1.72723,-1.36454 -2.79412,-1.64571 -1.34236,-0.25086 -2.67693,-0.34145 -4.0441,-0.24143 -1.45673,0.0416 -2.91169,0.13735 -4.35202,0.37028 -1.87684,0.27723 -3.76833,0.6722 -5.66561,0.32362 0,0 3.71494,-2.61934 3.71494,-2.61934 z"
     id="path3035"
     style="fill:#000000;stroke:#000000" />
  <path
     d="m 280.62105,140.40401 c -0.58369,3.1723 -0.90473,6.37745 -1.12435,9.59282 -0.11752,3.3348 -0.62188,6.64575 -1.17182,9.93303 -0.49964,2.52054 -0.78863,5.06963 -0.93225,7.63285 -0.14163,2.69193 -0.36475,5.38586 -0.65204,8.06683 -0.34482,2.88 -0.86623,5.7303 -1.14821,8.61881 -0.25544,2.33674 -0.90329,4.60034 -1.2544,6.92256 -0.0992,2.10755 -0.57639,4.14887 -0.99211,6.2081 -0.25498,1.85995 -0.57311,3.69018 -1.14514,5.47971 -0.30474,1.16922 -0.69557,2.29631 -1.26847,3.3605 -0.46397,0.73184 -0.66682,1.54388 -0.76766,2.39292 -0.0325,0.66805 -0.5064,1.28008 -0.424,1.94931 0.44647,0.46928 1.15873,0.66873 1.70824,1.02844 0.81219,0.35439 1.56226,0.84245 2.38015,1.18106 0.82575,0.5745 1.8042,0.79472 2.78443,0.9245 1.2685,0.16562 2.5076,0.4784 3.7848,0.61384 1.86775,0.2007 3.69844,-0.30441 5.5185,-0.64778 1.59038,-0.4739 3.19656,-0.85646 4.84487,-1.05149 1.11688,-0.11492 2.23944,-0.13536 3.36118,-0.13914 0.94905,1.5e-4 1.89809,0.006 2.84713,0.0103 1.25413,0.097 2.472,-0.14428 3.70793,-0.313 1.82002,-0.40927 3.64674,-0.74627 5.43953,-1.27069 1.47639,-0.45532 2.97911,-0.79069 4.51181,-0.9762 0.96913,0.0236 1.86194,-0.16937 2.78737,-0.42447 0.79311,-0.40638 1.63142,-0.71022 2.51027,-0.85856 1.38053,-0.75571 3.43556,-1.85169 -3.0061,1.72009 -0.43868,0.24324 0.4698,-0.36634 0.69116,-0.59062 0.43275,-0.70553 0.6254,-1.54262 0.86642,-2.32835 0.52881,-1.78222 0.98346,-3.58344 1.44015,-5.38531 0.29834,-1.37792 1.18197,-2.71464 0.88369,-4.14755 -0.19538,-0.90595 -0.658,-1.66574 -1.22573,-2.38101 -0.63637,-0.62469 -1.35847,-1.00206 -2.20751,-1.23657 -0.90447,-0.14324 -1.84702,-0.25843 -2.74783,-0.0637 -1.15516,0.29732 -2.34034,0.41822 -3.5272,0.49503 -1.24328,0.33726 -2.52609,0.46266 -3.78462,0.71554 -1.97174,0.38107 -3.97619,0.50759 -5.96337,0.79162 -1.95707,0.14508 -3.8635,0.60214 -5.79585,0.91296 -1.22451,0.17424 -2.4617,0.25118 -3.69759,0.28086 -0.79573,0.0556 -1.50889,0.0252 -2.25811,-0.2405 -0.8925,-0.4329 -1.66986,-1.0412 -2.38931,-1.71947 -0.98848,-0.85905 -1.62345,-2.01936 -2.50373,-2.96958 -0.74302,-0.7683 -1.15837,-1.68752 -1.38716,-2.7148 -0.20022,-0.91308 -0.16656,-1.61881 0.46184,-2.33322 1.89383,-1.40133 3.9157,-2.77093 6.11117,-3.62216 0.70911,-0.3361 1.40159,-0.63648 2.18266,-0.77015 1.55851,-0.21915 3.77868,-1.84494 -2.76004,1.78549 -0.13232,0.0735 0.26014,-0.15478 0.38919,-0.23386 0.37313,-0.22862 0.34244,-0.21421 0.71715,-0.46757 2.16901,-1.39442 4.39635,-2.73652 6.71939,-3.85739 0.98022,-0.45773 2.07162,-0.61452 3.12433,-0.83829 1.73908,-0.3405 3.51693,-0.37754 5.28261,-0.42552 1.90685,-0.13861 3.73994,-0.68196 5.61834,-1.00097 1.51447,-0.24854 3.04826,-0.3095 4.57942,-0.35158 1.03576,0.0869 1.9888,-0.0876 2.97998,-0.35311 1.38735,-0.78008 3.72991,-1.98823 -2.61072,1.49129 -0.15747,0.0864 0.29311,-0.20783 0.43566,-0.31711 0.30161,-0.23124 0.48788,-0.40221 0.77601,-0.65369 0.68838,-0.68766 1.23431,-1.49937 1.63434,-2.38369 0.2774,-0.74941 0.43377,-1.57677 0.32094,-2.37334 -0.11037,-0.71895 -0.70719,-1.02494 -1.20519,-1.46553 -0.61665,-0.50648 -1.37184,-0.72291 -2.06208,-1.08343 -0.7964,-0.41492 -1.66837,-0.56546 -2.55045,-0.65594 -0.93319,-0.0641 -1.86947,-0.0557 -2.80431,-0.0553 -1.16918,0.004 -2.33838,0.004 -3.50756,2.9e-4 -1.80362,0.27149 -3.616,0.43668 -5.43599,0.54254 -1.72828,0.088 -3.4591,0.10816 -5.1893,0.12044 -1.08233,0.0398 -2.21244,-0.0309 -3.18225,-0.55128 -0.58735,-0.35592 -0.8329,-0.96552 -0.93854,-1.61322 -0.0563,-0.61482 -0.0326,-1.23314 -0.0274,-1.84954 0.028,-0.66262 -0.2702,-1.28299 -0.4361,-1.91561 -0.18199,-0.63956 -0.24426,-1.24183 0.0115,-1.86204 1.35573,-1.84147 3.73602,-2.80512 5.75489,-3.71935 0.81657,-0.54091 1.72821,-0.79421 2.68702,-0.91927 1.19346,-0.21224 2.40872,-0.42049 3.59661,-0.69404 1.92718,-0.47621 3.85157,-0.89871 5.82704,-1.12865 2.10378,-0.31742 4.20805,-0.69884 6.25038,-1.30274 1.69902,-0.52427 3.45631,-0.72626 5.22223,-0.84338 1.66911,-0.10175 3.35344,-0.32063 4.99261,-0.66231 0.26942,-0.0884 0.54214,-0.16719 0.80825,-0.26503 0.60807,-0.22358 2.30708,-1.18021 1.73296,-0.88003 -4.41891,2.31047 -3.20543,1.97179 -1.35404,0.13654 1.15908,-1.32756 2.19129,-2.79762 3.06018,-4.33358 0.34007,-0.6127 0.54829,-1.26467 0.62784,-1.95739 0.0891,-0.5334 -0.0206,-0.94294 -0.2427,-1.41838 -0.22703,-0.72795 -0.71781,-1.26854 -1.32084,-1.71246 -0.65451,-0.38713 -1.25863,-0.84464 -1.85729,-1.31425 -0.71904,-0.54105 -1.54469,-0.92511 -2.32716,-1.36906 -1.02782,-0.76934 -2.25962,-1.12455 -3.48354,-1.44593 -2.14905,-0.38831 -4.34641,-0.60274 -6.52862,-0.4733 -2.02029,0.0997 -3.99853,0.49887 -5.99528,0.78305 -1.96081,0.16514 -3.89834,0.45189 -5.84571,0.72366 -1.87225,0.21966 -3.74666,0.27259 -5.61206,0.54941 -1.5186,0.22063 -3.03586,0.33471 -4.53719,0.65252 -1.4995,0.2445 -3.00151,0.39175 -4.49858,0.64825 -1.81293,0.22438 -3.59815,0.60584 -5.40774,0.85862 -1.50154,0.24013 -2.89692,0.84753 -4.34953,1.26457 -1.50058,0.4747 -3.01066,0.67535 -4.57582,0.81791 0,0 3.59347,-2.66548 3.59347,-2.66548 l 0,0 c 1.56317,-0.16783 3.07562,-0.45789 4.57691,-0.92714 1.44167,-0.44896 2.86138,-0.98523 4.36629,-1.19314 1.80667,-0.26642 3.59665,-0.6308 5.40691,-0.87363 1.49636,-0.25826 3.01024,-0.36755 4.50016,-0.66652 1.50116,-0.29212 3.02681,-0.37687 4.53666,-0.61833 1.86503,-0.25153 3.74525,-0.28829 5.60958,-0.54849 1.94107,-0.28544 3.88424,-0.50498 5.83433,-0.71763 2.00137,-0.30698 3.99494,-0.66613 6.02379,-0.74543 2.2194,-0.0545 4.44963,0.13294 6.62724,0.57183 1.26125,0.34801 2.50063,0.74395 3.57084,1.52539 0.80028,0.45357 1.6531,0.83344 2.37387,1.41243 0.60977,0.45111 1.20375,0.92003 1.84721,1.32271 0.63336,0.50532 1.19996,1.09937 1.45247,1.88833 0.25126,0.53917 0.44719,1.01497 0.35311,1.62544 -0.0322,0.75409 -0.22625,1.47315 -0.57875,2.14373 -0.81561,1.60199 -1.96418,3.05039 -3.05222,4.47069 -2.44268,2.53597 -5.55195,4.48607 -8.93895,5.45555 -1.65947,0.29854 -3.3397,0.53544 -5.02438,0.61856 -1.7488,0.13617 -3.48124,0.38903 -5.16192,0.91121 -2.06477,0.54331 -4.16389,0.95112 -6.27921,1.24078 -1.97206,0.26221 -3.89336,0.71922 -5.82643,1.17915 -1.20622,0.2477 -2.41283,0.50922 -3.63018,0.68993 -0.93534,0.18583 -1.78995,0.54612 -2.61373,1.02817 -1.50917,0.77667 -1.09803,0.57345 3.13476,-1.85885 0.58222,-0.33456 -1.73042,0.96634 -1.15741,0.87611 -0.38983,0.48808 -0.31011,0.95979 -0.16234,1.54756 0.16299,0.67332 0.48533,1.32515 0.49256,2.01973 -0.009,0.59579 -0.0222,1.19235 0.002,1.78789 0.0522,0.51832 0.19225,0.98079 0.69434,1.23139 0.96731,0.39473 2.00898,0.43536 3.04227,0.39895 1.71735,-0.007 3.43541,-0.0242 5.1504,-0.12319 1.83217,-0.11843 3.64867,-0.35199 5.47397,-0.53661 1.17526,-0.006 2.35052,-0.0115 3.52579,-0.0126 0.94784,0.001 1.89875,-0.007 2.84237,0.0955 0.91637,0.12858 1.8098,0.34771 2.63534,0.78176 0.74736,0.33717 1.49472,0.65528 2.13802,1.18081 0.57176,0.5042 1.20766,0.9207 1.35253,1.73298 0.17977,0.85445 0.0395,1.77765 -0.2139,2.60687 -0.34699,0.95739 -0.91517,1.78962 -1.55812,2.57488 -1.84891,1.72328 -4.06047,3.09331 -6.43097,3.96648 -1.00217,0.23568 -1.99644,0.30036 -3.02665,0.26325 -1.51146,0.039 -3.02391,0.12764 -4.51584,0.38742 -1.8799,0.34163 -3.73095,0.86886 -5.65102,0.9444 -1.76,0.0576 -3.53188,0.12571 -5.2564,0.51394 -1.04096,0.24754 -2.11835,0.4 -3.06365,0.93339 -1.56421,0.83091 0.56439,-0.30215 -0.97786,0.52637 -0.15485,0.0832 -0.61749,0.33596 -0.46621,0.24644 6.13128,-3.62859 3.85071,-2.24994 2.50884,-1.43215 -1.85106,1.4241 -3.90222,2.92148 -6.21126,3.34935 -0.74437,0.20021 -1.423,0.54466 -2.13247,0.83991 -1.56778,0.73526 -0.64809,0.31729 3.14845,-1.88807 0.90225,-0.5241 -2.27276,1.55049 -1.46952,0.93948 -0.82555,0.71216 -0.82327,0.82319 -0.65526,1.92498 0.18189,0.96022 0.55703,1.80249 1.25256,2.51243 0.85249,0.95837 1.49303,2.09491 2.4852,2.93233 0.69236,0.61803 1.42198,1.20603 2.29741,1.54271 0.70726,0.19625 1.43589,0.12875 2.16364,0.11958 1.21529,-0.0405 2.43139,-0.11053 3.63284,-0.30872 1.92232,-0.32274 3.83203,-0.71476 5.77708,-0.88581 1.99377,-0.27566 4.00637,-0.4148 5.97864,-0.82969 1.27572,-0.22643 2.55001,-0.45836 3.82543,-0.68204 1.185,-0.0984 2.35514,-0.27713 3.51772,-0.52826 0.96,-0.0786 1.93705,-0.0212 2.87184,0.22335 0.90143,0.30497 1.69385,0.77642 2.35616,1.47079 0.59698,0.77522 1.09757,1.59003 1.31699,2.55805 0.0947,0.38043 0.22159,0.75274 0.17508,1.15527 -0.12711,1.10021 -0.80648,2.11969 -1.00358,3.20475 -0.45379,1.80097 -0.90866,3.60071 -1.39933,5.39065 -0.2504,0.82018 -0.45706,1.65567 -0.77511,2.4484 -0.15075,0.28477 -0.35474,0.55971 -0.63959,0.73285 -1.45359,0.88355 -3.09081,2.21323 -4.87236,2.71261 -0.85968,0.21612 -1.66176,0.57491 -2.49341,0.87471 -0.92998,0.23174 -1.85791,0.31926 -2.81421,0.37045 -1.5068,0.20077 -2.98042,0.57003 -4.43643,1.00412 -1.81165,0.49731 -3.65193,0.86048 -5.49239,1.23304 -1.25241,0.1792 -2.49619,0.36148 -3.76624,0.27643 -0.95013,-5.3e-4 -1.90026,-0.005 -2.85039,-0.003 -1.10478,0.01 -2.21107,0.0348 -3.30907,0.1695 -1.63077,0.22728 -3.21381,0.65003 -4.8073,1.05686 -1.85287,0.35354 -3.71971,0.79908 -5.61882,0.55289 -1.28016,-0.15532 -2.52886,-0.46959 -3.8092,-0.61771 -1.01174,-0.17379 -1.98432,-0.4705 -2.8629,-1.01875 -0.81477,-0.3878 -1.60936,-0.82199 -2.41152,-1.23367 -0.67402,-0.39049 -1.51787,-0.62842 -1.91702,-1.34544 -0.17428,-0.73756 0.16378,-1.36552 0.38093,-2.07278 0.0694,-0.89182 0.21338,-1.78799 0.69702,-2.56017 0.57133,-1.05079 1.0661,-2.11463 1.32426,-3.29601 0.59187,-1.77769 0.98952,-3.58022 1.19949,-5.44585 0.3994,-2.05399 0.91939,-4.08145 0.99456,-6.18415 0.3299,-2.32894 1.00141,-4.58413 1.29382,-6.91732 0.27419,-2.89347 0.79545,-5.7461 1.15489,-8.62785 0.28949,-2.66889 0.49287,-5.35377 0.6386,-8.03316 0.13168,-2.58552 0.41694,-5.15633 0.93862,-7.69517 0.59019,-3.27094 1.06673,-6.5813 1.21654,-9.90351 0.21471,-3.18207 0.49148,-6.36328 1.02758,-9.50987 0,0 4.05057,-2.06387 4.05057,-2.06387 z"
     id="path3037"
     style="fill:#000000;stroke:#000000" />
  <path
     d="m 28.161891,24.593636 c 1.682658,-0.28074 3.405872,-0.232252 5.077828,-0.561657 1.392196,-0.299182 2.79247,-0.511206 4.188564,-0.787638 1.968296,-0.374838 3.9145,-0.950357 5.786404,-1.666747 1.995987,-0.726677 3.906144,-1.637022 5.929307,-2.286901 1.194039,-0.534634 2.41593,-0.929704 3.71634,-1.067618 1.399799,-0.09997 2.804707,-0.06376 4.206747,-0.05324 2.346089,-0.115661 4.625418,-0.654516 6.905898,-1.170591 2.035741,-0.393333 4.021803,-0.974916 6.076519,-1.275269 2.2924,-0.08281 4.598922,0.228254 6.895136,0.346531 3.056197,0.213501 6.099737,-0.292072 9.153707,-0.243512 2.990191,0.26983 5.96373,0.665042 8.964848,0.857935 3.098568,0.128208 6.192211,0.120901 9.257751,0.631121 3.12639,0.563834 6.30119,0.723467 9.46994,0.82817 2.82538,-0.04502 5.62757,0.149054 8.43885,0.391984 2.95299,0.480835 5.93257,0.726522 8.91845,0.871547 2.79537,-0.208832 5.58947,-0.0965 8.38714,-0.0098 1.97178,0.06267 3.93779,0.517937 5.91229,0.518794 0.65671,2.85e-4 2.09936,-0.197226 2.74906,-0.277082 2.45477,-0.287163 4.91611,-0.726592 7.39381,-0.621307 2.22526,0.14231 4.406,0.604273 6.62148,0.847623 2.70655,0.251155 5.42645,0.280464 8.14245,0.302851 2.67564,-0.08453 5.31902,0.339639 7.99248,0.346599 3.30394,-0.166418 6.59563,-0.125605 9.897,0.04704 3.49975,0.299289 6.97299,0.597328 10.48911,0.56525 3.68172,-0.08639 7.36232,-0.194757 11.04506,-0.227276 3.82363,-0.225479 7.64695,-0.449006 11.47435,-0.601302 3.11641,-0.111642 6.23535,-0.109679 9.35331,-0.11941 2.85557,0.0215 5.69945,-0.318145 8.54617,-0.512207 2.45489,-0.147945 4.91505,-0.144048 7.37329,-0.149771 2.91135,-0.171487 5.81294,-0.404832 8.70647,-0.764161 2.92257,-0.367129 5.86915,-0.455939 8.81111,-0.504963 3.41079,0.05837 6.80903,-0.247604 10.2105,-0.449695 3.36427,-0.321917 6.72394,0.114205 10.0895,0.09534 3.32259,-0.0685 6.62008,-0.543156 9.93374,-0.777575 3.13588,-0.201568 6.26201,0.235634 9.40028,0.184784 2.96751,-0.09224 5.93079,-0.279902 8.89886,-0.354571 3.07749,0.21601 6.15439,0.408258 9.23813,0.509946 2.98946,0.215676 5.96349,-0.127645 8.94205,-0.32533 3.20721,0.07223 6.41072,0.247792 9.61795,0.330147 2.63611,0.126628 5.2842,-0.05405 7.91334,0.178487 2.65441,0.298067 5.32165,0.428011 7.99034,0.501759 2.36524,0.05916 4.73124,0.05845 7.097,0.04769 1.53377,-0.0095 3.06756,-0.01677 4.60136,-0.02029 1.36527,-0.03985 2.73865,0.09604 4.09134,-0.109817 1.49819,0.02323 2.95911,0.0756 4.43798,-0.169724 1.11814,-0.209287 2.17153,-0.406909 3.27898,-0.09546 0.87869,0.09522 1.64815,0.729744 2.53565,0.674275 0.83774,0.367982 1.01353,0.126612 1.76506,-0.09952 0.704,-0.149215 1.4204,-0.183931 2.13693,-0.214896 0.2461,-0.141193 0.97389,0.176508 1.1783,-0.0167 0.26272,-0.248322 -0.193,-0.286584 0.20642,-0.201883 0.14772,0.369022 0.34276,0.722464 0.44315,1.107067 0.0269,0.102925 -0.21742,0.06617 -0.28081,0.1516 -0.16792,0.226323 -0.17283,0.593219 -0.20942,0.856757 0.16679,1.227967 0.31724,2.465886 0.47964,3.698522 0.27957,2.717714 0.69007,5.414274 1.16556,8.103655 0.55729,3.144264 0.60735,6.341166 0.84662,9.516216 0.30514,3.283385 0.80531,6.536234 1.02033,9.829352 0.20411,4.237099 -0.38462,8.467482 -0.69502,12.689355 -0.26692,3.858292 -0.3282,7.725852 -0.37592,11.591703 0.10425,4.357236 -0.1994,8.695992 -0.59365,13.030991 -0.51968,4.576048 -1.11637,9.144259 -1.86892,13.688026 -0.74488,4.65907 -1.21619,9.35378 -1.85096,14.02899 -0.55793,4.8035 -1.26455,9.58781 -1.952,14.37397 -0.7123,3.88766 -1.15069,7.8147 -1.71698,11.72401 -0.5822,4.11261 -1.20363,8.21492 -1.5682,12.35382 -0.22395,4.12657 -0.37254,8.25503 -0.60598,12.38167 -0.22628,4.03517 -0.30493,8.07651 -0.36113,12.117 -0.0199,4.34232 -7.7e-4,8.68462 -0.024,13.02693 -0.21015,4.46675 0.31012,8.89676 0.85979,13.31933 0.45423,4.35064 0.87445,8.70321 1.33803,13.05308 0.60105,3.60747 1.13466,7.21117 1.44973,10.85658 0.16617,3.14726 0.36498,6.28468 0.66508,9.42192 0.42936,2.77302 0.71239,5.56189 0.86932,8.36277 0.12552,2.61772 0.16949,5.23847 0.16943,7.85894 0.002,2.94103 -0.0265,5.88195 -0.0419,8.82293 0.002,2.97939 0.0218,5.95874 0.0272,8.93815 0.002,3.00627 0.0273,6.01148 -0.10767,9.01527 -0.22802,3.43188 -0.39542,6.8663 -0.48568,10.30449 -0.0614,3.41577 -0.39169,6.82102 -0.74764,10.21669 -0.37138,2.87479 -0.39397,5.77725 -0.64285,8.66075 -0.30103,2.5183 -0.46461,5.04727 -0.55969,7.58065 -0.0583,1.84532 -0.0394,3.69163 -0.0482,5.53749 -0.099,1.73739 0.17615,3.45151 0.37276,5.17114 0.20623,1.79883 0.23733,3.61092 0.27299,5.41928 0.0264,1.50084 0.0299,3.00194 0.0316,4.50298 0.0358,1.1435 -0.0516,2.29357 0.0573,3.43316 0.20319,0.91189 0.40335,1.81848 0.52259,2.74557 0.0872,0.65401 0.10378,1.31475 0.10551,1.97371 0.013,0.59146 -0.004,1.18274 0.002,1.77425 -3.9e-4,0.639 -0.012,1.27783 -0.004,1.91683 0.002,0.62009 -0.004,1.2402 -1.1e-4,1.86029 0.007,0.53377 -0.002,1.06753 0.005,1.60133 0.29651,3.02711 3.57928,-1.99412 -7.4981,4.47813 -0.0639,0.0373 -0.234,0.17922 -0.16909,0.14373 5.47776,-2.99473 9.55074,-5.34489 6.85475,-3.79065 -0.27663,0.65226 -0.16497,0.30569 -0.32241,1.04367 0,0 -7.57873,3.69698 -7.57873,3.69698 l 0,0 c 0.11881,-0.84035 0.0609,-0.41717 0.17356,-1.26954 0.59453,-3.36574 -0.0155,-0.71238 7.66903,-4.78022 0.0977,-0.0517 0.41657,0.006 0.32467,0.0669 -9.94539,6.64043 -7.28,7.12923 -7.02652,4.26952 0.008,-0.53563 -0.002,-1.07122 0.005,-1.60683 0.004,-0.62014 -0.002,-1.2403 -2e-5,-1.86044 0.008,-0.63882 -0.003,-1.27749 -9.2e-4,-1.91632 0.009,-0.59097 -0.004,-1.18181 0.008,-1.77276 -0.005,-0.6342 0.002,-1.26935 -0.0511,-1.90202 -0.0842,-0.92765 -0.26751,-1.83493 -0.48572,-2.74024 -0.19965,-1.17057 -0.0699,-2.36024 -0.0935,-3.54395 0.005,-1.50259 0.0141,-3.00521 0.007,-4.50781 -0.0173,-1.78461 -0.0537,-3.57137 -0.2349,-5.34824 -0.18915,-1.7468 -0.51959,-3.4844 -0.42703,-5.2489 -0.004,-1.86548 0.0328,-3.73083 0.0958,-5.59523 0.0932,-2.54789 0.2512,-5.09376 0.54875,-7.62685 0.28868,-2.89939 0.33905,-5.82116 0.72289,-8.71335 0.36688,-3.36873 0.67311,-6.74986 0.73543,-10.13946 0.11166,-3.4486 0.3009,-6.89343 0.52334,-10.3366 0.12548,-2.98008 0.019,-5.96327 0.0497,-8.94569 0.006,-2.98967 0.0268,-5.97925 0.0322,-8.9689 -0.0118,-2.92731 -0.0316,-5.85458 -0.0327,-8.78192 -0.0136,-2.61253 0.003,-5.22641 -0.11583,-7.83706 -0.1539,-2.78958 -0.40885,-5.56867 -0.87705,-8.32532 -0.27649,-3.1575 -0.44063,-6.31337 -0.56645,-9.48051 -0.29535,-3.64408 -0.8917,-7.23078 -1.45968,-10.83818 -0.39107,-4.35564 -0.76625,-8.71456 -1.27755,-13.05748 -0.58703,-4.45194 -1.0562,-8.92282 -0.88828,-13.42109 -0.0258,-4.3439 -0.015,-8.68784 0.018,-13.0317 0.0107,-4.04621 0.037,-8.0938 0.30213,-12.13321 0.2514,-4.12924 0.43678,-8.25606 0.57605,-12.38998 0.33557,-4.16545 1.05591,-8.27613 1.59807,-12.41677 0.51218,-3.92421 0.91537,-7.86191 1.72991,-11.74053 0.73891,-4.77667 1.4307,-9.55983 1.95696,-14.36543 0.64549,-4.68291 1.14902,-9.38145 1.84894,-14.05583 0.7728,-4.52031 1.325,-9.073773 1.88032,-13.625063 0.39472,-4.309147 0.70781,-8.62461 0.59566,-12.95617 0.0135,-3.880804 0.0367,-7.765652 0.34378,-11.63678 0.31977,-4.178764 0.94602,-8.37056 0.7104,-12.564644 -0.24113,-3.283187 -0.72002,-6.532648 -1.05012,-9.805784 -0.25437,-3.146736 -0.26187,-6.319621 -0.82777,-9.4361 -0.47112,-2.684151 -0.91791,-5.370242 -1.26167,-8.074026 -0.22171,-1.278119 -0.32475,-2.574609 -0.66376,-3.831816 0.0203,-0.453027 0.0177,-0.953375 0.10729,-1.398595 0.0145,-0.072 0.021,-0.256107 0.0755,-0.20696 0.28133,0.253368 0.46232,0.599695 0.69347,0.899543 -0.10052,0.187716 -1.1911,-0.08201 -1.4592,0.05412 -0.68866,0.05261 -1.37454,0.152971 -2.03687,0.354752 -0.67377,0.159823 -1.28645,-0.05654 -1.951,-0.17705 -0.85568,-0.247436 -1.68632,-0.581814 -2.5705,-0.725204 -1.02884,-0.119113 -2.04885,0.207253 -3.06965,0.298214 -1.479,0.161397 -2.96022,-2.46e-4 -4.44179,0.137656 -1.38372,0.08003 -2.7695,0.04305 -4.15508,0.05016 -1.51916,-7.89e-4 -3.03832,-0.0029 -4.55744,-0.01415 -2.35423,-0.01821 -4.70895,-0.0312 -7.06221,-0.105814 -2.67981,-0.106026 -5.35726,-0.249793 -8.02703,-0.512019 -2.60958,-0.13074 -5.22522,-0.08072 -7.83599,-0.194075 -3.19905,-0.110896 -6.40028,-0.296338 -9.60159,-0.241591 -2.97903,0.207984 -5.95523,0.435519 -8.94349,0.221304 -3.09107,-0.113083 -6.17705,-0.317972 -9.26763,-0.424406 -2.95382,0.09099 -5.90609,0.223352 -8.86022,0.302645 -3.12913,-0.02031 -6.25825,-0.372677 -9.38544,-0.125104 -3.31085,0.254799 -6.6139,0.686272 -9.93787,0.701047 -3.35739,-0.04618 -6.71502,-0.352289 -10.07065,-0.04516 -3.41166,0.19748 -6.82021,0.46342 -10.24041,0.434357 -2.93574,0.08115 -5.87338,0.20376 -8.78796,0.588542 -2.91374,0.341402 -5.84098,0.550457 -8.77098,0.693638 -2.45591,0.02113 -4.9131,0.05198 -7.36499,0.205717 -2.84192,0.180098 -5.6818,0.476949 -8.53262,0.437205 -3.10356,0.0051 -6.20746,0.024 -9.3097,0.123083 -3.82344,0.131714 -7.63992,0.375787 -11.46048,0.56635 -3.68068,0.06116 -7.3607,0.151951 -11.0413,0.216699 -3.54238,0.0033 -7.05201,-0.329104 -10.58418,-0.555493 -3.28727,-0.177085 -6.56489,-0.158699 -9.85481,-0.03501 -2.68432,-0.05323 -5.35618,-0.35853 -8.044,-0.310082 -2.73409,-0.04395 -5.47159,-0.106228 -8.19497,-0.369246 -2.20182,-0.261538 -4.38675,-0.689989 -6.60744,-0.760374 -2.44115,0.01459 -4.85884,0.388953 -7.2801,0.666971 -2.94511,0.265992 -5.77922,-0.117596 -8.71581,-0.338676 -2.79684,-0.06566 -5.58938,-0.09577 -8.3859,-0.01691 -3.00349,-0.169741 -5.99236,-0.468408 -8.97447,-0.86632 -2.78072,-0.243276 -5.56042,-0.371898 -8.35233,-0.404151 -3.20668,-0.13617 -6.41652,-0.303106 -9.583231,-0.863089 -3.034561,-0.42151 -6.085437,-0.487046 -9.143034,-0.624596 -3.01306,-0.197086 -6.00478,-0.593854 -9.017512,-0.759933 -3.043207,0.01414 -6.082196,0.39553 -9.127327,0.182455 -2.294893,-0.09762 -4.617071,-0.41359 -6.904131,-0.12895 -2.013184,0.345013 -3.982931,0.88567 -5.987375,1.275666 -2.32235,0.522552 -4.667927,0.9901 -7.055974,1.052316 -1.39665,0.01296 -2.802997,-0.004 -4.188527,0.196023 -1.236154,0.247329 -2.398148,0.72468 -3.582935,1.145878 -1.986922,0.682237 -3.88125,1.600898 -5.873522,2.271252 -1.935018,0.659321 -3.902092,1.253939 -5.917045,1.614178 -1.394807,0.294501 -2.810882,0.468296 -4.208146,0.752205 -1.706785,0.196968 -3.431218,0.26064 -5.119529,0.604626 0,0 6.757779,-5.082416 6.757779,-5.082416 z"
     id="path3041"
     style="fill:#000000;stroke:#000000" />
  <path
     d="m 371.81609,364.27791 c -2.28835,-1.29824 -4.71645,-2.31812 -7.08735,-3.45034 -2.37228,-0.9153 -4.71878,-1.88183 -7.0655,-2.86135 -2.09104,-0.82076 -4.29548,-1.22359 -6.51707,-1.48266 -2.40583,-0.33822 -4.81402,-0.0511 -7.21517,0.1616 -1.46837,0.24126 -3.00853,0.0404 -4.45541,0.38278 -1.33686,0.29302 -2.63004,0.6896 -3.98409,0.91982 -1.96059,0.43827 -3.9408,0.74793 -5.89193,1.23755 -1.88259,0.39957 -3.71351,0.98911 -5.59769,1.38191 -1.27107,0.25995 -2.56576,0.28116 -3.85736,0.29164 -1.68669,0.055 -3.35903,0.36269 -5.0464,0.4885 -2.05614,0.11298 -4.11602,0.12571 -6.17467,0.14467 -1.71556,0.057 -3.40291,0.0372 -5.09831,-0.22377 -1.72535,-0.27158 -3.46993,-0.35303 -5.21314,-0.40237 -1.92579,-0.0436 -3.85206,-0.0354 -5.77816,-0.0372 -1.53041,-0.14753 -2.92489,0.22803 -4.35301,0.70385 -1.3753,0.44563 -2.41067,0.57998 -3.82908,0.35942 -1.54531,-0.35719 -3.08474,-0.14945 -4.64092,-0.026 -2.03976,0.14518 -4.08306,0.22163 -6.12717,0.26747 -1.56533,0.0333 -3.13104,0.0234 -4.69657,0.032 -1.44146,0.12632 -2.83528,-0.17473 -4.2555,-0.35312 -2.29268,-0.24314 -4.60007,-0.28625 -6.90349,-0.31415 -1.72924,-0.11015 -3.39054,0.48886 -5.11357,0.3965 -1.93174,-0.31105 -3.84224,-0.68084 -5.80092,-0.85583 -2.80062,-0.20326 -5.61,-0.21539 -8.41649,-0.22886 -2.46018,-0.0162 -4.90277,-0.3632 -7.35997,-0.50103 -3.41078,-0.246 -6.82171,0.0363 -10.2256,0.25145 -2.61326,0.19682 -5.23355,0.23168 -7.85285,0.24095 -2.91404,-0.0197 -5.81672,-0.0474 -8.71863,0.23463 -2.06227,0.3669 -4.10192,0.26697 -6.17051,0.0866 -2.33858,-0.20117 -4.68618,-0.24879 -7.03193,-0.28428 -2.40172,-0.0523 -4.78928,-0.0801 -7.17513,0.21068 -2.10277,0.24474 -4.23986,-0.0243 -6.35094,-0.11057 -2.99954,-0.0374 -6.01282,-0.25704 -9.00706,-0.0196 -2.46332,0.2607 -4.95271,0.0592 -7.4235,-0.0122 -3.18927,-0.0306 -6.38737,-0.21559 -9.57213,0.002 -2.66047,0.26478 -5.34239,0.0677 -8.00921,-0.005 -3.11357,0.1239 -6.22188,0.3415 -9.33586,0.46022 -2.27137,0.22778 -4.52101,-0.0992 -6.77795,-0.30233 -2.7421,-0.20706 -5.49397,-0.23282 -8.24256,-0.24886 -2.28585,-0.0103 -4.57163,0.0155 -6.85745,0.0188 -2.49237,-0.008 -4.98472,-0.0215 -7.47712,-0.023 -2.55924,-10e-4 -5.118476,0.006 -7.677676,0.0202 -2.041651,-0.002 -4.083265,0.0106 -6.124889,-0.002 -2.701313,-0.27523 -5.408714,-0.4592 -8.121426,-0.56924 -2.058952,0.0688 -4.102858,0.33926 -6.156318,0.48843 -2.534611,-0.30273 -5.091894,-0.14206 -7.636668,-0.0763 -2.781293,-0.0662 -5.531291,0.33898 -8.294783,0.5652 -2.877944,0.47772 -5.795066,0.56557 -8.69077,0.86397 -2.697185,0.39104 -5.432367,0.40568 -8.132543,0.74115 -2.188647,0.23441 -4.332055,0.72681 -6.517062,0.98638 -2.391438,0.21541 -4.792955,0.25179 -7.1922,0.28777 -1.665283,0.0148 -3.330541,0.0239 -4.995893,0.0242 -1.210022,-8.1e-4 -2.419989,10e-4 -3.630005,0.003 -1.256005,0.0922 -2.464446,-0.26979 -3.695944,-0.45403 -0.987847,-0.18928 -2.016755,-0.0611 -2.98189,-0.33517 -1.216172,-0.19614 -1.894204,-0.82538 -2.432126,-1.87615 -0.15654,-0.69475 -0.124634,-0.36161 -0.121703,-0.99657 0,0 7.611128,-3.73287 7.611128,-3.73287 l 0,0 c -0.141424,0.34566 -0.09235,0.16835 -0.14924,0.53136 0.492569,0.9148 0.978528,1.0732 2.025957,1.23621 0.984057,0.0887 1.970218,0.15619 2.94525,0.32705 1.204579,0.20454 2.398129,0.43921 3.628694,0.33837 1.20414,0.002 2.408214,0.007 3.612353,0.0118 1.643187,0.007 3.286469,0.0246 4.929632,0.009 2.379806,-0.0253 4.765088,-0.0738 7.130116,-0.36339 2.174404,-0.31031 4.326682,-0.76684 6.517362,-0.9626 2.691398,-0.24374 5.395257,-0.35325 8.079035,-0.69053 2.920177,-0.26334 5.8438,-0.47829 8.74805,-0.89654 2.754271,-0.25354 5.507415,-0.51475 8.277453,-0.49037 2.576094,-0.0694 5.149899,-0.14513 7.724708,-0.0369 2.038804,-0.15173 4.076741,-0.38403 6.124324,-0.34391 2.718215,0.12906 5.428439,0.36429 8.145419,0.50673 2.043375,-0.0123 4.086745,-1.4e-4 6.130145,-0.002 2.54094,0.0141 5.08191,0.0213 7.62289,0.0194 2.51609,-0.002 5.03209,-0.0168 7.54814,-0.0291 2.26034,3.1e-4 4.52069,0.0236 6.78088,0.0468 2.78386,0.0342 5.57249,0.0337 8.34945,0.25537 2.21537,0.20256 4.42547,0.45369 6.65477,0.25898 3.12139,-0.12152 6.23805,-0.34719 9.36117,-0.41513 2.65866,0.0529 5.32477,0.18613 7.97874,-0.0484 3.20318,-0.1032 6.4092,0.0247 9.61322,0.0446 2.46652,0.0502 4.94092,0.18544 7.40204,-0.0538 3.01326,-0.0925 6.0287,0.0421 9.04204,0.0871 2.10747,0.0645 4.23038,0.26211 6.32942,-0.0186 2.39614,-0.21199 4.79736,-0.12614 7.20029,-0.10424 2.37016,0.0405 4.74118,0.1007 7.10446,0.29785 2.02635,0.14868 4.02963,0.10432 6.04799,-0.16731 2.90833,-0.21043 5.82021,-0.13256 8.73435,-0.16907 2.60378,-0.041 5.20714,-0.10669 7.80728,-0.25691 3.42894,-0.1798 6.86214,-0.41658 10.29573,-0.18814 2.45414,0.12789 4.89439,0.44748 7.35283,0.45843 2.82384,0.0277 5.6508,0.0622 8.46773,0.27806 1.95645,0.18384 3.87349,0.60645 5.8287,0.73882 1.69276,-0.10761 3.36939,-0.4897 5.07549,-0.34672 2.33055,0.0588 4.6651,0.11235 6.98472,0.36267 1.40709,0.16954 2.8056,0.31839 4.22669,0.24727 1.55179,0.009 3.10365,-5.8e-4 4.65527,-0.0246 2.03157,-0.0433 4.06334,-0.11989 6.088,-0.30005 1.60819,-0.13325 3.19675,-0.17889 4.79375,0.11501 1.23789,0.0797 2.43199,-0.25126 3.60357,-0.62843 1.46234,-0.4318 2.94214,-0.56272 4.46633,-0.46935 1.93235,-6.2e-4 3.8654,8.8e-4 5.79701,0.0575 1.77003,0.0675 3.53654,0.18005 5.28824,0.45758 1.6605,0.20775 3.32945,0.14241 5.00008,0.14333 2.04918,-0.0115 4.10113,-0.0319 6.14433,-0.20422 1.70432,-0.16765 3.40028,-0.46075 5.11583,-0.47042 1.25669,-0.04 2.51317,-0.126 3.74203,-0.41145 1.85153,-0.42744 3.67827,-0.9547 5.53638,-1.35571 1.98237,-0.45454 3.98466,-0.80376 5.96937,-1.24665 1.34715,-0.28491 2.65726,-0.72144 4.02378,-0.91549 1.4725,-0.1249 2.95345,-0.13645 4.4249,-0.28366 2.42766,-0.18749 4.85937,-0.37215 7.28258,0.003 2.27902,0.3039 4.55475,0.72818 6.67394,1.65628 2.32788,1.01385 4.69665,1.91751 7.02425,2.93004 2.43109,1.15512 4.92463,2.18155 7.2978,3.4564 0,0 -7.10758,4.55091 -7.10758,4.55091 z"
     id="path3043"
     style="fill:#000000;stroke:#000000" />
  <path
     d="m 19.146824,24.576721 c -1.509925,0.430729 -2.903976,1.028099 -4.270912,1.802207 10.953749,-6.552406 5.804757,-3.917957 3.338118,-0.406187 -1.188997,1.85663 -1.9026,3.894694 -2.31506,6.045464 -0.398763,2.748003 -0.386813,5.533652 -0.412555,8.304035 0.06374,3.569295 -0.07919,7.128043 -0.293364,10.689461 -0.247632,3.973173 0.318977,7.944431 0.5727,11.907233 0.267329,4.184862 0.196579,8.379101 0.60061,12.554276 0.571334,4.322076 0.785666,8.674346 0.937098,13.027458 0.09781,4.369491 0.08871,8.737193 0.318732,13.102282 0.424179,4.31378 0.743355,8.63482 0.962327,12.96354 0.376235,4.21282 0.577997,8.43412 0.685947,12.66138 0.09959,4.45662 0.12702,8.91455 0.144085,13.37214 -0.139462,4.26648 -0.493951,8.51987 -0.481346,12.79031 0.155165,4.27169 0.0071,8.54653 -0.07081,12.81833 -0.004,4.16846 -0.325108,8.32105 -0.314975,12.48913 0.03888,3.96409 0.100148,7.92445 0.352044,11.88101 0.189984,3.77474 0.500515,7.54154 0.944337,11.29485 0.377784,3.31824 0.89343,6.61829 1.212777,9.94311 0.111153,3.33426 0.579785,6.62696 1.021873,9.92836 0.286953,3.16104 0.716579,6.30646 1.01965,9.46576 0.384371,2.68369 0.681095,5.37393 0.840274,8.08025 0.125777,2.50121 0.13906,5.00606 0.144904,7.50986 0.24229,2.28319 0.182742,4.57595 0.320018,6.8648 0.211493,2.18453 0.209815,4.38111 0.361285,6.56832 0.288303,2.82796 0.430561,5.66713 0.533715,8.50695 0.278246,2.759 0.416191,5.53043 0.678184,8.29024 0.334123,2.82796 0.523533,5.67032 0.644573,8.51457 0.0811,2.29621 0.101051,4.5938 0.09968,6.89124 -0.0047,2.28229 -0.01195,4.56462 -0.0053,6.84691 0.07553,1.79235 -0.244013,3.56395 -0.427259,5.33974 -0.0895,1.30611 -0.445978,2.56998 -0.642989,3.86102 -0.326632,1.32309 0.155741,2.48416 0.523316,3.73315 0.622212,1.58917 0.809799,3.22256 0.800558,4.91394 -0.05503,1.26982 -0.138292,2.53781 -0.179976,3.80827 -0.103325,1.34232 -0.678791,2.58017 -1.004019,3.87691 -0.30727,1.26112 -0.378098,2.55043 -0.249745,3.83693 0.647646,3.66431 0.801244,7.388 0.912752,11.09979 0.02605,0.75781 0.0521,1.51561 0.07815,2.27342 0,0 -7.234714,3.71199 -7.234714,3.71199 l 0,0 c -0.01674,-0.75966 -0.03347,-1.51931 -0.05021,-2.27897 -0.166937,-3.64895 -0.319489,-7.31959 -1.100111,-10.90083 -0.261099,-1.36583 -0.251034,-2.72995 0.03721,-4.09712 0.310541,-1.26056 0.763843,-2.46927 1.089871,-3.71736 0.03178,-1.27425 0.09265,-2.54706 0.197452,-3.81761 0.08782,-1.62179 -0.03071,-3.16476 -0.687822,-4.67712 -0.382789,-1.34175 -0.997989,-2.61879 -0.692568,-4.04358 0.162178,-1.29783 0.513028,-2.55354 0.668828,-3.84741 0.205101,-1.75941 0.549383,-3.51246 0.528061,-5.28834 0.0095,-2.28169 0.0078,-4.56346 0.0045,-6.84516 -0.0049,-2.29382 0.0081,-4.5881 -0.05266,-6.88134 -0.08967,-2.83341 -0.243314,-5.66497 -0.600909,-8.47917 -0.288585,-2.77366 -0.406417,-5.5643 -0.70667,-8.33802 -0.07924,-2.82427 -0.212037,-5.64757 -0.54366,-8.45531 -0.206926,-2.18606 -0.196445,-4.38535 -0.384783,-6.57396 -0.152317,-2.30753 -0.06383,-4.61649 -0.328856,-6.9172 -0.0048,-2.49303 -0.0027,-4.98703 -0.108813,-7.47832 -0.142274,-2.70088 -0.411335,-5.38855 -0.80728,-8.06473 -0.271035,-3.15783 -0.684619,-6.30068 -0.962939,-9.45773 -0.429813,-3.31108 -0.975496,-6.60449 -1.042431,-9.95162 -0.310733,-3.32216 -0.824124,-6.61759 -1.186595,-9.93404 -0.455785,-3.76987 -0.716445,-7.56141 -0.931736,-11.35179 -0.260951,-3.974 -0.337714,-7.95036 -0.362188,-11.93291 -0.01047,-4.17308 0.297504,-8.33048 0.304056,-12.50352 0.08677,-4.27192 0.270461,-8.54734 0.12017,-12.81943 -0.04669,-4.26532 0.234234,-8.51823 0.444603,-12.77674 0.0053,-4.45841 0.0169,-8.91734 -0.09068,-13.37484 -0.130446,-4.21573 -0.36891,-8.42397 -0.723294,-12.62715 -0.167862,-4.33116 -0.48879,-8.6506 -0.954406,-12.96036 C 10.138,100.97169 10.153209,96.596735 10.070294,92.216414 9.9337969,87.884415 9.687901,83.556461 9.1204945,79.256373 8.6907221,75.0709 8.7793037,70.86736 8.5223297,66.669804 8.252859,62.684372 7.6648161,58.692321 7.8535181,54.696925 8.0595365,51.15438 8.2535279,47.61728 8.1296201,44.066471 c -3.819e-4,-2.798653 -0.044447,-5.609897 0.2823118,-8.394174 0.3497608,-2.237922 0.9956728,-4.351865 2.1386511,-6.325178 2.463728,-4.306125 6.273128,-5.768071 10.860758,-8.222556 1.432845,-0.713377 2.918612,-1.309577 4.493262,-1.630258 0,0 -6.757779,5.082416 -6.757779,5.082416 z"
     id="path3045"
     style="fill:#000000;stroke:#000000" />
</svg>
